<svg width="121" height="28" viewBox="0 0 121 28" fill="none" xmlns="http://www.w3.org/2000/svg">
<g id="Group 988">
<path id="Path 1" d="M32.6309 27.6251H22.6348L16.5677 17.2719H26.5565L32.6309 27.6251Z" fill="#81003C"/>
<path id="Path 2" d="M16.5322 0.374878L21.5411 8.80421L10.4723 27.6236H0.500122L16.5322 0.374878Z" fill="#81003C"/>
<g id="Group 2">
<g id="Group 1">
<path id="Path 3" d="M39.5947 15.1473H34.6408L33.44 17.2951H31.563L37.1792 7.39661L42.6847 17.2951H40.7817L39.5947 15.1473ZM35.3726 13.7972H38.8911L37.1662 10.5296L35.3726 13.7972ZM46.5919 12.2984L43.3079 7.74795H45.3223L47.6125 11.0432L49.9172 7.74795H51.9048L48.5796 12.3125L52.1814 17.2957H50.1669L47.5727 13.6223L44.951 17.2957H42.9243L46.5919 12.2984ZM53.713 7.74795H55.461V17.2957H53.7086L53.713 7.74795ZM62.7377 9.92187C62.5545 9.61617 62.2931 9.3625 61.9791 9.18589C61.637 9.01761 61.2572 8.93624 60.8745 8.94929C60.4667 8.92204 60.0625 9.03948 59.736 9.2801C59.6107 9.38048 59.5102 9.50729 59.4422 9.65107C59.3741 9.79485 59.3402 9.95185 59.3429 10.1103C59.3429 10.6685 59.7616 11.0647 60.5988 11.2989L61.7721 11.6368C62.5611 11.8188 63.284 12.2088 63.8625 12.7645C64.3035 13.233 64.5432 13.8496 64.5321 14.4865C64.5354 14.8938 64.4482 15.2969 64.2766 15.668C64.1068 16.0317 63.8572 16.3544 63.5455 16.6129C63.2049 16.891 62.814 17.1041 62.3932 17.2412C61.9084 17.3994 61.4 17.477 60.889 17.4707C59.9521 17.5218 59.0246 17.2653 58.2536 16.7418C57.9257 16.4849 57.6541 16.166 57.4552 15.804C57.2562 15.442 57.1338 15.0445 57.0954 14.6352L58.8066 14.3242C58.8605 14.839 59.1032 15.3172 59.4899 15.6701C59.8874 15.9767 60.3849 16.1325 60.8905 16.1086C61.3885 16.1409 61.8808 15.9892 62.2701 15.6835C62.428 15.546 62.5531 15.3761 62.6365 15.186C62.7199 14.996 62.7596 14.7903 62.7529 14.5835C62.7588 14.37 62.7163 14.1578 62.6284 13.9623C62.5441 13.7895 62.4244 13.6357 62.2766 13.5103C62.1155 13.3741 61.9341 13.2626 61.7388 13.1796C61.5209 13.0858 61.2976 13.0047 61.07 12.9366L59.9379 12.6122C59.26 12.4521 58.6397 12.1136 58.1443 11.6332C57.7594 11.2181 57.5522 10.6742 57.5652 10.1138C57.5606 9.76304 57.6399 9.41606 57.7969 9.10068C57.9539 8.78529 58.1841 8.51027 58.4693 8.29763C58.7803 8.06646 59.1304 7.89048 59.5036 7.77769C59.9394 7.64657 60.3934 7.58276 60.8492 7.58857C61.5679 7.55954 62.2817 7.71563 62.9194 8.04121C63.4339 8.3236 63.8515 8.74875 64.1195 9.26309L62.7377 9.92187Z" fill="#81003C"/>
<path id="Path 4" d="M71.182 7.74855H74.7013C75.4457 7.74052 76.1858 7.8604 76.8879 8.10272C77.5085 8.3151 78.0787 8.6481 78.5643 9.08167C79.0245 9.50056 79.3886 10.0102 79.6327 10.577C79.8909 11.1826 80.02 11.8334 80.012 12.4895C80.0195 13.1539 79.8905 13.8129 79.6327 14.4276C79.3892 15.0038 79.0247 15.5236 78.5629 15.9533C78.082 16.3929 77.5135 16.7305 76.893 16.945C76.1887 17.1885 75.446 17.3084 74.6991 17.2992H71.1798L71.182 7.74855ZM74.6564 15.8648C75.168 15.8728 75.6771 15.793 76.1605 15.6289C76.5787 15.4856 76.9601 15.2551 77.2781 14.9532C77.5874 14.6517 77.8253 14.2876 77.9751 13.8864C78.1409 13.4383 78.2226 12.9646 78.2162 12.4881C78.2226 12.0208 78.1409 11.5564 77.9751 11.1182C77.8239 10.7234 77.586 10.366 77.2781 10.0712C76.9589 9.77406 76.5776 9.54831 76.1605 9.40962C75.6761 9.24999 75.1674 9.17239 74.6564 9.18014H72.9315V15.8648H74.6564Z" fill="#81003C"/>
<path id="Path 5" d="M81.7381 7.74817H83.4898V17.296H81.7381V7.74817Z" fill="#81003C"/>
<path id="Path 6" d="M85.6992 7.74727H88.6799C89.6894 7.67932 90.6917 7.95622 91.5159 8.53071C91.8368 8.79042 92.0918 9.11953 92.2606 9.49211C92.4294 9.86469 92.5075 10.2706 92.4887 10.6777C92.5137 11.3347 92.2929 11.9779 91.8676 12.4868C91.3866 13.0013 90.7468 13.3476 90.0458 13.4728L93.413 17.2979H91.2741L88.2108 13.6145H87.4523V17.2979H85.6992V7.74727ZM87.4516 9.11156V12.2446H88.6517C89.1975 12.2818 89.7407 12.1419 90.1971 11.8465C90.3627 11.698 90.4949 11.5174 90.5854 11.3162C90.6758 11.1149 90.7225 10.8975 90.7225 10.6777C90.7225 10.4579 90.6758 10.2405 90.5854 10.0393C90.4949 9.83805 90.3627 9.65744 90.1971 9.50893C89.7407 9.21353 89.1975 9.07363 88.6517 9.11085L87.4516 9.11156Z" fill="#81003C"/>
<path id="Path 7" d="M94.668 7.74817H100.821V9.17976H96.4189V11.6243H100.421V13.0558H96.4189V15.8644H100.834V17.296H94.6658L94.668 7.74817Z" fill="#81003C"/>
<path id="Path 8" d="M111.738 14.9726C111.39 15.7359 110.812 16.3768 110.082 16.8093C109.242 17.2905 108.281 17.5295 107.309 17.4985C106.604 17.5052 105.903 17.3908 105.238 17.1606C104.622 16.9502 104.058 16.6129 103.586 16.1714C103.113 15.73 102.743 15.1946 102.5 14.6014C102.227 13.934 102.093 13.2203 102.106 12.5018C102.099 11.8245 102.228 11.1524 102.485 10.5234C102.728 9.93103 103.092 9.39349 103.555 8.94383C104.029 8.48896 104.592 8.1328 105.211 7.89687C105.888 7.63866 106.61 7.51025 107.336 7.51862C108.227 7.48867 109.111 7.68385 109.903 8.08531C110.556 8.42919 111.104 8.93729 111.49 9.55726L110.206 10.3811C109.885 9.92619 109.45 9.55902 108.944 9.31428C108.441 9.08481 107.891 8.96932 107.336 8.97641C106.848 8.96924 106.364 9.06115 105.915 9.2463C105.504 9.41711 105.134 9.67021 104.829 9.98934C104.525 10.312 104.291 10.6909 104.139 11.1036C103.974 11.5517 103.892 12.0249 103.897 12.5011C103.89 13.0008 103.977 13.4976 104.153 13.9667C104.309 14.382 104.551 14.7613 104.864 15.081C105.171 15.389 105.541 15.6303 105.949 15.7893C106.387 15.9596 106.854 16.0445 107.325 16.0393C107.972 16.0609 108.612 15.8916 109.16 15.5534C109.659 15.2271 110.063 14.7804 110.334 14.2564L111.738 14.9726Z" fill="#81003C"/>
<path id="Path 9" d="M112.538 7.74817H120.5V9.17976H117.395V17.296H115.642V9.17904H112.538V7.74817Z" fill="#81003C"/>
</g>
</g>
</g>
</svg>
