<svg width="319" height="189" viewBox="0 0 370 231" fill="none" xmlns="http://www.w3.org/2000/svg">
<g filter="url(#filter0_d_1325_42590)">
<rect x="31" y="20" width="318.667" height="189" rx="16" fill="white" shape-rendering="crispEdges"/>
<path d="M60.5781 74V58H66.7031C67.8594 58 68.8203 58.1823 69.5859 58.5469C70.3568 58.9062 70.9323 59.3984 71.3125 60.0234C71.6979 60.6484 71.8906 61.3568 71.8906 62.1484C71.8906 62.7995 71.7656 63.3568 71.5156 63.8203C71.2656 64.2786 70.9297 64.651 70.5078 64.9375C70.0859 65.224 69.6146 65.4297 69.0938 65.5547V65.7109C69.6615 65.7422 70.2057 65.9167 70.7266 66.2344C71.2526 66.5469 71.6823 66.9896 72.0156 67.5625C72.349 68.1354 72.5156 68.8281 72.5156 69.6406C72.5156 70.4687 72.3151 71.2135 71.9141 71.875C71.513 72.5312 70.9089 73.0495 70.1016 73.4297C69.2943 73.8099 68.2786 74 67.0547 74H60.5781ZM63.4766 71.5781H66.5938C67.6458 71.5781 68.4036 71.3776 68.8672 70.9766C69.3359 70.5703 69.5703 70.0495 69.5703 69.4141C69.5703 68.9401 69.4531 68.513 69.2188 68.1328C68.9844 67.7474 68.651 67.4453 68.2188 67.2266C67.7865 67.0026 67.2708 66.8906 66.6719 66.8906H63.4766V71.5781ZM63.4766 64.8047H66.3438C66.8438 64.8047 67.2943 64.7135 67.6953 64.5312C68.0964 64.3437 68.4115 64.0807 68.6406 63.7422C68.875 63.3984 68.9922 62.9922 68.9922 62.5234C68.9922 61.9036 68.7734 61.3932 68.3359 60.9922C67.9036 60.5911 67.2604 60.3906 66.4063 60.3906H63.4766V64.8047ZM74.4721 74V62H77.2143V64H77.3393C77.558 63.3073 77.933 62.7734 78.4643 62.3984C79.0008 62.0182 79.6127 61.8281 80.3002 61.8281C80.4565 61.8281 80.631 61.8359 80.8237 61.8516C81.0216 61.862 81.1857 61.8802 81.3159 61.9062V64.5078C81.1961 64.4661 81.006 64.4297 80.7455 64.3984C80.4903 64.362 80.2429 64.3437 80.0034 64.3437C79.4877 64.3437 79.0242 64.4557 78.6127 64.6797C78.2065 64.8984 77.8862 65.2031 77.6518 65.5937C77.4174 65.9844 77.3002 66.4349 77.3002 66.9453V74H74.4721ZM87.495 74.2344C86.3231 74.2344 85.3075 73.9766 84.4481 73.4609C83.5888 72.9453 82.9221 72.224 82.4481 71.2969C81.9794 70.3698 81.745 69.2865 81.745 68.0469C81.745 66.8073 81.9794 65.7214 82.4481 64.7891C82.9221 63.8568 83.5888 63.1328 84.4481 62.6172C85.3075 62.1016 86.3231 61.8438 87.495 61.8438C88.6669 61.8438 89.6825 62.1016 90.5419 62.6172C91.4013 63.1328 92.0653 63.8568 92.5341 64.7891C93.008 65.7214 93.245 66.8073 93.245 68.0469C93.245 69.2865 93.008 70.3698 92.5341 71.2969C92.0653 72.224 91.4013 72.9453 90.5419 73.4609C89.6825 73.9766 88.6669 74.2344 87.495 74.2344ZM87.5106 71.9687C88.146 71.9687 88.6773 71.7943 89.1044 71.4453C89.5315 71.0911 89.8492 70.6172 90.0575 70.0234C90.271 69.4297 90.3778 68.7682 90.3778 68.0391C90.3778 67.3047 90.271 66.6406 90.0575 66.0469C89.8492 65.4479 89.5315 64.9714 89.1044 64.6172C88.6773 64.263 88.146 64.0859 87.5106 64.0859C86.8596 64.0859 86.3179 64.263 85.8856 64.6172C85.4585 64.9714 85.1382 65.4479 84.9247 66.0469C84.7164 66.6406 84.6122 67.3047 84.6122 68.0391C84.6122 68.7682 84.7164 69.4297 84.9247 70.0234C85.1382 70.6172 85.4585 71.0911 85.8856 71.4453C86.3179 71.7943 86.8596 71.9687 87.5106 71.9687ZM97.7835 70.2344L97.7757 66.8203H98.2288L102.541 62H105.846L100.541 67.9062H99.9554L97.7835 70.2344ZM95.2054 74V58H98.0335V74H95.2054ZM102.737 74L98.8304 68.5391L100.737 66.5469L106.119 74H102.737ZM112.109 74.2344C110.906 74.2344 109.867 73.9844 108.992 73.4844C108.122 72.9792 107.453 72.2656 106.984 71.3437C106.515 70.4167 106.281 69.3255 106.281 68.0703C106.281 66.8359 106.515 65.7526 106.984 64.8203C107.458 63.8828 108.12 63.1536 108.969 62.6328C109.817 62.1068 110.815 61.8438 111.961 61.8438C112.7 61.8438 113.398 61.9635 114.054 62.2031C114.716 62.4375 115.299 62.8021 115.804 63.2969C116.315 63.7917 116.716 64.4219 117.008 65.1875C117.299 65.9479 117.445 66.8542 117.445 67.9062V68.7734H107.609V66.8672H114.734C114.729 66.3255 114.612 65.8437 114.383 65.4219C114.153 64.9948 113.833 64.6589 113.422 64.4141C113.015 64.1693 112.541 64.0469 112 64.0469C111.422 64.0469 110.914 64.1875 110.476 64.4687C110.039 64.7448 109.698 65.1094 109.453 65.5625C109.213 66.0104 109.091 66.5026 109.086 67.0391V68.7031C109.086 69.401 109.213 70 109.469 70.5C109.724 70.9948 110.08 71.375 110.539 71.6406C110.997 71.901 111.534 72.0312 112.148 72.0312C112.56 72.0312 112.932 71.974 113.265 71.8594C113.599 71.7396 113.888 71.5651 114.133 71.3359C114.377 71.1068 114.562 70.8229 114.687 70.4844L117.328 70.7812C117.161 71.4792 116.844 72.0885 116.375 72.6094C115.911 73.125 115.317 73.526 114.594 73.8125C113.87 74.0937 113.041 74.2344 112.109 74.2344ZM119.398 74V62H122.14V64H122.265C122.484 63.3073 122.859 62.7734 123.39 62.3984C123.926 62.0182 124.538 61.8281 125.226 61.8281C125.382 61.8281 125.557 61.8359 125.749 61.8516C125.947 61.862 126.111 61.8802 126.241 61.9062V64.5078C126.122 64.4661 125.932 64.4297 125.671 64.3984C125.416 64.362 125.168 64.3437 124.929 64.3437C124.413 64.3437 123.95 64.4557 123.538 64.6797C123.132 64.8984 122.812 65.2031 122.577 65.5937C122.343 65.9844 122.226 66.4349 122.226 66.9453V74H119.398ZM137.165 65.1719L134.587 65.4531C134.514 65.1927 134.386 64.9479 134.204 64.7188C134.027 64.4896 133.787 64.3047 133.485 64.1641C133.183 64.0234 132.813 63.9531 132.376 63.9531C131.787 63.9531 131.292 64.0807 130.891 64.3359C130.495 64.5911 130.3 64.9219 130.305 65.3281C130.3 65.6771 130.428 65.9609 130.688 66.1797C130.954 66.3984 131.391 66.5781 132.001 66.7188L134.048 67.1562C135.183 67.401 136.027 67.7891 136.579 68.3203C137.136 68.8516 137.417 69.5469 137.423 70.4062C137.417 71.1615 137.196 71.8281 136.758 72.4062C136.326 72.9792 135.725 73.4271 134.954 73.75C134.183 74.0729 133.298 74.2344 132.298 74.2344C130.829 74.2344 129.646 73.9271 128.751 73.3125C127.855 72.6927 127.321 71.8307 127.149 70.7266L129.907 70.4609C130.032 71.0026 130.298 71.4115 130.704 71.6875C131.11 71.9635 131.639 72.1016 132.29 72.1016C132.962 72.1016 133.501 71.9635 133.907 71.6875C134.318 71.4115 134.524 71.0703 134.524 70.6641C134.524 70.3203 134.391 70.0365 134.126 69.8125C133.865 69.5885 133.459 69.4167 132.907 69.2969L130.86 68.8672C129.709 68.6276 128.857 68.224 128.305 67.6562C127.753 67.0833 127.48 66.3594 127.485 65.4844C127.48 64.7448 127.68 64.1042 128.087 63.5625C128.498 63.0156 129.068 62.5937 129.798 62.2969C130.532 61.9948 131.378 61.8438 132.337 61.8438C133.743 61.8438 134.85 62.1432 135.657 62.7422C136.469 63.3411 136.972 64.151 137.165 65.1719Z" fill="#2B70C5"/>
<path d="M69.4898 152C67.481 152 65.5174 152.596 63.8472 153.712C62.1771 154.828 60.8753 156.414 60.1066 158.27C59.3379 160.125 59.1368 162.168 59.5287 164.138C59.9205 166.108 60.8878 167.917 62.3082 169.338C63.7286 170.758 65.5382 171.725 67.5084 172.117C69.4785 172.509 71.5206 172.308 73.3764 171.539C75.2322 170.771 76.8184 169.469 77.9344 167.799C79.0504 166.129 79.646 164.165 79.646 162.156C79.6432 159.464 78.5722 156.882 76.6682 154.978C74.7641 153.074 72.1825 152.003 69.4898 152ZM73.9487 162.709L70.8237 165.834C70.6771 165.981 70.4783 166.063 70.271 166.063C70.0637 166.063 69.8649 165.981 69.7183 165.834C69.5717 165.687 69.4893 165.489 69.4893 165.281C69.4893 165.074 69.5717 164.875 69.7183 164.729L71.5103 162.938H65.5835C65.3763 162.938 65.1776 162.855 65.0311 162.709C64.8846 162.562 64.8023 162.363 64.8023 162.156C64.8023 161.949 64.8846 161.75 65.0311 161.604C65.1776 161.457 65.3763 161.375 65.5835 161.375H71.5103L69.7183 159.584C69.5717 159.437 69.4893 159.239 69.4893 159.031C69.4893 158.824 69.5717 158.625 69.7183 158.479C69.8649 158.332 70.0637 158.25 70.271 158.25C70.4783 158.25 70.6771 158.332 70.8237 158.479L73.9487 161.604C74.0214 161.676 74.079 161.762 74.1183 161.857C74.1576 161.952 74.1779 162.054 74.1779 162.156C74.1779 162.259 74.1576 162.361 74.1183 162.455C74.079 162.55 74.0214 162.636 73.9487 162.709Z" fill="#00CC8F"/>
<path d="M167.967 156.69H167.289V158.734H167.967V156.69Z" fill="#E5E5E5"/>
<path d="M167.967 202.272H167.289V197.918H167.967V202.272ZM167.967 193.565H167.289V189.211H167.967V193.565ZM167.967 184.857H167.289V180.503H167.967V184.857ZM167.967 176.149H167.289V171.795H167.967V176.149ZM167.967 167.442H167.289V163.088H167.967V167.442Z" fill="#D1D1D1"/>
<path d="M167.967 206.626H167.289V208.669H167.967V206.626Z" fill="#D1D1D1"/>
<path d="M242.236 156.69H241.558V158.734H242.236V156.69Z" fill="#E5E5E5"/>
<path d="M242.236 202.272H241.558V197.918H242.236V202.272ZM242.236 193.565H241.558V189.211H242.236V193.565ZM242.236 184.857H241.558V180.503H242.236V184.857ZM242.236 176.149H241.558V171.795H242.236V176.149ZM242.236 167.442H241.558V163.088H242.236V167.442Z" fill="#D1D1D1"/>
<path d="M242.236 206.626H241.558V208.669H242.236V206.626Z" fill="#D1D1D1"/>
<path d="M279.7 116.716H279.021V118.759H279.7V116.716Z" fill="#E5E5E5"/>
<path d="M279.7 202.442H279.021V198.258H279.7V202.442ZM279.7 194.074H279.021V189.889H279.7V194.074ZM279.7 185.705H279.021V181.521H279.7V185.705ZM279.7 177.337H279.021V173.153H279.7V177.337ZM279.7 168.969H279.021V164.785H279.7V168.969ZM279.7 160.6H279.021V156.416H279.7V160.6ZM279.7 152.232H279.021V148.048H279.7V152.232ZM279.7 143.864H279.021V139.68H279.7V143.864ZM279.7 135.496H279.021V131.312H279.7V135.496ZM279.7 127.127H279.021V122.943H279.7V127.127Z" fill="#D1D1D1"/>
<path d="M279.7 206.626H279.021V208.669H279.7V206.626Z" fill="#D1D1D1"/>
<path d="M316.789 100.369H316.111V102.413H316.789V100.369Z" fill="#E5E5E5"/>
<path d="M316.789 202.458H316.111V198.289H316.789V202.458ZM316.789 194.121H316.111V189.952H316.789V194.121ZM316.789 185.784H316.111V181.615H316.789V185.784ZM316.789 177.446H316.111V173.278H316.789V177.446ZM316.789 169.109H316.111V164.941H316.789V169.109ZM316.789 160.772H316.111V156.604H316.789V160.772ZM316.789 152.435H316.111V148.267H316.789V152.435ZM316.789 144.098H316.111V139.929H316.789V144.098ZM316.789 135.761H316.111V131.592H316.789V135.761ZM316.789 127.424H316.111V123.255H316.789V127.424ZM316.789 119.087H316.111V114.918H316.789V119.087ZM316.789 110.75H316.111V106.581H316.789V110.75Z" fill="#D1D1D1"/>
<path d="M316.789 206.626H316.111V208.669H316.789V206.626Z" fill="#D1D1D1"/>
<path d="M205.271 129.316H204.592V131.36H205.271V129.316Z" fill="#E5E5E5"/>
<path d="M205.271 202.665H204.592V198.704H205.271V202.665ZM205.271 194.742H204.592V190.781H205.271V194.742ZM205.271 186.82H204.592V182.858H205.271V186.82ZM205.271 178.897H204.592V174.936H205.271V178.897ZM205.271 170.974H204.592V167.013H205.271V170.974ZM205.271 163.052H204.592V159.09H205.271V163.052ZM205.271 155.129H204.592V151.168H205.271V155.129ZM205.271 147.206H204.592V143.245H205.271V147.206ZM205.271 139.284H204.592V135.322H205.271V139.284Z" fill="#D1D1D1"/>
<path d="M205.271 206.626H204.592V208.669H205.271V206.626Z" fill="#D1D1D1"/>
<path d="M242.205 157.639L204.872 129.558L168.049 157.255L167.207 156.126L204.872 127.794L242.027 155.742L278.949 115.165L279.098 115.105L316.342 100.035L316.867 101.345L279.771 116.354L242.205 157.639Z" fill="#303236"/>
<path d="M167.628 160.925C169.957 160.925 171.844 159.029 171.844 156.69C171.844 154.352 169.957 152.456 167.628 152.456C165.299 152.456 163.412 154.352 163.412 156.69C163.412 159.029 165.299 160.925 167.628 160.925Z" fill="#2B70C5"/>
<path d="M204.872 133.403C207.201 133.403 209.088 131.507 209.088 129.169C209.088 126.83 207.201 124.935 204.872 124.935C202.543 124.935 200.656 126.83 200.656 129.169C200.656 131.507 202.543 133.403 204.872 133.403Z" fill="#2B70C5"/>
<path d="M242.116 160.925C244.445 160.925 246.333 159.029 246.333 156.69C246.333 154.352 244.445 152.456 242.116 152.456C239.788 152.456 237.9 154.352 237.9 156.69C237.9 159.029 239.788 160.925 242.116 160.925Z" fill="#00CC8F"/>
<path d="M279.36 119.994C281.689 119.994 283.577 118.098 283.577 115.76C283.577 113.421 281.689 111.525 279.36 111.525C277.032 111.525 275.144 113.421 275.144 115.76C275.144 118.098 277.032 119.994 279.36 119.994Z" fill="#2B70C5"/>
<path d="M316.604 104.468C318.933 104.468 320.821 102.573 320.821 100.234C320.821 97.8957 318.933 96 316.604 96C314.276 96 312.388 97.8957 312.388 100.234C312.388 102.573 314.276 104.468 316.604 104.468Z" fill="#2B70C5"/>
<rect x="31" y="20" width="318.667" height="189" rx="16" stroke="#1566D6" stroke-opacity="0.24" stroke-width="2" shape-rendering="crispEdges"/>
</g>
<defs>
<filter id="filter0_d_1325_42590" x="0" y="-11" width="392.667" height="263" filterUnits="userSpaceOnUse" color-interpolation-filters="sRGB">
<feFlood flood-opacity="0" result="BackgroundImageFix"/>
<feColorMatrix in="SourceAlpha" type="matrix" values="0 0 0 0 0 0 0 0 0 0 0 0 0 0 0 0 0 0 127 0" result="hardAlpha"/>
<feOffset dx="6" dy="6"/>
<feGaussianBlur stdDeviation="18"/>
<feComposite in2="hardAlpha" operator="out"/>
<feColorMatrix type="matrix" values="0 0 0 0 0.0823529 0 0 0 0 0.4 0 0 0 0 0.839216 0 0 0 0.1 0"/>
<feBlend mode="normal" in2="BackgroundImageFix" result="effect1_dropShadow_1325_42590"/>
<feBlend mode="normal" in="SourceGraphic" in2="effect1_dropShadow_1325_42590" result="shape"/>
</filter>
</defs>
</svg>
