<svg width="319" height="189" viewBox="0 0 319 189" fill="none" xmlns="http://www.w3.org/2000/svg">
<rect width="318.667" height="189" rx="16" fill="white"/>
<rect width="318.667" height="189" rx="16" fill="#1566D6"/>
<path d="M29.7578 54V38H35.6172C36.7526 38 37.6927 38.1875 38.4375 38.5625C39.1823 38.9323 39.7396 39.4349 40.1094 40.0703C40.4792 40.7005 40.6641 41.4115 40.6641 42.2031C40.6641 42.8698 40.5417 43.4323 40.2969 43.8906C40.0521 44.3437 39.724 44.7083 39.3125 44.9844C38.9063 45.2552 38.4583 45.4531 37.9688 45.5781V45.7344C38.5 45.7604 39.0182 45.9323 39.5234 46.25C40.0339 46.5625 40.4557 47.0078 40.7891 47.5859C41.1224 48.1641 41.2891 48.8672 41.2891 49.6953C41.2891 50.513 41.0964 51.2474 40.7109 51.8984C40.3307 52.5443 39.7422 53.0573 38.9453 53.4375C38.1484 53.8125 37.1302 54 35.8906 54H29.7578ZM32.1719 51.9297H35.6563C36.8125 51.9297 37.6406 51.7057 38.1406 51.2578C38.6406 50.8099 38.8906 50.25 38.8906 49.5781C38.8906 49.0729 38.763 48.6094 38.5078 48.1875C38.2526 47.7656 37.888 47.4297 37.4141 47.1797C36.9453 46.9297 36.388 46.8047 35.7422 46.8047H32.1719V51.9297ZM32.1719 44.9219H35.4063C35.9479 44.9219 36.4349 44.8177 36.8672 44.6094C37.3047 44.401 37.651 44.1094 37.9063 43.7344C38.1667 43.3542 38.2969 42.9062 38.2969 42.3906C38.2969 41.7292 38.0651 41.1745 37.6016 40.7266C37.138 40.2786 36.4271 40.0547 35.4688 40.0547H32.1719V44.9219ZM43.5248 54V42H45.7827V43.9062H45.9077C46.1264 43.2604 46.5118 42.7526 47.0639 42.3828C47.6212 42.0078 48.2514 41.8203 48.9545 41.8203C49.1004 41.8203 49.2722 41.8255 49.4702 41.8359C49.6733 41.8464 49.8321 41.8594 49.9467 41.875V44.1094C49.853 44.0833 49.6863 44.0547 49.4467 44.0234C49.2071 43.987 48.9676 43.9687 48.728 43.9687C48.1759 43.9687 47.6837 44.0859 47.2514 44.3203C46.8243 44.5495 46.4858 44.8698 46.2358 45.2812C45.9858 45.6875 45.8608 46.151 45.8608 46.6719V54H43.5248ZM56.1532 54.2422C55.0282 54.2422 54.0464 53.9844 53.2079 53.4687C52.3693 52.9531 51.7183 52.2318 51.2548 51.3047C50.7912 50.3776 50.5595 49.2943 50.5595 48.0547C50.5595 46.8099 50.7912 45.7214 51.2548 44.7891C51.7183 43.8568 52.3693 43.1328 53.2079 42.6172C54.0464 42.1016 55.0282 41.8438 56.1532 41.8438C57.2782 41.8438 58.26 42.1016 59.0985 42.6172C59.9371 43.1328 60.5881 43.8568 61.0516 44.7891C61.5152 45.7214 61.747 46.8099 61.747 48.0547C61.747 49.2943 61.5152 50.3776 61.0516 51.3047C60.5881 52.2318 59.9371 52.9531 59.0985 53.4687C58.26 53.9844 57.2782 54.2422 56.1532 54.2422ZM56.161 52.2812C56.8902 52.2812 57.4944 52.0885 57.9735 51.7031C58.4527 51.3177 58.8069 50.8047 59.036 50.1641C59.2704 49.5234 59.3876 48.8177 59.3876 48.0469C59.3876 47.2812 59.2704 46.5781 59.036 45.9375C58.8069 45.2917 58.4527 44.7734 57.9735 44.3828C57.4944 43.9922 56.8902 43.7969 56.161 43.7969C55.4266 43.7969 54.8173 43.9922 54.3329 44.3828C53.8537 44.7734 53.497 45.2917 53.2626 45.9375C53.0334 46.5781 52.9188 47.2812 52.9188 48.0469C52.9188 48.8177 53.0334 49.5234 53.2626 50.1641C53.497 50.8047 53.8537 51.3177 54.3329 51.7031C54.8173 52.0885 55.4266 52.2812 56.161 52.2812ZM66.0628 49.9297L66.0472 47.0781H66.4534L71.2347 42H74.0316L68.5784 47.7812H68.2113L66.0628 49.9297ZM63.9144 54V38H66.2503V54H63.9144ZM71.4925 54L67.1956 48.2969L68.805 46.6641L74.3597 54H71.4925ZM80.3982 54.2422C79.2159 54.2422 78.1977 53.9896 77.3435 53.4844C76.4946 52.974 75.8383 52.2578 75.3748 51.3359C74.9164 50.4089 74.6873 49.3229 74.6873 48.0781C74.6873 46.849 74.9164 45.7656 75.3748 44.8281C75.8383 43.8906 76.4841 43.1589 77.3123 42.6328C78.1456 42.1068 79.1196 41.8438 80.2341 41.8438C80.9112 41.8438 81.5675 41.9557 82.2029 42.1797C82.8383 42.4036 83.4086 42.7552 83.9138 43.2344C84.419 43.7135 84.8175 44.3359 85.1091 45.1016C85.4008 45.862 85.5466 46.7865 85.5466 47.875V48.7031H76.0076V46.9531H83.2576C83.2576 46.3385 83.1326 45.7943 82.8826 45.3203C82.6326 44.8411 82.281 44.4635 81.8279 44.1875C81.38 43.9115 80.8539 43.7734 80.2498 43.7734C79.5935 43.7734 79.0206 43.9349 78.531 44.2578C78.0466 44.5755 77.6716 44.9922 77.406 45.5078C77.1456 46.0182 77.0154 46.5729 77.0154 47.1719V48.5391C77.0154 49.3411 77.156 50.0234 77.4373 50.5859C77.7237 51.1484 78.1222 51.5781 78.6326 51.875C79.143 52.1667 79.7394 52.3125 80.4216 52.3125C80.8644 52.3125 81.268 52.25 81.6326 52.125C81.9972 51.9948 82.3123 51.8021 82.5779 51.5469C82.8435 51.2917 83.0466 50.9766 83.1873 50.6016L85.3982 51C85.2211 51.651 84.9034 52.2214 84.4451 52.7109C83.992 53.1953 83.4216 53.5729 82.7341 53.8437C82.0519 54.1094 81.2732 54.2422 80.3982 54.2422ZM87.6984 54V42H89.9562V43.9062H90.0812C90.3 43.2604 90.6854 42.7526 91.2375 42.3828C91.7948 42.0078 92.425 41.8203 93.1281 41.8203C93.274 41.8203 93.4458 41.8255 93.6437 41.8359C93.8469 41.8464 94.0057 41.8594 94.1203 41.875V44.1094C94.0266 44.0833 93.8599 44.0547 93.6203 44.0234C93.3807 43.987 93.1411 43.9687 92.9016 43.9687C92.3495 43.9687 91.8573 44.0859 91.425 44.3203C90.9979 44.5495 90.6594 44.8698 90.4094 45.2812C90.1594 45.6875 90.0344 46.151 90.0344 46.6719V54H87.6984ZM104.694 44.9297L102.577 45.3047C102.488 45.0339 102.348 44.776 102.155 44.5312C101.967 44.2865 101.712 44.0859 101.389 43.9297C101.066 43.7734 100.663 43.6953 100.178 43.6953C99.5169 43.6953 98.9648 43.8437 98.5221 44.1406C98.0794 44.4323 97.858 44.8099 97.858 45.2734C97.858 45.6745 98.0065 45.9974 98.3034 46.2422C98.6002 46.487 99.0794 46.6875 99.7409 46.8437L101.647 47.2812C102.751 47.5365 103.574 47.9297 104.116 48.4609C104.658 48.9922 104.928 49.6823 104.928 50.5313C104.928 51.25 104.72 51.8906 104.303 52.4531C103.892 53.0104 103.316 53.4479 102.577 53.7656C101.842 54.0833 100.991 54.2422 100.022 54.2422C98.6784 54.2422 97.582 53.9557 96.733 53.3828C95.8841 52.8047 95.3633 51.9844 95.1705 50.9219L97.4284 50.5781C97.569 51.1667 97.858 51.612 98.2955 51.9141C98.733 52.2109 99.3034 52.3594 100.006 52.3594C100.772 52.3594 101.384 52.2005 101.842 51.8828C102.301 51.5599 102.53 51.1667 102.53 50.7031C102.53 50.3281 102.389 50.013 102.108 49.7578C101.832 49.5026 101.408 49.3099 100.835 49.1797L98.8034 48.7344C97.6836 48.4792 96.8554 48.0729 96.319 47.5156C95.7877 46.9583 95.5221 46.2526 95.5221 45.3984C95.5221 44.6901 95.72 44.0703 96.1159 43.5391C96.5117 43.0078 97.0586 42.5937 97.7565 42.2969C98.4544 41.9948 99.2539 41.8438 100.155 41.8438C101.452 41.8438 102.473 42.125 103.217 42.6875C103.962 43.2448 104.454 43.9922 104.694 44.9297Z" fill="white"/>
<path d="M142.232 140.381H141.602V142.28H142.232V140.381Z" fill="#E5E5E5"/>
<path d="M142.232 182.726H141.602V178.682H142.232V182.726ZM142.232 174.637H141.602V170.592H142.232V174.637ZM142.232 166.548H141.602V162.503H142.232V166.548ZM142.232 158.458H141.602V154.414H142.232V158.458ZM142.232 150.369H141.602V146.324H142.232V150.369Z" fill="#5B94E2"/>
<path d="M142.232 186.771H141.602V188.67H142.232V186.771Z" fill="#5B94E2"/>
<path d="M211.228 140.381H210.597V142.28H211.228V140.381Z" fill="#E5E5E5"/>
<path d="M211.228 182.726H210.598V178.682H211.228V182.726ZM211.228 174.637H210.598V170.592H211.228V174.637ZM211.228 166.548H210.598V162.503H211.228V166.548ZM211.228 158.458H210.598V154.414H211.228V158.458ZM211.228 150.369H210.598V146.324H211.228V150.369Z" fill="#5B94E2"/>
<path d="M211.228 186.771H210.598V188.67H211.228V186.771Z" fill="#5B94E2"/>
<path d="M246.031 103.245H245.401V105.143H246.031V103.245Z" fill="#E5E5E5"/>
<path d="M246.031 182.884H245.401V178.997H246.031V182.884ZM246.031 175.11H245.401V171.223H246.031V175.11ZM246.031 167.336H245.401V163.449H246.031V167.336ZM246.031 159.562H245.401V155.675H246.031V159.562ZM246.031 151.788H245.401V147.901H246.031V151.788ZM246.031 144.014H245.401V140.127H246.031V144.014ZM246.031 136.24H245.401V132.353H246.031V136.24ZM246.031 128.465H245.401V124.578H246.031V128.465ZM246.031 120.691H245.401V116.804H246.031V120.691ZM246.031 112.917H245.401V109.03H246.031V112.917Z" fill="#5B94E2"/>
<path d="M246.031 186.771H245.401V188.67H246.031V186.771Z" fill="#5B94E2"/>
<path d="M280.487 88.0585H279.857V89.9568H280.487V88.0585Z" fill="#E5E5E5"/>
<path d="M280.487 182.899H279.857V179.027H280.487V182.899ZM280.487 175.154H279.857V171.281H280.487V175.154ZM280.487 167.409H279.857V163.536H280.487V167.409ZM280.487 159.664H279.857V155.791H280.487V159.664ZM280.487 151.919H279.857V148.046H280.487V151.919ZM280.487 144.174H279.857V140.301H280.487V144.174ZM280.487 136.428H279.857V132.556H280.487V136.428ZM280.487 128.683H279.857V124.811H280.487V128.683ZM280.487 120.938H279.857V117.065H280.487V120.938ZM280.487 113.193H279.857V109.32H280.487V113.193ZM280.487 105.448H279.857V101.575H280.487V105.448ZM280.487 97.7027H279.857V93.8301H280.487V97.7027Z" fill="#5B94E2"/>
<path d="M280.487 186.771H279.857V188.67H280.487V186.771Z" fill="#5B94E2"/>
<path d="M176.887 114.951H176.257V116.85H176.887V114.951Z" fill="#E5E5E5"/>
<path d="M176.887 183.092H176.257V179.412H176.887V183.092ZM176.887 175.731H176.257V172.051H176.887V175.731ZM176.887 168.371H176.257V164.691H176.887V168.371ZM176.887 161.011H176.257V157.331H176.887V161.011ZM176.887 153.651H176.257V149.971H176.887V153.651ZM176.887 146.291H176.257V142.611H176.887V146.291ZM176.887 138.931H176.257V135.251H176.887V138.931ZM176.887 131.57H176.257V127.89H176.887V131.57ZM176.887 124.21H176.257V120.53H176.887V124.21Z" fill="#5B94E2"/>
<path d="M176.887 186.771H176.257V188.67H176.887V186.771Z" fill="#5B94E2"/>
<path d="M211.199 141.263L176.517 115.175L142.308 140.906L141.525 139.857L176.517 113.536L211.034 139.5L245.334 101.804L245.472 101.748L280.071 87.7486L280.559 88.9651L246.098 102.909L211.199 141.263Z" fill="white"/>
<path d="M141.917 144.315C144.08 144.315 145.834 142.553 145.834 140.381C145.834 138.209 144.08 136.447 141.917 136.447C139.754 136.447 138 138.209 138 140.381C138 142.553 139.754 144.315 141.917 144.315Z" fill="#00CC8F"/>
<path d="M176.517 118.747C178.68 118.747 180.433 116.986 180.433 114.813C180.433 112.641 178.68 110.88 176.517 110.88C174.353 110.88 172.6 112.641 172.6 114.813C172.6 116.986 174.353 118.747 176.517 118.747Z" fill="#00CC8F"/>
<path d="M211.116 144.315C213.279 144.315 215.033 142.553 215.033 140.381C215.033 138.209 213.279 136.447 211.116 136.447C208.953 136.447 207.199 138.209 207.199 140.381C207.199 142.553 208.953 144.315 211.116 144.315Z" fill="white"/>
<path d="M245.716 106.29C247.879 106.29 249.633 104.529 249.633 102.357C249.633 100.184 247.879 98.423 245.716 98.423C243.552 98.423 241.799 100.184 241.799 102.357C241.799 104.529 243.552 106.29 245.716 106.29Z" fill="#00CC8F"/>
<path d="M280.315 91.8672C282.479 91.8672 284.232 90.106 284.232 87.9336C284.232 85.7611 282.479 84 280.315 84C278.152 84 276.398 85.7611 276.398 87.9336C276.398 90.106 278.152 91.8672 280.315 91.8672Z" fill="#00CC8F"/>
<rect x="0.5" y="0.5" width="317.667" height="188" rx="15.5" stroke="#1566D6" stroke-opacity="0.24"/>
</svg>
