<svg width="319" height="259" viewBox="0 0 319 259" fill="none" xmlns="http://www.w3.org/2000/svg">
<rect x="0.333313" width="318.667" height="259" rx="16" fill="white"/>
<rect x="0.333313" width="318.667" height="259" rx="16" fill="#1566D6"/>
<path d="M30.0911 54V38H40.013V40.0781H32.5052V44.9531H39.3021V47.0234H32.5052V54H30.0911ZM49.2039 49.0234V42H51.5476V54H49.2507V51.9219H49.1257C48.8497 52.5625 48.407 53.0964 47.7976 53.5234C47.1934 53.9453 46.4408 54.1563 45.5398 54.1563C44.769 54.1563 44.0867 53.987 43.4929 53.6484C42.9044 53.3047 42.4408 52.7969 42.1023 52.125C41.769 51.4531 41.6023 50.6224 41.6023 49.6328V42H43.9382V49.3516C43.9382 50.1693 44.1648 50.8203 44.6179 51.3047C45.071 51.7891 45.6596 52.0312 46.3835 52.0312C46.821 52.0312 47.2559 51.9219 47.6882 51.7031C48.1257 51.4844 48.4877 51.1536 48.7742 50.7109C49.0658 50.2682 49.2091 49.7057 49.2039 49.0234ZM56.5822 46.875V54H54.2463V42H56.4885V43.9531H56.6369C56.9129 43.3177 57.3452 42.8073 57.9338 42.4219C58.5275 42.0365 59.2749 41.8438 60.176 41.8438C60.9937 41.8438 61.7098 42.0156 62.3244 42.3594C62.939 42.6979 63.4156 43.2031 63.7541 43.875C64.0926 44.5469 64.2619 45.3776 64.2619 46.3672V54H61.926V46.6484C61.926 45.7786 61.6994 45.099 61.2463 44.6094C60.7932 44.1146 60.1708 43.8672 59.3791 43.8672C58.8374 43.8672 58.3557 43.9844 57.9338 44.2187C57.5171 44.4531 57.1864 44.7969 56.9416 45.25C56.702 45.6979 56.5822 46.2396 56.5822 46.875ZM71.4469 54.2344C70.4782 54.2344 69.6136 53.987 68.8532 53.4922C68.0979 52.9922 67.5042 52.2812 67.0719 51.3594C66.6448 50.4323 66.4313 49.3203 66.4313 48.0234C66.4313 46.7266 66.6474 45.6172 67.0797 44.6953C67.5172 43.7734 68.1162 43.0677 68.8766 42.5781C69.637 42.0885 70.499 41.8438 71.4625 41.8438C72.2073 41.8438 72.8063 41.9688 73.2594 42.2187C73.7177 42.4635 74.0719 42.75 74.3219 43.0781C74.5771 43.4062 74.775 43.6953 74.9157 43.9453H75.0563V38H77.3922V54H75.111V52.1328H74.9157C74.775 52.388 74.5719 52.6797 74.3063 53.0078C74.0459 53.3359 73.6865 53.6224 73.2282 53.8672C72.7698 54.112 72.1761 54.2344 71.4469 54.2344ZM71.9625 52.2422C72.6344 52.2422 73.2021 52.0651 73.6657 51.7109C74.1344 51.3516 74.4886 50.8542 74.7282 50.2188C74.9729 49.5833 75.0953 48.8437 75.0953 48C75.0953 47.1667 74.9756 46.4375 74.736 45.8125C74.4964 45.1875 74.1448 44.7005 73.6813 44.3516C73.2177 44.0026 72.6448 43.8281 71.9625 43.8281C71.2594 43.8281 70.6735 44.0104 70.2047 44.375C69.736 44.7396 69.3818 45.237 69.1422 45.8672C68.9078 46.4974 68.7907 47.2083 68.7907 48C68.7907 48.8021 68.9104 49.5234 69.15 50.1641C69.3896 50.8047 69.7438 51.3125 70.2125 51.6875C70.6865 52.0573 71.2698 52.2422 71.9625 52.2422ZM30.0911 81V65H32.5052V71.9531H40.4818V65H42.9036V81H40.4818V74.0234H32.5052V81H30.0911ZM50.8464 81.2422C49.7214 81.2422 48.7397 80.9844 47.9011 80.4687C47.0626 79.9531 46.4115 79.2318 45.948 78.3047C45.4845 77.3776 45.2527 76.2943 45.2527 75.0547C45.2527 73.8099 45.4845 72.7214 45.948 71.7891C46.4115 70.8568 47.0626 70.1328 47.9011 69.6172C48.7397 69.1016 49.7214 68.8438 50.8464 68.8438C51.9714 68.8438 52.9532 69.1016 53.7918 69.6172C54.6303 70.1328 55.2813 70.8568 55.7449 71.7891C56.2084 72.7214 56.4402 73.8099 56.4402 75.0547C56.4402 76.2943 56.2084 77.3776 55.7449 78.3047C55.2813 79.2318 54.6303 79.9531 53.7918 80.4687C52.9532 80.9844 51.9714 81.2422 50.8464 81.2422ZM50.8543 79.2812C51.5834 79.2812 52.1876 79.0885 52.6668 78.7031C53.1459 78.3177 53.5001 77.8047 53.7293 77.1641C53.9636 76.5234 54.0808 75.8177 54.0808 75.0469C54.0808 74.2812 53.9636 73.5781 53.7293 72.9375C53.5001 72.2917 53.1459 71.7734 52.6668 71.3828C52.1876 70.9922 51.5834 70.7969 50.8543 70.7969C50.1199 70.7969 49.5105 70.9922 49.0261 71.3828C48.547 71.7734 48.1902 72.2917 47.9558 72.9375C47.7266 73.5781 47.6121 74.2812 47.6121 75.0469C47.6121 75.8177 47.7266 76.5234 47.9558 77.1641C48.1902 77.8047 48.547 78.3177 49.0261 78.7031C49.5105 79.0885 50.1199 79.2812 50.8543 79.2812ZM66.2092 76.0234V69H68.5529V81H66.256V78.9219H66.131C65.855 79.5625 65.4123 80.0964 64.8029 80.5234C64.1988 80.9453 63.4462 81.1563 62.5451 81.1563C61.7743 81.1563 61.092 80.987 60.4982 80.6484C59.9097 80.3047 59.4462 79.7969 59.1076 79.125C58.7743 78.4531 58.6076 77.6224 58.6076 76.6328V69H60.9435V76.3516C60.9435 77.1693 61.1701 77.8203 61.6232 78.3047C62.0764 78.7891 62.6649 79.0312 63.3889 79.0312C63.8264 79.0312 64.2613 78.9219 64.6935 78.7031C65.131 78.4844 65.493 78.1536 65.7795 77.7109C66.0712 77.2682 66.2144 76.7057 66.2092 76.0234ZM80.2438 71.9297L78.1266 72.3047C78.0381 72.0339 77.8974 71.776 77.7047 71.5312C77.5172 71.2865 77.262 71.0859 76.9391 70.9297C76.6162 70.7734 76.2125 70.6953 75.7282 70.6953C75.0667 70.6953 74.5146 70.8437 74.0719 71.1406C73.6292 71.4323 73.4078 71.8099 73.4078 72.2734C73.4078 72.6745 73.5563 72.9974 73.8532 73.2422C74.15 73.487 74.6292 73.6875 75.2907 73.8437L77.1969 74.2812C78.3011 74.5365 79.124 74.9297 79.6657 75.4609C80.2073 75.9922 80.4782 76.6823 80.4782 77.5313C80.4782 78.25 80.2698 78.8906 79.8532 79.4531C79.4417 80.0104 78.8662 80.4479 78.1266 80.7656C77.3922 81.0833 76.5407 81.2422 75.5719 81.2422C74.2282 81.2422 73.1318 80.9557 72.2828 80.3828C71.4339 79.8047 70.9131 78.9844 70.7203 77.9219L72.9782 77.5781C73.1188 78.1667 73.4078 78.612 73.8453 78.9141C74.2828 79.2109 74.8532 79.3594 75.5563 79.3594C76.3219 79.3594 76.9339 79.2005 77.3922 78.8828C77.8506 78.5599 78.0797 78.1667 78.0797 77.7031C78.0797 77.3281 77.9391 77.013 77.6578 76.7578C77.3818 76.5026 76.9573 76.3099 76.3844 76.1797L74.3532 75.7344C73.2334 75.4792 72.4052 75.0729 71.8688 74.5156C71.3375 73.9583 71.0719 73.2526 71.0719 72.3984C71.0719 71.6901 71.2698 71.0703 71.6657 70.5391C72.0615 70.0078 72.6084 69.5937 73.3063 69.2969C74.0042 68.9948 74.8037 68.8438 75.7047 68.8438C77.0016 68.8438 78.0224 69.125 78.7672 69.6875C79.512 70.2448 80.0042 70.9922 80.2438 71.9297ZM87.7784 81.2422C86.5961 81.2422 85.5779 80.9896 84.7237 80.4844C83.8747 79.974 83.2185 79.2578 82.755 78.3359C82.2966 77.4089 82.0675 76.3229 82.0675 75.0781C82.0675 73.849 82.2966 72.7656 82.755 71.8281C83.2185 70.8906 83.8643 70.1589 84.6925 69.6328C85.5258 69.1068 86.4997 68.8438 87.6143 68.8438C88.2914 68.8438 88.9477 68.9557 89.5831 69.1797C90.2185 69.4036 90.7888 69.7552 91.294 70.2344C91.7992 70.7135 92.1977 71.3359 92.4893 72.1016C92.781 72.862 92.9268 73.7865 92.9268 74.875V75.7031H83.3878V73.9531H90.6378C90.6378 73.3385 90.5128 72.7943 90.2628 72.3203C90.0128 71.8411 89.6612 71.4635 89.2081 71.1875C88.7602 70.9115 88.2341 70.7734 87.63 70.7734C86.9737 70.7734 86.4008 70.9349 85.9112 71.2578C85.4268 71.5755 85.0518 71.9922 84.7862 72.5078C84.5258 73.0182 84.3956 73.5729 84.3956 74.1719V75.5391C84.3956 76.3411 84.5362 77.0234 84.8175 77.5859C85.1039 78.1484 85.5024 78.5781 86.0128 78.875C86.5232 79.1667 87.1195 79.3125 87.8018 79.3125C88.2445 79.3125 88.6482 79.25 89.0128 79.125C89.3774 78.9948 89.6925 78.8021 89.9581 78.5469C90.2237 78.2917 90.4268 77.9766 90.5675 77.6016L92.7784 78C92.6013 78.651 92.2836 79.2214 91.8253 79.7109C91.3721 80.1953 90.8018 80.5729 90.1143 80.8437C89.432 81.1094 88.6534 81.2422 87.7784 81.2422ZM104.071 71.9297L101.954 72.3047C101.865 72.0339 101.724 71.776 101.532 71.5312C101.344 71.2865 101.089 71.0859 100.766 70.9297C100.443 70.7734 100.04 70.6953 99.5552 70.6953C98.8937 70.6953 98.3416 70.8437 97.8989 71.1406C97.4562 71.4323 97.2349 71.8099 97.2349 72.2734C97.2349 72.6745 97.3833 72.9974 97.6802 73.2422C97.9771 73.487 98.4562 73.6875 99.1177 73.8437L101.024 74.2812C102.128 74.5365 102.951 74.9297 103.493 75.4609C104.034 75.9922 104.305 76.6823 104.305 77.5313C104.305 78.25 104.097 78.8906 103.68 79.4531C103.269 80.0104 102.693 80.4479 101.954 80.7656C101.219 81.0833 100.368 81.2422 99.3989 81.2422C98.0552 81.2422 96.9588 80.9557 96.1099 80.3828C95.2609 79.8047 94.7401 78.9844 94.5474 77.9219L96.8052 77.5781C96.9458 78.1667 97.2349 78.612 97.6724 78.9141C98.1099 79.2109 98.6802 79.3594 99.3833 79.3594C100.149 79.3594 100.761 79.2005 101.219 78.8828C101.678 78.5599 101.907 78.1667 101.907 77.7031C101.907 77.3281 101.766 77.013 101.485 76.7578C101.209 76.5026 100.784 76.3099 100.211 76.1797L98.1802 75.7344C97.0604 75.4792 96.2323 75.0729 95.6958 74.5156C95.1646 73.9583 94.8989 73.2526 94.8989 72.3984C94.8989 71.6901 95.0969 71.0703 95.4927 70.5391C95.8885 70.0078 96.4354 69.5937 97.1333 69.2969C97.8312 68.9948 98.6307 68.8438 99.5318 68.8438C100.829 68.8438 101.849 69.125 102.594 69.6875C103.339 70.2448 103.831 70.9922 104.071 71.9297Z" fill="white"/>
<path d="M114.581 148.596L138.833 163.478" stroke="#5B94E2" stroke-width="0.948959"/>
<path d="M98.2688 158.871C94.5237 158.871 90.8627 157.76 87.7488 155.68C84.6349 153.599 82.2079 150.642 80.7747 147.182C79.3415 143.722 78.9665 139.915 79.6972 136.241C80.4278 132.568 82.2312 129.194 84.8794 126.546C87.5276 123.898 90.9016 122.094 94.5747 121.364C98.2478 120.633 102.055 121.008 105.515 122.441C108.975 123.875 111.932 126.302 114.013 129.416C116.094 132.529 117.204 136.19 117.204 139.936C117.199 144.956 115.202 149.769 111.652 153.319C108.102 156.869 103.289 158.865 98.2688 158.871ZM98.2688 122.306C94.782 122.306 91.3735 123.34 88.4743 125.277C85.5752 127.214 83.3155 129.968 81.9812 133.189C80.6468 136.41 80.2977 139.955 80.978 143.375C81.6582 146.795 83.3373 149.936 85.8028 152.402C88.2684 154.867 91.4097 156.546 94.8295 157.226C98.2493 157.907 101.794 157.558 105.015 156.223C108.237 154.889 110.99 152.629 112.927 149.73C114.864 146.831 115.898 143.422 115.898 139.936C115.893 135.261 114.034 130.78 110.729 127.475C107.424 124.17 102.943 122.311 98.2688 122.306Z" fill="#5B94E2"/>
<path d="M99.222 141.103C98.5229 141.103 97.9288 140.863 97.4394 140.381C96.9501 139.9 96.7054 139.316 96.7054 138.629C96.7054 137.942 96.9501 137.357 97.4394 136.876C97.9288 136.395 98.5229 136.155 99.222 136.155C99.921 136.155 100.515 136.395 101.005 136.876C101.494 137.357 101.739 137.942 101.739 138.629C101.739 139.316 101.494 139.9 101.005 140.381C100.515 140.863 99.921 141.103 99.222 141.103ZM92.7957 144.258C92.3313 144.258 91.9363 144.098 91.6108 143.778C91.2853 143.458 91.1225 143.069 91.1225 142.613V134.645C91.1225 134.193 91.2853 133.805 91.6108 133.483C91.9363 133.161 92.3313 133 92.7957 133H105.672C106.129 133 106.52 133.161 106.845 133.483C107.171 133.805 107.333 134.193 107.333 134.645V142.613C107.333 143.069 107.171 143.458 106.845 143.778C106.52 144.098 106.129 144.258 105.672 144.258H92.7957ZM94.7505 142.753H103.705C103.705 142.175 103.908 141.687 104.313 141.289C104.719 140.89 105.215 140.691 105.802 140.691V136.567C105.215 136.567 104.719 136.366 104.313 135.963C103.908 135.561 103.705 135.075 103.705 134.505H94.7505C94.7505 135.075 94.5478 135.561 94.1424 135.963C93.7369 136.366 93.2406 136.567 92.6534 136.567V140.691C93.2406 140.691 93.7369 140.89 94.1424 141.289C94.5478 141.687 94.7505 142.175 94.7505 142.753ZM104.544 147H89.9946C89.5377 147 89.1466 146.84 88.8213 146.52C88.496 146.2 88.3333 145.816 88.3333 145.367V136.01H89.9946V145.367H104.544V147Z" fill="#00CC8F"/>
<path d="M99.0512 140.575C98.5504 140.575 98.1293 140.407 97.7879 140.071C97.4464 139.734 97.2757 139.319 97.2757 138.826C97.2757 138.333 97.4464 137.918 97.7879 137.581C98.1293 137.245 98.5504 137.077 99.0512 137.077C99.552 137.077 99.9731 137.245 100.315 137.581C100.656 137.918 100.827 138.333 100.827 138.826C100.827 139.319 100.656 139.734 100.315 140.071C99.9731 140.407 99.552 140.575 99.0512 140.575ZM93.1443 143.569C92.8151 143.569 92.528 143.448 92.2829 143.207C92.0377 142.965 91.9152 142.682 91.9152 142.358V135.294C91.9152 134.97 92.0377 134.687 92.2829 134.445C92.528 134.204 92.8151 134.083 93.1443 134.083H104.958C105.287 134.083 105.574 134.204 105.82 134.445C106.065 134.687 106.187 134.97 106.187 135.294V142.358C106.187 142.682 106.065 142.965 105.82 143.207C105.574 143.448 105.287 143.569 104.958 143.569H93.1443ZM94.2369 142.896H103.865C103.865 142.452 104.027 142.072 104.349 141.756C104.671 141.44 105.056 141.282 105.504 141.282V136.371C105.054 136.371 104.668 136.212 104.347 135.894C104.026 135.577 103.865 135.197 103.865 134.756H94.2369C94.2369 135.2 94.0758 135.58 93.7534 135.896C93.431 136.212 93.0459 136.371 92.598 136.371V141.282C93.0487 141.282 93.4346 141.44 93.7555 141.758C94.0765 142.075 94.2369 142.455 94.2369 142.896ZM103.558 145.789H90.8909C90.5617 145.789 90.2745 145.668 90.0294 145.427C89.7842 145.185 89.6617 144.902 89.6617 144.578V136.673H90.3445V144.578C90.3445 144.712 90.4015 144.836 90.5153 144.948C90.6291 145.06 90.7543 145.116 90.8909 145.116H103.558V145.789ZM93.1443 142.896H92.598V134.756H93.1443C92.9964 134.756 92.8683 134.809 92.7602 134.916C92.6521 135.022 92.598 135.148 92.598 135.294V142.358C92.598 142.504 92.6521 142.63 92.7602 142.736C92.8683 142.843 92.9964 142.896 93.1443 142.896Z" fill="#00CC8F"/>
<path d="M247.269 124.871C243.524 124.871 239.863 123.76 236.749 121.68C233.635 119.599 231.208 116.642 229.775 113.182C228.342 109.722 227.967 105.915 228.697 102.241C229.428 98.5683 231.231 95.1943 233.879 92.5461C236.528 89.8979 239.902 88.0945 243.575 87.3639C247.248 86.6332 251.055 87.0082 254.515 88.4414C257.975 89.8746 260.932 92.3016 263.013 95.4155C265.094 98.5294 266.204 102.19 266.204 105.936C266.199 110.956 264.202 115.769 260.652 119.319C257.102 122.869 252.289 124.865 247.269 124.871ZM247.269 88.3059C243.782 88.3059 240.374 89.3399 237.474 91.277C234.575 93.2142 232.316 95.9676 230.981 99.189C229.647 102.41 229.298 105.955 229.978 109.375C230.658 112.795 232.337 115.936 234.803 118.402C237.268 120.867 240.41 122.546 243.829 123.226C247.249 123.907 250.794 123.558 254.015 122.223C257.237 120.889 259.99 118.629 261.927 115.73C263.864 112.831 264.898 109.422 264.898 105.936C264.893 101.261 263.034 96.7804 259.729 93.4753C256.424 90.1703 251.943 88.3112 247.269 88.3059Z" fill="#5B94E2"/>
<path d="M241.064 111.395V104.399H242.561V111.395H241.064ZM246.167 111.395V104.399H247.652V111.395H246.167ZM238.333 114V112.365H255.333V114H238.333ZM251.094 111.395V104.399H252.591V111.395H251.094ZM238.333 103.429V101.845L246.828 97L255.333 101.845V103.429H238.333ZM241.824 101.783H251.831L246.828 98.8789L241.824 101.783Z" fill="#00CC8F"/>
<path d="M242.065 111.639V104.777H242.954V111.639H242.065ZM246.397 111.639V104.777H247.286V111.639H246.397ZM239.556 113.854V112.947H254.016V113.854H239.556ZM250.618 111.639V104.777H251.506V111.639H250.618ZM239.556 103.47V102.726L246.786 98.7055L254.016 102.726V103.47H239.556ZM241.705 102.563H251.866L246.786 99.7467L241.705 102.563Z" fill="#00CC8F"/>
<path d="M267.269 181.871C263.524 181.871 259.863 180.76 256.749 178.68C253.635 176.599 251.208 173.642 249.775 170.182C248.342 166.722 247.967 162.914 248.697 159.241C249.428 155.568 251.231 152.194 253.879 149.546C256.528 146.898 259.902 145.094 263.575 144.364C267.248 143.633 271.055 144.008 274.515 145.441C277.975 146.874 280.932 149.301 283.013 152.415C285.094 155.529 286.204 159.19 286.204 162.935C286.199 167.956 284.202 172.769 280.652 176.319C277.102 179.868 272.289 181.865 267.269 181.871ZM267.269 145.306C263.782 145.306 260.374 146.34 257.474 148.277C254.575 150.214 252.316 152.967 250.981 156.189C249.647 159.41 249.298 162.955 249.978 166.375C250.658 169.795 252.337 172.936 254.803 175.401C257.268 177.867 260.41 179.546 263.829 180.226C267.249 180.906 270.794 180.557 274.015 179.223C277.237 177.889 279.99 175.629 281.927 172.73C283.864 169.831 284.898 166.422 284.898 162.935C284.893 158.261 283.034 153.78 279.729 150.475C276.424 147.17 271.943 145.311 267.269 145.306Z" fill="#5B94E2"/>
<path d="M259.333 171V157.696H263.029V154H272.638V161.391H276.333V171H269.014V166.874H266.64V171H259.333ZM261.108 169.226H263.459V166.874H261.108V169.226ZM261.108 165.53H263.459V163.178H261.108V165.53ZM261.108 161.834H263.459V159.483H261.108V161.834ZM264.803 165.53H267.155V163.178H264.803V165.53ZM264.803 161.834H267.155V159.483H264.803V161.834ZM264.803 158.139H267.155V155.787H264.803V158.139ZM268.499 165.53H270.851V163.178H268.499V165.53ZM268.499 161.834H270.851V159.483H268.499V161.834ZM268.499 158.139H270.851V155.787H268.499V158.139ZM272.195 169.226H274.546V166.874H272.195V169.226ZM272.195 165.53H274.546V163.178H272.195V165.53Z" fill="#00CC8F"/>
<path d="M258.269 243.871C254.524 243.871 250.863 242.76 247.749 240.68C244.635 238.599 242.208 235.642 240.775 232.182C239.341 228.722 238.966 224.914 239.697 221.241C240.428 217.568 242.231 214.194 244.879 211.546C247.528 208.898 250.902 207.094 254.575 206.364C258.248 205.633 262.055 206.008 265.515 207.441C268.975 208.874 271.932 211.301 274.013 214.415C276.094 217.529 277.204 221.19 277.204 224.935C277.199 229.956 275.202 234.769 271.652 238.319C268.102 241.868 263.289 243.865 258.269 243.871ZM258.269 207.306C254.782 207.306 251.373 208.34 248.474 210.277C245.575 212.214 243.315 214.967 241.981 218.189C240.647 221.41 240.298 224.955 240.978 228.375C241.658 231.795 243.337 234.936 245.803 237.401C248.268 239.867 251.41 241.546 254.829 242.226C258.249 242.906 261.794 242.557 265.015 241.223C268.237 239.889 270.99 237.629 272.927 234.73C274.864 231.831 275.898 228.422 275.898 224.935C275.893 220.261 274.034 215.78 270.729 212.475C267.424 209.17 262.943 207.311 258.269 207.306Z" fill="#5B94E2"/>
<path d="M252.228 232.104H255.465V226.014H261.188V232.104H264.425V222.948L258.326 218.376L252.228 222.952V232.104ZM250.333 234V222L258.326 216L266.333 222V234H259.441V227.761H257.211V234H250.333Z" fill="#00CC8F"/>
<path d="M251.95 231.931H255.922V225.913H260.235V231.931H264.207V222.556L258.079 217.82L251.95 222.55V231.931ZM251.193 232.703V222.17L258.079 216.866L264.964 222.17V232.703H259.478V226.684H256.679V232.703H251.193Z" fill="#00CC8F"/>
<path d="M184.965 166.573C184.125 166.573 183.43 166.299 182.88 165.749C182.331 165.2 182.056 164.505 182.056 163.664C182.056 162.824 182.331 162.129 182.88 161.579C183.43 161.03 184.125 160.755 184.965 160.755C185.806 160.755 186.501 161.03 187.05 161.579C187.6 162.129 187.874 162.824 187.874 163.664C187.874 164.505 187.6 165.2 187.05 165.749C186.501 166.299 185.806 166.573 184.965 166.573ZM167.51 166.573C166.669 166.573 165.974 166.299 165.425 165.749C164.875 165.2 164.601 164.505 164.601 163.664C164.601 162.824 164.875 162.129 165.425 161.579C165.974 161.03 166.669 160.755 167.51 160.755C168.35 160.755 169.045 161.03 169.595 161.579C170.144 162.129 170.419 162.824 170.419 163.664C170.419 164.505 170.144 165.2 169.595 165.749C169.045 166.299 168.35 166.573 167.51 166.573ZM176.237 171.907C175.397 171.907 174.702 171.632 174.153 171.083C173.603 170.533 173.328 169.838 173.328 168.998C173.328 168.157 173.603 167.462 174.153 166.913C174.702 166.363 175.397 166.089 176.237 166.089C177.078 166.089 177.773 166.363 178.322 166.913C178.872 167.462 179.147 168.157 179.147 168.998C179.147 169.838 178.872 170.533 178.322 171.083C177.773 171.632 177.078 171.907 176.237 171.907ZM176.237 161.24C175.397 161.24 174.702 160.965 174.153 160.416C173.603 159.866 173.328 159.171 173.328 158.331C173.328 157.49 173.603 156.795 174.153 156.246C174.702 155.696 175.397 155.421 176.237 155.421C177.078 155.421 177.773 155.696 178.322 156.246C178.872 156.795 179.147 157.49 179.147 158.331C179.147 159.171 178.872 159.866 178.322 160.416C177.773 160.965 177.078 161.24 176.237 161.24ZM176.237 186.453C175.623 186.453 174.993 186.405 174.346 186.308C173.7 186.211 173.07 186.081 172.455 185.92V178.938C172.455 177.806 172.811 176.837 173.522 176.028C174.233 175.22 175.138 174.816 176.237 174.816C177.336 174.816 178.242 175.22 178.953 176.028C179.664 176.837 180.019 177.806 180.019 178.938V185.92C179.405 186.081 178.775 186.211 178.128 186.308C177.482 186.405 176.852 186.453 176.237 186.453ZM169.546 184.95C168.932 184.691 168.318 184.401 167.704 184.077C167.09 183.754 166.508 183.398 165.958 183.011C165.053 182.396 164.334 181.572 163.8 180.538C163.267 179.503 163 178.388 163 177.192C163 176.352 162.92 175.552 162.758 174.792C162.596 174.032 162.273 173.329 161.788 172.683C161.433 172.295 160.81 171.681 159.922 170.84C159.033 170 158.216 169.208 157.473 168.464C157.053 168.012 156.843 167.535 156.843 167.034C156.843 166.533 157.053 166.072 157.473 165.652C157.925 165.2 158.378 164.973 158.831 164.973C159.283 164.973 159.736 165.2 160.188 165.652L167.655 172.683C168.269 173.265 168.738 173.96 169.061 174.768C169.385 175.576 169.546 176.4 169.546 177.241V184.95ZM182.929 184.95V177.241C182.929 176.4 183.131 175.576 183.535 174.768C183.939 173.96 184.448 173.265 185.062 172.683L192.287 165.652C192.675 165.297 193.135 165.119 193.669 165.119C194.202 165.119 194.646 165.297 195.002 165.652C195.422 166.072 195.632 166.533 195.632 167.034C195.632 167.535 195.422 168.012 195.002 168.464C194.259 169.208 193.442 169.984 192.553 170.792C191.664 171.6 191.042 172.23 190.687 172.683C190.202 173.329 189.879 174.032 189.717 174.792C189.555 175.552 189.474 176.352 189.474 177.192C189.474 178.388 189.208 179.503 188.674 180.538C188.141 181.572 187.422 182.396 186.517 183.011C185.967 183.366 185.385 183.714 184.771 184.053C184.157 184.392 183.543 184.691 182.929 184.95Z" fill="white"/>
<rect x="138.094" y="132.794" width="76.2865" height="76.2865" rx="38.1432" stroke="white" stroke-width="1.29299" stroke-linecap="round"/>
<line x1="234.75" y1="121.056" x2="207.467" y2="145.966" stroke="#5B94E2" stroke-width="0.948959"/>
<line x1="248.698" y1="163.882" x2="215.485" y2="166.254" stroke="#5B94E2" stroke-width="0.948959"/>
<line x1="241.287" y1="217.184" x2="206.887" y2="194.646" stroke="#5B94E2" stroke-width="0.948959"/>
<rect x="0.833313" y="0.5" width="317.667" height="258" rx="15.5" stroke="#1566D6" stroke-opacity="0.24"/>
</svg>
