<svg width="370" height="299" viewBox="0 0 370 299" fill="none" xmlns="http://www.w3.org/2000/svg">
<g filter="url(#filter0_d_1325_42827)">
<rect x="31" y="20" width="318.667" height="259" rx="16" fill="white" shape-rendering="crispEdges"/>
<path d="M60.5781 74V58H70.8281V60.4297H63.4766V64.7734H70.125V67.2031H63.4766V74H60.5781ZM79.8002 68.9531V62H82.6284V74H79.8862V71.8672H79.7612C79.4903 72.5391 79.045 73.0885 78.4252 73.5156C77.8107 73.9427 77.0528 74.1563 76.1518 74.1563C75.3653 74.1563 74.67 73.9818 74.0659 73.6328C73.4669 73.2786 72.9982 72.7656 72.6596 72.0938C72.3211 71.4167 72.1518 70.599 72.1518 69.6406V62H74.9799V69.2031C74.9799 69.9635 75.1883 70.5677 75.6049 71.0156C76.0216 71.4635 76.5685 71.6875 77.2455 71.6875C77.6622 71.6875 78.0659 71.5859 78.4565 71.3828C78.8471 71.1797 79.1674 70.8776 79.4174 70.4766C79.6726 70.0703 79.8002 69.5625 79.8002 68.9531ZM87.9247 66.9687V74H85.0966V62H87.7997V64.0391H87.9403C88.2164 63.3672 88.6565 62.8333 89.2606 62.4375C89.87 62.0417 90.6226 61.8438 91.5184 61.8438C92.3466 61.8438 93.0679 62.0208 93.6825 62.375C94.3023 62.7292 94.7815 63.2422 95.12 63.9141C95.4638 64.5859 95.633 65.401 95.6278 66.3594V74H92.7997V66.7969C92.7997 65.9948 92.5914 65.3672 92.1747 64.9141C91.7632 64.4609 91.1929 64.2344 90.4638 64.2344C89.969 64.2344 89.5289 64.3437 89.1434 64.5625C88.7632 64.776 88.4638 65.0859 88.245 65.4922C88.0315 65.8984 87.9247 66.3906 87.9247 66.9687ZM102.516 74.2109C101.573 74.2109 100.729 73.9688 99.9847 73.4844C99.2399 73 98.6514 72.2969 98.2191 71.375C97.7868 70.4531 97.5706 69.3333 97.5706 68.0156C97.5706 66.6823 97.7894 65.5573 98.2269 64.6406C98.6696 63.7187 99.2659 63.0234 100.016 62.5547C100.766 62.0807 101.602 61.8438 102.524 61.8438C103.227 61.8438 103.805 61.9635 104.258 62.2031C104.711 62.4375 105.071 62.7214 105.336 63.0547C105.602 63.3828 105.808 63.6927 105.953 63.9844H106.071V58H108.907V74H106.125V72.1094H105.953C105.808 72.401 105.597 72.7109 105.321 73.0391C105.045 73.362 104.68 73.638 104.227 73.8672C103.774 74.0964 103.203 74.2109 102.516 74.2109ZM103.305 71.8906C103.904 71.8906 104.414 71.7292 104.836 71.4062C105.258 71.0781 105.578 70.6224 105.797 70.0391C106.016 69.4557 106.125 68.776 106.125 68C106.125 67.224 106.016 66.5495 105.797 65.9766C105.584 65.4036 105.266 64.9583 104.844 64.6406C104.427 64.3229 103.914 64.1641 103.305 64.1641C102.675 64.1641 102.149 64.3281 101.727 64.6562C101.305 64.9844 100.987 65.4375 100.774 66.0156C100.56 66.5937 100.453 67.2552 100.453 68C100.453 68.75 100.56 69.4193 100.774 70.0078C100.993 70.5911 101.313 71.0521 101.735 71.3906C102.162 71.724 102.685 71.8906 103.305 71.8906ZM60.5781 101V85H63.4766V91.7734H70.8906V85H73.7969V101H70.8906V94.2031H63.4766V101H60.5781ZM81.6186 101.234C80.4467 101.234 79.4311 100.977 78.5717 100.461C77.7123 99.9453 77.0457 99.224 76.5717 98.2969C76.103 97.3698 75.8686 96.2865 75.8686 95.0469C75.8686 93.8073 76.103 92.7214 76.5717 91.7891C77.0457 90.8568 77.7123 90.1328 78.5717 89.6172C79.4311 89.1016 80.4467 88.8438 81.6186 88.8438C82.7905 88.8438 83.8061 89.1016 84.6655 89.6172C85.5248 90.1328 86.1889 90.8568 86.6577 91.7891C87.1316 92.7214 87.3686 93.8073 87.3686 95.0469C87.3686 96.2865 87.1316 97.3698 86.6577 98.2969C86.1889 99.224 85.5248 99.9453 84.6655 100.461C83.8061 100.977 82.7905 101.234 81.6186 101.234ZM81.6342 98.9687C82.2696 98.9687 82.8009 98.7943 83.228 98.4453C83.6551 98.0911 83.9728 97.6172 84.1811 97.0234C84.3946 96.4297 84.5014 95.7682 84.5014 95.0391C84.5014 94.3047 84.3946 93.6406 84.1811 93.0469C83.9728 92.4479 83.6551 91.9714 83.228 91.6172C82.8009 91.263 82.2696 91.0859 81.6342 91.0859C80.9832 91.0859 80.4415 91.263 80.0092 91.6172C79.5821 91.9714 79.2618 92.4479 79.0483 93.0469C78.8399 93.6406 78.7358 94.3047 78.7358 95.0391C78.7358 95.7682 78.8399 96.4297 79.0483 97.0234C79.2618 97.6172 79.5821 98.0911 80.0092 98.4453C80.4415 98.7943 80.9832 98.9687 81.6342 98.9687ZM96.9774 95.9531V89H99.8055V101H97.0634V98.8672H96.9384C96.6675 99.5391 96.2222 100.089 95.6024 100.516C94.9878 100.943 94.23 101.156 93.329 101.156C92.5425 101.156 91.8472 100.982 91.243 100.633C90.6441 100.279 90.1753 99.7656 89.8368 99.0938C89.4983 98.4167 89.329 97.599 89.329 96.6406V89H92.1571V96.2031C92.1571 96.9635 92.3654 97.5677 92.7821 98.0156C93.1988 98.4635 93.7457 98.6875 94.4227 98.6875C94.8394 98.6875 95.243 98.5859 95.6337 98.3828C96.0243 98.1797 96.3446 97.8776 96.5946 97.4766C96.8498 97.0703 96.9774 96.5625 96.9774 95.9531ZM111.758 92.1719L109.18 92.4531C109.107 92.1927 108.979 91.9479 108.797 91.7188C108.62 91.4896 108.381 91.3047 108.078 91.1641C107.776 91.0234 107.407 90.9531 106.969 90.9531C106.381 90.9531 105.886 91.0807 105.485 91.3359C105.089 91.5911 104.894 91.9219 104.899 92.3281C104.894 92.6771 105.021 92.9609 105.282 93.1797C105.547 93.3984 105.985 93.5781 106.594 93.7188L108.641 94.1562C109.776 94.401 110.62 94.7891 111.172 95.3203C111.729 95.8516 112.011 96.5469 112.016 97.4062C112.011 98.1615 111.789 98.8281 111.352 99.4062C110.92 99.9792 110.318 100.427 109.547 100.75C108.776 101.073 107.891 101.234 106.891 101.234C105.422 101.234 104.24 100.927 103.344 100.312C102.448 99.6927 101.914 98.8307 101.743 97.7266L104.5 97.4609C104.625 98.0026 104.891 98.4115 105.297 98.6875C105.703 98.9635 106.232 99.1016 106.883 99.1016C107.555 99.1016 108.094 98.9635 108.5 98.6875C108.912 98.4115 109.118 98.0703 109.118 97.6641C109.118 97.3203 108.985 97.0365 108.719 96.8125C108.459 96.5885 108.052 96.4167 107.5 96.2969L105.453 95.8672C104.302 95.6276 103.451 95.224 102.899 94.6562C102.347 94.0833 102.073 93.3594 102.078 92.4844C102.073 91.7448 102.274 91.1042 102.68 90.5625C103.091 90.0156 103.662 89.5937 104.391 89.2969C105.125 88.9948 105.972 88.8438 106.93 88.8438C108.336 88.8438 109.443 89.1432 110.25 89.7422C111.063 90.3411 111.565 91.151 111.758 92.1719ZM119.22 101.234C118.017 101.234 116.978 100.984 116.103 100.484C115.233 99.9792 114.564 99.2656 114.095 98.3437C113.627 97.4167 113.392 96.3255 113.392 95.0703C113.392 93.8359 113.627 92.7526 114.095 91.8203C114.569 90.8828 115.231 90.1536 116.08 89.6328C116.929 89.1068 117.926 88.8438 119.072 88.8438C119.812 88.8438 120.51 88.9635 121.166 89.2031C121.827 89.4375 122.411 89.8021 122.916 90.2969C123.426 90.7917 123.827 91.4219 124.119 92.1875C124.411 92.9479 124.556 93.8542 124.556 94.9062V95.7734H114.72V93.8672H121.845C121.84 93.3255 121.723 92.8437 121.494 92.4219C121.265 91.9948 120.944 91.6589 120.533 91.4141C120.127 91.1693 119.653 91.0469 119.111 91.0469C118.533 91.0469 118.025 91.1875 117.588 91.4687C117.15 91.7448 116.809 92.1094 116.564 92.5625C116.325 93.0104 116.202 93.5026 116.197 94.0391V95.7031C116.197 96.401 116.325 97 116.58 97.5C116.835 97.9948 117.192 98.375 117.65 98.6406C118.108 98.901 118.645 99.0312 119.26 99.0312C119.671 99.0312 120.043 98.974 120.377 98.8594C120.71 98.7396 120.999 98.5651 121.244 98.3359C121.489 98.1068 121.674 97.8229 121.799 97.4844L124.439 97.7812C124.273 98.4792 123.955 99.0885 123.486 99.6094C123.023 100.125 122.429 100.526 121.705 100.812C120.981 101.094 120.153 101.234 119.22 101.234ZM135.993 92.1719L133.415 92.4531C133.342 92.1927 133.215 91.9479 133.032 91.7188C132.855 91.4896 132.616 91.3047 132.314 91.1641C132.012 91.0234 131.642 90.9531 131.204 90.9531C130.616 90.9531 130.121 91.0807 129.72 91.3359C129.324 91.5911 129.129 91.9219 129.134 92.3281C129.129 92.6771 129.256 92.9609 129.517 93.1797C129.782 93.3984 130.22 93.5781 130.829 93.7188L132.876 94.1562C134.012 94.401 134.855 94.7891 135.407 95.3203C135.965 95.8516 136.246 96.5469 136.251 97.4062C136.246 98.1615 136.025 98.8281 135.587 99.4062C135.155 99.9792 134.553 100.427 133.782 100.75C133.012 101.073 132.126 101.234 131.126 101.234C129.657 101.234 128.475 100.927 127.579 100.312C126.683 99.6927 126.15 98.8307 125.978 97.7266L128.736 97.4609C128.861 98.0026 129.126 98.4115 129.532 98.6875C129.939 98.9635 130.467 99.1016 131.118 99.1016C131.79 99.1016 132.329 98.9635 132.736 98.6875C133.147 98.4115 133.353 98.0703 133.353 97.6641C133.353 97.3203 133.22 97.0365 132.954 96.8125C132.694 96.5885 132.288 96.4167 131.736 96.2969L129.689 95.8672C128.538 95.6276 127.686 95.224 127.134 94.6562C126.582 94.0833 126.308 93.3594 126.314 92.4844C126.308 91.7448 126.509 91.1042 126.915 90.5625C127.327 90.0156 127.897 89.5937 128.626 89.2969C129.361 88.9948 130.207 88.8438 131.165 88.8438C132.571 88.8438 133.678 89.1432 134.486 89.7422C135.298 90.3411 135.801 91.151 135.993 92.1719Z" fill="#2B70C5"/>
<path d="M69.1563 222C67.1475 222 65.1839 222.596 63.5137 223.712C61.8436 224.828 60.5418 226.414 59.7731 228.27C59.0044 230.125 58.8033 232.168 59.1952 234.138C59.587 236.108 60.5543 237.917 61.9747 239.338C63.3951 240.758 65.2047 241.725 67.1749 242.117C69.145 242.509 71.1871 242.308 73.0429 241.539C74.8987 240.771 76.4849 239.469 77.6009 237.799C78.7169 236.129 79.3125 234.165 79.3125 232.156C79.3097 229.464 78.2387 226.882 76.3347 224.978C74.4306 223.074 71.849 222.003 69.1563 222ZM73.6152 232.709L70.4902 235.834C70.3436 235.981 70.1448 236.063 69.9375 236.063C69.7302 236.063 69.5314 235.981 69.3848 235.834C69.2382 235.687 69.1558 235.489 69.1558 235.281C69.1558 235.074 69.2382 234.875 69.3848 234.729L71.1768 232.938H65.25C65.0428 232.938 64.8441 232.855 64.6976 232.709C64.5511 232.562 64.4688 232.363 64.4688 232.156C64.4688 231.949 64.5511 231.75 64.6976 231.604C64.8441 231.457 65.0428 231.375 65.25 231.375H71.1768L69.3848 229.584C69.2382 229.437 69.1558 229.239 69.1558 229.031C69.1558 228.824 69.2382 228.625 69.3848 228.479C69.5314 228.332 69.7302 228.25 69.9375 228.25C70.1448 228.25 70.3436 228.332 70.4902 228.479L73.6152 231.604C73.6879 231.676 73.7455 231.762 73.7848 231.857C73.8241 231.952 73.8444 232.054 73.8444 232.156C73.8444 232.259 73.8241 232.361 73.7848 232.455C73.7455 232.55 73.6879 232.636 73.6152 232.709Z" fill="#00CC8F"/>
<line x1="140.011" y1="167.312" x2="170.488" y2="186.013" stroke="#303236" stroke-width="1.02162"/>
<path d="M122.449 178.374C118.418 178.374 114.476 177.179 111.124 174.939C107.771 172.699 105.159 169.515 103.616 165.79C102.073 162.065 101.669 157.966 102.456 154.012C103.242 150.058 105.184 146.425 108.035 143.574C110.886 140.723 114.518 138.782 118.472 137.995C122.427 137.209 126.526 137.612 130.251 139.155C133.975 140.698 137.159 143.311 139.399 146.663C141.639 150.016 142.835 153.957 142.835 157.989C142.829 163.394 140.679 168.575 136.857 172.397C133.036 176.219 127.854 178.368 122.449 178.374ZM122.449 139.009C118.696 139.009 115.026 140.123 111.905 142.208C108.784 144.294 106.351 147.258 104.915 150.726C103.478 154.194 103.102 158.01 103.835 161.692C104.567 165.373 106.374 168.755 109.029 171.409C111.683 174.064 115.065 175.871 118.747 176.604C122.428 177.336 126.244 176.96 129.713 175.524C133.181 174.087 136.145 171.655 138.23 168.533C140.316 165.412 141.429 161.743 141.429 157.989C141.423 152.957 139.422 148.133 135.864 144.575C132.306 141.017 127.481 139.015 122.449 139.009Z" fill="#E5E5E5"/>
<path d="M123.292 158.677C122.752 158.677 122.299 158.496 121.932 158.134C121.564 157.772 121.38 157.326 121.38 156.794C121.38 156.263 121.564 155.817 121.932 155.455C122.299 155.092 122.752 154.911 123.292 154.911C123.831 154.911 124.284 155.092 124.652 155.455C125.019 155.817 125.203 156.263 125.203 156.794C125.203 157.326 125.019 157.772 124.652 158.134C124.284 158.496 123.831 158.677 123.292 158.677ZM116.932 161.9C116.578 161.9 116.269 161.77 116.005 161.51C115.741 161.25 115.609 160.946 115.609 160.597V152.992C115.609 152.643 115.741 152.338 116.005 152.078C116.269 151.818 116.578 151.688 116.932 151.688H129.651C130.005 151.688 130.314 151.818 130.578 152.078C130.842 152.338 130.974 152.643 130.974 152.992V160.597C130.974 160.946 130.842 161.25 130.578 161.51C130.314 161.77 130.005 161.9 129.651 161.9H116.932ZM118.109 161.176H128.474C128.474 160.698 128.648 160.289 128.995 159.949C129.342 159.608 129.757 159.438 130.239 159.438V154.151C129.754 154.151 129.338 153.98 128.993 153.638C128.647 153.296 128.474 152.888 128.474 152.413H118.109C118.109 152.891 117.935 153.3 117.588 153.64C117.241 153.981 116.826 154.151 116.344 154.151V159.438C116.83 159.438 117.245 159.609 117.59 159.951C117.936 160.293 118.109 160.701 118.109 161.176ZM128.144 164.29H114.506C114.152 164.29 113.843 164.16 113.579 163.9C113.315 163.64 113.183 163.336 113.183 162.987V154.477H113.918V162.987C113.918 163.132 113.98 163.264 114.102 163.385C114.225 163.506 114.359 163.566 114.506 163.566H128.144V164.29ZM116.932 161.176H116.344V152.413H116.932C116.773 152.413 116.635 152.47 116.519 152.585C116.403 152.699 116.344 152.835 116.344 152.992V160.597C116.344 160.754 116.403 160.889 116.519 161.004C116.635 161.119 116.773 161.176 116.932 161.176Z" fill="#1566D6"/>
<path d="M282.339 141.771C278.307 141.771 274.365 140.575 271.013 138.335C267.661 136.095 265.048 132.912 263.505 129.187C261.962 125.462 261.558 121.363 262.345 117.408C263.131 113.454 265.073 109.822 267.924 106.971C270.775 104.12 274.407 102.178 278.362 101.392C282.316 100.605 286.415 101.009 290.14 102.552C293.865 104.095 297.048 106.708 299.288 110.06C301.528 113.412 302.724 117.354 302.724 121.385C302.718 126.79 300.568 131.972 296.746 135.793C292.925 139.615 287.743 141.765 282.339 141.771ZM282.339 102.406C278.585 102.406 274.915 103.519 271.794 105.605C268.673 107.69 266.24 110.654 264.804 114.122C263.367 117.59 262.991 121.406 263.724 125.088C264.456 128.77 266.264 132.152 268.918 134.806C271.572 137.46 274.954 139.268 278.636 140C282.317 140.733 286.134 140.357 289.602 138.92C293.07 137.484 296.034 135.051 298.119 131.93C300.205 128.809 301.318 125.139 301.318 121.385C301.312 116.353 299.311 111.529 295.753 107.971C292.195 104.413 287.37 102.412 282.339 102.406Z" fill="#E5E5E5"/>
<path d="M277.256 127.526V120.138H278.213V127.526H277.256ZM281.92 127.526V120.138H282.877V127.526H281.92ZM274.555 129.91V128.933H290.122V129.91H274.555ZM286.463 127.526V120.138H287.42V127.526H286.463ZM274.555 118.731V117.929L282.338 113.602L290.122 117.929V118.731H274.555ZM276.869 117.754H287.808L282.338 114.722L276.869 117.754Z" fill="#1566D6"/>
<path d="M304.84 202.904C300.808 202.904 296.867 201.708 293.514 199.468C290.162 197.228 287.549 194.044 286.006 190.319C284.463 186.594 284.06 182.496 284.846 178.541C285.633 174.587 287.574 170.955 290.425 168.104C293.276 165.253 296.909 163.311 300.863 162.525C304.817 161.738 308.916 162.142 312.641 163.685C316.366 165.227 319.55 167.84 321.79 171.193C324.03 174.545 325.225 178.486 325.225 182.518C325.219 187.923 323.07 193.104 319.248 196.926C315.426 200.748 310.245 202.898 304.84 202.904ZM304.84 163.539C301.086 163.539 297.417 164.652 294.296 166.737C291.174 168.823 288.742 171.787 287.305 175.255C285.869 178.723 285.493 182.539 286.225 186.221C286.957 189.903 288.765 193.284 291.419 195.939C294.074 198.593 297.456 200.401 301.137 201.133C304.819 201.865 308.635 201.49 312.103 200.053C315.571 198.617 318.535 196.184 320.621 193.063C322.706 189.942 323.82 186.272 323.82 182.518C323.814 177.486 321.812 172.662 318.254 169.104C314.696 165.546 309.872 163.544 304.84 163.539Z" fill="#E5E5E5"/>
<path d="M297.056 190.302V178.442H300.781V174.735H308.916V182.167H312.623V190.302H306.352V186.578H303.327V190.302H297.056ZM297.761 189.598H300.781V186.578H297.761V189.598ZM297.761 185.874H300.781V182.871H297.761V185.874ZM297.761 182.167H300.781V179.147H297.761V182.167ZM301.485 185.874H304.487V182.871H301.485V185.874ZM301.485 182.167H304.487V179.147H301.485V182.167ZM301.485 178.442H304.487V175.44H301.485V178.442ZM305.192 185.874H308.212V182.871H305.192V185.874ZM305.192 182.167H308.212V179.147H305.192V182.167ZM305.192 178.442H308.212V175.44H305.192V178.442ZM308.916 189.598H311.919V186.578H308.916V189.598ZM308.916 185.874H311.919V182.871H308.916V185.874Z" fill="#1566D6"/>
<path d="M294.866 269.72C290.835 269.72 286.893 268.524 283.541 266.284C280.188 264.044 277.576 260.861 276.033 257.136C274.49 253.411 274.086 249.312 274.873 245.358C275.659 241.403 277.601 237.771 280.452 234.92C283.303 232.069 286.935 230.128 290.889 229.341C294.844 228.554 298.943 228.958 302.668 230.501C306.392 232.044 309.576 234.657 311.816 238.009C314.056 241.361 315.252 245.303 315.252 249.335C315.246 254.739 313.096 259.921 309.274 263.743C305.453 267.564 300.271 269.714 294.866 269.72ZM294.866 230.355C291.113 230.355 287.443 231.468 284.322 233.554C281.201 235.639 278.768 238.603 277.332 242.071C275.895 245.54 275.519 249.356 276.252 253.037C276.984 256.719 278.791 260.101 281.446 262.755C284.1 265.41 287.482 267.217 291.164 267.949C294.845 268.682 298.661 268.306 302.13 266.869C305.598 265.433 308.562 263 310.647 259.879C312.733 256.758 313.846 253.088 313.846 249.335C313.84 244.303 311.839 239.478 308.281 235.92C304.723 232.362 299.898 230.361 294.866 230.355Z" fill="#E5E5E5"/>
<path d="M287.898 257.029H292.174V250.55H296.817V257.029H301.094V246.937L294.496 241.839L287.898 246.93V257.029ZM287.083 257.86V246.521L294.496 240.811L301.909 246.521V257.86H296.003V251.381H292.989V257.86H287.083Z" fill="#1566D6"/>
<rect x="165.324" y="150.3" width="82.1277" height="82.1277" rx="41.0639" fill="white"/>
<path d="M215.784 186.667C214.879 186.667 214.131 186.371 213.54 185.78C212.948 185.188 212.652 184.44 212.652 183.535C212.652 182.63 212.948 181.882 213.54 181.291C214.131 180.699 214.879 180.403 215.784 180.403C216.689 180.403 217.437 180.699 218.029 181.291C218.62 181.882 218.916 182.63 218.916 183.535C218.916 184.44 218.62 185.188 218.029 185.78C217.437 186.371 216.689 186.667 215.784 186.667ZM196.992 186.667C196.087 186.667 195.339 186.371 194.748 185.78C194.156 185.188 193.86 184.44 193.86 183.535C193.86 182.63 194.156 181.882 194.748 181.291C195.339 180.699 196.087 180.403 196.992 180.403C197.897 180.403 198.645 180.699 199.237 181.291C199.828 181.882 200.124 182.63 200.124 183.535C200.124 184.44 199.828 185.188 199.237 185.78C198.645 186.371 197.897 186.667 196.992 186.667ZM206.388 192.409C205.483 192.409 204.735 192.113 204.144 191.522C203.552 190.93 203.256 190.182 203.256 189.277C203.256 188.372 203.552 187.624 204.144 187.032C204.735 186.441 205.483 186.145 206.388 186.145C207.293 186.145 208.041 186.441 208.633 187.032C209.224 187.624 209.52 188.372 209.52 189.277C209.52 190.182 209.224 190.93 208.633 191.522C208.041 192.113 207.293 192.409 206.388 192.409ZM206.388 180.925C205.483 180.925 204.735 180.629 204.144 180.038C203.552 179.446 203.256 178.698 203.256 177.793C203.256 176.888 203.552 176.14 204.144 175.549C204.735 174.957 205.483 174.661 206.388 174.661C207.293 174.661 208.041 174.957 208.633 175.549C209.224 176.14 209.52 176.888 209.52 177.793C209.52 178.698 209.224 179.446 208.633 180.038C208.041 180.629 207.293 180.925 206.388 180.925ZM206.388 208.069C205.727 208.069 205.048 208.017 204.352 207.912C203.656 207.808 202.978 207.669 202.317 207.495V199.978C202.317 198.76 202.699 197.716 203.465 196.846C204.231 195.976 205.205 195.541 206.388 195.541C207.571 195.541 208.546 195.976 209.311 196.846C210.077 197.716 210.46 198.76 210.46 199.978V207.495C209.799 207.669 209.12 207.808 208.424 207.912C207.728 208.017 207.049 208.069 206.388 208.069ZM199.185 206.451C198.523 206.172 197.862 205.859 197.201 205.511C196.54 205.163 195.913 204.78 195.322 204.363C194.347 203.702 193.573 202.814 192.999 201.701C192.425 200.587 192.138 199.386 192.138 198.099C192.138 197.194 192.051 196.333 191.877 195.515C191.703 194.697 191.355 193.94 190.833 193.244C190.45 192.827 189.78 192.165 188.823 191.261C187.866 190.356 186.987 189.503 186.187 188.703C185.734 188.216 185.508 187.702 185.508 187.163C185.508 186.624 185.734 186.128 186.187 185.675C186.674 185.188 187.161 184.944 187.648 184.944C188.136 184.944 188.623 185.188 189.11 185.675L197.149 193.244C197.81 193.871 198.315 194.619 198.663 195.489C199.011 196.359 199.185 197.246 199.185 198.151V206.451ZM213.592 206.451V198.151C213.592 197.246 213.809 196.359 214.244 195.489C214.679 194.619 215.227 193.871 215.889 193.244L223.666 185.675C224.084 185.292 224.58 185.101 225.154 185.101C225.728 185.101 226.207 185.292 226.59 185.675C227.042 186.128 227.268 186.624 227.268 187.163C227.268 187.702 227.042 188.216 226.59 188.703C225.789 189.503 224.91 190.338 223.953 191.208C222.996 192.078 222.327 192.757 221.944 193.244C221.422 193.94 221.074 194.697 220.9 195.515C220.726 196.333 220.639 197.194 220.639 198.099C220.639 199.386 220.352 200.587 219.777 201.701C219.203 202.814 218.429 203.702 217.455 204.363C216.863 204.746 216.237 205.12 215.575 205.485C214.914 205.851 214.253 206.172 213.592 206.451Z" fill="#1566D6"/>
<rect x="165.324" y="150.3" width="82.1277" height="82.1277" rx="41.0639" stroke="#303236" stroke-width="1.392" stroke-linecap="round"/>
<line x1="269.381" y1="137.663" x2="240.009" y2="164.481" stroke="#303236" stroke-width="1.02162"/>
<line x1="284.397" y1="183.769" x2="248.641" y2="186.323" stroke="#303236" stroke-width="1.02162"/>
<line x1="276.419" y1="241.152" x2="239.385" y2="216.888" stroke="#303236" stroke-width="1.02162"/>
<rect x="31" y="20" width="318.667" height="259" rx="16" stroke="#1566D6" stroke-opacity="0.24" stroke-width="2" shape-rendering="crispEdges"/>
</g>
<defs>
<filter id="filter0_d_1325_42827" x="0" y="-11" width="392.667" height="333" filterUnits="userSpaceOnUse" color-interpolation-filters="sRGB">
<feFlood flood-opacity="0" result="BackgroundImageFix"/>
<feColorMatrix in="SourceAlpha" type="matrix" values="0 0 0 0 0 0 0 0 0 0 0 0 0 0 0 0 0 0 127 0" result="hardAlpha"/>
<feOffset dx="6" dy="6"/>
<feGaussianBlur stdDeviation="18"/>
<feComposite in2="hardAlpha" operator="out"/>
<feColorMatrix type="matrix" values="0 0 0 0 0.0823529 0 0 0 0 0.4 0 0 0 0 0.839216 0 0 0 0.1 0"/>
<feBlend mode="normal" in2="BackgroundImageFix" result="effect1_dropShadow_1325_42827"/>
<feBlend mode="normal" in="SourceGraphic" in2="effect1_dropShadow_1325_42827" result="shape"/>
</filter>
</defs>
</svg>
