<svg width="129" height="34" viewBox="0 0 129 34" fill="none" xmlns="http://www.w3.org/2000/svg">
<g id="dotcom-logo">
<path id="Vector" d="M17.9453 23.2532H125.051V23.4743H17.9453V23.2532ZM18.5846 20.9272H21.5769L23.924 12.0017H20.9317L18.5846 20.9272ZM31.0276 15.0598H34.0221C34.42 13.0532 33.1473 12.0204 30.2117 12.0204C26.8164 12.0204 24.508 13.7141 23.7342 16.6572C23.0331 19.3236 24.4214 20.9478 27.6166 20.9478C30.847 20.9478 32.7549 19.9247 33.5704 17.6302H30.5639C30.1452 18.6393 29.3578 19.1681 28.2969 19.1681C26.8468 19.1681 26.2796 18.2313 26.725 16.5375C27.1895 14.7714 28.2822 13.7985 29.744 13.7985C30.6638 13.7981 31.0957 14.2185 31.0276 15.0598ZM33.4721 20.9272H36.4647L38.8119 12.0017H35.8196L33.4721 20.9272ZM45.9151 15.0598H48.9096C49.3075 13.0532 48.0348 12.0204 45.0989 12.0204C41.7036 12.0204 39.3952 13.7141 38.6213 16.6572C37.9199 19.3236 39.3085 20.9478 42.5037 20.9478C45.7341 20.9478 47.642 19.9247 48.4576 17.6302H45.451C45.0323 18.6393 44.2449 19.1681 43.184 19.1681C41.7339 19.1681 41.1667 18.2313 41.6125 16.5375C42.077 14.7714 43.1697 13.7985 44.6315 13.7985C45.5512 13.7981 45.9832 14.2185 45.9151 15.0598ZM48.3596 20.9272H51.3519L53.699 12.0017H50.7067L48.3596 20.9272Z" fill="#004A80"/>
<path id="Vector_2" d="M65.107 11.9773H63.288L62.3357 15.5965C61.8394 14.8376 61.1123 14.5391 60.1355 14.5391C58.304 14.5391 56.6579 15.8327 56.1375 17.8101C55.601 19.8505 56.4974 21.0839 58.4262 21.0839C59.4641 21.0839 60.3531 20.7209 61.255 19.9372L61.0783 20.9343H62.8608C62.9585 20.2853 63.108 19.5766 63.3044 18.8301L65.107 11.9773ZM61.7586 17.8851C61.4345 19.1165 60.4807 19.9127 59.3576 19.9127C58.2466 19.9127 57.7357 19.1165 58.0597 17.8851C58.4163 16.529 59.3393 15.7581 60.536 15.7581C61.5731 15.7581 62.1118 16.5418 61.7586 17.8851ZM64.2326 20.9346H66.1248L67.7676 14.6884H65.8754L64.2326 20.9346ZM68.5418 11.9773H66.5275L66.1021 13.5941H68.1165L68.5418 11.9773ZM69.5965 20.9346L70.3236 18.1711C70.7292 16.6289 71.6098 15.8327 72.9161 15.8327C73.0748 15.8327 73.2424 15.8451 73.4069 15.87L73.7573 14.5391H73.5861C72.4144 14.5391 71.5506 14.8997 70.9281 15.7332L71.1417 14.6884H69.2864C69.0845 15.7332 68.935 16.442 68.8369 16.815L67.7534 20.9346H69.5965ZM74.9864 18.283H80.1507L80.2161 18.0344C80.8247 15.7212 79.9752 14.5391 77.7048 14.5391C75.422 14.5391 73.6933 15.8203 73.1436 17.9096C72.6199 19.8999 73.6607 21.0959 76.0167 21.0959C77.9334 21.0959 79.3374 20.2605 79.8581 18.9296H78.0756C77.8167 19.5886 77.1935 19.9617 76.3879 19.9617C75.2037 19.9617 74.6979 19.3773 74.9696 18.3448L74.9864 18.283ZM75.2742 17.1884C75.6074 16.2928 76.3707 15.7581 77.323 15.7581C78.373 15.7581 78.8191 16.2434 78.607 17.1884H75.2742ZM86.242 18.7186C85.9846 19.4651 85.3398 19.8754 84.412 19.8754C83.1547 19.8754 82.6906 19.1791 83.0475 17.8234C83.407 16.4552 84.2438 15.734 85.4528 15.734C86.283 15.734 86.7405 16.0822 86.7665 16.6794H88.5124C88.7607 15.4107 87.781 14.5399 85.8277 14.5399C83.3737 14.5399 81.6801 15.734 81.1176 17.8735C80.5881 19.8886 81.6406 21.0846 84.0086 21.0846C86.1334 21.0846 87.6208 20.1618 88.0856 18.7194L86.242 18.7186ZM93.4115 12.7358L91.4736 13.2332L91.0907 14.6888H89.4062L89.0825 15.9201H90.7674L90.0184 18.7688C89.5733 20.4606 89.7909 21.0722 91.6345 21.0722C92.0375 21.0722 92.5107 21.0349 93.0491 20.9852L93.3994 19.652C92.999 19.6897 92.6753 19.7145 92.4186 19.7145C91.6736 19.7145 91.6327 19.4534 91.8422 18.6572L92.5616 15.9205H94.3686L94.6926 14.6891H92.898L93.4115 12.7358ZM94.2874 20.9346H96.1551L96.5939 19.2661H94.7262L94.2874 20.9346ZM103.457 18.7186C103.199 19.4651 102.554 19.8754 101.627 19.8754C100.369 19.8754 99.9051 19.1791 100.262 17.8234C100.622 16.4552 101.458 15.734 102.667 15.734C103.497 15.734 103.955 16.0822 103.981 16.6794H105.727C105.975 15.4107 104.995 14.5399 103.042 14.5399C100.588 14.5399 98.8946 15.734 98.3318 17.8735C97.8019 19.8886 98.8548 21.0846 101.223 21.0846C103.348 21.0846 104.835 20.1618 105.3 18.7194L103.457 18.7186ZM113.906 17.8105C114.446 15.7585 113.363 14.5395 110.897 14.5395C108.443 14.5395 106.694 15.7585 106.154 17.8105C105.614 19.8634 106.722 21.0842 109.176 21.0842C111.642 21.0839 113.367 19.863 113.906 17.8105ZM108.083 17.8105C108.397 16.6168 109.422 15.7834 110.57 15.7834C111.705 15.7834 112.304 16.6168 111.99 17.8105C111.676 19.0046 110.638 19.8381 109.503 19.8381C108.356 19.8381 107.769 19.0046 108.083 17.8105ZM123.869 20.9346H125.639L126.591 17.3128C126.814 16.4672 126.901 15.8576 126.538 15.3353C126.193 14.838 125.535 14.552 124.62 14.552C123.545 14.552 122.703 14.925 121.842 15.7834C121.676 14.9744 121.006 14.552 119.858 14.552C118.747 14.552 117.853 14.9374 117.096 15.7709L117.32 14.6884H115.574C115.376 15.7212 115.252 16.3305 115.203 16.517L114.041 20.9346H115.848L116.689 17.7359C116.993 16.5788 117.95 15.7709 118.903 15.7709C119.843 15.7709 120.164 16.4051 119.831 17.6738L118.973 20.9346H120.743L121.584 17.7359C121.892 16.5667 122.846 15.7709 123.798 15.7709C124.751 15.7709 125.06 16.4051 124.727 17.6738L123.869 20.9346Z" fill="#F58220"/>
<path id="Vector_3" d="M15.9785 30.7869L17.3426 25.8357H18.36L16.9945 30.7869H15.9785ZM18.4434 30.7869L19.109 28.3905L19.1317 28.3128C19.2341 27.946 19.3072 27.6192 19.3493 27.3352H20.249L20.1572 27.8737C20.3791 27.6561 20.5854 27.4996 20.7774 27.4005C20.959 27.3045 21.159 27.2539 21.3618 27.2528C21.6123 27.2528 21.8062 27.3228 21.9444 27.4634C22.0823 27.6045 22.1514 27.805 22.1514 28.0653C22.1514 28.2305 22.1072 28.4756 22.0186 28.8001L21.9894 28.9011L21.4716 30.7873H20.5009L21.1135 28.5821C21.1329 28.5168 21.1479 28.4574 21.1578 28.4045C21.1684 28.3505 21.1739 28.3035 21.1739 28.2635C21.1739 28.1671 21.1435 28.0929 21.0843 28.0397C21.0239 27.9872 20.9387 27.9608 20.8297 27.9608C20.6355 27.9608 20.4567 28.049 20.2914 28.2254C20.1253 28.4034 20.0014 28.6427 19.9173 28.9443L19.4115 30.7873H18.4434V30.7869ZM23.7174 30.7869L23.2526 27.3348H24.1782L24.4437 29.8298L25.6732 27.3348H26.6245L24.7984 30.7869H23.7174ZM28.1952 28.6758H29.2188C29.2481 28.5677 29.2697 28.4795 29.2836 28.4108C29.2978 28.3431 29.3041 28.2837 29.3041 28.2343C29.3041 28.1151 29.2704 28.0214 29.2027 27.9538C29.1358 27.885 29.044 27.8504 28.9277 27.8504C28.7595 27.8504 28.6085 27.925 28.4746 28.0739C28.3408 28.2242 28.2468 28.4251 28.1952 28.6758ZM29.8541 29.735C29.7407 30.1154 29.5564 30.3987 29.3004 30.5844C29.0459 30.7702 28.7105 30.863 28.2932 30.863C27.8865 30.863 27.5793 30.7655 27.3712 30.5693C27.1628 30.3734 27.0586 30.0859 27.0586 29.7051C27.0586 29.4257 27.1079 29.1207 27.2085 28.7904C27.3087 28.4605 27.4338 28.1865 27.5826 27.9666C27.7541 27.7214 27.9494 27.5392 28.1703 27.4222C28.3912 27.3045 28.6513 27.2458 28.9478 27.2458C29.3567 27.2458 29.6628 27.3364 29.8658 27.5182C30.0695 27.7004 30.1708 27.9744 30.1708 28.3389C30.1708 28.4613 30.1576 28.6 30.1331 28.7546C30.1071 28.9093 30.0684 29.0915 30.0154 29.3014H28.0083C27.9844 29.3862 27.9663 29.4729 27.9542 29.5605C27.9436 29.6371 27.9381 29.7082 27.9381 29.7758C27.9381 29.9239 27.9728 30.0362 28.0405 30.1143C28.1096 30.1912 28.2087 30.2297 28.3393 30.2297C28.4688 30.2297 28.5832 30.1865 28.6845 30.1003C28.7862 30.0132 28.8648 29.8916 28.9219 29.7346H29.8541V29.735ZM31.777 29.6868C31.777 29.7028 31.7759 29.7303 31.7733 29.7708C31.7717 29.8031 31.7707 29.8355 31.7704 29.8679C31.7704 29.9973 31.8081 30.0948 31.8827 30.1597C31.9573 30.2254 32.0703 30.2572 32.2224 30.2572C32.4068 30.2572 32.5523 30.2207 32.6558 30.1461C32.7608 30.0727 32.8123 29.9693 32.8123 29.838C32.8123 29.7066 32.6697 29.5687 32.3859 29.4253C32.3114 29.3891 32.2378 29.3508 32.165 29.3107C31.8491 29.1362 31.6388 28.9804 31.5331 28.844C31.4285 28.7076 31.3755 28.5394 31.3755 28.3396C31.3755 28.0086 31.5071 27.7447 31.7693 27.5477C32.0315 27.3507 32.387 27.252 32.8379 27.252C33.2494 27.252 33.5566 27.3196 33.7614 27.4537C33.9654 27.5882 34.0675 27.791 34.0675 28.0591C34.0675 28.089 34.0664 28.1255 34.0634 28.1702C34.0602 28.2153 34.0547 28.2689 34.0481 28.3323L33.155 28.3358C33.155 28.3268 33.1561 28.3117 33.1583 28.2899C33.1605 28.2693 33.1616 28.2534 33.1616 28.2452C33.1616 28.103 33.1294 27.9989 33.0632 27.9313C32.9978 27.8636 32.895 27.8306 32.7538 27.8306C32.6112 27.8306 32.5015 27.8636 32.4203 27.9301C32.3402 27.9954 32.3003 28.0871 32.3003 28.204C32.3003 28.361 32.4612 28.5145 32.7838 28.6668C32.8193 28.6855 32.8474 28.6991 32.8657 28.708C33.1905 28.8638 33.4117 29.0127 33.5291 29.1549C33.6465 29.2967 33.7047 29.4712 33.7047 29.6798C33.7047 30.0521 33.5679 30.3447 33.294 30.5541C33.0201 30.7636 32.635 30.8692 32.1398 30.8692C31.7061 30.8692 31.3791 30.795 31.1604 30.6447C30.9413 30.4958 30.8313 30.2724 30.8313 29.974C30.8313 29.9433 30.8324 29.904 30.8357 29.8559C30.839 29.8077 30.8444 29.7513 30.851 29.6895L31.777 29.6868ZM34.973 29.6798L35.4554 27.9542H34.838L35.0121 27.3352H35.6225L35.8222 26.6268L36.8597 26.3591L36.5814 27.3356H37.3051L37.1314 27.9546H36.4132L35.9805 29.5026C35.9631 29.5623 35.9494 29.6232 35.9396 29.6849C35.9314 29.7356 35.9272 29.7869 35.9268 29.8384C35.9268 29.9254 35.9527 29.9922 36.0043 30.0381C36.0562 30.0839 36.1316 30.1069 36.2296 30.1069C36.2848 30.1069 36.344 30.1022 36.4077 30.0933C36.4702 30.0839 36.5437 30.0715 36.6256 30.0529L36.426 30.7554C36.2804 30.7865 36.152 30.8094 36.0398 30.8218C35.9381 30.8349 35.8357 30.8417 35.7333 30.8424C35.4649 30.8424 35.2586 30.7853 35.1141 30.6695C34.9693 30.5537 34.8973 30.3901 34.8973 30.178C34.8973 30.101 34.9039 30.0222 34.917 29.9398C34.9287 29.8551 34.9485 29.7692 34.973 29.6798ZM37.5955 30.7869L38.2607 28.3905L38.2838 28.3128C38.3858 27.946 38.4593 27.6192 38.5018 27.3352H39.4014L39.3041 27.8737C39.5276 27.6538 39.7324 27.4957 39.9204 27.3981C40.0988 27.3032 40.2954 27.2534 40.4949 27.2524C40.7162 27.2524 40.895 27.3111 41.0332 27.4288C41.1711 27.5454 41.2497 27.7059 41.2684 27.9099C41.5368 27.6682 41.7665 27.4988 41.9596 27.4001C42.1396 27.3047 42.3377 27.2541 42.5389 27.252C42.7879 27.252 42.9799 27.322 43.1145 27.4626C43.2495 27.6037 43.3164 27.8042 43.3164 28.0642C43.3164 28.2406 43.2688 28.5021 43.1738 28.8495L43.1609 28.8996L42.6431 30.7861H41.6853L42.2917 28.581C42.311 28.511 42.3242 28.4516 42.333 28.401C42.3414 28.3505 42.3458 28.3047 42.3458 28.2623C42.3458 28.164 42.3165 28.0879 42.2584 28.0362C42.201 27.9845 42.1172 27.9596 42.0079 27.9596C41.8162 27.9596 41.6381 28.0478 41.4743 28.2242C41.309 28.4022 41.185 28.6416 41.1009 28.9431L40.605 30.7861H39.645L40.2546 28.581C40.274 28.511 40.2868 28.4512 40.2945 28.401C40.3022 28.3505 40.3055 28.3047 40.3055 28.2623C40.3055 28.164 40.2773 28.0882 40.2203 28.0366C40.1632 27.9849 40.0802 27.9596 39.9708 27.9596C39.7792 27.9596 39.6007 28.0482 39.4369 28.2242C39.2719 28.4022 39.148 28.6412 39.0639 28.9431L38.5643 30.7861L37.5955 30.7869ZM45.4441 28.6758H46.4678C46.497 28.5677 46.5186 28.4795 46.5325 28.4108C46.5464 28.3431 46.553 28.2837 46.553 28.2343C46.553 28.1151 46.5193 28.0214 46.4513 27.9538C46.3844 27.885 46.2929 27.8504 46.1763 27.8504C46.0081 27.8504 45.857 27.925 45.7235 28.0739C45.59 28.2242 45.496 28.4251 45.4441 28.6758ZM47.103 29.735C46.9896 30.1154 46.8053 30.3987 46.5497 30.5844C46.2951 30.7702 45.9598 30.863 45.5421 30.863C45.1355 30.863 44.8283 30.7655 44.6202 30.5693C44.4121 30.3734 44.3071 30.0859 44.3071 29.7051C44.3071 29.4257 44.3568 29.1207 44.4574 28.7904C44.5576 28.4605 44.6831 28.1865 44.8316 27.9666C45.0031 27.7214 45.1984 27.5392 45.4193 27.4222C45.6401 27.3045 45.9002 27.2458 46.1968 27.2458C46.6056 27.2458 46.9117 27.3364 47.1147 27.5182C47.3184 27.7004 47.4197 27.9744 47.4197 28.3389C47.4197 28.4613 47.4069 28.6 47.382 28.7546C47.3561 28.9093 47.3173 29.0915 47.2643 29.3014H45.2569C45.233 29.3862 45.2151 29.4729 45.2031 29.5605C45.1925 29.6371 45.187 29.7082 45.187 29.7758C45.187 29.9239 45.2218 30.0362 45.2894 30.1143C45.3585 30.1912 45.4576 30.2297 45.5882 30.2297C45.7177 30.2297 45.8321 30.1865 45.9334 30.1003C46.0348 30.0132 46.1134 29.8916 46.1704 29.7346H47.103V29.735ZM48.1259 30.7869L48.7915 28.3905L48.8145 28.3128C48.9169 27.946 48.9904 27.6192 49.0321 27.3352H49.9318L49.8404 27.8737C50.0624 27.6561 50.2686 27.4996 50.4606 27.4005C50.6424 27.3044 50.8424 27.2539 51.0454 27.2528C51.2955 27.2528 51.4897 27.3228 51.6276 27.4634C51.7658 27.6045 51.8346 27.805 51.8346 28.0653C51.8346 28.2305 51.7903 28.4756 51.7018 28.8001L51.6726 28.9011L51.1547 30.7873H50.1841L50.7967 28.5821C50.8165 28.5168 50.8314 28.4574 50.841 28.4045C50.8516 28.3505 50.857 28.3035 50.857 28.2635C50.857 28.1671 50.8267 28.0929 50.7674 28.0397C50.7071 27.9872 50.6219 27.9608 50.5129 27.9608C50.3187 27.9608 50.1395 28.049 49.9746 28.2254C49.8082 28.4034 49.6846 28.6427 49.6005 28.9443L49.0947 30.7873H48.1259V30.7869ZM52.9654 29.6798L53.4474 27.9542H52.8301L53.0038 27.3352H53.6142L53.8139 26.6268L54.8514 26.3591L54.5734 27.3356H55.2972L55.1235 27.9546H54.4052L53.9729 29.5026C53.9553 29.5623 53.9416 29.6232 53.932 29.6849C53.9239 29.7356 53.9196 29.7869 53.9192 29.8384C53.9192 29.9254 53.9448 29.9922 53.9967 30.0381C54.0483 30.0839 54.124 30.1069 54.222 30.1069C54.2769 30.1069 54.3365 30.1022 54.4001 30.0933C54.4623 30.0839 54.5358 30.0715 54.618 30.0529L54.4187 30.7554C54.2728 30.7865 54.1445 30.8094 54.0322 30.8218C53.9306 30.8349 53.8284 30.8417 53.7261 30.8424C53.4576 30.8424 53.2514 30.7853 53.1069 30.6695C52.9621 30.5537 52.8901 30.3901 52.8901 30.178C52.8901 30.101 52.8966 30.0222 52.9094 29.9398C52.9211 29.8551 52.9402 29.7692 52.9654 29.6798ZM56.4876 29.6868C56.4876 29.7028 56.4865 29.7303 56.4843 29.7708C56.4825 29.8031 56.4815 29.8355 56.4814 29.8679C56.4814 29.9973 56.519 30.0948 56.5937 30.1597C56.6683 30.2254 56.7812 30.2572 56.9334 30.2572C57.1177 30.2572 57.2633 30.2207 57.3668 30.1461C57.4714 30.0727 57.5233 29.9693 57.5233 29.838C57.5233 29.7066 57.381 29.5687 57.0972 29.4253C57.0022 29.3783 56.929 29.3406 56.876 29.3107C56.56 29.1362 56.3497 28.9804 56.2436 28.844C56.1391 28.7076 56.086 28.5394 56.086 28.3396C56.086 28.0086 56.2177 27.7447 56.4795 27.5477C56.7418 27.3507 57.0976 27.252 57.5489 27.252C57.9596 27.252 58.2671 27.3196 58.4723 27.4537C58.676 27.5882 58.7784 27.791 58.7784 28.0591C58.7784 28.089 58.7773 28.1255 58.774 28.1702C58.7707 28.2153 58.7656 28.2689 58.7587 28.3323L57.866 28.3358C57.866 28.3268 57.8667 28.3117 57.8689 28.2899C57.8711 28.2693 57.8722 28.2534 57.8722 28.2452C57.8722 28.103 57.8396 27.9989 57.7738 27.9313C57.708 27.8636 57.6056 27.8306 57.4641 27.8306C57.3218 27.8306 57.2117 27.8636 57.1305 27.9301C57.0508 27.9954 57.0109 28.0871 57.0109 28.204C57.0109 28.361 57.1715 28.5145 57.4944 28.6668C57.5299 28.6855 57.558 28.6991 57.5763 28.708C57.9007 28.8638 58.122 29.0127 58.2394 29.1549C58.3568 29.2967 58.4149 29.4712 58.4149 29.6798C58.4149 30.0521 58.2777 30.3447 58.0038 30.5541C57.7299 30.7636 57.3448 30.8692 56.85 30.8692C56.4163 30.8692 56.0893 30.795 55.8706 30.6447C55.6516 30.4958 55.5415 30.2724 55.5415 29.974C55.5415 29.9433 55.5426 29.904 55.5459 29.8559C55.5492 29.8077 55.5543 29.7513 55.5609 29.6895L56.4876 29.6868ZM63.4914 29.109C63.4656 29.1064 63.4397 29.1045 63.4138 29.1032C63.3879 29.102 63.3557 29.102 63.3177 29.102C63.0145 29.102 62.7644 29.172 62.5669 29.313C62.3694 29.4537 62.2714 29.6305 62.2714 29.8434C62.2714 29.9545 62.3006 30.0416 62.3588 30.1038C62.4162 30.1644 62.4966 30.1955 62.6005 30.1955C62.7859 30.1955 62.9607 30.0968 63.1268 29.8982C63.2921 29.7004 63.4138 29.4377 63.4914 29.109ZM63.1666 30.7869C63.1739 30.6169 63.1896 30.4475 63.2138 30.2794C63.0726 30.471 62.9238 30.6093 62.7684 30.6967C62.6062 30.7865 62.4256 30.8317 62.2428 30.8284C61.9733 30.8284 61.7586 30.7461 61.5988 30.5805C61.4383 30.417 61.3582 30.1966 61.3582 29.9207C61.3582 29.489 61.5319 29.1553 61.8793 28.9225C62.2267 28.6898 62.7256 28.5728 63.3762 28.5728C63.4486 28.5728 63.5024 28.5728 63.5393 28.574C63.5759 28.5751 63.6106 28.5763 63.6417 28.5763C63.6772 28.4516 63.702 28.3564 63.7137 28.2922C63.7269 28.227 63.7331 28.1718 63.7331 28.1252C63.7331 28.0241 63.7028 27.9476 63.6435 27.8959C63.5832 27.8434 63.4947 27.8166 63.3769 27.8166C63.242 27.8166 63.1363 27.8512 63.0595 27.9188C62.983 27.9876 62.9249 28.0976 62.885 28.2503H61.9722C61.995 28.0999 62.0478 27.9564 62.1271 27.8294C62.2064 27.7025 62.3103 27.5951 62.4319 27.5143C62.6853 27.3402 63.0178 27.2532 63.4285 27.2532C63.8286 27.2532 64.1285 27.3263 64.327 27.4731C64.5264 27.6188 64.6255 27.8388 64.6255 28.1322C64.6255 28.2215 64.617 28.3144 64.6009 28.4096C64.5805 28.5186 64.5538 28.6261 64.5212 28.7317L64.1859 29.9075C64.146 30.0439 64.1124 30.1873 64.0875 30.3361C64.0615 30.485 64.0443 30.6353 64.0334 30.7876H63.1666V30.7869ZM65.7508 29.6798L66.2328 27.9542H65.6158L65.7899 27.3352H66.3999L66.5996 26.6268L67.6371 26.3591L67.3588 27.3356H68.0829L67.9089 27.9546H67.1906L66.7579 29.5026C66.7403 29.5623 66.7266 29.6232 66.717 29.6849C66.7089 29.7356 66.7046 29.7869 66.7042 29.8384C66.7042 29.9254 66.7301 29.9922 66.7817 30.0381C66.8333 30.0839 66.909 30.1069 67.007 30.1069C67.0622 30.1069 67.1215 30.1022 67.1851 30.0933C67.2476 30.0839 67.3211 30.0715 67.4031 30.0529L67.2037 30.7554C67.0578 30.7865 66.9295 30.8094 66.8172 30.8218C66.7156 30.8349 66.6134 30.8418 66.5111 30.8424C66.2426 30.8424 66.0364 30.7853 65.8923 30.6695C65.7475 30.5537 65.6751 30.3901 65.6751 30.178C65.6751 30.101 65.6817 30.0222 65.6945 29.9398C65.7065 29.8551 65.7255 29.7692 65.7508 29.6798ZM71.5162 30.7869L72.0341 28.9369L71.1337 25.8357H72.1574L72.6829 28.0109L73.9815 25.8357H75.056L73.0676 28.8063L72.5113 30.7869H71.5162ZM76.584 27.878C76.46 27.878 76.3404 27.925 76.2237 28.0183C76.1085 28.1108 76.0017 28.2437 75.9041 28.4193C75.7854 28.6336 75.6893 28.8611 75.6174 29.0978C75.5453 29.3324 75.5099 29.5287 75.5099 29.6857C75.5099 29.8574 75.5453 29.9884 75.6155 30.0762C75.6869 30.1648 75.7911 30.2091 75.9304 30.2091C76.0654 30.2091 76.1937 30.1589 76.3144 30.0564C76.4351 29.9546 76.5518 29.7983 76.6641 29.5912C76.7664 29.3989 76.8517 29.1832 76.9186 28.9462C76.9844 28.7092 77.018 28.5153 77.018 28.3649C77.018 28.2056 76.9811 28.0851 76.9069 28.0016C76.8334 27.9196 76.7255 27.878 76.584 27.878ZM74.5583 29.6247C74.5583 29.3429 74.6146 29.0422 74.7276 28.7239C74.8399 28.4049 74.9876 28.1325 75.169 27.9064C75.3366 27.6904 75.5499 27.5196 75.7914 27.4079C76.0288 27.2991 76.306 27.2454 76.622 27.2454C77.0459 27.2454 77.3706 27.3488 77.597 27.5555C77.8234 27.7618 77.9367 28.0599 77.9367 28.4496C77.9367 28.8013 77.8676 29.1564 77.7283 29.519C77.5893 29.8799 77.409 30.171 77.1881 30.3921C77.0316 30.5518 76.8411 30.6719 76.6154 30.7531C76.3901 30.8343 76.1363 30.8755 75.8536 30.8755C75.4287 30.8755 75.1061 30.769 74.8874 30.5572C74.6683 30.3447 74.5583 30.0338 74.5583 29.6247ZM82.6215 27.3348L81.9614 29.7315C81.9509 29.7722 81.9395 29.8127 81.927 29.8527C81.8364 30.1586 81.7658 30.4707 81.7157 30.7869H80.816L80.9133 30.2483C80.6964 30.4612 80.4912 30.6163 80.297 30.715C80.1028 30.8133 79.9057 30.8626 79.7028 30.8626C79.4504 30.8626 79.2551 30.7927 79.118 30.6528C78.9808 30.5129 78.9132 30.3144 78.9132 30.0564C78.9132 29.8916 78.9574 29.646 79.0459 29.322L79.0752 29.2213L79.5993 27.3348H80.5637L79.9511 29.5396C79.9347 29.5949 79.9214 29.6512 79.9112 29.7082C79.9022 29.7576 79.8976 29.8078 79.8973 29.8582C79.8973 29.9546 79.9266 30.0292 79.9836 30.082C80.0418 30.1348 80.1259 30.1613 80.2352 30.1613C80.4294 30.1613 80.6086 30.0719 80.7721 29.8932C80.9363 29.7132 81.0614 29.4735 81.1473 29.1712L81.6557 27.3352H82.6215V27.3348ZM83.1204 30.7869L83.8657 28.0832C83.8905 27.9892 83.9165 27.8792 83.9436 27.7541C83.9692 27.6289 83.9955 27.4895 84.02 27.3344H84.9402L84.8367 27.9118C84.9669 27.6896 85.1139 27.5303 85.2766 27.4331C85.4405 27.336 85.6412 27.2866 85.8797 27.2866H85.9554L85.7374 28.1803H85.6328C85.3293 28.1803 85.0916 28.2678 84.9186 28.4407C84.746 28.6148 84.5993 28.9221 84.4786 29.3631L84.0836 30.7865H83.1204V30.7869ZM88.1189 30.7869L89.471 25.8357H92.5137L92.299 26.6058H90.2668L89.9259 27.864H91.8913L91.6854 28.6272H89.7105L89.1418 30.7865H88.1189V30.7869ZM93.4105 26.6264L93.6281 25.8357H94.5947L94.3745 26.6264H93.4105ZM92.2841 30.7869L93.2397 27.3348H94.2128L93.2528 30.7869H92.2841ZM94.6802 30.7869L95.3458 28.3905L95.3685 28.3128C95.4705 27.946 95.544 27.6192 95.5865 27.3352H96.4861L96.3947 27.8737C96.6167 27.6561 96.823 27.4996 97.0146 27.4005C97.1963 27.3044 97.3964 27.2539 97.5994 27.2528C97.8495 27.2528 98.0437 27.3228 98.1816 27.4634C98.3195 27.6045 98.3886 27.805 98.3886 28.0653C98.3886 28.2305 98.3443 28.4756 98.2558 28.8001L98.2265 28.9011L97.7087 30.7873H96.7381L97.3507 28.5821C97.3701 28.5168 97.3854 28.4574 97.3949 28.4045C97.4059 28.3505 97.411 28.3035 97.411 28.2635C97.411 28.1671 97.3807 28.0929 97.3214 28.0397C97.2611 27.9872 97.1759 27.9608 97.0672 27.9608C96.873 27.9608 96.6938 28.049 96.5285 28.2254C96.3625 28.4034 96.2385 28.6427 96.1548 28.9443L95.6486 30.7873H94.6802V30.7869ZM100.764 30.0513C101.016 30.0513 101.237 29.8955 101.428 29.5827C101.619 29.2707 101.714 28.9178 101.714 28.5234C101.714 28.3194 101.676 28.1648 101.596 28.0583C101.517 27.9519 101.402 27.899 101.251 27.899C101.128 27.899 101.019 27.9379 100.922 28.0148C100.825 28.0914 100.736 28.2106 100.657 28.3723C100.562 28.5534 100.485 28.7527 100.426 28.9684C100.366 29.1852 100.337 29.3682 100.337 29.5205C100.337 29.6903 100.374 29.822 100.449 29.9137C100.521 30.0055 100.627 30.0513 100.764 30.0513ZM103.036 27.3348L102.122 30.6435C101.973 31.182 101.745 31.5683 101.44 31.803C101.134 32.0381 100.707 32.155 100.157 32.155C99.7761 32.155 99.4872 32.0804 99.2908 31.9312C99.0955 31.7824 98.9975 31.5656 98.9975 31.2792C98.9975 31.2469 98.9982 31.2116 99.0019 31.1692C99.0048 31.128 99.0099 31.0806 99.0169 31.027H99.9425V31.128C99.9425 31.2722 99.978 31.3756 100.05 31.4397C100.121 31.5038 100.237 31.536 100.398 31.536C100.589 31.536 100.745 31.4754 100.865 31.355C100.985 31.2333 101.082 31.0352 101.159 30.7601L101.307 30.2351C101.143 30.3897 100.982 30.5024 100.827 30.572C100.67 30.6419 100.503 30.6761 100.323 30.6761C100.036 30.6761 99.8185 30.5844 99.6686 30.4022C99.5186 30.2203 99.4444 29.9565 99.4444 29.6118C99.4444 28.9559 99.6009 28.4003 99.9125 27.9441C100.224 27.4867 100.612 27.2586 101.076 27.2586C101.293 27.2586 101.473 27.3057 101.617 27.4005C101.76 27.4957 101.869 27.6379 101.943 27.8271L102.091 27.334H103.036V27.3348ZM104.931 28.6758H105.955C105.984 28.5677 106.006 28.4795 106.02 28.4108C106.034 28.3431 106.04 28.2837 106.04 28.2343C106.04 28.1151 106.007 28.0214 105.939 27.9538C105.872 27.885 105.78 27.8504 105.664 27.8504C105.496 27.8504 105.345 27.925 105.211 28.0739C105.077 28.2242 104.983 28.4251 104.931 28.6758ZM106.59 29.735C106.477 30.1154 106.293 30.3987 106.037 30.5844C105.783 30.7702 105.447 30.863 105.03 30.863C104.623 30.863 104.316 30.7655 104.108 30.5693C103.899 30.3734 103.795 30.0859 103.795 29.7051C103.795 29.4257 103.844 29.1207 103.945 28.7904C104.045 28.4605 104.171 28.1865 104.319 27.9666C104.491 27.7214 104.685 27.5392 104.907 27.4222C105.128 27.3045 105.388 27.2458 105.685 27.2458C106.093 27.2458 106.4 27.3364 106.603 27.5182C106.806 27.7004 106.908 27.9744 106.908 28.3389C106.908 28.4613 106.894 28.6 106.87 28.7546C106.844 28.9093 106.805 29.0915 106.752 29.3014H104.745C104.721 29.3862 104.703 29.4729 104.691 29.5605C104.68 29.6371 104.674 29.7082 104.674 29.7758C104.674 29.9239 104.709 30.0362 104.777 30.1143C104.846 30.1912 104.945 30.2297 105.076 30.2297C105.205 30.2297 105.32 30.1865 105.421 30.1003C105.523 30.0132 105.602 29.8916 105.658 29.7346H106.59V29.735ZM107.613 30.7869L108.359 28.0832C108.384 27.9892 108.41 27.8792 108.436 27.7541C108.462 27.6289 108.488 27.4895 108.513 27.3344H109.433L109.329 27.9118C109.46 27.6896 109.606 27.5303 109.77 27.4331C109.933 27.336 110.134 27.2866 110.373 27.2866H110.448L110.23 28.1803H110.126C109.823 28.1803 109.584 28.2678 109.411 28.4407C109.239 28.6148 109.092 28.9221 108.971 29.3631L108.577 30.7865H107.613V30.7869ZM111.001 29.6798L111.484 27.9542H110.867L111.04 27.3352H111.651L111.851 26.6268L112.888 26.3591L112.61 27.3356H113.334L113.16 27.9546H112.442L112.009 29.5026C111.992 29.5623 111.978 29.6232 111.968 29.6849C111.96 29.7356 111.956 29.7869 111.955 29.8384C111.955 29.9254 111.981 29.9922 112.033 30.0381C112.085 30.0839 112.16 30.1069 112.258 30.1069C112.313 30.1069 112.373 30.1022 112.436 30.0933C112.499 30.0839 112.572 30.0715 112.654 30.0529L112.455 30.7554C112.309 30.7865 112.181 30.8094 112.068 30.8218C111.967 30.8349 111.865 30.8417 111.762 30.8424C111.494 30.8424 111.288 30.7853 111.143 30.6695C110.999 30.5537 110.926 30.3901 110.926 30.178C110.926 30.101 110.933 30.0222 110.946 29.9398C110.957 29.8551 110.977 29.7692 111.001 29.6798ZM114.75 26.6264L114.968 25.8357H115.935L115.715 26.6264H114.75ZM113.624 30.7869L114.579 27.3348H115.552L114.593 30.7869H113.624ZM118.344 27.885C118.073 27.885 117.835 28.0521 117.632 28.3871C117.429 28.7212 117.327 29.102 117.327 29.5275C117.327 29.7432 117.371 29.9091 117.457 30.026C117.543 30.1442 117.666 30.2028 117.827 30.2028C117.953 30.2028 118.068 30.1593 118.174 30.0731C118.28 29.9872 118.377 29.8555 118.465 29.6787C118.565 29.4863 118.647 29.2746 118.71 29.0441C118.771 28.8133 118.802 28.6179 118.802 28.4562C118.802 28.2728 118.763 28.1318 118.683 28.0334C118.602 27.9344 118.49 27.885 118.344 27.885ZM115.658 32.0932L116.686 28.3917C116.816 27.9204 116.902 27.5676 116.946 27.3348H117.814L117.754 27.7611C117.926 27.5847 118.098 27.456 118.269 27.3748C118.443 27.2927 118.631 27.251 118.821 27.2524C119.123 27.2524 119.353 27.3488 119.51 27.5411C119.669 27.7335 119.748 28.0132 119.748 28.3801C119.748 29.0674 119.584 29.6511 119.255 30.1298C118.926 30.6089 118.518 30.8487 118.031 30.8487C117.808 30.8487 117.621 30.8005 117.47 30.7041C117.319 30.6066 117.207 30.4624 117.134 30.2697L116.623 32.0932H115.658ZM121.391 29.6868C121.391 29.7028 121.39 29.7303 121.388 29.7708C121.386 29.8031 121.385 29.8355 121.384 29.8679C121.384 29.9973 121.422 30.0948 121.497 30.1597C121.571 30.2254 121.684 30.2572 121.836 30.2572C122.021 30.2572 122.166 30.2207 122.27 30.1461C122.375 30.0727 122.427 29.9693 122.427 29.838C122.427 29.7066 122.284 29.5687 122.001 29.4253C121.905 29.3783 121.832 29.3406 121.779 29.3107C121.463 29.1362 121.253 28.9804 121.147 28.844C121.042 28.7076 120.99 28.5394 120.99 28.3396C120.99 28.0086 121.121 27.7447 121.384 27.5477C121.646 27.3507 122.002 27.252 122.452 27.252C122.863 27.252 123.17 27.3196 123.375 27.4537C123.58 27.5882 123.682 27.791 123.682 28.0591C123.682 28.089 123.681 28.1255 123.677 28.1702C123.674 28.2153 123.669 28.2689 123.662 28.3323L122.769 28.3358C122.769 28.3268 122.77 28.3117 122.773 28.2899C122.775 28.2693 122.775 28.2534 122.775 28.2452C122.775 28.103 122.743 27.9989 122.677 27.9313C122.612 27.8636 122.509 27.8306 122.368 27.8306C122.225 27.8306 122.116 27.8636 122.035 27.9301C121.954 27.9954 121.915 28.0871 121.915 28.204C121.915 28.361 122.076 28.5145 122.398 28.6668C122.434 28.6855 122.461 28.6991 122.48 28.708C122.805 28.8638 123.026 29.0127 123.143 29.1549C123.261 29.2967 123.319 29.4712 123.319 29.6798C123.319 30.0521 123.182 30.3447 122.908 30.5541C122.634 30.7636 122.249 30.8692 121.754 30.8692C121.32 30.8692 120.994 30.795 120.775 30.6447C120.556 30.4958 120.446 30.2724 120.446 29.974C120.446 29.9433 120.447 29.904 120.45 29.8559C120.453 29.8077 120.459 29.7513 120.465 29.6895L121.391 29.6868Z" fill="#004A80"/>
<path id="Vector_4" d="M6.92111 6.76731C10.8098 2.67254 15.5103 1.61485 17.3857 4.41257C19.2607 7.21028 17.619 12.8317 13.7307 16.9269C9.84208 21.0213 5.14118 22.079 3.26617 19.2813C1.39078 16.4835 3.03284 10.8617 6.92111 6.76731Z" fill="#F58220"/>
<path id="Vector_5" d="M9.49471 4.58399C9.0756 4.91816 8.62979 5.30828 8.21032 5.75359C4.80296 9.31834 3.38728 14.2198 5.06517 16.6709C6.795 19.1216 10.9886 18.2302 14.4487 14.6099C16.3098 12.688 17.5678 10.4324 18.0919 8.34342C18.2492 6.81167 18.0396 5.447 17.3843 4.41651C15.8903 2.24479 12.6925 2.41187 9.49471 4.58399Z" fill="#B02A30"/>
<path id="Vector_6" d="M14.1632 4.45519C14.6167 4.93702 14.3402 5.99082 13.5682 6.81848C12.7892 7.63914 11.7762 7.93252 11.337 7.45807C10.8696 6.98401 11.1457 5.91544 11.9247 5.07962C12.7109 4.24497 13.7236 3.98891 14.1632 4.45519ZM11.4218 18.9462C9.60091 20.3987 7.72078 21.1179 5.88599 20.8172C6.65545 20.8591 7.27753 19.9514 7.78771 18.7321C8.30483 17.4832 8.61642 16.3237 8.86474 15.24C9.2257 13.5237 9.25422 12.2973 9.07026 12.0339C8.75831 11.5975 8.05029 11.7102 7.24974 12.1998C6.86756 12.4256 6.35703 12.2748 6.95936 11.4996C7.56864 10.717 9.99113 8.83556 10.8623 8.5418C11.8186 8.24843 12.9095 8.6471 12.5409 9.76113C12.279 10.5744 8.92836 19.9161 11.4218 18.9462Z" fill="white"/>
</g>
</svg>
