<svg width="123" height="28" viewBox="0 0 123 28" fill="none" xmlns="http://www.w3.org/2000/svg">
<g id="surface1">
<path id="Vector" fill-rule="evenodd" clip-rule="evenodd" d="M11.7047 0.400024C18.1133 0.400024 23.3068 6.48933 23.3068 14C23.3068 21.5107 18.1133 27.6 11.7047 27.6C5.29614 27.6 0.102661 21.5107 0.102661 14C0.102661 6.48933 5.29614 0.400024 11.7047 0.400024Z" fill="#F26F21"/>
<path id="Vector_2" fill-rule="evenodd" clip-rule="evenodd" d="M11.7046 26.2394L13.7715 22.915H9.63772L11.7046 26.2394ZM11.7046 22.915L11.9953 22.2491L12.835 20.339H10.5783L11.7046 22.915ZM11.7046 10.2452H12.7845L12.1325 8.68454L11.7046 7.65745L10.6227 10.2452H11.7046ZM11.7046 7.65745H13.1317L11.7046 4.42982L10.2776 7.65745H11.7046ZM11.7046 4.42982H13.4526L11.7046 1.7594L9.95664 4.42982H11.7046ZM16.3107 22.915H13.7715L15.3722 20.339L16.3107 22.915ZM21.7908 17.1775H17.3401L19.508 13.6854L21.7908 17.1775ZM17.3401 17.1775L18.7369 20.339H15.3742L17.3401 17.1775ZM17.2574 10.2452H21.6475L19.508 13.6854L17.2574 10.2452ZM17.2574 10.2452L15.5639 7.65745H18.3918L17.2574 10.2452ZM13.1317 7.65745H15.5639L14.2802 10.2452L13.1317 7.65745ZM15.5639 7.65745L13.4526 4.42982H17.1585L15.5639 7.65745ZM11.7046 20.3366L12.9399 17.1775H10.4734L11.4241 19.6165L11.7046 20.3366ZM11.7046 15.4727L11.856 15.1658L12.7986 13.2557H10.6086L11.7046 15.4727ZM11.7046 11.8933H12.3041L11.7046 10.2452L11.1051 11.8933H11.7046ZM12.835 20.339L14.2237 17.1775L15.3742 20.339H12.835ZM14.2196 17.1775H12.9399L13.604 15.4727L14.2216 17.1775H14.2196ZM13.2709 14.5519L13.606 15.4727H12.7219L13.2709 14.5519ZM14.264 13.7893L14.9664 15.4727H13.606L14.264 13.7893ZM15.0068 11.8933L14.264 13.7893L14.042 13.2557L13.4728 11.8933H15.0068ZM15.7738 13.6334L17.3401 17.1775H14.2237L14.9664 15.4727L15.7738 13.6334ZM17.2574 10.2452L15.7738 13.6334L14.2802 10.2452H17.2574ZM13.4728 11.8933L12.7845 10.2452H14.2802L13.4728 11.8933ZM13.4728 11.8933L12.7986 13.2557L12.3041 11.8933H13.4728ZM13.2709 14.5519L12.7986 13.2557H14.042L13.2709 14.5519ZM7.10053 22.915H9.63772L8.03709 20.339L7.10053 22.915ZM1.61841 17.1775H6.0691L3.90128 13.6854L1.61841 17.1775ZM6.0691 17.1775L4.67233 20.339H8.03507L6.0691 17.1775ZM6.15186 10.2452H1.76172L3.90128 13.6854L6.15186 10.2452ZM6.15186 10.2452L7.84534 7.65745H5.0195L6.15186 10.2452ZM10.2776 7.65745H7.84736L9.12907 10.2452L10.2776 7.65745ZM7.84736 7.65745L9.95866 4.42982H6.25278L7.84736 7.65745ZM11.7046 17.1775L11.4826 16.8068L10.6893 15.4727H12.7179L11.7046 17.1775ZM10.5763 20.339L9.18761 17.1775L8.03709 20.339H10.5763ZM9.18963 17.1775H10.4693L9.80526 15.4727L9.18761 17.1775H9.18963ZM10.1403 14.5519L9.80526 15.4727H10.6893L10.1403 14.5519ZM9.14522 13.7893L8.4428 15.4727H9.80324L9.14522 13.7893ZM8.40445 11.8933L9.14724 13.7893L9.36927 13.2557L9.93847 11.8933H8.40445ZM7.63744 13.6334L6.07112 17.1775H9.18761L8.44482 15.4727L7.63744 13.6334ZM6.15186 10.2452L7.63542 13.6334L9.12706 10.2452H6.15186ZM9.93646 11.8933L10.6227 10.2452H9.12706L9.93646 11.8933ZM9.93646 11.8933L10.6086 13.2557L11.1051 11.8933H9.93646ZM10.1403 14.5519L10.6106 13.2557H9.36927L10.1403 14.5519Z" fill="white"/>
<path id="Vector_3" fill-rule="evenodd" clip-rule="evenodd" d="M55.6097 5.02307H53.0725C52.2995 5.02307 51.6657 5.76446 51.6657 6.67113V22.9746C54.1141 22.9746 56.5645 22.9746 59.0149 22.9746C59.7778 22.9746 60.4015 22.2427 60.4015 21.3502V18.3515H55.6097V5.02307ZM30.149 5.02307H27.6521C26.8569 5.02307 26.2049 5.78807 26.2049 6.72071V22.9746H28.6997C29.497 22.9746 30.149 22.2096 30.149 21.277V5.02307ZM41.0244 5.02307H49.4797V8.02404C49.4797 8.91654 48.856 9.64613 48.093 9.64613H43.5616V11.9506H48.4866V14.9492C48.4866 15.844 47.8629 16.5736 47.0999 16.5736H43.5616V21.3265C43.5616 22.2332 42.9298 22.9746 42.1547 22.9746H39.6175V6.67349C39.6175 5.76446 40.2493 5.02307 41.0244 5.02307ZM36.8563 5.02307H34.3595C33.5642 5.02307 32.9122 5.78807 32.9122 6.72071V22.9746H35.407C36.2043 22.9746 36.8563 22.2096 36.8563 21.277V5.02307Z" fill="#242056"/>
<path id="Vector_4" d="M104.291 22.9769C104.109 22.9769 103.95 22.9344 103.812 22.8541H103.81C103.651 22.762 103.53 22.6227 103.447 22.4339L99.7229 14.2101V22.3347C99.7229 22.6865 99.4767 22.9769 99.1739 22.9769H98.0981C97.7973 22.9769 97.5491 22.6889 97.5491 22.3347V10.0286C97.5491 9.67677 97.7953 9.38635 98.0981 9.38635H99.2365C99.5211 9.38635 99.733 9.4383 99.8723 9.54219C99.943 9.59413 100.008 9.6626 100.068 9.74524C100.119 9.81607 100.165 9.89635 100.207 9.98607L100.209 9.99552L103.891 18.1343V10.0286C103.891 9.67677 104.137 9.38635 104.438 9.38635C104.797 9.38635 105.157 9.38635 105.516 9.38635C105.817 9.38635 106.065 9.67441 106.065 10.0286V22.3347C106.065 22.6865 105.819 22.9769 105.516 22.9769C105.108 22.9769 104.698 22.9769 104.291 22.9769Z" fill="#242056"/>
<path id="Vector_5" d="M83.8631 22.9769C83.6814 22.9769 83.522 22.9344 83.3847 22.8541H83.3827C83.2232 22.762 83.1021 22.6227 83.0194 22.4339L79.2953 14.2077V22.3323C79.2953 22.6841 79.0491 22.9745 78.7463 22.9745H77.6705C77.3697 22.9745 77.1215 22.6865 77.1215 22.3323V10.0286C77.1215 9.67677 77.3677 9.38635 77.6705 9.38635H78.8089C79.0935 9.38635 79.3054 9.4383 79.4447 9.54219C79.5153 9.59413 79.5799 9.6626 79.6405 9.74524C79.691 9.81607 79.7374 9.89635 79.7798 9.98607L79.7818 9.99552L83.4634 18.1343V10.0286C83.4634 9.67677 83.7077 9.38635 84.0104 9.38635C84.3697 9.38635 84.731 9.38635 85.0883 9.38635C85.389 9.38635 85.6373 9.67441 85.6373 10.0286V22.3347C85.6373 22.6865 85.3911 22.9769 85.0883 22.9769C84.6806 22.9769 84.2708 22.9769 83.8631 22.9769Z" fill="#242056"/>
<g id="Group">
<path id="Vector_6" fill-rule="evenodd" clip-rule="evenodd" d="M118.232 9.38635H122.348C122.649 9.38635 122.897 9.67441 122.897 10.0286V11.2918C122.897 11.6459 122.651 11.9364 122.348 11.9364H118.794C118.467 11.9364 118.198 12.2504 118.198 12.6329V14.909H122.348C122.649 14.909 122.897 15.197 122.897 15.5512V16.8144C122.897 17.1662 122.651 17.4566 122.348 17.4566H118.198V19.7304C118.198 20.1152 118.465 20.4293 118.794 20.4293H122.348C122.649 20.4293 122.897 20.7173 122.897 21.0739V22.3347C122.897 22.6889 122.651 22.9793 122.348 22.9793H118.232C117.017 22.9793 116.024 21.8152 116.024 20.3915V11.9741C116.024 10.5527 117.017 9.38635 118.232 9.38635Z" fill="#242056"/>
</g>
<path id="Vector_7" fill-rule="evenodd" clip-rule="evenodd" d="M67.1938 9.38635H71.3094C71.6102 9.38635 71.8584 9.67441 71.8584 10.0286V11.2918C71.8584 11.6459 71.6122 11.9364 71.3094 11.9364H67.7549C67.4279 11.9364 67.1595 12.2504 67.1595 12.6329V14.909H71.3094C71.6102 14.909 71.8584 15.197 71.8584 15.5512V16.8144C71.8584 17.1662 71.6122 17.4566 71.3094 17.4566H67.1595V22.3347C67.1595 22.6889 66.9112 22.9793 66.6105 22.9793H65.5326C65.2319 22.9793 64.9836 22.6889 64.9836 22.3347V11.9741C64.9856 10.5527 65.9787 9.38635 67.1938 9.38635Z" fill="#242056"/>
<path id="Vector_8" fill-rule="evenodd" clip-rule="evenodd" d="M89.8331 10.531L86.9871 22.2374C86.8882 22.6458 87.1143 22.9764 87.4917 22.9764H88.2991C88.6745 22.9764 89.0641 22.6435 89.163 22.2374L89.9401 19.031H93.2867L94.0658 22.2374C94.1647 22.6458 94.5523 22.9764 94.9297 22.9764H95.7371C96.1125 22.9764 96.3386 22.6435 96.2397 22.2374L93.3937 10.531C93.0102 8.94666 90.2106 8.97972 89.8331 10.531ZM92.669 16.4833H90.5598L91.6134 12.146L92.669 16.4833Z" fill="#242056"/>
<path id="Vector_9" fill-rule="evenodd" clip-rule="evenodd" d="M73.3899 10.0286V22.3347C73.3899 22.6865 73.6361 22.9769 73.9389 22.9769H75.0168C75.3175 22.9769 75.5638 22.6889 75.5638 22.3347V10.0286C75.5638 9.67677 75.3175 9.38635 75.0168 9.38635H73.9389C73.6361 9.38635 73.3899 9.67677 73.3899 10.0286Z" fill="#242056"/>
<path id="Vector_10" fill-rule="evenodd" clip-rule="evenodd" d="M113.943 9.38644H111.765C111.755 9.38644 111.743 9.38644 111.733 9.3888L111.624 9.38644C111.269 9.38408 110.913 9.4313 110.566 9.52574C110.189 9.62491 109.83 9.79491 109.492 10.0263C109.127 10.2742 108.81 10.6166 108.542 11.0203C108.233 11.4855 108.023 12.0427 107.876 12.6164C107.688 13.346 107.621 14.1417 107.621 14.9067V17.4544C107.621 18.2123 107.688 18.9985 107.876 19.7187C108.023 20.2924 108.235 20.8496 108.542 21.31C108.812 21.7138 109.127 22.0585 109.492 22.3135C109.83 22.5496 110.189 22.7244 110.566 22.8282C110.913 22.9227 111.269 22.9794 111.626 22.9746L111.735 22.9723C111.745 22.9723 111.757 22.9746 111.769 22.9746H113.947C114.248 22.9746 114.496 22.6866 114.496 22.3324V21.0692C114.496 20.7174 114.25 20.427 113.947 20.427H111.767C111.759 20.427 111.751 20.427 111.741 20.427H111.642C111.315 20.4317 111 20.4081 110.712 20.205C110.421 20.002 110.227 19.6596 110.092 19.2795C109.898 18.7317 109.848 18.0494 109.848 17.4544V14.9067C109.848 14.418 109.878 13.8914 109.989 13.4216C110.239 12.352 110.776 11.9294 111.642 11.9364H113.943C114.244 11.9364 114.492 11.646 114.492 11.2919V10.031C114.492 9.67685 114.246 9.38644 113.943 9.38644Z" fill="#242056"/>
</g>
</svg>
