<svg width="488" height="601" viewBox="0 0 488 601" fill="none" xmlns="http://www.w3.org/2000/svg">
<g clip-path="url(#clip0_401_26847)">
<rect width="488" height="601" rx="12" fill="white" fill-opacity="0.06"/>
<path d="M381.184 224.847C335.358 224.847 335.358 237.254 289.517 237.254C243.676 237.254 243.676 224.847 197.85 224.847C152.025 224.847 152.009 237.254 106.184 237.254L112.899 209.169L150.645 183.845L181.149 111.734L224.043 95.9621L270.566 54.6028L323.805 102.677L336.211 153.853L373.957 203.478L381.184 224.847Z" fill="#407BFF"/>
<path opacity="0.7" d="M381.184 224.847C335.358 224.847 335.358 237.254 289.517 237.254C243.676 237.254 243.676 224.847 197.85 224.847C152.025 224.847 152.009 237.254 106.184 237.254L112.899 209.169L150.645 183.845L181.149 111.734L224.043 95.9621L270.566 54.6028L323.805 102.677L336.211 153.853L373.957 203.478L381.184 224.847Z" fill="white"/>
<path opacity="0.8" d="M181.148 111.734L184.761 160.32L220.429 119.736L224.043 95.9623L181.148 111.734Z" fill="white"/>
<path opacity="0.5" d="M224.043 183.845L184.762 160.32L220.429 119.736H251.957L224.043 183.845Z" fill="white"/>
<path opacity="0.7" d="M224.043 183.845L184.762 160.32L167.703 176.603L156.072 207.882L224.043 183.845Z" fill="white"/>
<path opacity="0.4" d="M224.043 183.845L258.362 182.837L228.013 214.163L156.072 207.882L224.043 183.845Z" fill="white"/>
<path opacity="0.2" d="M291.936 201.276L258.361 182.837L236.232 205.68L281.422 221.405L291.936 201.276Z" fill="white"/>
<path opacity="0.6" d="M224.043 183.845L275.917 160.319L270.566 54.6028L251.957 119.736L224.043 183.845Z" fill="white"/>
<path d="M224.043 183.845L275.917 160.32L322.657 198.825L277.297 182.294L224.043 183.845Z" fill="white"/>
<path opacity="0.4" d="M258.362 182.837L328.565 221.405L322.657 198.825L277.297 182.294L258.362 182.837Z" fill="white"/>
<path opacity="0.8" d="M309.088 113.284L272.861 100.056L270.566 54.6028L323.805 102.677L309.088 113.284Z" fill="white"/>
<path d="M309.088 113.284L272.862 100.056L274.614 134.732L328.566 142.424L309.088 113.284Z" fill="white"/>
<path opacity="0.3" d="M322.657 198.825L275.916 160.32L274.614 134.732L328.565 142.424L322.657 198.825Z" fill="white"/>
<path opacity="0.6" d="M323.727 188.497L373.957 203.478L336.211 153.853L328.565 142.423L323.727 188.497Z" fill="white"/>
<path opacity="0.6" d="M323.82 102.677L309.088 113.284L336.226 153.853L323.82 102.677Z" fill="white"/>
<path opacity="0.3" d="M270.566 54.6028L224.043 95.9621L220.429 119.736H251.957L270.566 54.6028Z" fill="white"/>
<path opacity="0.5" d="M181.148 111.733L150.644 183.845L156.072 207.882L167.703 176.603L184.762 160.319L181.148 111.733Z" fill="white"/>
<path opacity="0.8" d="M112.898 209.169L156.072 207.882L150.644 183.845L112.898 209.169Z" fill="white"/>
<path d="M381.183 224.848C335.358 224.848 335.358 237.254 289.517 237.254C243.676 237.254 243.676 224.848 197.85 224.848C152.025 224.848 152.009 237.254 106.184 237.254L112.898 397.155L150.644 509.509L190.096 529.142H224.741L273.497 546.03L312.794 519.155L336.211 479.517L364.482 413.035L381.183 224.848Z" fill="#407BFF"/>
<path opacity="0.2" d="M381.183 224.848C335.358 224.848 335.358 237.254 289.517 237.254C243.676 237.254 243.676 224.848 197.85 224.848C152.025 224.848 152.009 237.254 106.184 237.254L112.898 397.155L150.644 509.509L190.096 529.142H224.741L273.497 546.03L312.794 519.155L336.211 479.517L364.482 413.035L381.183 224.848Z" fill="black"/>
<path opacity="0.4" d="M112.898 397.155L156.072 361.146L167.703 496.064L150.644 509.509L112.898 397.155Z" fill="black"/>
<path opacity="0.3" d="M203.79 339.714L156.072 361.146L167.703 496.064L261.091 442.298L203.79 339.714Z" fill="black"/>
<path opacity="0.5" d="M203.79 339.714L282.461 390.611L297.395 446.19L261.091 442.298L203.79 339.714Z" fill="black"/>
<path opacity="0.3" d="M284.136 288.429L282.461 390.61L297.395 446.19L341.437 391.014L284.136 288.429Z" fill="black"/>
<path opacity="0.2" d="M284.136 288.429L348.85 277.915L372.515 322.531L341.437 391.014L284.136 288.429Z" fill="black"/>
<path opacity="0.1" d="M348.85 277.915L372.515 322.531L377.446 266.92L348.85 277.915Z" fill="black"/>
<path opacity="0.2" d="M284.136 288.429L282.461 390.61L203.79 339.714L247.832 284.537L284.136 288.429Z" fill="black"/>
<path opacity="0.1" d="M151.482 265.121L156.072 361.146L203.79 339.714L247.832 284.537L151.482 265.121Z" fill="black"/>
<path opacity="0.05" d="M151.482 265.121L129.181 243.286L209.434 245.411L247.832 284.537L151.482 265.121Z" fill="black"/>
<path opacity="0.1" d="M284.135 288.43L348.85 277.915L209.434 245.411L247.832 284.537L284.135 288.43Z" fill="black"/>
<path opacity="0.05" d="M377.446 266.92L348.85 277.915L262.254 257.724L354.572 238.897L377.446 266.92Z" fill="black"/>
<path opacity="0.2" d="M151.482 265.121L156.072 361.146L112.899 397.155L109.735 321.833L151.482 265.121Z" fill="black"/>
<path opacity="0.1" d="M151.482 265.121L129.182 243.286L106.897 254.095L109.735 321.833L151.482 265.121Z" fill="black"/>
<path opacity="0.4" d="M364.481 413.004L316.578 448.253L297.395 446.19L341.437 391.014L364.481 413.004Z" fill="black"/>
<path opacity="0.5" d="M316.578 448.253L336.226 479.517L364.482 413.004L316.578 448.253Z" fill="black"/>
<path opacity="0.3" d="M341.437 391.014L372.515 322.531L364.482 413.004L341.437 391.014Z" fill="black"/>
<path opacity="0.5" d="M190.096 529.142L261.091 442.298L167.703 496.064L150.644 509.509L190.096 529.142Z" fill="black"/>
<path opacity="0.7" d="M190.096 529.142L261.091 442.298L282.461 506.748L223.19 529.142H190.096Z" fill="black"/>
<path opacity="0.4" d="M316.578 448.253L261.091 442.298L282.461 506.748L336.211 479.517L316.578 448.253Z" fill="black"/>
<path opacity="0.5" d="M282.461 506.748L312.794 519.155L336.226 479.517L282.461 506.748Z" fill="black"/>
<path opacity="0.8" d="M273.497 546.03L312.794 519.155L282.461 506.748L223.19 529.142L273.497 546.03Z" fill="black"/>
<g filter="url(#filter0_b_401_26847)">
<rect x="176.172" y="150.33" width="129.676" height="45.6954" rx="7.41007" fill="white" fill-opacity="0.5"/>
<path d="M195.783 177.915H192.294V167.137H195.894C196.95 167.137 197.857 167.353 198.615 167.784C199.373 168.212 199.953 168.828 200.357 169.632C200.764 170.432 200.967 171.391 200.967 172.51C200.967 173.633 200.762 174.598 200.352 175.405C199.945 176.212 199.355 176.833 198.583 177.268C197.811 177.7 196.878 177.915 195.783 177.915ZM193.92 176.494H195.694C196.515 176.494 197.197 176.34 197.741 176.031C198.285 175.719 198.692 175.268 198.962 174.679C199.232 174.086 199.367 173.363 199.367 172.51C199.367 171.665 199.232 170.947 198.962 170.358C198.696 169.769 198.297 169.321 197.768 169.016C197.238 168.711 196.58 168.558 195.794 168.558H193.92V176.494ZM204.771 178.094C204.259 178.094 203.796 178 203.382 177.81C202.968 177.617 202.64 177.338 202.398 176.973C202.159 176.608 202.04 176.161 202.04 175.631C202.04 175.175 202.127 174.8 202.303 174.505C202.478 174.21 202.715 173.977 203.013 173.805C203.312 173.633 203.645 173.503 204.013 173.416C204.382 173.328 204.757 173.261 205.14 173.216C205.624 173.16 206.017 173.114 206.318 173.079C206.62 173.04 206.839 172.979 206.976 172.895C207.113 172.81 207.182 172.674 207.182 172.484V172.447C207.182 171.988 207.052 171.632 206.792 171.379C206.536 171.126 206.154 171 205.645 171C205.115 171 204.697 171.118 204.392 171.353C204.091 171.584 203.882 171.842 203.766 172.126L202.287 171.789C202.463 171.298 202.719 170.902 203.055 170.6C203.396 170.295 203.787 170.074 204.229 169.937C204.671 169.797 205.136 169.726 205.624 169.726C205.947 169.726 206.289 169.765 206.65 169.842C207.015 169.916 207.355 170.053 207.671 170.253C207.99 170.453 208.252 170.739 208.455 171.111C208.659 171.479 208.76 171.958 208.76 172.547V177.915H207.224V176.81H207.16C207.059 177.014 206.906 177.214 206.703 177.41C206.499 177.607 206.238 177.77 205.918 177.9C205.599 178.029 205.217 178.094 204.771 178.094ZM205.113 176.831C205.548 176.831 205.92 176.745 206.229 176.573C206.541 176.401 206.778 176.177 206.939 175.9C207.104 175.619 207.187 175.319 207.187 175V173.958C207.131 174.014 207.022 174.067 206.861 174.116C206.703 174.161 206.522 174.202 206.318 174.237C206.115 174.268 205.917 174.298 205.724 174.326C205.531 174.351 205.369 174.372 205.24 174.389C204.934 174.428 204.655 174.493 204.403 174.584C204.154 174.675 203.954 174.807 203.803 174.979C203.655 175.147 203.582 175.372 203.582 175.652C203.582 176.042 203.726 176.337 204.013 176.537C204.301 176.733 204.668 176.831 205.113 176.831ZM214.185 169.832V171.095H209.77V169.832H214.185ZM210.954 167.895H212.527V175.542C212.527 175.847 212.573 176.077 212.664 176.231C212.755 176.382 212.873 176.486 213.017 176.542C213.164 176.594 213.324 176.621 213.496 176.621C213.622 176.621 213.733 176.612 213.827 176.594C213.922 176.577 213.996 176.563 214.048 176.552L214.333 177.852C214.241 177.887 214.111 177.922 213.943 177.958C213.775 177.996 213.564 178.017 213.312 178.021C212.898 178.028 212.512 177.954 212.154 177.8C211.796 177.645 211.506 177.407 211.285 177.084C211.064 176.761 210.954 176.356 210.954 175.868V167.895ZM217.834 178.094C217.321 178.094 216.858 178 216.444 177.81C216.03 177.617 215.702 177.338 215.46 176.973C215.222 176.608 215.102 176.161 215.102 175.631C215.102 175.175 215.19 174.8 215.365 174.505C215.541 174.21 215.778 173.977 216.076 173.805C216.374 173.633 216.707 173.503 217.076 173.416C217.444 173.328 217.82 173.261 218.202 173.216C218.686 173.16 219.079 173.114 219.381 173.079C219.683 173.04 219.902 172.979 220.039 172.895C220.176 172.81 220.244 172.674 220.244 172.484V172.447C220.244 171.988 220.114 171.632 219.855 171.379C219.599 171.126 219.216 171 218.707 171C218.178 171 217.76 171.118 217.455 171.353C217.153 171.584 216.944 171.842 216.829 172.126L215.35 171.789C215.525 171.298 215.781 170.902 216.118 170.6C216.458 170.295 216.85 170.074 217.292 169.937C217.734 169.797 218.199 169.726 218.686 169.726C219.009 169.726 219.351 169.765 219.713 169.842C220.077 169.916 220.418 170.053 220.734 170.253C221.053 170.453 221.314 170.739 221.518 171.111C221.721 171.479 221.823 171.958 221.823 172.547V177.915H220.286V176.81H220.223C220.121 177.014 219.969 177.214 219.765 177.41C219.562 177.607 219.3 177.77 218.981 177.9C218.662 178.029 218.279 178.094 217.834 178.094ZM218.176 176.831C218.611 176.831 218.983 176.745 219.292 176.573C219.604 176.401 219.841 176.177 220.002 175.9C220.167 175.619 220.249 175.319 220.249 175V173.958C220.193 174.014 220.084 174.067 219.923 174.116C219.765 174.161 219.585 174.202 219.381 174.237C219.178 174.268 218.979 174.298 218.786 174.326C218.593 174.351 218.432 174.372 218.302 174.389C217.997 174.428 217.718 174.493 217.465 174.584C217.216 174.675 217.016 174.807 216.865 174.979C216.718 175.147 216.644 175.372 216.644 175.652C216.644 176.042 216.788 176.337 217.076 176.537C217.364 176.733 217.73 176.831 218.176 176.831ZM226.247 167.137H228.094L230.909 172.037H231.025L233.841 167.137H235.688L231.778 173.684V177.915H230.157V173.684L226.247 167.137ZM238.726 178.079C237.968 178.079 237.307 177.905 236.742 177.558C236.177 177.21 235.739 176.724 235.426 176.1C235.114 175.475 234.958 174.745 234.958 173.91C234.958 173.072 235.114 172.339 235.426 171.711C235.739 171.082 236.177 170.595 236.742 170.247C237.307 169.9 237.968 169.726 238.726 169.726C239.484 169.726 240.145 169.9 240.71 170.247C241.275 170.595 241.714 171.082 242.026 171.711C242.338 172.339 242.494 173.072 242.494 173.91C242.494 174.745 242.338 175.475 242.026 176.1C241.714 176.724 241.275 177.21 240.71 177.558C240.145 177.905 239.484 178.079 238.726 178.079ZM238.731 176.758C239.223 176.758 239.63 176.628 239.952 176.368C240.275 176.108 240.514 175.763 240.668 175.331C240.826 174.9 240.905 174.424 240.905 173.905C240.905 173.389 240.826 172.916 240.668 172.484C240.514 172.049 240.275 171.7 239.952 171.437C239.63 171.174 239.223 171.042 238.731 171.042C238.237 171.042 237.826 171.174 237.5 171.437C237.177 171.7 236.937 172.049 236.779 172.484C236.625 172.916 236.547 173.389 236.547 173.905C236.547 174.424 236.625 174.9 236.779 175.331C236.937 175.763 237.177 176.108 237.5 176.368C237.826 176.628 238.237 176.758 238.731 176.758ZM248.927 174.563V169.832H250.506V177.915H248.959V176.515H248.874C248.688 176.947 248.39 177.307 247.98 177.594C247.573 177.879 247.066 178.021 246.459 178.021C245.939 178.021 245.48 177.907 245.08 177.679C244.683 177.447 244.371 177.105 244.143 176.652C243.919 176.2 243.806 175.64 243.806 174.973V169.832H245.38V174.784C245.38 175.335 245.532 175.773 245.838 176.1C246.143 176.426 246.539 176.589 247.027 176.589C247.322 176.589 247.615 176.515 247.906 176.368C248.201 176.221 248.445 175.998 248.638 175.7C248.834 175.402 248.93 175.023 248.927 174.563ZM255.779 177.915V167.137H257.406V172.284H257.537L262.058 167.137H264.105L259.758 171.989L264.121 177.915H262.163L258.679 173.1L257.406 174.563V177.915H255.779ZM266.624 173.116V177.915H265.05V169.832H266.56V171.147H266.66C266.846 170.719 267.138 170.376 267.534 170.116C267.934 169.856 268.437 169.726 269.044 169.726C269.595 169.726 270.078 169.842 270.492 170.074C270.906 170.302 271.227 170.642 271.455 171.095C271.683 171.547 271.797 172.107 271.797 172.774V177.915H270.223V172.963C270.223 172.377 270.071 171.919 269.765 171.589C269.46 171.256 269.041 171.09 268.508 171.09C268.143 171.09 267.818 171.168 267.534 171.326C267.253 171.484 267.031 171.716 266.866 172.021C266.704 172.323 266.624 172.688 266.624 173.116ZM276.868 178.079C276.11 178.079 275.449 177.905 274.884 177.558C274.319 177.21 273.88 176.724 273.568 176.1C273.256 175.475 273.1 174.745 273.1 173.91C273.1 173.072 273.256 172.339 273.568 171.711C273.88 171.082 274.319 170.595 274.884 170.247C275.449 169.9 276.11 169.726 276.868 169.726C277.626 169.726 278.287 169.9 278.852 170.247C279.417 170.595 279.855 171.082 280.168 171.711C280.48 172.339 280.636 173.072 280.636 173.91C280.636 174.745 280.48 175.475 280.168 176.1C279.855 176.724 279.417 177.21 278.852 177.558C278.287 177.905 277.626 178.079 276.868 178.079ZM276.873 176.758C277.364 176.758 277.771 176.628 278.094 176.368C278.417 176.108 278.655 175.763 278.81 175.331C278.968 174.9 279.047 174.424 279.047 173.905C279.047 173.389 278.968 172.916 278.81 172.484C278.655 172.049 278.417 171.7 278.094 171.437C277.771 171.174 277.364 171.042 276.873 171.042C276.378 171.042 275.968 171.174 275.642 171.437C275.319 171.7 275.078 172.049 274.921 172.484C274.766 172.916 274.689 173.389 274.689 173.905C274.689 174.424 274.766 174.9 274.921 175.331C275.078 175.763 275.319 176.108 275.642 176.368C275.968 176.628 276.378 176.758 276.873 176.758ZM283.454 177.915L281.075 169.832H282.702L284.286 175.768H284.365L285.954 169.832H287.58L289.159 175.742H289.238L290.812 169.832H292.438L290.064 177.915H288.459L286.817 172.079H286.696L285.054 177.915H283.454Z" fill="#5B799F"/>
<rect x="176.789" y="150.948" width="128.441" height="44.4604" rx="6.79256" stroke="url(#paint0_linear_401_26847)" stroke-opacity="0.14" stroke-width="1.23501"/>
</g>
<g filter="url(#filter1_b_401_26847)">
<rect x="171.232" y="329.407" width="144.496" height="59.2805" rx="7.41007" fill="white" fill-opacity="0.2"/>
<path d="M210.806 355.992H207.316V345.214H210.916C211.972 345.214 212.879 345.43 213.637 345.861C214.395 346.289 214.975 346.905 215.379 347.708C215.786 348.508 215.989 349.468 215.989 350.587C215.989 351.71 215.784 352.675 215.374 353.482C214.967 354.289 214.377 354.91 213.605 355.345C212.834 355.776 211.9 355.992 210.806 355.992ZM208.943 354.571H210.716C211.537 354.571 212.22 354.417 212.763 354.108C213.307 353.796 213.714 353.345 213.984 352.755C214.254 352.162 214.39 351.44 214.39 350.587C214.39 349.742 214.254 349.024 213.984 348.435C213.718 347.845 213.319 347.398 212.79 347.093C212.26 346.787 211.602 346.635 210.816 346.635H208.943V354.571ZM219.793 356.171C219.281 356.171 218.818 356.076 218.404 355.887C217.99 355.694 217.662 355.415 217.42 355.05C217.181 354.685 217.062 354.238 217.062 353.708C217.062 353.252 217.15 352.876 217.325 352.582C217.5 352.287 217.737 352.054 218.035 351.882C218.334 351.71 218.667 351.58 219.035 351.492C219.404 351.405 219.779 351.338 220.162 351.292C220.646 351.236 221.039 351.191 221.341 351.156C221.642 351.117 221.862 351.056 221.998 350.971C222.135 350.887 222.204 350.75 222.204 350.561V350.524C222.204 350.064 222.074 349.708 221.814 349.456C221.558 349.203 221.176 349.077 220.667 349.077C220.137 349.077 219.72 349.194 219.414 349.429C219.113 349.661 218.904 349.919 218.788 350.203L217.309 349.866C217.485 349.375 217.741 348.978 218.078 348.677C218.418 348.371 218.809 348.15 219.251 348.014C219.693 347.873 220.158 347.803 220.646 347.803C220.969 347.803 221.311 347.842 221.672 347.919C222.037 347.993 222.377 348.129 222.693 348.329C223.012 348.529 223.274 348.815 223.477 349.187C223.681 349.556 223.782 350.035 223.782 350.624V355.992H222.246V354.887H222.183C222.081 355.09 221.928 355.29 221.725 355.487C221.521 355.683 221.26 355.846 220.941 355.976C220.621 356.106 220.239 356.171 219.793 356.171ZM220.135 354.908C220.57 354.908 220.942 354.822 221.251 354.65C221.563 354.478 221.8 354.254 221.962 353.976C222.126 353.696 222.209 353.396 222.209 353.076V352.034C222.153 352.091 222.044 352.143 221.883 352.192C221.725 352.238 221.544 352.278 221.341 352.313C221.137 352.345 220.939 352.375 220.746 352.403C220.553 352.427 220.391 352.448 220.262 352.466C219.956 352.505 219.677 352.569 219.425 352.661C219.176 352.752 218.976 352.883 218.825 353.055C218.678 353.224 218.604 353.448 218.604 353.729C218.604 354.118 218.748 354.413 219.035 354.613C219.323 354.81 219.69 354.908 220.135 354.908ZM229.207 347.908V349.171H224.792V347.908H229.207ZM225.976 345.972H227.549V353.619C227.549 353.924 227.595 354.154 227.686 354.308C227.778 354.459 227.895 354.562 228.039 354.618C228.186 354.671 228.346 354.697 228.518 354.697C228.644 354.697 228.755 354.689 228.849 354.671C228.944 354.654 229.018 354.64 229.07 354.629L229.355 355.929C229.263 355.964 229.134 355.999 228.965 356.034C228.797 356.073 228.586 356.094 228.334 356.097C227.92 356.104 227.534 356.031 227.176 355.876C226.818 355.722 226.528 355.483 226.307 355.161C226.086 354.838 225.976 354.433 225.976 353.945V345.972ZM232.856 356.171C232.344 356.171 231.88 356.076 231.466 355.887C231.052 355.694 230.724 355.415 230.482 355.05C230.244 354.685 230.124 354.238 230.124 353.708C230.124 353.252 230.212 352.876 230.388 352.582C230.563 352.287 230.8 352.054 231.098 351.882C231.396 351.71 231.73 351.58 232.098 351.492C232.466 351.405 232.842 351.338 233.224 351.292C233.708 351.236 234.101 351.191 234.403 351.156C234.705 351.117 234.924 351.056 235.061 350.971C235.198 350.887 235.266 350.75 235.266 350.561V350.524C235.266 350.064 235.136 349.708 234.877 349.456C234.621 349.203 234.238 349.077 233.729 349.077C233.2 349.077 232.782 349.194 232.477 349.429C232.175 349.661 231.966 349.919 231.851 350.203L230.372 349.866C230.547 349.375 230.803 348.978 231.14 348.677C231.48 348.371 231.872 348.15 232.314 348.014C232.756 347.873 233.221 347.803 233.708 347.803C234.031 347.803 234.373 347.842 234.735 347.919C235.1 347.993 235.44 348.129 235.756 348.329C236.075 348.529 236.336 348.815 236.54 349.187C236.743 349.556 236.845 350.035 236.845 350.624V355.992H235.308V354.887H235.245C235.143 355.09 234.991 355.29 234.787 355.487C234.584 355.683 234.322 355.846 234.003 355.976C233.684 356.106 233.301 356.171 232.856 356.171ZM233.198 354.908C233.633 354.908 234.005 354.822 234.314 354.65C234.626 354.478 234.863 354.254 235.024 353.976C235.189 353.696 235.271 353.396 235.271 353.076V352.034C235.215 352.091 235.107 352.143 234.945 352.192C234.787 352.238 234.607 352.278 234.403 352.313C234.2 352.345 234.001 352.375 233.808 352.403C233.615 352.427 233.454 352.448 233.324 352.466C233.019 352.505 232.74 352.569 232.487 352.661C232.238 352.752 232.038 352.883 231.887 353.055C231.74 353.224 231.666 353.448 231.666 353.729C231.666 354.118 231.81 354.413 232.098 354.613C232.386 354.81 232.752 354.908 233.198 354.908ZM246.289 345.214H247.91V352.855C247.91 353.547 247.774 354.138 247.5 354.629C247.23 355.12 246.849 355.496 246.358 355.755C245.867 356.011 245.291 356.139 244.632 356.139C244.025 356.139 243.479 356.029 242.995 355.808C242.514 355.587 242.134 355.266 241.853 354.845C241.576 354.42 241.437 353.904 241.437 353.297H243.053C243.053 353.596 243.121 353.854 243.258 354.071C243.398 354.289 243.59 354.459 243.832 354.582C244.077 354.701 244.358 354.761 244.674 354.761C245.018 354.761 245.309 354.689 245.547 354.545C245.789 354.397 245.974 354.182 246.1 353.897C246.226 353.613 246.289 353.266 246.289 352.855V345.214ZM252.059 356.171C251.547 356.171 251.084 356.076 250.67 355.887C250.256 355.694 249.927 355.415 249.685 355.05C249.447 354.685 249.327 354.238 249.327 353.708C249.327 353.252 249.415 352.876 249.591 352.582C249.766 352.287 250.003 352.054 250.301 351.882C250.599 351.71 250.933 351.58 251.301 351.492C251.669 351.405 252.045 351.338 252.427 351.292C252.911 351.236 253.304 351.191 253.606 351.156C253.908 351.117 254.127 351.056 254.264 350.971C254.401 350.887 254.469 350.75 254.469 350.561V350.524C254.469 350.064 254.339 349.708 254.08 349.456C253.824 349.203 253.441 349.077 252.933 349.077C252.403 349.077 251.985 349.194 251.68 349.429C251.378 349.661 251.169 349.919 251.054 350.203L249.575 349.866C249.75 349.375 250.006 348.978 250.343 348.677C250.684 348.371 251.075 348.15 251.517 348.014C251.959 347.873 252.424 347.803 252.911 347.803C253.234 347.803 253.576 347.842 253.938 347.919C254.303 347.993 254.643 348.129 254.959 348.329C255.278 348.529 255.539 348.815 255.743 349.187C255.946 349.556 256.048 350.035 256.048 350.624V355.992H254.511V354.887H254.448C254.346 355.09 254.194 355.29 253.99 355.487C253.787 355.683 253.525 355.846 253.206 355.976C252.887 356.106 252.504 356.171 252.059 356.171ZM252.401 354.908C252.836 354.908 253.208 354.822 253.517 354.65C253.829 354.478 254.066 354.254 254.227 353.976C254.392 353.696 254.475 353.396 254.475 353.076V352.034C254.418 352.091 254.31 352.143 254.148 352.192C253.99 352.238 253.81 352.278 253.606 352.313C253.403 352.345 253.204 352.375 253.011 352.403C252.819 352.427 252.657 352.448 252.527 352.466C252.222 352.505 251.943 352.569 251.691 352.661C251.441 352.752 251.241 352.883 251.091 353.055C250.943 353.224 250.87 353.448 250.87 353.729C250.87 354.118 251.013 354.413 251.301 354.613C251.589 354.81 251.955 354.908 252.401 354.908ZM257.699 355.992V347.908H259.22V349.192H259.305C259.452 348.757 259.712 348.415 260.084 348.166C260.459 347.914 260.883 347.787 261.357 347.787C261.455 347.787 261.571 347.791 261.704 347.798C261.841 347.805 261.948 347.814 262.025 347.824V349.329C261.962 349.312 261.85 349.292 261.689 349.271C261.527 349.247 261.366 349.235 261.204 349.235C260.833 349.235 260.501 349.314 260.21 349.471C259.922 349.626 259.694 349.842 259.526 350.119C259.357 350.392 259.273 350.705 259.273 351.056V355.992H257.699ZM270.104 347.908L267.173 355.992H265.489L262.552 347.908H264.241L266.288 354.129H266.373L268.415 347.908H270.104ZM271.138 355.992V347.908H272.712V355.992H271.138ZM271.933 346.661C271.659 346.661 271.424 346.57 271.228 346.387C271.035 346.201 270.938 345.98 270.938 345.724C270.938 345.465 271.035 345.244 271.228 345.061C271.424 344.875 271.659 344.782 271.933 344.782C272.207 344.782 272.44 344.875 272.633 345.061C272.829 345.244 272.928 345.465 272.928 345.724C272.928 345.98 272.829 346.201 272.633 346.387C272.44 346.57 272.207 346.661 271.933 346.661ZM280.442 349.882L279.016 350.135C278.956 349.952 278.861 349.778 278.731 349.614C278.605 349.449 278.433 349.314 278.216 349.208C277.998 349.103 277.726 349.05 277.4 349.05C276.954 349.05 276.582 349.15 276.284 349.35C275.986 349.547 275.837 349.801 275.837 350.113C275.837 350.384 275.937 350.601 276.137 350.766C276.337 350.931 276.66 351.066 277.105 351.171L278.389 351.466C279.133 351.638 279.687 351.903 280.052 352.261C280.417 352.619 280.6 353.083 280.6 353.655C280.6 354.14 280.459 354.571 280.179 354.95C279.901 355.325 279.514 355.62 279.016 355.834C278.521 356.048 277.947 356.155 277.295 356.155C276.389 356.155 275.651 355.962 275.079 355.576C274.507 355.187 274.156 354.634 274.026 353.919L275.547 353.687C275.642 354.083 275.837 354.383 276.132 354.587C276.426 354.787 276.81 354.887 277.284 354.887C277.8 354.887 278.212 354.78 278.521 354.566C278.83 354.348 278.984 354.083 278.984 353.771C278.984 353.519 278.889 353.306 278.7 353.134C278.514 352.962 278.228 352.833 277.842 352.745L276.474 352.445C275.719 352.273 275.161 351.999 274.8 351.624C274.442 351.248 274.263 350.773 274.263 350.198C274.263 349.721 274.397 349.303 274.663 348.945C274.93 348.587 275.298 348.308 275.768 348.108C276.239 347.905 276.777 347.803 277.384 347.803C278.258 347.803 278.945 347.993 279.447 348.371C279.949 348.747 280.28 349.25 280.442 349.882ZM190.307 371.992V361.214H191.933V365.898H197.306V361.214H198.938V371.992H197.306V367.292H191.933V371.992H190.307ZM204.219 372.155C203.423 372.155 202.737 371.985 202.161 371.645C201.589 371.301 201.147 370.818 200.835 370.197C200.526 369.573 200.372 368.841 200.372 368.003C200.372 367.175 200.526 366.445 200.835 365.814C201.147 365.182 201.582 364.689 202.14 364.335C202.702 363.98 203.358 363.803 204.109 363.803C204.565 363.803 205.007 363.879 205.435 364.029C205.863 364.18 206.247 364.417 206.587 364.74C206.928 365.063 207.196 365.482 207.393 365.998C207.589 366.51 207.687 367.133 207.687 367.866V368.424H201.261V367.245H206.145C206.145 366.831 206.061 366.464 205.893 366.145C205.724 365.822 205.487 365.568 205.182 365.382C204.88 365.196 204.526 365.103 204.119 365.103C203.677 365.103 203.291 365.212 202.961 365.429C202.635 365.643 202.382 365.924 202.203 366.271C202.028 366.615 201.94 366.989 201.94 367.392V368.313C201.94 368.854 202.035 369.313 202.225 369.692C202.417 370.071 202.686 370.361 203.03 370.561C203.374 370.757 203.775 370.855 204.235 370.855C204.533 370.855 204.805 370.813 205.051 370.729C205.296 370.641 205.509 370.511 205.687 370.34C205.866 370.168 206.003 369.955 206.098 369.703L207.587 369.971C207.468 370.41 207.254 370.794 206.945 371.124C206.64 371.45 206.256 371.704 205.793 371.887C205.333 372.066 204.809 372.155 204.219 372.155ZM210.562 361.214V371.992H208.989V361.214H210.562ZM212.235 375.023V363.908H213.771V365.219H213.903C213.994 365.05 214.126 364.856 214.298 364.635C214.47 364.414 214.708 364.221 215.013 364.056C215.319 363.887 215.722 363.803 216.224 363.803C216.876 363.803 217.459 363.968 217.971 364.298C218.483 364.628 218.885 365.103 219.176 365.724C219.471 366.345 219.618 367.092 219.618 367.966C219.618 368.84 219.473 369.589 219.182 370.213C218.89 370.834 218.49 371.313 217.982 371.65C217.473 371.983 216.892 372.15 216.24 372.15C215.748 372.15 215.347 372.067 215.034 371.903C214.726 371.738 214.484 371.545 214.308 371.324C214.133 371.103 213.998 370.906 213.903 370.734H213.808V375.023H212.235ZM213.777 367.95C213.777 368.519 213.859 369.017 214.024 369.445C214.189 369.873 214.427 370.208 214.74 370.45C215.052 370.689 215.434 370.808 215.887 370.808C216.357 370.808 216.75 370.683 217.066 370.434C217.382 370.182 217.62 369.84 217.782 369.408C217.947 368.976 218.029 368.491 218.029 367.95C218.029 367.417 217.948 366.938 217.787 366.513C217.629 366.089 217.39 365.754 217.071 365.508C216.755 365.263 216.361 365.14 215.887 365.14C215.431 365.14 215.045 365.257 214.729 365.492C214.417 365.728 214.18 366.056 214.019 366.477C213.857 366.898 213.777 367.389 213.777 367.95ZM226.994 365.882L225.568 366.135C225.508 365.952 225.414 365.778 225.284 365.614C225.158 365.449 224.986 365.314 224.768 365.208C224.551 365.103 224.279 365.05 223.952 365.05C223.507 365.05 223.135 365.15 222.837 365.35C222.538 365.547 222.389 365.801 222.389 366.113C222.389 366.384 222.489 366.601 222.689 366.766C222.889 366.931 223.212 367.066 223.658 367.171L224.942 367.466C225.686 367.638 226.24 367.903 226.605 368.261C226.97 368.619 227.152 369.083 227.152 369.655C227.152 370.14 227.012 370.571 226.731 370.95C226.454 371.325 226.066 371.62 225.568 371.834C225.073 372.048 224.5 372.155 223.847 372.155C222.942 372.155 222.203 371.962 221.632 371.576C221.06 371.187 220.709 370.634 220.579 369.919L222.1 369.687C222.195 370.083 222.389 370.383 222.684 370.587C222.979 370.787 223.363 370.887 223.837 370.887C224.352 370.887 224.765 370.78 225.073 370.566C225.382 370.348 225.537 370.083 225.537 369.771C225.537 369.519 225.442 369.306 225.252 369.134C225.066 368.962 224.78 368.833 224.395 368.745L223.026 368.445C222.272 368.273 221.714 367.999 221.353 367.624C220.995 367.248 220.816 366.773 220.816 366.198C220.816 365.721 220.949 365.303 221.216 364.945C221.482 364.587 221.851 364.308 222.321 364.108C222.791 363.905 223.33 363.803 223.937 363.803C224.81 363.803 225.498 363.993 226 364.371C226.501 364.747 226.833 365.25 226.994 365.882ZM231.21 361.214H233.057L235.873 366.113H235.989L238.804 361.214H240.652L236.741 367.761V371.992H235.12V367.761L231.21 361.214ZM243.69 372.155C242.932 372.155 242.27 371.982 241.706 371.634C241.141 371.287 240.702 370.801 240.39 370.176C240.078 369.552 239.921 368.822 239.921 367.987C239.921 367.149 240.078 366.415 240.39 365.787C240.702 365.159 241.141 364.671 241.706 364.324C242.27 363.977 242.932 363.803 243.69 363.803C244.448 363.803 245.109 363.977 245.674 364.324C246.239 364.671 246.677 365.159 246.989 365.787C247.302 366.415 247.458 367.149 247.458 367.987C247.458 368.822 247.302 369.552 246.989 370.176C246.677 370.801 246.239 371.287 245.674 371.634C245.109 371.982 244.448 372.155 243.69 372.155ZM243.695 370.834C244.186 370.834 244.593 370.704 244.916 370.445C245.239 370.185 245.477 369.84 245.632 369.408C245.79 368.976 245.868 368.501 245.868 367.982C245.868 367.466 245.79 366.992 245.632 366.561C245.477 366.126 245.239 365.777 244.916 365.514C244.593 365.25 244.186 365.119 243.695 365.119C243.2 365.119 242.79 365.25 242.463 365.514C242.141 365.777 241.9 366.126 241.742 366.561C241.588 366.992 241.511 367.466 241.511 367.982C241.511 368.501 241.588 368.976 241.742 369.408C241.9 369.84 242.141 370.185 242.463 370.445C242.79 370.704 243.2 370.834 243.695 370.834ZM253.89 368.64V363.908H255.469V371.992H253.922V370.592H253.838C253.652 371.024 253.354 371.383 252.943 371.671C252.536 371.955 252.029 372.097 251.422 372.097C250.903 372.097 250.443 371.983 250.043 371.755C249.647 371.524 249.335 371.182 249.107 370.729C248.882 370.276 248.77 369.717 248.77 369.05V363.908H250.343V368.861C250.343 369.412 250.496 369.85 250.801 370.176C251.106 370.503 251.503 370.666 251.991 370.666C252.285 370.666 252.578 370.592 252.869 370.445C253.164 370.297 253.408 370.075 253.601 369.776C253.797 369.478 253.894 369.099 253.89 368.64ZM260.743 371.992V361.214H262.369V366.361H262.501L267.021 361.214H269.069L264.722 366.066L269.084 371.992H267.127L263.643 367.177L262.369 368.64V371.992H260.743ZM271.587 367.192V371.992H270.013V363.908H271.524V365.224H271.624C271.81 364.796 272.101 364.452 272.498 364.193C272.898 363.933 273.401 363.803 274.008 363.803C274.559 363.803 275.041 363.919 275.455 364.15C275.869 364.379 276.19 364.719 276.418 365.171C276.646 365.624 276.76 366.184 276.76 366.85V371.992H275.187V367.04C275.187 366.454 275.034 365.996 274.729 365.666C274.424 365.333 274.004 365.166 273.471 365.166C273.106 365.166 272.782 365.245 272.498 365.403C272.217 365.561 271.994 365.792 271.829 366.098C271.668 366.399 271.587 366.764 271.587 367.192ZM281.831 372.155C281.073 372.155 280.412 371.982 279.847 371.634C279.282 371.287 278.844 370.801 278.531 370.176C278.219 369.552 278.063 368.822 278.063 367.987C278.063 367.149 278.219 366.415 278.531 365.787C278.844 365.159 279.282 364.671 279.847 364.324C280.412 363.977 281.073 363.803 281.831 363.803C282.589 363.803 283.25 363.977 283.815 364.324C284.38 364.671 284.819 365.159 285.131 365.787C285.443 366.415 285.599 367.149 285.599 367.987C285.599 368.822 285.443 369.552 285.131 370.176C284.819 370.801 284.38 371.287 283.815 371.634C283.25 371.982 282.589 372.155 281.831 372.155ZM281.837 370.834C282.328 370.834 282.735 370.704 283.058 370.445C283.38 370.185 283.619 369.84 283.773 369.408C283.931 368.976 284.01 368.501 284.01 367.982C284.01 367.466 283.931 366.992 283.773 366.561C283.619 366.126 283.38 365.777 283.058 365.514C282.735 365.25 282.328 365.119 281.837 365.119C281.342 365.119 280.931 365.25 280.605 365.514C280.282 365.777 280.042 366.126 279.884 366.561C279.73 366.992 279.652 367.466 279.652 367.982C279.652 368.501 279.73 368.976 279.884 369.408C280.042 369.84 280.282 370.185 280.605 370.445C280.931 370.704 281.342 370.834 281.837 370.834ZM288.418 371.992L286.039 363.908H287.665L289.249 369.845H289.328L290.918 363.908H292.544L294.123 369.819H294.202L295.775 363.908H297.401L295.028 371.992H293.423L291.781 366.156H291.66L290.018 371.992H288.418Z" fill="white"/>
<rect x="171.849" y="330.024" width="143.261" height="58.0455" rx="6.79256" stroke="url(#paint1_linear_401_26847)" stroke-opacity="0.14" stroke-width="1.23501"/>
</g>
<path d="M523.534 231.328C492.491 236.513 469.968 237.439 462.587 237.254C422.096 237.254 418.3 224.848 381.183 224.848C335.358 224.848 335.358 237.254 289.517 237.254C243.676 237.254 243.676 224.848 197.85 224.848C152.025 224.848 152.009 237.254 106.184 237.254C67.8018 237.254 66.5364 224.848 20.1407 224.848C14.2007 224.47 -5.86195 225.069 -38.592 230.485" stroke="#1566D6" stroke-width="0.843558"/>
</g>
<rect x="0.5" y="0.5" width="487" height="600" rx="11.5" stroke="#1566D6" stroke-opacity="0.18"/>
<defs>
<filter id="filter0_b_401_26847" x="161.351" y="135.51" width="159.316" height="75.3357" filterUnits="userSpaceOnUse" color-interpolation-filters="sRGB">
<feFlood flood-opacity="0" result="BackgroundImageFix"/>
<feGaussianBlur in="BackgroundImageFix" stdDeviation="7.41007"/>
<feComposite in2="SourceAlpha" operator="in" result="effect1_backgroundBlur_401_26847"/>
<feBlend mode="normal" in="SourceGraphic" in2="effect1_backgroundBlur_401_26847" result="shape"/>
</filter>
<filter id="filter1_b_401_26847" x="156.411" y="314.587" width="174.137" height="88.9208" filterUnits="userSpaceOnUse" color-interpolation-filters="sRGB">
<feFlood flood-opacity="0" result="BackgroundImageFix"/>
<feGaussianBlur in="BackgroundImageFix" stdDeviation="7.41007"/>
<feComposite in2="SourceAlpha" operator="in" result="effect1_backgroundBlur_401_26847"/>
<feBlend mode="normal" in="SourceGraphic" in2="effect1_backgroundBlur_401_26847" result="shape"/>
</filter>
<linearGradient id="paint0_linear_401_26847" x1="245.689" y1="122.323" x2="259.079" y2="245.446" gradientUnits="userSpaceOnUse">
<stop stop-color="#3362CC"/>
<stop offset="1" stop-color="white" stop-opacity="0"/>
</linearGradient>
<linearGradient id="paint1_linear_401_26847" x1="181.174" y1="336.495" x2="247.445" y2="407.313" gradientUnits="userSpaceOnUse">
<stop stop-color="white"/>
<stop offset="1" stop-color="white" stop-opacity="0"/>
<stop offset="1" stop-color="white" stop-opacity="0.5"/>
</linearGradient>
<clipPath id="clip0_401_26847">
<rect width="488" height="601" rx="12" fill="white"/>
</clipPath>
</defs>
</svg>
