<svg width="319" height="215" viewBox="0 0 319 215" fill="none" xmlns="http://www.w3.org/2000/svg">
<g clip-path="url(#clip0_1325_42852)">
<rect x="0.333313" width="318.667" height="215" rx="16" fill="white"/>
<rect x="0.333313" width="318.667" height="215" rx="16" fill="#1566D6"/>
<path d="M30.0911 54V38H35.7943C37.0338 38 38.0625 38.2135 38.8802 38.6406C39.7031 39.0677 40.3177 39.6589 40.7239 40.4141C41.1302 41.1641 41.3333 42.0312 41.3333 43.0156C41.3333 43.9948 41.1276 44.8568 40.7161 45.6016C40.3099 46.3411 39.6953 46.9167 38.8724 47.3281C38.0547 47.7396 37.026 47.9453 35.7864 47.9453H31.4661V45.8672H35.5677C36.3489 45.8672 36.9844 45.7552 37.4739 45.5312C37.9687 45.3073 38.3307 44.9818 38.5599 44.5547C38.789 44.1276 38.9036 43.6146 38.9036 43.0156C38.9036 42.4115 38.7864 41.888 38.5521 41.4453C38.3229 41.0026 37.9609 40.6641 37.4661 40.4297C36.9765 40.1901 36.3333 40.0703 35.5364 40.0703H32.5052V54H30.0911ZM37.9896 46.7812L41.9427 54H39.1927L35.3177 46.7812H37.9896ZM48.5476 54.2422C47.4226 54.2422 46.4408 53.9844 45.6023 53.4687C44.7638 52.9531 44.1127 52.2318 43.6492 51.3047C43.1856 50.3776 42.9539 49.2943 42.9539 48.0547C42.9539 46.8099 43.1856 45.7214 43.6492 44.7891C44.1127 43.8568 44.7638 43.1328 45.6023 42.6172C46.4408 42.1016 47.4226 41.8438 48.5476 41.8438C49.6726 41.8438 50.6544 42.1016 51.4929 42.6172C52.3315 43.1328 52.9825 43.8568 53.446 44.7891C53.9096 45.7214 54.1414 46.8099 54.1414 48.0547C54.1414 49.2943 53.9096 50.3776 53.446 51.3047C52.9825 52.2318 52.3315 52.9531 51.4929 53.4687C50.6544 53.9844 49.6726 54.2422 48.5476 54.2422ZM48.5554 52.2812C49.2846 52.2812 49.8888 52.0885 50.3679 51.7031C50.8471 51.3177 51.2013 50.8047 51.4304 50.1641C51.6648 49.5234 51.782 48.8177 51.782 48.0469C51.782 47.2812 51.6648 46.5781 51.4304 45.9375C51.2013 45.2917 50.8471 44.7734 50.3679 44.3828C49.8888 43.9922 49.2846 43.7969 48.5554 43.7969C47.821 43.7969 47.2117 43.9922 46.7273 44.3828C46.2481 44.7734 45.8914 45.2917 45.657 45.9375C45.4278 46.5781 45.3132 47.2812 45.3132 48.0469C45.3132 48.8177 45.4278 49.5234 45.657 50.1641C45.8914 50.8047 46.2481 51.3177 46.7273 51.7031C47.2117 52.0885 47.821 52.2812 48.5554 52.2812ZM56.4963 54V38H58.8322V43.9453H58.9728C59.1083 43.6953 59.3036 43.4062 59.5588 43.0781C59.814 42.75 60.1682 42.4635 60.6213 42.2187C61.0744 41.9688 61.6734 41.8438 62.4182 41.8438C63.3869 41.8438 64.2515 42.0885 65.0119 42.5781C65.7723 43.0677 66.3687 43.7734 66.801 44.6953C67.2385 45.6172 67.4572 46.7266 67.4572 48.0234C67.4572 49.3203 67.2411 50.4323 66.8088 51.3594C66.3765 52.2812 65.7827 52.9922 65.0275 53.4922C64.2723 53.987 63.4103 54.2344 62.4416 54.2344C61.7124 54.2344 61.1161 54.112 60.6525 53.8672C60.1942 53.6224 59.8348 53.3359 59.5744 53.0078C59.314 52.6797 59.1135 52.388 58.9728 52.1328H58.7775V54H56.4963ZM58.7853 48C58.7853 48.8437 58.9077 49.5833 59.1525 50.2188C59.3973 50.8542 59.7515 51.3516 60.215 51.7109C60.6786 52.0651 61.2463 52.2422 61.9182 52.2422C62.6161 52.2422 63.1994 52.0573 63.6682 51.6875C64.1369 51.3125 64.4911 50.8047 64.7307 50.1641C64.9754 49.5234 65.0978 48.8021 65.0978 48C65.0978 47.2083 64.9781 46.4974 64.7385 45.8672C64.5041 45.237 64.1499 44.7396 63.676 44.375C63.2072 44.0104 62.6213 43.8281 61.9182 43.8281C61.2411 43.8281 60.6682 44.0026 60.1994 44.3516C59.7359 44.7005 59.3843 45.1875 59.1447 45.8125C58.9051 46.4375 58.7853 47.1667 58.7853 48ZM74.695 54.2422C73.57 54.2422 72.5882 53.9844 71.7496 53.4687C70.9111 52.9531 70.2601 52.2318 69.7965 51.3047C69.333 50.3776 69.1012 49.2943 69.1012 48.0547C69.1012 46.8099 69.333 45.7214 69.7965 44.7891C70.2601 43.8568 70.9111 43.1328 71.7496 42.6172C72.5882 42.1016 73.57 41.8438 74.695 41.8438C75.82 41.8438 76.8017 42.1016 77.6403 42.6172C78.4788 43.1328 79.1298 43.8568 79.5934 44.7891C80.0569 45.7214 80.2887 46.8099 80.2887 48.0547C80.2887 49.2943 80.0569 50.3776 79.5934 51.3047C79.1298 52.2318 78.4788 52.9531 77.6403 53.4687C76.8017 53.9844 75.82 54.2422 74.695 54.2422ZM74.7028 52.2812C75.4319 52.2812 76.0361 52.0885 76.5153 51.7031C76.9944 51.3177 77.3486 50.8047 77.5778 50.1641C77.8121 49.5234 77.9293 48.8177 77.9293 48.0469C77.9293 47.2812 77.8121 46.5781 77.5778 45.9375C77.3486 45.2917 76.9944 44.7734 76.5153 44.3828C76.0361 43.9922 75.4319 43.7969 74.7028 43.7969C73.9684 43.7969 73.359 43.9922 72.8746 44.3828C72.3955 44.7734 72.0387 45.2917 71.8043 45.9375C71.5752 46.5781 71.4606 47.2812 71.4606 48.0469C71.4606 48.8177 71.5752 49.5234 71.8043 50.1641C72.0387 50.8047 72.3955 51.3177 72.8746 51.7031C73.359 52.0885 73.9684 52.2812 74.7028 52.2812ZM31.4427 81H28.8802L34.638 65H37.4271L43.1849 81H40.6224L36.0989 67.9062H35.9739L31.4427 81ZM31.8724 74.7344H40.1849V76.7656H31.8724V74.7344ZM49.1668 81.2344C48.198 81.2344 47.3334 80.987 46.573 80.4922C45.8178 79.9922 45.224 79.2812 44.7918 78.3594C44.3647 77.4323 44.1511 76.3203 44.1511 75.0234C44.1511 73.7266 44.3673 72.6172 44.7996 71.6953C45.2371 70.7734 45.836 70.0677 46.5964 69.5781C47.3569 69.0885 48.2188 68.8438 49.1824 68.8438C49.9272 68.8438 50.5261 68.9688 50.9793 69.2187C51.4376 69.4635 51.7918 69.75 52.0418 70.0781C52.297 70.4062 52.4949 70.6953 52.6355 70.9453H52.7761V65H55.1121V81H52.8308V79.1328H52.6355C52.4949 79.388 52.2918 79.6797 52.0261 80.0078C51.7657 80.3359 51.4063 80.6224 50.948 80.8672C50.4897 81.112 49.8959 81.2344 49.1668 81.2344ZM49.6824 79.2422C50.3543 79.2422 50.922 79.0651 51.3855 78.7109C51.8543 78.3516 52.2084 77.8542 52.448 77.2188C52.6928 76.5833 52.8152 75.8437 52.8152 75C52.8152 74.1667 52.6954 73.4375 52.4558 72.8125C52.2162 72.1875 51.8647 71.7005 51.4011 71.3516C50.9376 71.0026 50.3647 70.8281 49.6824 70.8281C48.9793 70.8281 48.3933 71.0104 47.9246 71.375C47.4558 71.7396 47.1016 72.237 46.8621 72.8672C46.6277 73.4974 46.5105 74.2083 46.5105 75C46.5105 75.8021 46.6303 76.5234 46.8699 77.1641C47.1095 77.8047 47.4636 78.3125 47.9324 78.6875C48.4063 79.0573 48.9897 79.2422 49.6824 79.2422ZM68.2717 69L63.9201 81H61.4201L57.0607 69H59.5685L62.6076 78.2344H62.7326L65.7639 69H68.2717ZM70.027 81V69H72.3629V81H70.027ZM71.2067 67.1484C70.8004 67.1484 70.4515 67.013 70.1598 66.7422C69.8733 66.4661 69.7301 66.138 69.7301 65.7578C69.7301 65.3724 69.8733 65.0443 70.1598 64.7734C70.4515 64.4974 70.8004 64.3594 71.2067 64.3594C71.6129 64.3594 71.9593 64.4974 72.2457 64.7734C72.5374 65.0443 72.6832 65.3724 72.6832 65.7578C72.6832 66.138 72.5374 66.4661 72.2457 66.7422C71.9593 67.013 71.6129 67.1484 71.2067 67.1484ZM84.0577 71.9297L81.9405 72.3047C81.852 72.0339 81.7113 71.776 81.5186 71.5312C81.3311 71.2865 81.0759 71.0859 80.753 70.9297C80.4301 70.7734 80.0264 70.6953 79.5421 70.6953C78.8806 70.6953 78.3285 70.8437 77.8858 71.1406C77.4431 71.4323 77.2218 71.8099 77.2218 72.2734C77.2218 72.6745 77.3702 72.9974 77.6671 73.2422C77.9639 73.487 78.4431 73.6875 79.1046 73.8437L81.0108 74.2812C82.115 74.5365 82.9379 74.9297 83.4796 75.4609C84.0212 75.9922 84.2921 76.6823 84.2921 77.5313C84.2921 78.25 84.0837 78.8906 83.6671 79.4531C83.2556 80.0104 82.6801 80.4479 81.9405 80.7656C81.2061 81.0833 80.3546 81.2422 79.3858 81.2422C78.0421 81.2422 76.9457 80.9557 76.0968 80.3828C75.2478 79.8047 74.727 78.9844 74.5343 77.9219L76.7921 77.5781C76.9327 78.1667 77.2218 78.612 77.6593 78.9141C78.0968 79.2109 78.6671 79.3594 79.3702 79.3594C80.1358 79.3594 80.7478 79.2005 81.2061 78.8828C81.6645 78.5599 81.8936 78.1667 81.8936 77.7031C81.8936 77.3281 81.753 77.013 81.4718 76.7578C81.1957 76.5026 80.7712 76.3099 80.1983 76.1797L78.1671 75.7344C77.0473 75.4792 76.2191 75.0729 75.6827 74.5156C75.1514 73.9583 74.8858 73.2526 74.8858 72.3984C74.8858 71.6901 75.0837 71.0703 75.4796 70.5391C75.8754 70.0078 76.4223 69.5937 77.1202 69.2969C77.8181 68.9948 78.6176 68.8438 79.5186 68.8438C80.8155 68.8438 81.8363 69.125 82.5811 69.6875C83.3259 70.2448 83.8181 70.9922 84.0577 71.9297ZM91.4751 81.2422C90.3501 81.2422 89.3683 80.9844 88.5298 80.4687C87.6913 79.9531 87.0402 79.2318 86.5767 78.3047C86.1131 77.3776 85.8814 76.2943 85.8814 75.0547C85.8814 73.8099 86.1131 72.7214 86.5767 71.7891C87.0402 70.8568 87.6913 70.1328 88.5298 69.6172C89.3683 69.1016 90.3501 68.8438 91.4751 68.8438C92.6001 68.8438 93.5819 69.1016 94.4204 69.6172C95.259 70.1328 95.91 70.8568 96.3735 71.7891C96.8371 72.7214 97.0689 73.8099 97.0689 75.0547C97.0689 76.2943 96.8371 77.3776 96.3735 78.3047C95.91 79.2318 95.259 79.9531 94.4204 80.4687C93.5819 80.9844 92.6001 81.2422 91.4751 81.2422ZM91.4829 79.2812C92.2121 79.2812 92.8163 79.0885 93.2954 78.7031C93.7746 78.3177 94.1288 77.8047 94.3579 77.1641C94.5923 76.5234 94.7095 75.8177 94.7095 75.0469C94.7095 74.2812 94.5923 73.5781 94.3579 72.9375C94.1288 72.2917 93.7746 71.7734 93.2954 71.3828C92.8163 70.9922 92.2121 70.7969 91.4829 70.7969C90.7485 70.7969 90.1392 70.9922 89.6548 71.3828C89.1756 71.7734 88.8189 72.2917 88.5845 72.9375C88.3553 73.5781 88.2407 74.2812 88.2407 75.0469C88.2407 75.8177 88.3553 76.5234 88.5845 77.1641C88.8189 77.8047 89.1756 78.3177 89.6548 78.7031C90.1392 79.0885 90.7485 79.2812 91.4829 79.2812ZM99.2363 81V69H101.494V70.9062H101.619C101.838 70.2604 102.223 69.7526 102.775 69.3828C103.333 69.0078 103.963 68.8203 104.666 68.8203C104.812 68.8203 104.984 68.8255 105.182 68.8359C105.385 68.8464 105.544 68.8594 105.658 68.875V71.1094C105.564 71.0833 105.398 71.0547 105.158 71.0234C104.919 70.987 104.679 70.9687 104.439 70.9687C103.887 70.9687 103.395 71.0859 102.963 71.3203C102.536 71.5495 102.197 71.8698 101.947 72.2812C101.697 72.6875 101.572 73.151 101.572 73.6719V81H99.2363ZM116.232 71.9297L114.115 72.3047C114.026 72.0339 113.885 71.776 113.693 71.5312C113.505 71.2865 113.25 71.0859 112.927 70.9297C112.604 70.7734 112.201 70.6953 111.716 70.6953C111.055 70.6953 110.503 70.8437 110.06 71.1406C109.617 71.4323 109.396 71.8099 109.396 72.2734C109.396 72.6745 109.544 72.9974 109.841 73.2422C110.138 73.487 110.617 73.6875 111.279 73.8437L113.185 74.2812C114.289 74.5365 115.112 74.9297 115.654 75.4609C116.195 75.9922 116.466 76.6823 116.466 77.5313C116.466 78.25 116.258 78.8906 115.841 79.4531C115.43 80.0104 114.854 80.4479 114.115 80.7656C113.38 81.0833 112.529 81.2422 111.56 81.2422C110.216 81.2422 109.12 80.9557 108.271 80.3828C107.422 79.8047 106.901 78.9844 106.708 77.9219L108.966 77.5781C109.107 78.1667 109.396 78.612 109.833 78.9141C110.271 79.2109 110.841 79.3594 111.544 79.3594C112.31 79.3594 112.922 79.2005 113.38 78.8828C113.839 78.5599 114.068 78.1667 114.068 77.7031C114.068 77.3281 113.927 77.013 113.646 76.7578C113.37 76.5026 112.945 76.3099 112.372 76.1797L110.341 75.7344C109.221 75.4792 108.393 75.0729 107.857 74.5156C107.326 73.9583 107.06 73.2526 107.06 72.3984C107.06 71.6901 107.258 71.0703 107.654 70.5391C108.05 70.0078 108.596 69.5937 109.294 69.2969C109.992 68.9948 110.792 68.8438 111.693 68.8438C112.99 68.8438 114.01 69.125 114.755 69.6875C115.5 70.2448 115.992 70.9922 116.232 71.9297Z" fill="white"/>
<path d="M266.456 95.9608C266.183 95.9149 266.61 96.0208 266.333 95.9999C268.547 101.855 268.833 111.5 268.833 121.314C270.777 120.493 272.502 119.079 273.812 117.205C275.51 114.778 276.402 111.738 276.329 108.627C276.257 105.516 275.225 102.536 273.417 100.216C271.609 97.8968 269.142 96.3888 266.456 95.9608Z" fill="#00CC8F"/>
<path d="M198.333 95.9606C198.057 95.9815 198.483 95.9149 198.211 95.9608C195.525 96.3888 193.058 97.8968 191.25 100.216C189.442 102.536 188.41 105.516 188.337 108.627C188.265 111.738 189.157 114.778 190.854 117.205C192.165 119.079 193.89 120.493 195.833 121.313C195.833 111 196.115 101.827 198.333 95.9606Z" fill="#00CC8F"/>
<path d="M195.944 108.946C195.944 88.8487 212.236 72.5567 232.333 72.5567C252.431 72.5567 268.722 88.8487 268.722 108.946V133.827C268.722 134.929 267.83 135.822 266.728 135.822H197.938C196.837 135.822 195.944 134.929 195.944 133.827V108.946Z" stroke="white" stroke-width="0.951351"/>
<rect x="195.809" y="148.476" width="73.0486" height="93.0486" rx="9.03784" stroke="white" stroke-width="0.951351"/>
<path d="M243.505 177.011H227.124C225.982 177.011 224.887 176.558 224.08 175.751C223.273 174.944 222.82 173.85 222.82 172.708C222.82 171.567 223.273 170.473 224.08 169.666C224.887 168.859 225.982 168.405 227.124 168.405H243.505C244.647 168.405 245.741 168.859 246.548 169.666C247.355 170.473 247.809 171.567 247.809 172.708C247.809 173.85 247.355 174.944 246.548 175.751C245.741 176.558 244.647 177.011 243.505 177.011Z" fill="#00CC8F"/>
<path d="M228.216 174.893C229.422 174.893 230.4 173.915 230.4 172.709C230.4 171.503 229.422 170.525 228.216 170.525C227.009 170.525 226.031 171.503 226.031 172.709C226.031 173.915 227.009 174.893 228.216 174.893Z" fill="#F2F2F2"/>
<path d="M235.314 174.893C236.521 174.893 237.499 173.915 237.499 172.709C237.499 171.503 236.521 170.525 235.314 170.525C234.108 170.525 233.13 171.503 233.13 172.709C233.13 173.915 234.108 174.893 235.314 174.893Z" fill="#F2F2F2"/>
<path d="M242.413 174.893C243.619 174.893 244.597 173.915 244.597 172.709C244.597 171.503 243.619 170.525 242.413 170.525C241.207 170.525 240.229 171.503 240.229 172.709C240.229 173.915 241.207 174.893 242.413 174.893Z" fill="white"/>
<rect x="210.928" y="93.4865" width="41.6216" height="9.51351" rx="4.75676" fill="#00CC8F"/>
</g>
<rect x="0.833313" y="0.5" width="317.667" height="214" rx="15.5" stroke="#1566D6" stroke-opacity="0.24"/>
<defs>
<clipPath id="clip0_1325_42852">
<rect x="0.333313" width="318.667" height="215" rx="16" fill="white"/>
</clipPath>
</defs>
</svg>
