<svg width="370" height="258" viewBox="0 0 370 258" fill="none" xmlns="http://www.w3.org/2000/svg">
<g filter="url(#filter0_d_1325_42688)">
<g clip-path="url(#clip0_1325_42688)">
<rect x="31" y="23" width="318.667" height="215" rx="16" fill="white" shape-rendering="crispEdges"/>
<path d="M305.362 107.718C305.068 107.668 304.771 107.637 304.473 107.614C307.854 116.557 308.089 126.654 305.127 135.791C305.425 135.75 305.718 135.696 306.012 135.633C308.879 134.996 311.456 133.211 313.285 130.597C315.113 127.983 316.073 124.71 315.995 121.359C315.917 118.009 314.806 114.799 312.859 112.301C310.911 109.803 308.255 108.179 305.362 107.718Z" fill="#2B70C5"/>
<path d="M232.752 107.614C232.454 107.637 232.157 107.668 231.863 107.718C228.97 108.179 226.314 109.803 224.366 112.301C222.419 114.799 221.308 118.009 221.23 121.359C221.151 124.71 222.112 127.983 223.94 130.597C225.768 133.211 228.346 134.996 231.213 135.633C231.507 135.696 231.8 135.75 232.098 135.791C229.136 126.654 229.37 116.557 232.752 107.614Z" fill="#2B70C5"/>
<path d="M229.422 121.703C229.422 100.059 246.968 82.5123 268.613 82.5123C290.257 82.5123 307.803 100.059 307.803 121.703V148.5C307.803 149.686 306.842 150.648 305.655 150.648H231.57C230.384 150.648 229.422 149.686 229.422 148.5V121.703Z" fill="white" stroke="#3F3D56" stroke-width="1.02459"/>
<rect x="229.276" y="164.276" width="78.6723" height="100.212" rx="9.73361" fill="white" stroke="#3F3D56" stroke-width="1.02459"/>
<path d="M280.644 195.008H263.002C261.772 195.008 260.593 194.52 259.724 193.65C258.855 192.781 258.367 191.603 258.367 190.374C258.367 189.144 258.855 187.966 259.724 187.097C260.593 186.228 261.772 185.739 263.002 185.739H280.644C281.874 185.739 283.053 186.228 283.922 187.097C284.791 187.966 285.279 189.144 285.279 190.374C285.279 191.603 284.791 192.781 283.922 193.65C283.053 194.52 281.874 195.008 280.644 195.008Z" fill="#2B70C5"/>
<path d="M264.178 192.726C265.477 192.726 266.53 191.673 266.53 190.374C266.53 189.075 265.477 188.022 264.178 188.022C262.879 188.022 261.826 189.075 261.826 190.374C261.826 191.673 262.879 192.726 264.178 192.726Z" fill="#F2F2F2"/>
<path d="M271.823 192.726C273.122 192.726 274.175 191.673 274.175 190.374C274.175 189.075 273.122 188.022 271.823 188.022C270.524 188.022 269.471 189.075 269.471 190.374C269.471 191.673 270.524 192.726 271.823 192.726Z" fill="#F2F2F2"/>
<path d="M279.468 192.726C280.767 192.726 281.82 191.673 281.82 190.374C281.82 189.075 280.767 188.022 279.468 188.022C278.169 188.022 277.116 189.075 277.116 190.374C277.116 191.673 278.169 192.726 279.468 192.726Z" fill="white"/>
<rect x="245.559" y="105.053" width="44.8259" height="10.2459" rx="5.12296" fill="#2B70C5"/>
<path d="M60.5781 77V61H66.5781C67.8073 61 68.8385 61.2135 69.6719 61.6406C70.5104 62.0677 71.1432 62.6667 71.5703 63.4375C72.0026 64.2031 72.2188 65.0964 72.2188 66.1172C72.2188 67.1432 72 68.0339 71.5625 68.7891C71.1302 69.5391 70.4922 70.1198 69.6484 70.5312C68.8047 70.9375 67.7682 71.1406 66.5391 71.1406H62.2656V68.7344H66.1484C66.8672 68.7344 67.4557 68.6354 67.9141 68.4375C68.3724 68.2344 68.7109 67.9401 68.9297 67.5547C69.1536 67.1641 69.2656 66.6849 69.2656 66.1172C69.2656 65.5495 69.1536 65.0651 68.9297 64.6641C68.7057 64.2578 68.3646 63.9505 67.9063 63.7422C67.4479 63.5286 66.8568 63.4219 66.1328 63.4219H63.4766V77H60.5781ZM68.8438 69.75L72.8047 77H69.5703L65.6797 69.75H68.8438ZM79.3842 77.2344C78.2123 77.2344 77.1967 76.9766 76.3373 76.4609C75.478 75.9453 74.8113 75.224 74.3373 74.2969C73.8686 73.3698 73.6342 72.2865 73.6342 71.0469C73.6342 69.8073 73.8686 68.7214 74.3373 67.7891C74.8113 66.8568 75.478 66.1328 76.3373 65.6172C77.1967 65.1016 78.2123 64.8438 79.3842 64.8438C80.5561 64.8438 81.5717 65.1016 82.4311 65.6172C83.2905 66.1328 83.9545 66.8568 84.4233 67.7891C84.8972 68.7214 85.1342 69.8073 85.1342 71.0469C85.1342 72.2865 84.8972 73.3698 84.4233 74.2969C83.9545 75.224 83.2905 75.9453 82.4311 76.4609C81.5717 76.9766 80.5561 77.2344 79.3842 77.2344ZM79.3998 74.9687C80.0353 74.9687 80.5665 74.7943 80.9936 74.4453C81.4207 74.0911 81.7384 73.6172 81.9467 73.0234C82.1603 72.4297 82.267 71.7682 82.267 71.0391C82.267 70.3047 82.1603 69.6406 81.9467 69.0469C81.7384 68.4479 81.4207 67.9714 80.9936 67.6172C80.5665 67.263 80.0353 67.0859 79.3998 67.0859C78.7488 67.0859 78.2071 67.263 77.7748 67.6172C77.3478 67.9714 77.0274 68.4479 76.8139 69.0469C76.6056 69.6406 76.5014 70.3047 76.5014 71.0391C76.5014 71.7682 76.6056 72.4297 76.8139 73.0234C77.0274 73.6172 77.3478 74.0911 77.7748 74.4453C78.2071 74.7943 78.7488 74.9687 79.3998 74.9687ZM87.2196 77V61H90.0477V66.9844H90.1649C90.3108 66.6927 90.5165 66.3828 90.7821 66.0547C91.0477 65.7214 91.4071 65.4375 91.8602 65.2031C92.3134 64.9635 92.8915 64.8438 93.5946 64.8438C94.5217 64.8438 95.3576 65.0807 96.1024 65.5547C96.8524 66.0234 97.4462 66.7187 97.8837 67.6406C98.3264 68.5573 98.5477 69.6823 98.5477 71.0156C98.5477 72.3333 98.3316 73.4531 97.8993 74.375C97.467 75.2969 96.8785 76 96.1337 76.4844C95.3889 76.9688 94.5451 77.2109 93.6024 77.2109C92.9149 77.2109 92.3446 77.0964 91.8915 76.8672C91.4384 76.638 91.0738 76.362 90.7977 76.0391C90.5269 75.7109 90.316 75.401 90.1649 75.1094H90.0009V77H87.2196ZM89.993 71C89.993 71.776 90.1024 72.4557 90.3212 73.0391C90.5451 73.6224 90.8654 74.0781 91.2821 74.4062C91.704 74.7292 92.2144 74.8906 92.8134 74.8906C93.4384 74.8906 93.9618 74.724 94.3837 74.3906C94.8055 74.0521 95.1233 73.5911 95.3368 73.0078C95.5555 72.4193 95.6649 71.75 95.6649 71C95.6649 70.2552 95.5582 69.5937 95.3446 69.0156C95.1311 68.4375 94.8134 67.9844 94.3915 67.6562C93.9696 67.3281 93.4436 67.1641 92.8134 67.1641C92.2092 67.1641 91.6962 67.3229 91.2743 67.6406C90.8524 67.9583 90.5321 68.4036 90.3134 68.9766C90.0998 69.5495 89.993 70.224 89.993 71ZM105.746 77.2344C104.575 77.2344 103.559 76.9766 102.7 76.4609C101.84 75.9453 101.173 75.224 100.7 74.2969C100.231 73.3698 99.9964 72.2865 99.9964 71.0469C99.9964 69.8073 100.231 68.7214 100.7 67.7891C101.173 66.8568 101.84 66.1328 102.7 65.6172C103.559 65.1016 104.575 64.8438 105.746 64.8438C106.918 64.8438 107.934 65.1016 108.793 65.6172C109.653 66.1328 110.317 66.8568 110.785 67.7891C111.259 68.7214 111.496 69.8073 111.496 71.0469C111.496 72.2865 111.259 73.3698 110.785 74.2969C110.317 75.224 109.653 75.9453 108.793 76.4609C107.934 76.9766 106.918 77.2344 105.746 77.2344ZM105.762 74.9687C106.397 74.9687 106.929 74.7943 107.356 74.4453C107.783 74.0911 108.101 73.6172 108.309 73.0234C108.522 72.4297 108.629 71.7682 108.629 71.0391C108.629 70.3047 108.522 69.6406 108.309 69.0469C108.101 68.4479 107.783 67.9714 107.356 67.6172C106.929 67.263 106.397 67.0859 105.762 67.0859C105.111 67.0859 104.569 67.263 104.137 67.6172C103.71 67.9714 103.39 68.4479 103.176 69.0469C102.968 69.6406 102.864 70.3047 102.864 71.0391C102.864 71.7682 102.968 72.4297 103.176 73.0234C103.39 73.6172 103.71 74.0911 104.137 74.4453C104.569 74.7943 105.111 74.9687 105.762 74.9687ZM62.6328 104H59.5391L65.1719 88H68.75L74.3906 104H71.2969L67.0234 91.2812H66.8984L62.6328 104ZM62.7344 97.7266H71.1719V100.055H62.7344V97.7266ZM80.0209 104.211C79.0782 104.211 78.2345 103.969 77.4897 103.484C76.7449 103 76.1564 102.297 75.7241 101.375C75.2918 100.453 75.0756 99.3333 75.0756 98.0156C75.0756 96.6823 75.2944 95.5573 75.7319 94.6406C76.1746 93.7187 76.7709 93.0234 77.5209 92.5547C78.2709 92.0807 79.1069 91.8438 80.0288 91.8438C80.7319 91.8438 81.31 91.9635 81.7631 92.2031C82.2163 92.4375 82.5756 92.7214 82.8413 93.0547C83.1069 93.3828 83.3126 93.6927 83.4584 93.9844H83.5756V88H86.4116V104H83.6303V102.109H83.4584C83.3126 102.401 83.1017 102.711 82.8256 103.039C82.5496 103.362 82.185 103.638 81.7319 103.867C81.2788 104.096 80.7084 104.211 80.0209 104.211ZM80.81 101.891C81.409 101.891 81.9194 101.729 82.3413 101.406C82.7631 101.078 83.0834 100.622 83.3022 100.039C83.5209 99.4557 83.6303 98.776 83.6303 98C83.6303 97.224 83.5209 96.5495 83.3022 95.9766C83.0886 95.4036 82.7709 94.9583 82.3491 94.6406C81.9324 94.3229 81.4194 94.1641 80.81 94.1641C80.1798 94.1641 79.6538 94.3281 79.2319 94.6562C78.81 94.9844 78.4923 95.4375 78.2788 96.0156C78.0652 96.5937 77.9584 97.2552 77.9584 98C77.9584 98.75 78.0652 99.4193 78.2788 100.008C78.4975 100.591 78.8178 101.052 79.2397 101.391C79.6668 101.724 80.1902 101.891 80.81 101.891ZM99.704 92L95.4305 104H92.3055L88.0321 92H91.0477L93.8055 100.914H93.9305L96.6962 92H99.704ZM101.221 104V92H104.049V104H101.221ZM102.643 90.2969C102.195 90.2969 101.81 90.1484 101.487 89.8516C101.164 89.5495 101.002 89.1875 101.002 88.7656C101.002 88.3385 101.164 87.9766 101.487 87.6797C101.81 87.3776 102.195 87.2266 102.643 87.2266C103.096 87.2266 103.481 87.3776 103.799 87.6797C104.122 87.9766 104.284 88.3385 104.284 88.7656C104.284 89.1875 104.122 89.5495 103.799 89.8516C103.481 90.1484 103.096 90.2969 102.643 90.2969ZM116.002 95.1719L113.424 95.4531C113.351 95.1927 113.223 94.9479 113.041 94.7188C112.864 94.4896 112.624 94.3047 112.322 94.1641C112.02 94.0234 111.65 93.9531 111.213 93.9531C110.624 93.9531 110.129 94.0807 109.728 94.3359C109.332 94.5911 109.137 94.9219 109.142 95.3281C109.137 95.6771 109.265 95.9609 109.525 96.1797C109.791 96.3984 110.228 96.5781 110.838 96.7188L112.885 97.1562C114.02 97.401 114.864 97.7891 115.416 98.3203C115.973 98.8516 116.254 99.5469 116.26 100.406C116.254 101.161 116.033 101.828 115.595 102.406C115.163 102.979 114.562 103.427 113.791 103.75C113.02 104.073 112.135 104.234 111.135 104.234C109.666 104.234 108.483 103.927 107.588 103.312C106.692 102.693 106.158 101.831 105.986 100.727L108.744 100.461C108.869 101.003 109.135 101.411 109.541 101.687C109.947 101.964 110.476 102.102 111.127 102.102C111.799 102.102 112.338 101.964 112.744 101.687C113.155 101.411 113.361 101.07 113.361 100.664C113.361 100.32 113.228 100.036 112.963 99.8125C112.702 99.5885 112.296 99.4167 111.744 99.2969L109.697 98.8672C108.546 98.6276 107.694 98.224 107.142 97.6562C106.59 97.0833 106.317 96.3594 106.322 95.4844C106.317 94.7448 106.517 94.1042 106.924 93.5625C107.335 93.0156 107.905 92.5937 108.635 92.2969C109.369 91.9948 110.215 91.8438 111.174 91.8438C112.58 91.8438 113.687 92.1432 114.494 92.7422C115.306 93.3411 115.809 94.151 116.002 95.1719ZM123.386 104.234C122.214 104.234 121.198 103.977 120.339 103.461C119.48 102.945 118.813 102.224 118.339 101.297C117.87 100.37 117.636 99.2865 117.636 98.0469C117.636 96.8073 117.87 95.7214 118.339 94.7891C118.813 93.8568 119.48 93.1328 120.339 92.6172C121.198 92.1016 122.214 91.8438 123.386 91.8438C124.558 91.8438 125.573 92.1016 126.433 92.6172C127.292 93.1328 127.956 93.8568 128.425 94.7891C128.899 95.7214 129.136 96.8073 129.136 98.0469C129.136 99.2865 128.899 100.37 128.425 101.297C127.956 102.224 127.292 102.945 126.433 103.461C125.573 103.977 124.558 104.234 123.386 104.234ZM123.402 101.969C124.037 101.969 124.568 101.794 124.995 101.445C125.422 101.091 125.74 100.617 125.948 100.023C126.162 99.4297 126.269 98.7682 126.269 98.0391C126.269 97.3047 126.162 96.6406 125.948 96.0469C125.74 95.4479 125.422 94.9714 124.995 94.6172C124.568 94.263 124.037 94.0859 123.402 94.0859C122.751 94.0859 122.209 94.263 121.777 94.6172C121.349 94.9714 121.029 95.4479 120.816 96.0469C120.607 96.6406 120.503 97.3047 120.503 98.0391C120.503 98.7682 120.607 99.4297 120.816 100.023C121.029 100.617 121.349 101.091 121.777 101.445C122.209 101.794 122.751 101.969 123.402 101.969ZM131.096 104V92H133.839V94H133.964C134.182 93.3073 134.557 92.7734 135.089 92.3984C135.625 92.0182 136.237 91.8281 136.924 91.8281C137.081 91.8281 137.255 91.8359 137.448 91.8516C137.646 91.862 137.81 91.8802 137.94 91.9062V94.5078C137.82 94.4661 137.63 94.4297 137.37 94.3984C137.115 94.362 136.867 94.3437 136.628 94.3437C136.112 94.3437 135.648 94.4557 135.237 94.6797C134.831 94.8984 134.51 95.2031 134.276 95.5937C134.042 95.9844 133.924 96.4349 133.924 96.9453V104H131.096ZM148.863 95.1719L146.285 95.4531C146.212 95.1927 146.085 94.9479 145.902 94.7188C145.725 94.4896 145.486 94.3047 145.184 94.1641C144.882 94.0234 144.512 93.9531 144.074 93.9531C143.486 93.9531 142.991 94.0807 142.59 94.3359C142.194 94.5911 141.999 94.9219 142.004 95.3281C141.999 95.6771 142.126 95.9609 142.387 96.1797C142.652 96.3984 143.09 96.5781 143.699 96.7188L145.746 97.1562C146.882 97.401 147.725 97.7891 148.277 98.3203C148.835 98.8516 149.116 99.5469 149.121 100.406C149.116 101.161 148.895 101.828 148.457 102.406C148.025 102.979 147.423 103.427 146.652 103.75C145.882 104.073 144.996 104.234 143.996 104.234C142.527 104.234 141.345 103.927 140.449 103.312C139.553 102.693 139.02 101.831 138.848 100.727L141.606 100.461C141.731 101.003 141.996 101.411 142.402 101.687C142.809 101.964 143.337 102.102 143.988 102.102C144.66 102.102 145.199 101.964 145.606 101.687C146.017 101.411 146.223 101.07 146.223 100.664C146.223 100.32 146.09 100.036 145.824 99.8125C145.564 99.5885 145.158 99.4167 144.606 99.2969L142.559 98.8672C141.408 98.6276 140.556 98.224 140.004 97.6562C139.452 97.0833 139.178 96.3594 139.184 95.4844C139.178 94.7448 139.379 94.1042 139.785 93.5625C140.197 93.0156 140.767 92.5937 141.496 92.2969C142.231 91.9948 143.077 91.8438 144.035 91.8438C145.441 91.8438 146.548 92.1432 147.356 92.7422C148.168 93.3411 148.671 94.151 148.863 95.1719Z" fill="#2B70C5"/>
<path d="M69.1563 181C67.1475 181 65.1839 181.596 63.5137 182.712C61.8436 183.828 60.5418 185.414 59.7731 187.27C59.0044 189.125 58.8033 191.168 59.1952 193.138C59.587 195.108 60.5543 196.917 61.9747 198.338C63.3951 199.758 65.2047 200.725 67.1749 201.117C69.145 201.509 71.1871 201.308 73.0429 200.539C74.8987 199.771 76.4849 198.469 77.6009 196.799C78.7169 195.129 79.3125 193.165 79.3125 191.156C79.3097 188.464 78.2387 185.882 76.3347 183.978C74.4306 182.074 71.849 181.003 69.1563 181ZM73.6152 191.709L70.4902 194.834C70.3436 194.981 70.1448 195.063 69.9375 195.063C69.7302 195.063 69.5314 194.981 69.3848 194.834C69.2382 194.687 69.1558 194.489 69.1558 194.281C69.1558 194.074 69.2382 193.875 69.3848 193.729L71.1768 191.938H65.25C65.0428 191.938 64.8441 191.855 64.6976 191.709C64.5511 191.562 64.4688 191.363 64.4688 191.156C64.4688 190.949 64.5511 190.75 64.6976 190.604C64.8441 190.457 65.0428 190.375 65.25 190.375H71.1768L69.3848 188.584C69.2382 188.437 69.1558 188.239 69.1558 188.031C69.1558 187.824 69.2382 187.625 69.3848 187.479C69.5314 187.332 69.7302 187.25 69.9375 187.25C70.1448 187.25 70.3436 187.332 70.4902 187.479L73.6152 190.604C73.6879 190.676 73.7455 190.762 73.7848 190.857C73.8241 190.952 73.8444 191.054 73.8444 191.156C73.8444 191.259 73.8241 191.361 73.7848 191.455C73.7455 191.55 73.6879 191.636 73.6152 191.709Z" fill="#00CC8F"/>
</g>
<rect x="31" y="23" width="318.667" height="215" rx="16" stroke="#1566D6" stroke-opacity="0.24" stroke-width="2" shape-rendering="crispEdges"/>
</g>
<defs>
<filter id="filter0_d_1325_42688" x="0" y="-8" width="392.667" height="289" filterUnits="userSpaceOnUse" color-interpolation-filters="sRGB">
<feFlood flood-opacity="0" result="BackgroundImageFix"/>
<feColorMatrix in="SourceAlpha" type="matrix" values="0 0 0 0 0 0 0 0 0 0 0 0 0 0 0 0 0 0 127 0" result="hardAlpha"/>
<feOffset dx="6" dy="6"/>
<feGaussianBlur stdDeviation="18"/>
<feComposite in2="hardAlpha" operator="out"/>
<feColorMatrix type="matrix" values="0 0 0 0 0.0823529 0 0 0 0 0.4 0 0 0 0 0.839216 0 0 0 0.1 0"/>
<feBlend mode="normal" in2="BackgroundImageFix" result="effect1_dropShadow_1325_42688"/>
<feBlend mode="normal" in="SourceGraphic" in2="effect1_dropShadow_1325_42688" result="shape"/>
</filter>
<clipPath id="clip0_1325_42688">
<rect x="31" y="23" width="318.667" height="215" rx="16" fill="white"/>
</clipPath>
</defs>
</svg>
