<svg width="370" height="333" viewBox="0 0 370 333" fill="none" xmlns="http://www.w3.org/2000/svg">
<g filter="url(#filter0_d_1325_42710)">
<g clip-path="url(#clip0_1325_42710)">
<rect x="31" y="25" width="318.667" height="285" rx="16" fill="white" shape-rendering="crispEdges"/>
<path d="M60.5781 79V63H66.5781C67.8073 63 68.8385 63.2135 69.6719 63.6406C70.5104 64.0677 71.1432 64.6667 71.5703 65.4375C72.0026 66.2031 72.2188 67.0964 72.2188 68.1172C72.2188 69.1432 72 70.0339 71.5625 70.7891C71.1302 71.5391 70.4922 72.1198 69.6484 72.5312C68.8047 72.9375 67.7682 73.1406 66.5391 73.1406H62.2656V70.7344H66.1484C66.8672 70.7344 67.4557 70.6354 67.9141 70.4375C68.3724 70.2344 68.7109 69.9401 68.9297 69.5547C69.1536 69.1641 69.2656 68.6849 69.2656 68.1172C69.2656 67.5495 69.1536 67.0651 68.9297 66.6641C68.7057 66.2578 68.3646 65.9505 67.9063 65.7422C67.4479 65.5286 66.8568 65.4219 66.1328 65.4219H63.4766V79H60.5781ZM68.8438 71.75L72.8047 79H69.5703L65.6797 71.75H68.8438ZM79.4623 79.2344C78.2592 79.2344 77.2202 78.9844 76.3452 78.4844C75.4754 77.9792 74.8061 77.2656 74.3373 76.3437C73.8686 75.4167 73.6342 74.3255 73.6342 73.0703C73.6342 71.8359 73.8686 70.7526 74.3373 69.8203C74.8113 68.8828 75.4728 68.1536 76.3217 67.6328C77.1707 67.1068 78.1681 66.8438 79.3139 66.8438C80.0535 66.8438 80.7514 66.9635 81.4077 67.2031C82.0691 67.4375 82.6524 67.8021 83.1577 68.2969C83.6681 68.7917 84.0691 69.4219 84.3608 70.1875C84.6524 70.9479 84.7983 71.8542 84.7983 72.9062V73.7734H74.9623V71.8672H82.0873C82.0821 71.3255 81.9649 70.8437 81.7358 70.4219C81.5066 69.9948 81.1863 69.6589 80.7748 69.4141C80.3686 69.1693 79.8946 69.0469 79.353 69.0469C78.7748 69.0469 78.267 69.1875 77.8295 69.4687C77.392 69.7448 77.0509 70.1094 76.8061 70.5625C76.5665 71.0104 76.4441 71.5026 76.4389 72.0391V73.7031C76.4389 74.401 76.5665 75 76.8217 75.5C77.0769 75.9948 77.4337 76.375 77.892 76.6406C78.3504 76.901 78.8868 77.0312 79.5014 77.0312C79.9129 77.0312 80.2853 76.974 80.6186 76.8594C80.9519 76.7396 81.241 76.5651 81.4858 76.3359C81.7306 76.1068 81.9155 75.8229 82.0405 75.4844L84.6811 75.7812C84.5144 76.4792 84.1967 77.0885 83.728 77.6094C83.2644 78.125 82.6707 78.526 81.9467 78.8125C81.2228 79.0937 80.3946 79.2344 79.4623 79.2344ZM96.2352 70.1719L93.6571 70.4531C93.5842 70.1927 93.4566 69.9479 93.2743 69.7188C93.0972 69.4896 92.8576 69.3047 92.5555 69.1641C92.2535 69.0234 91.8837 68.9531 91.4462 68.9531C90.8576 68.9531 90.3628 69.0807 89.9618 69.3359C89.566 69.5911 89.3707 69.9219 89.3759 70.3281C89.3707 70.6771 89.4983 70.9609 89.7587 71.1797C90.0243 71.3984 90.4618 71.5781 91.0712 71.7188L93.118 72.1562C94.2535 72.401 95.0972 72.7891 95.6493 73.3203C96.2066 73.8516 96.4878 74.5469 96.493 75.4062C96.4878 76.1615 96.2665 76.8281 95.829 77.4062C95.3967 77.9792 94.7951 78.4271 94.0243 78.75C93.2535 79.0729 92.368 79.2344 91.368 79.2344C89.8993 79.2344 88.717 78.9271 87.8212 78.3125C86.9253 77.6927 86.3915 76.8307 86.2196 75.7266L88.9774 75.4609C89.1024 76.0026 89.368 76.4115 89.7743 76.6875C90.1805 76.9635 90.7092 77.1016 91.3602 77.1016C92.0321 77.1016 92.5712 76.9635 92.9774 76.6875C93.3889 76.4115 93.5946 76.0703 93.5946 75.6641C93.5946 75.3203 93.4618 75.0365 93.1962 74.8125C92.9358 74.5885 92.5295 74.4167 91.9774 74.2969L89.9305 73.8672C88.7795 73.6276 87.9279 73.224 87.3759 72.6562C86.8238 72.0833 86.5503 71.3594 86.5555 70.4844C86.5503 69.7448 86.7509 69.1042 87.1571 68.5625C87.5686 68.0156 88.1389 67.5937 88.868 67.2969C89.6024 66.9948 90.4488 66.8438 91.4071 66.8438C92.8134 66.8438 93.9201 67.1432 94.7274 67.7422C95.5399 68.3411 96.0425 69.151 96.2352 70.1719ZM103.698 79.2344C102.494 79.2344 101.455 78.9844 100.58 78.4844C99.7106 77.9792 99.0413 77.2656 98.5726 76.3437C98.1038 75.4167 97.8695 74.3255 97.8695 73.0703C97.8695 71.8359 98.1038 70.7526 98.5726 69.8203C99.0465 68.8828 99.708 68.1536 100.557 67.6328C101.406 67.1068 102.403 66.8438 103.549 66.8438C104.289 66.8438 104.987 66.9635 105.643 67.2031C106.304 67.4375 106.888 67.8021 107.393 68.2969C107.903 68.7917 108.304 69.4219 108.596 70.1875C108.888 70.9479 109.034 71.8542 109.034 72.9062V73.7734H99.1976V71.8672H106.323C106.317 71.3255 106.2 70.8437 105.971 70.4219C105.742 69.9948 105.422 69.6589 105.01 69.4141C104.604 69.1693 104.13 69.0469 103.588 69.0469C103.01 69.0469 102.502 69.1875 102.065 69.4687C101.627 69.7448 101.286 70.1094 101.041 70.5625C100.802 71.0104 100.679 71.5026 100.674 72.0391V73.7031C100.674 74.401 100.802 75 101.057 75.5C101.312 75.9948 101.669 76.375 102.127 76.6406C102.586 76.901 103.122 77.0312 103.737 77.0312C104.148 77.0312 104.52 76.974 104.854 76.8594C105.187 76.7396 105.476 76.5651 105.721 76.3359C105.966 76.1068 106.151 75.8229 106.276 75.4844L108.916 75.7812C108.75 76.4792 108.432 77.0885 107.963 77.6094C107.5 78.125 106.906 78.526 106.182 78.8125C105.458 79.0937 104.63 79.2344 103.698 79.2344ZM114.439 79.2422C113.679 79.2422 112.994 79.1068 112.385 78.8359C111.78 78.5599 111.301 78.1536 110.947 77.6172C110.598 77.0807 110.424 76.4193 110.424 75.6328C110.424 74.9557 110.549 74.3958 110.799 73.9531C111.049 73.5104 111.39 73.1562 111.822 72.8906C112.254 72.625 112.741 72.4245 113.283 72.2891C113.83 72.1484 114.395 72.0469 114.978 71.9844C115.681 71.9115 116.252 71.8464 116.689 71.7891C117.127 71.7266 117.444 71.6328 117.642 71.5078C117.845 71.3776 117.947 71.1771 117.947 70.9062V70.8594C117.947 70.2708 117.773 69.8151 117.424 69.4922C117.075 69.1693 116.572 69.0078 115.916 69.0078C115.223 69.0078 114.674 69.1589 114.267 69.4609C113.866 69.763 113.595 70.1198 113.455 70.5312L110.814 70.1562C111.023 69.4271 111.366 68.8177 111.845 68.3281C112.325 67.8333 112.911 67.4635 113.603 67.2187C114.296 66.9688 115.062 66.8438 115.9 66.8438C116.478 66.8438 117.054 66.9115 117.627 67.0469C118.2 67.1823 118.723 67.4062 119.197 67.7187C119.671 68.026 120.051 68.4453 120.338 68.9766C120.629 69.5078 120.775 70.1719 120.775 70.9687V79H118.056V77.3516H117.963C117.791 77.6849 117.549 77.9974 117.236 78.2891C116.929 78.5755 116.541 78.8073 116.072 78.9844C115.608 79.1563 115.064 79.2422 114.439 79.2422ZM115.174 77.1641C115.741 77.1641 116.233 77.0521 116.65 76.8281C117.067 76.599 117.387 76.2969 117.611 75.9219C117.84 75.5469 117.955 75.138 117.955 74.6953V73.2812C117.866 73.3542 117.715 73.4219 117.502 73.4844C117.293 73.5469 117.059 73.6016 116.799 73.6484C116.538 73.6953 116.28 73.737 116.025 73.7734C115.77 73.8099 115.549 73.8411 115.361 73.8672C114.939 73.9245 114.562 74.0182 114.228 74.1484C113.895 74.2786 113.632 74.4609 113.439 74.6953C113.247 74.9245 113.15 75.2214 113.15 75.5859C113.15 76.1068 113.34 76.5 113.72 76.7656C114.101 77.0312 114.585 77.1641 115.174 77.1641ZM123.179 79V67H125.921V69H126.046C126.265 68.3073 126.64 67.7734 127.171 67.3984C127.708 67.0182 128.32 66.8281 129.007 66.8281C129.163 66.8281 129.338 66.8359 129.53 66.8516C129.728 66.862 129.892 66.8802 130.023 66.9062V69.5078C129.903 69.4661 129.713 69.4297 129.452 69.3984C129.197 69.362 128.95 69.3437 128.71 69.3437C128.195 69.3437 127.731 69.4557 127.32 69.6797C126.913 69.8984 126.593 70.2031 126.359 70.5937C126.124 70.9844 126.007 71.4349 126.007 71.9453V79H123.179ZM136.202 79.2344C135.004 79.2344 133.975 78.9714 133.116 78.4453C132.262 77.9193 131.603 77.1927 131.139 76.2656C130.681 75.3333 130.452 74.2604 130.452 73.0469C130.452 71.8281 130.686 70.7526 131.155 69.8203C131.624 68.8828 132.285 68.1536 133.139 67.6328C133.999 67.1068 135.014 66.8438 136.186 66.8438C137.16 66.8438 138.022 67.0234 138.772 67.3828C139.527 67.737 140.129 68.2396 140.577 68.8906C141.025 69.5365 141.28 70.2917 141.342 71.1562H138.639C138.53 70.5781 138.27 70.0964 137.858 69.7109C137.452 69.3203 136.908 69.125 136.225 69.125C135.647 69.125 135.139 69.2812 134.702 69.5937C134.264 69.901 133.923 70.3437 133.678 70.9219C133.439 71.5 133.319 72.1927 133.319 73C133.319 73.8177 133.439 74.5208 133.678 75.1094C133.918 75.6927 134.254 76.1432 134.686 76.4609C135.124 76.7734 135.637 76.9297 136.225 76.9297C136.642 76.9297 137.014 76.8516 137.342 76.6953C137.676 76.5339 137.954 76.3021 138.178 76C138.402 75.6979 138.556 75.3307 138.639 74.8984H141.342C141.275 75.7474 141.025 76.5 140.592 77.1562C140.16 77.8073 139.572 78.3177 138.827 78.6875C138.082 79.0521 137.207 79.2344 136.202 79.2344ZM146.053 71.9687V79H143.225V63H145.99V69.0391H146.131C146.412 68.362 146.847 67.8281 147.436 67.4375C148.029 67.0417 148.785 66.8438 149.701 66.8438C150.535 66.8438 151.261 67.0182 151.881 67.3672C152.501 67.7161 152.98 68.2266 153.318 68.8984C153.662 69.5703 153.834 70.3906 153.834 71.3594V79H151.006V71.7969C151.006 70.9896 150.798 70.362 150.381 69.9141C149.969 69.4609 149.391 69.2344 148.647 69.2344C148.147 69.2344 147.699 69.3437 147.303 69.5625C146.912 69.776 146.605 70.0859 146.381 70.4922C146.162 70.8984 146.053 71.3906 146.053 71.9687ZM62.6328 106H59.5391L65.1719 90H68.75L74.3906 106H71.2969L67.0234 93.2812H66.8984L62.6328 106ZM62.7344 99.7266H71.1719V102.055H62.7344V99.7266ZM80.0209 106.211C79.0782 106.211 78.2345 105.969 77.4897 105.484C76.7449 105 76.1564 104.297 75.7241 103.375C75.2918 102.453 75.0756 101.333 75.0756 100.016C75.0756 98.6823 75.2944 97.5573 75.7319 96.6406C76.1746 95.7187 76.7709 95.0234 77.5209 94.5547C78.2709 94.0807 79.1069 93.8438 80.0288 93.8438C80.7319 93.8438 81.31 93.9635 81.7631 94.2031C82.2163 94.4375 82.5756 94.7214 82.8413 95.0547C83.1069 95.3828 83.3126 95.6927 83.4584 95.9844H83.5756V90H86.4116V106H83.6303V104.109H83.4584C83.3126 104.401 83.1017 104.711 82.8256 105.039C82.5496 105.362 82.185 105.638 81.7319 105.867C81.2788 106.096 80.7084 106.211 80.0209 106.211ZM80.81 103.891C81.409 103.891 81.9194 103.729 82.3413 103.406C82.7631 103.078 83.0834 102.622 83.3022 102.039C83.5209 101.456 83.6303 100.776 83.6303 100C83.6303 99.224 83.5209 98.5495 83.3022 97.9766C83.0886 97.4036 82.7709 96.9583 82.3491 96.6406C81.9324 96.3229 81.4194 96.1641 80.81 96.1641C80.1798 96.1641 79.6538 96.3281 79.2319 96.6562C78.81 96.9844 78.4923 97.4375 78.2788 98.0156C78.0652 98.5937 77.9584 99.2552 77.9584 100C77.9584 100.75 78.0652 101.419 78.2788 102.008C78.4975 102.591 78.8178 103.052 79.2397 103.391C79.6668 103.724 80.1902 103.891 80.81 103.891ZM99.704 94L95.4305 106H92.3055L88.0321 94H91.0477L93.8055 102.914H93.9305L96.6962 94H99.704ZM101.221 106V94H104.049V106H101.221ZM102.643 92.2969C102.195 92.2969 101.81 92.1484 101.487 91.8516C101.164 91.5495 101.002 91.1875 101.002 90.7656C101.002 90.3385 101.164 89.9766 101.487 89.6797C101.81 89.3776 102.195 89.2266 102.643 89.2266C103.096 89.2266 103.481 89.3776 103.799 89.6797C104.122 89.9766 104.284 90.3385 104.284 90.7656C104.284 91.1875 104.122 91.5495 103.799 91.8516C103.481 92.1484 103.096 92.2969 102.643 92.2969ZM116.002 97.1719L113.424 97.4531C113.351 97.1927 113.223 96.9479 113.041 96.7188C112.864 96.4896 112.624 96.3047 112.322 96.1641C112.02 96.0234 111.65 95.9531 111.213 95.9531C110.624 95.9531 110.129 96.0807 109.728 96.3359C109.332 96.5911 109.137 96.9219 109.142 97.3281C109.137 97.6771 109.265 97.9609 109.525 98.1797C109.791 98.3984 110.228 98.5781 110.838 98.7188L112.885 99.1562C114.02 99.401 114.864 99.7891 115.416 100.32C115.973 100.852 116.254 101.547 116.26 102.406C116.254 103.161 116.033 103.828 115.595 104.406C115.163 104.979 114.562 105.427 113.791 105.75C113.02 106.073 112.135 106.234 111.135 106.234C109.666 106.234 108.483 105.927 107.588 105.312C106.692 104.693 106.158 103.831 105.986 102.727L108.744 102.461C108.869 103.003 109.135 103.411 109.541 103.687C109.947 103.964 110.476 104.102 111.127 104.102C111.799 104.102 112.338 103.964 112.744 103.687C113.155 103.411 113.361 103.07 113.361 102.664C113.361 102.32 113.228 102.036 112.963 101.812C112.702 101.589 112.296 101.417 111.744 101.297L109.697 100.867C108.546 100.628 107.694 100.224 107.142 99.6562C106.59 99.0833 106.317 98.3594 106.322 97.4844C106.317 96.7448 106.517 96.1042 106.924 95.5625C107.335 95.0156 107.905 94.5937 108.635 94.2969C109.369 93.9948 110.215 93.8438 111.174 93.8438C112.58 93.8438 113.687 94.1432 114.494 94.7422C115.306 95.3411 115.809 96.151 116.002 97.1719ZM123.386 106.234C122.214 106.234 121.198 105.977 120.339 105.461C119.48 104.945 118.813 104.224 118.339 103.297C117.87 102.37 117.636 101.286 117.636 100.047C117.636 98.8073 117.87 97.7214 118.339 96.7891C118.813 95.8568 119.48 95.1328 120.339 94.6172C121.198 94.1016 122.214 93.8438 123.386 93.8438C124.558 93.8438 125.573 94.1016 126.433 94.6172C127.292 95.1328 127.956 95.8568 128.425 96.7891C128.899 97.7214 129.136 98.8073 129.136 100.047C129.136 101.286 128.899 102.37 128.425 103.297C127.956 104.224 127.292 104.945 126.433 105.461C125.573 105.977 124.558 106.234 123.386 106.234ZM123.402 103.969C124.037 103.969 124.568 103.794 124.995 103.445C125.422 103.091 125.74 102.617 125.948 102.023C126.162 101.43 126.269 100.768 126.269 100.039C126.269 99.3047 126.162 98.6406 125.948 98.0469C125.74 97.4479 125.422 96.9714 124.995 96.6172C124.568 96.263 124.037 96.0859 123.402 96.0859C122.751 96.0859 122.209 96.263 121.777 96.6172C121.349 96.9714 121.029 97.4479 120.816 98.0469C120.607 98.6406 120.503 99.3047 120.503 100.039C120.503 100.768 120.607 101.43 120.816 102.023C121.029 102.617 121.349 103.091 121.777 103.445C122.209 103.794 122.751 103.969 123.402 103.969ZM131.096 106V94H133.839V96H133.964C134.182 95.3073 134.557 94.7734 135.089 94.3984C135.625 94.0182 136.237 93.8281 136.924 93.8281C137.081 93.8281 137.255 93.8359 137.448 93.8516C137.646 93.862 137.81 93.8802 137.94 93.9062V96.5078C137.82 96.4661 137.63 96.4297 137.37 96.3984C137.115 96.362 136.867 96.3437 136.628 96.3437C136.112 96.3437 135.648 96.4557 135.237 96.6797C134.831 96.8984 134.51 97.2031 134.276 97.5937C134.042 97.9844 133.924 98.4349 133.924 98.9453V106H131.096ZM148.863 97.1719L146.285 97.4531C146.212 97.1927 146.085 96.9479 145.902 96.7188C145.725 96.4896 145.486 96.3047 145.184 96.1641C144.882 96.0234 144.512 95.9531 144.074 95.9531C143.486 95.9531 142.991 96.0807 142.59 96.3359C142.194 96.5911 141.999 96.9219 142.004 97.3281C141.999 97.6771 142.126 97.9609 142.387 98.1797C142.652 98.3984 143.09 98.5781 143.699 98.7188L145.746 99.1562C146.882 99.401 147.725 99.7891 148.277 100.32C148.835 100.852 149.116 101.547 149.121 102.406C149.116 103.161 148.895 103.828 148.457 104.406C148.025 104.979 147.423 105.427 146.652 105.75C145.882 106.073 144.996 106.234 143.996 106.234C142.527 106.234 141.345 105.927 140.449 105.312C139.553 104.693 139.02 103.831 138.848 102.727L141.606 102.461C141.731 103.003 141.996 103.411 142.402 103.687C142.809 103.964 143.337 104.102 143.988 104.102C144.66 104.102 145.199 103.964 145.606 103.687C146.017 103.411 146.223 103.07 146.223 102.664C146.223 102.32 146.09 102.036 145.824 101.812C145.564 101.589 145.158 101.417 144.606 101.297L142.559 100.867C141.408 100.628 140.556 100.224 140.004 99.6562C139.452 99.0833 139.178 98.3594 139.184 97.4844C139.178 96.7448 139.379 96.1042 139.785 95.5625C140.197 95.0156 140.767 94.5937 141.496 94.2969C142.231 93.9948 143.077 93.8438 144.035 93.8438C145.441 93.8438 146.548 94.1432 147.356 94.7422C148.168 95.3411 148.671 96.151 148.863 97.1719Z" fill="#2B70C5"/>
<path d="M69.1563 253C67.1475 253 65.1839 253.596 63.5137 254.712C61.8436 255.828 60.5418 257.414 59.7731 259.27C59.0044 261.125 58.8033 263.168 59.1952 265.138C59.587 267.108 60.5543 268.917 61.9747 270.338C63.3951 271.758 65.2047 272.725 67.1749 273.117C69.145 273.509 71.1871 273.308 73.0429 272.539C74.8987 271.771 76.4849 270.469 77.6009 268.799C78.7169 267.129 79.3125 265.165 79.3125 263.156C79.3097 260.464 78.2387 257.882 76.3347 255.978C74.4306 254.074 71.849 253.003 69.1563 253ZM73.6152 263.709L70.4902 266.834C70.3436 266.981 70.1448 267.063 69.9375 267.063C69.7302 267.063 69.5314 266.981 69.3848 266.834C69.2382 266.687 69.1558 266.489 69.1558 266.281C69.1558 266.074 69.2382 265.875 69.3848 265.729L71.1768 263.938H65.25C65.0428 263.938 64.8441 263.855 64.6976 263.709C64.5511 263.562 64.4688 263.363 64.4688 263.156C64.4688 262.949 64.5511 262.75 64.6976 262.604C64.8441 262.457 65.0428 262.375 65.25 262.375H71.1768L69.3848 260.584C69.2382 260.437 69.1558 260.239 69.1558 260.031C69.1558 259.824 69.2382 259.625 69.3848 259.479C69.5314 259.332 69.7302 259.25 69.9375 259.25C70.1448 259.25 70.3436 259.332 70.4902 259.479L73.6152 262.604C73.6879 262.676 73.7455 262.762 73.7848 262.857C73.8241 262.952 73.8444 263.054 73.8444 263.156C73.8444 263.259 73.8241 263.361 73.7848 263.455C73.7455 263.55 73.6879 263.636 73.6152 263.709Z" fill="#00CC8F"/>
<path d="M199.212 183.081C195.15 183.081 191.179 181.876 187.801 179.619C184.423 177.362 181.79 174.154 180.235 170.401C178.681 166.648 178.274 162.518 179.067 158.533C179.859 154.549 181.815 150.889 184.688 148.016C187.561 145.144 191.221 143.187 195.205 142.395C199.19 141.602 203.32 142.009 207.073 143.564C210.826 145.118 214.034 147.751 216.291 151.129C218.548 154.507 219.753 158.478 219.753 162.541C219.747 167.986 217.581 173.207 213.73 177.058C209.879 180.909 204.658 183.075 199.212 183.081ZM199.212 143.417C195.43 143.417 191.733 144.538 188.588 146.64C185.443 148.741 182.992 151.728 181.544 155.222C180.097 158.717 179.718 162.562 180.456 166.271C181.194 169.981 183.015 173.389 185.69 176.063C188.364 178.738 191.772 180.559 195.482 181.297C199.191 182.035 203.036 181.656 206.531 180.209C210.025 178.761 213.012 176.31 215.113 173.165C217.215 170.02 218.336 166.323 218.336 162.541C218.331 157.47 216.314 152.609 212.729 149.024C209.144 145.439 204.283 143.422 199.212 143.417Z" fill="#E5E5E5"/>
<path d="M189.05 168.959C188.775 168.959 188.506 168.883 188.278 168.742C188.049 168.601 187.871 168.4 187.765 168.165C187.66 167.93 187.632 167.671 187.686 167.421C187.739 167.172 187.871 166.942 188.065 166.762L195.134 160.201C195.244 160.098 195.375 160.017 195.519 159.961C195.663 159.906 195.818 159.878 195.974 159.878H195.975C196.131 159.877 196.285 159.906 196.43 159.961C196.574 160.016 196.705 160.097 196.815 160.2L200.093 163.234C200.159 163.296 200.238 163.345 200.324 163.378C200.411 163.411 200.503 163.428 200.597 163.428C200.691 163.428 200.784 163.411 200.87 163.378C200.957 163.344 201.036 163.296 201.101 163.234L205.73 158.943C205.752 158.922 205.769 158.898 205.781 158.871C205.793 158.845 205.799 158.816 205.799 158.787C205.799 158.758 205.793 158.73 205.781 158.703C205.769 158.676 205.752 158.652 205.729 158.632L204.232 157.248C204.132 157.156 204.064 157.038 204.037 156.91C204.009 156.782 204.023 156.649 204.077 156.529C204.131 156.408 204.222 156.305 204.339 156.232C204.457 156.16 204.595 156.121 204.736 156.121H210.054C210.243 156.121 210.425 156.191 210.558 156.315C210.692 156.438 210.767 156.606 210.767 156.781V161.701C210.767 161.832 210.726 161.959 210.647 162.068C210.569 162.176 210.458 162.261 210.327 162.311C210.197 162.361 210.054 162.374 209.915 162.348C209.777 162.323 209.65 162.26 209.55 162.168L208.051 160.78C208.029 160.759 208.002 160.743 207.974 160.732C207.945 160.721 207.914 160.715 207.883 160.715C207.851 160.715 207.821 160.721 207.792 160.732C207.763 160.743 207.737 160.759 207.715 160.78L201.447 166.577C201.337 166.679 201.206 166.761 201.062 166.816C200.918 166.871 200.763 166.899 200.607 166.899C200.451 166.899 200.297 166.871 200.152 166.816C200.008 166.76 199.877 166.679 199.767 166.577L196.487 163.541C196.352 163.421 196.171 163.354 195.983 163.354C195.796 163.354 195.615 163.421 195.479 163.541L190.034 168.582C189.905 168.702 189.751 168.797 189.583 168.861C189.414 168.926 189.233 168.959 189.05 168.959Z" fill="#2B70C5"/>
<path d="M203.183 291.306C201.883 291.046 200.56 290.916 199.234 290.919C193.958 290.914 188.882 292.938 185.059 296.574C181.236 300.209 178.958 305.176 178.697 310.445C178.436 315.714 180.213 320.882 183.659 324.877C187.106 328.871 191.957 331.387 197.207 331.902C202.458 332.417 207.705 330.892 211.862 327.643C216.018 324.394 218.766 319.67 219.534 314.451C220.302 309.231 219.033 303.916 215.989 299.607C212.944 295.298 208.359 292.326 203.183 291.306ZM204.571 329.784C201.943 330.548 199.182 330.739 196.474 330.343C193.766 329.948 191.175 328.975 188.875 327.492C186.576 326.008 184.622 324.047 183.146 321.743C181.67 319.438 180.707 316.844 180.321 314.134C179.935 311.425 180.135 308.665 180.908 306.04C181.682 303.415 183.01 300.986 184.803 298.919C186.597 296.852 188.813 295.194 191.303 294.058C193.792 292.922 196.497 292.334 199.234 292.334C199.799 292.334 200.358 292.361 200.912 292.404C205.351 292.796 209.512 294.727 212.678 297.863C215.843 300.998 217.813 305.142 218.247 309.576C218.681 314.011 217.552 318.457 215.054 322.147C212.557 325.837 208.849 328.538 204.571 329.784Z" fill="#E5E5E5"/>
<path d="M209.333 307.221C208.744 304.791 207.156 302.68 204.916 301.352C202.677 300.024 199.97 299.587 197.389 300.138C197.137 300.192 196.876 300.258 196.646 300.325L199.026 310.176L209.483 307.938C209.439 307.709 209.39 307.459 209.333 307.221Z" fill="#2B70C5"/>
<path d="M208.106 310.445L198.017 312.788L195.726 302.473C193.967 303.029 192.401 304.09 191.213 305.53C190.026 306.969 189.267 308.727 189.026 310.594C188.785 312.461 189.073 314.36 189.855 316.065C190.638 317.77 191.882 319.21 193.439 320.214C194.997 321.218 196.804 321.744 198.645 321.729C200.487 321.715 202.285 321.161 203.828 320.132C205.371 319.104 206.593 317.645 207.35 315.928C208.106 314.211 208.366 312.308 208.097 310.445H208.106Z" fill="#2B70C5"/>
<path d="M201.78 258.824C197.717 258.824 193.746 257.62 190.368 255.363C186.99 253.106 184.357 249.898 182.803 246.144C181.248 242.391 180.841 238.261 181.634 234.276C182.427 230.292 184.383 226.632 187.255 223.759C190.128 220.887 193.788 218.93 197.773 218.138C201.757 217.345 205.887 217.752 209.64 219.307C213.394 220.861 216.602 223.494 218.859 226.872C221.116 230.25 222.32 234.221 222.32 238.284C222.314 243.73 220.148 248.951 216.297 252.801C212.447 256.652 207.226 258.818 201.78 258.824ZM201.78 219.16C197.997 219.16 194.3 220.281 191.155 222.383C188.01 224.484 185.559 227.471 184.112 230.965C182.664 234.46 182.285 238.305 183.023 242.015C183.761 245.724 185.583 249.132 188.257 251.806C190.932 254.481 194.339 256.302 198.049 257.04C201.759 257.778 205.604 257.399 209.098 255.952C212.593 254.505 215.579 252.053 217.681 248.908C219.782 245.763 220.904 242.066 220.904 238.284C220.898 233.213 218.881 228.353 215.296 224.767C211.711 221.182 206.85 219.166 201.78 219.16Z" fill="#E5E5E5"/>
<rect x="262.119" y="301.189" width="38.5135" height="2.56757" rx="1.28378" fill="#E5E5E5"/>
<path d="M207.923 247.27C207.509 247.27 207.112 247.094 206.819 246.78C206.526 246.467 206.361 246.041 206.361 245.597V236.086C206.361 235.642 206.526 235.217 206.818 234.904C207.111 234.59 207.507 234.414 207.921 234.413H207.923C208.337 234.414 208.734 234.59 209.026 234.904C209.319 235.217 209.483 235.642 209.484 236.086V245.597C209.483 246.041 209.319 246.466 209.026 246.779C208.734 247.093 208.337 247.269 207.923 247.27ZM203.85 247.27C203.643 247.272 203.439 247.23 203.247 247.147C203.056 247.064 202.881 246.942 202.734 246.786C202.587 246.631 202.47 246.446 202.39 246.242C202.31 246.038 202.268 245.819 202.267 245.597V240.474C202.268 240.03 202.432 239.605 202.725 239.292C203.017 238.978 203.414 238.802 203.827 238.801H203.85C204.264 238.802 204.66 238.978 204.953 239.292C205.245 239.605 205.41 240.03 205.41 240.474V245.597C205.41 246.041 205.245 246.466 204.953 246.779C204.66 247.093 204.264 247.269 203.85 247.27ZM199.737 247.27C199.323 247.27 198.926 247.094 198.633 246.78C198.34 246.467 198.175 246.041 198.174 245.597V230.969C198.175 230.526 198.339 230.101 198.632 229.787C198.924 229.474 199.321 229.297 199.734 229.297H199.737C200.151 229.297 200.547 229.474 200.84 229.787C201.132 230.101 201.297 230.526 201.297 230.969V245.597C201.297 246.041 201.132 246.466 200.84 246.779C200.547 247.093 200.151 247.269 199.737 247.27ZM195.64 247.27C195.435 247.27 195.232 247.227 195.042 247.143C194.852 247.059 194.68 246.936 194.535 246.78C194.39 246.625 194.275 246.44 194.197 246.237C194.118 246.034 194.078 245.816 194.078 245.596L194.08 243.399C194.08 242.955 194.245 242.53 194.537 242.217C194.83 241.903 195.227 241.727 195.641 241.727C196.054 241.728 196.451 241.904 196.743 242.218C197.036 242.531 197.2 242.957 197.2 243.4V245.597C197.199 246.041 197.035 246.466 196.742 246.779C196.45 247.093 196.053 247.269 195.64 247.27Z" fill="#2B70C5"/>
<circle cx="202.423" cy="238.925" r="35.9459" stroke="#2B70C5" stroke-width="3.85135"/>
<path d="M227.457 265.242L280.092 317.877" stroke="#2B70C5" stroke-width="3.85135" stroke-linecap="round"/>
<rect x="262.175" y="152.497" width="38.5135" height="2.56757" rx="1.28378" fill="#E5E5E5"/>
<rect x="262.119" y="161.257" width="38.5135" height="2.56757" rx="1.28378" fill="#E5E5E5"/>
<rect x="262.119" y="170.243" width="18.7871" height="2.56757" rx="1.28378" fill="#E5E5E5"/>
<rect x="262.119" y="228.014" width="38.5135" height="2.56757" rx="1.28378" fill="#E5E5E5"/>
<rect x="262.119" y="237" width="38.5135" height="2.56757" rx="1.28378" fill="#E5E5E5"/>
<rect x="262.119" y="245.986" width="18.7871" height="2.56757" rx="1.28378" fill="#E5E5E5"/>
</g>
<rect x="31" y="25" width="318.667" height="285" rx="16" stroke="#1566D6" stroke-opacity="0.24" stroke-width="2" shape-rendering="crispEdges"/>
</g>
<defs>
<filter id="filter0_d_1325_42710" x="0" y="-6" width="392.667" height="359" filterUnits="userSpaceOnUse" color-interpolation-filters="sRGB">
<feFlood flood-opacity="0" result="BackgroundImageFix"/>
<feColorMatrix in="SourceAlpha" type="matrix" values="0 0 0 0 0 0 0 0 0 0 0 0 0 0 0 0 0 0 127 0" result="hardAlpha"/>
<feOffset dx="6" dy="6"/>
<feGaussianBlur stdDeviation="18"/>
<feComposite in2="hardAlpha" operator="out"/>
<feColorMatrix type="matrix" values="0 0 0 0 0.0823529 0 0 0 0 0.4 0 0 0 0 0.839216 0 0 0 0.1 0"/>
<feBlend mode="normal" in2="BackgroundImageFix" result="effect1_dropShadow_1325_42710"/>
<feBlend mode="normal" in="SourceGraphic" in2="effect1_dropShadow_1325_42710" result="shape"/>
</filter>
<clipPath id="clip0_1325_42710">
<rect x="31" y="25" width="318.667" height="285" rx="16" fill="white"/>
</clipPath>
</defs>
</svg>
