<svg width="319" height="285" viewBox="0 0 319 285" fill="none" xmlns="http://www.w3.org/2000/svg">
<g clip-path="url(#clip0_1325_42847)">
<rect width="318.667" height="285" rx="16" fill="white"/>
<rect width="318.667" height="285" rx="16" fill="#1566D6"/>
<path d="M29.7578 54V38H35.4609C36.7005 38 37.7292 38.2135 38.5469 38.6406C39.3698 39.0677 39.9844 39.6589 40.3906 40.4141C40.7969 41.1641 41 42.0312 41 43.0156C41 43.9948 40.7943 44.8568 40.3828 45.6016C39.9766 46.3411 39.362 46.9167 38.5391 47.3281C37.7214 47.7396 36.6927 47.9453 35.4531 47.9453H31.1328V45.8672H35.2344C36.0156 45.8672 36.651 45.7552 37.1406 45.5312C37.6354 45.3073 37.9974 44.9818 38.2266 44.5547C38.4557 44.1276 38.5703 43.6146 38.5703 43.0156C38.5703 42.4115 38.4531 41.888 38.2188 41.4453C37.9896 41.0026 37.6276 40.6641 37.1328 40.4297C36.6432 40.1901 36 40.0703 35.2031 40.0703H32.1719V54H29.7578ZM37.6563 46.7812L41.6094 54H38.8594L34.9844 46.7812H37.6563ZM48.3315 54.2422C47.1492 54.2422 46.131 53.9896 45.2768 53.4844C44.4278 52.974 43.7716 52.2578 43.308 51.3359C42.8497 50.4089 42.6205 49.3229 42.6205 48.0781C42.6205 46.849 42.8497 45.7656 43.308 44.8281C43.7716 43.8906 44.4174 43.1589 45.2455 42.6328C46.0789 42.1068 47.0528 41.8438 48.1674 41.8438C48.8445 41.8438 49.5008 41.9557 50.1362 42.1797C50.7716 42.4036 51.3419 42.7552 51.8471 43.2344C52.3523 43.7135 52.7508 44.3359 53.0424 45.1016C53.3341 45.862 53.4799 46.7865 53.4799 47.875V48.7031H43.9409V46.9531H51.1909C51.1909 46.3385 51.0659 45.7943 50.8159 45.3203C50.5659 44.8411 50.2143 44.4635 49.7612 44.1875C49.3133 43.9115 48.7872 43.7734 48.183 43.7734C47.5268 43.7734 46.9539 43.9349 46.4643 44.2578C45.9799 44.5755 45.6049 44.9922 45.3393 45.5078C45.0789 46.0182 44.9487 46.5729 44.9487 47.1719V48.5391C44.9487 49.3411 45.0893 50.0234 45.3705 50.5859C45.657 51.1484 46.0554 51.5781 46.5659 51.875C47.0763 52.1667 47.6726 52.3125 48.3549 52.3125C48.7976 52.3125 49.2013 52.25 49.5659 52.125C49.9304 51.9948 50.2455 51.8021 50.5112 51.5469C50.7768 51.2917 50.9799 50.9766 51.1205 50.6016L53.3315 51C53.1544 51.651 52.8367 52.2214 52.3784 52.7109C51.9252 53.1953 51.3549 53.5729 50.6674 53.8437C49.9851 54.1094 49.2065 54.2422 48.3315 54.2422ZM64.6239 44.9297L62.5067 45.3047C62.4182 45.0339 62.2776 44.776 62.0848 44.5312C61.8973 44.2865 61.6421 44.0859 61.3192 43.9297C60.9963 43.7734 60.5927 43.6953 60.1083 43.6953C59.4468 43.6953 58.8947 43.8437 58.452 44.1406C58.0093 44.4323 57.788 44.8099 57.788 45.2734C57.788 45.6745 57.9364 45.9974 58.2333 46.2422C58.5302 46.487 59.0093 46.6875 59.6708 46.8437L61.577 47.2812C62.6812 47.5365 63.5041 47.9297 64.0458 48.4609C64.5874 48.9922 64.8583 49.6823 64.8583 50.5313C64.8583 51.25 64.6499 51.8906 64.2333 52.4531C63.8218 53.0104 63.2463 53.4479 62.5067 53.7656C61.7723 54.0833 60.9208 54.2422 59.952 54.2422C58.6083 54.2422 57.5119 53.9557 56.663 53.3828C55.814 52.8047 55.2932 51.9844 55.1005 50.9219L57.3583 50.5781C57.4989 51.1667 57.788 51.612 58.2255 51.9141C58.663 52.2109 59.2333 52.3594 59.9364 52.3594C60.702 52.3594 61.314 52.2005 61.7723 51.8828C62.2307 51.5599 62.4598 51.1667 62.4598 50.7031C62.4598 50.3281 62.3192 50.013 62.038 49.7578C61.7619 49.5026 61.3374 49.3099 60.7645 49.1797L58.7333 48.7344C57.6135 48.4792 56.7854 48.0729 56.2489 47.5156C55.7177 46.9583 55.452 46.2526 55.452 45.3984C55.452 44.6901 55.6499 44.0703 56.0458 43.5391C56.4416 43.0078 56.9885 42.5937 57.6864 42.2969C58.3843 41.9948 59.1838 41.8438 60.0848 41.8438C61.3817 41.8438 62.4026 42.125 63.1473 42.6875C63.8921 43.2448 64.3843 43.9922 64.6239 44.9297ZM72.1585 54.2422C70.9762 54.2422 69.958 53.9896 69.1038 53.4844C68.2549 52.974 67.5986 52.2578 67.1351 51.3359C66.6767 50.4089 66.4476 49.3229 66.4476 48.0781C66.4476 46.849 66.6767 45.7656 67.1351 44.8281C67.5986 43.8906 68.2445 43.1589 69.0726 42.6328C69.9059 42.1068 70.8799 41.8438 71.9945 41.8438C72.6715 41.8438 73.3278 41.9557 73.9632 42.1797C74.5986 42.4036 75.1689 42.7552 75.6741 43.2344C76.1793 43.7135 76.5778 44.3359 76.8695 45.1016C77.1611 45.862 77.307 46.7865 77.307 47.875V48.7031H67.7679V46.9531H75.0179C75.0179 46.3385 74.8929 45.7943 74.6429 45.3203C74.3929 44.8411 74.0413 44.4635 73.5882 44.1875C73.1403 43.9115 72.6142 43.7734 72.0101 43.7734C71.3538 43.7734 70.7809 43.9349 70.2913 44.2578C69.807 44.5755 69.432 44.9922 69.1663 45.5078C68.9059 46.0182 68.7757 46.5729 68.7757 47.1719V48.5391C68.7757 49.3411 68.9163 50.0234 69.1976 50.5859C69.484 51.1484 69.8825 51.5781 70.3929 51.875C70.9033 52.1667 71.4997 52.3125 72.182 52.3125C72.6247 52.3125 73.0283 52.25 73.3929 52.125C73.7575 51.9948 74.0726 51.8021 74.3382 51.5469C74.6038 51.2917 74.807 50.9766 74.9476 50.6016L77.1585 51C76.9814 51.651 76.6637 52.2214 76.2054 52.7109C75.7523 53.1953 75.182 53.5729 74.4945 53.8437C73.8122 54.1094 73.0335 54.2422 72.1585 54.2422ZM82.9509 54.2656C82.1905 54.2656 81.503 54.125 80.8884 53.8437C80.2739 53.5573 79.7869 53.1432 79.4275 52.6016C79.0733 52.0599 78.8963 51.3958 78.8963 50.6094C78.8963 49.9323 79.0265 49.375 79.2869 48.9375C79.5473 48.5 79.8989 48.1536 80.3416 47.8984C80.7843 47.6432 81.2791 47.4505 81.8259 47.3203C82.3728 47.1901 82.9301 47.0911 83.4978 47.0234C84.2166 46.9401 84.7999 46.8724 85.2478 46.8203C85.6957 46.763 86.0213 46.6719 86.2244 46.5469C86.4275 46.4219 86.5291 46.2187 86.5291 45.9375V45.8828C86.5291 45.2005 86.3364 44.6719 85.9509 44.2969C85.5707 43.9219 85.003 43.7344 84.2478 43.7344C83.4614 43.7344 82.8416 43.9089 82.3884 44.2578C81.9405 44.6016 81.6306 44.9844 81.4588 45.4062L79.2634 44.9062C79.5239 44.1771 79.9041 43.5885 80.4041 43.1406C80.9093 42.6875 81.49 42.3594 82.1463 42.1562C82.8025 41.9479 83.4926 41.8438 84.2166 41.8438C84.6957 41.8438 85.2035 41.901 85.74 42.0156C86.2817 42.125 86.7869 42.3281 87.2556 42.625C87.7296 42.9219 88.1176 43.3464 88.4197 43.8984C88.7218 44.4453 88.8728 45.1563 88.8728 46.0313V54H86.5916V52.3594H86.4978C86.3468 52.6615 86.1202 52.9583 85.8181 53.25C85.516 53.5417 85.128 53.7839 84.6541 53.9766C84.1801 54.1693 83.6124 54.2656 82.9509 54.2656ZM83.4588 52.3906C84.1046 52.3906 84.6567 52.263 85.115 52.0078C85.5785 51.7526 85.9301 51.4193 86.1697 51.0078C86.4145 50.5911 86.5369 50.1458 86.5369 49.6719V48.125C86.4535 48.2083 86.2921 48.2865 86.0525 48.3594C85.8181 48.4271 85.5499 48.487 85.2478 48.5391C84.9457 48.5859 84.6515 48.6302 84.365 48.6719C84.0785 48.7083 83.839 48.7396 83.6463 48.7656C83.1931 48.8229 82.7791 48.9193 82.4041 49.0547C82.0343 49.1901 81.7374 49.3854 81.5134 49.6406C81.2947 49.8906 81.1853 50.224 81.1853 50.6406C81.1853 51.2187 81.3989 51.6562 81.8259 51.9531C82.253 52.2448 82.7973 52.3906 83.4588 52.3906ZM91.5441 54V42H93.802V43.9062H93.927C94.1457 43.2604 94.5311 42.7526 95.0832 42.3828C95.6405 42.0078 96.2707 41.8203 96.9738 41.8203C97.1197 41.8203 97.2915 41.8255 97.4895 41.8359C97.6926 41.8464 97.8514 41.8594 97.966 41.875V44.1094C97.8723 44.0833 97.7056 44.0547 97.466 44.0234C97.2264 43.987 96.9868 43.9687 96.7473 43.9687C96.1952 43.9687 95.703 44.0859 95.2707 44.3203C94.8436 44.5495 94.5051 44.8698 94.2551 45.2812C94.0051 45.6875 93.8801 46.151 93.8801 46.6719V54H91.5441ZM104.173 54.2422C103.011 54.2422 102.011 53.9792 101.173 53.4531C100.339 52.9219 99.6985 52.1901 99.2506 51.2578C98.8027 50.3255 98.5788 49.2578 98.5788 48.0547C98.5788 46.8359 98.8079 45.7604 99.2663 44.8281C99.7246 43.8906 100.37 43.1589 101.204 42.6328C102.037 42.1068 103.019 41.8438 104.149 41.8438C105.061 41.8438 105.873 42.013 106.587 42.3516C107.3 42.6849 107.876 43.1536 108.313 43.7578C108.756 44.362 109.019 45.0677 109.102 45.875H106.829C106.704 45.3125 106.417 44.8281 105.969 44.4219C105.527 44.0156 104.933 43.8125 104.188 43.8125C103.537 43.8125 102.967 43.9844 102.477 44.3281C101.993 44.6667 101.615 45.151 101.344 45.7812C101.074 46.4062 100.938 47.1458 100.938 48C100.938 48.875 101.071 49.6302 101.337 50.2656C101.602 50.901 101.977 51.3932 102.462 51.7422C102.951 52.0911 103.527 52.2656 104.188 52.2656C104.631 52.2656 105.032 52.1849 105.391 52.0234C105.756 51.8568 106.061 51.6198 106.305 51.3125C106.555 51.0052 106.73 50.6354 106.829 50.2031H109.102C109.019 50.9792 108.766 51.6719 108.344 52.2812C107.923 52.8906 107.357 53.3698 106.649 53.7187C105.946 54.0677 105.12 54.2422 104.173 54.2422ZM113.496 46.875V54H111.16V38H113.465V43.9531H113.613C113.895 43.3073 114.324 42.7943 114.902 42.4141C115.481 42.0339 116.236 41.8438 117.168 41.8438C117.991 41.8438 118.71 42.013 119.324 42.3516C119.944 42.6901 120.423 43.1953 120.762 43.8672C121.106 44.5339 121.277 45.3672 121.277 46.3672V54H118.941V46.6484C118.941 45.7682 118.715 45.0859 118.262 44.6016C117.809 44.112 117.178 43.8672 116.371 43.8672C115.819 43.8672 115.324 43.9844 114.887 44.2187C114.455 44.4531 114.113 44.7969 113.863 45.25C113.619 45.6979 113.496 46.2396 113.496 46.875ZM31.1094 81H28.5469L34.3047 65H37.0938L42.8516 81H40.2891L35.7656 67.9062H35.6406L31.1094 81ZM31.5391 74.7344H39.8516V76.7656H31.5391V74.7344ZM48.8334 81.2344C47.8647 81.2344 47.0001 80.987 46.2397 80.4922C45.4845 79.9922 44.8907 79.2812 44.4584 78.3594C44.0314 77.4323 43.8178 76.3203 43.8178 75.0234C43.8178 73.7266 44.034 72.6172 44.4663 71.6953C44.9038 70.7734 45.5027 70.0677 46.2631 69.5781C47.0235 69.0885 47.8855 68.8438 48.8491 68.8438C49.5939 68.8438 50.1928 68.9688 50.6459 69.2187C51.1043 69.4635 51.4584 69.75 51.7084 70.0781C51.9636 70.4062 52.1616 70.6953 52.3022 70.9453H52.4428V65H54.7788V81H52.4975V79.1328H52.3022C52.1616 79.388 51.9584 79.6797 51.6928 80.0078C51.4324 80.3359 51.073 80.6224 50.6147 80.8672C50.1564 81.112 49.5626 81.2344 48.8334 81.2344ZM49.3491 79.2422C50.0209 79.2422 50.5886 79.0651 51.0522 78.7109C51.5209 78.3516 51.8751 77.8542 52.1147 77.2188C52.3595 76.5833 52.4819 75.8437 52.4819 75C52.4819 74.1667 52.3621 73.4375 52.1225 72.8125C51.8829 72.1875 51.5314 71.7005 51.0678 71.3516C50.6043 71.0026 50.0314 70.8281 49.3491 70.8281C48.6459 70.8281 48.06 71.0104 47.5913 71.375C47.1225 71.7396 46.7683 72.237 46.5288 72.8672C46.2944 73.4974 46.1772 74.2083 46.1772 75C46.1772 75.8021 46.297 76.5234 46.5366 77.1641C46.7761 77.8047 47.1303 78.3125 47.5991 78.6875C48.073 79.0573 48.6564 79.2422 49.3491 79.2422ZM67.9384 69L63.5868 81H61.0868L56.7274 69H59.2352L62.2743 78.2344H62.3993L65.4305 69H67.9384ZM69.6937 81V69H72.0296V81H69.6937ZM70.8734 67.1484C70.4671 67.1484 70.1182 67.013 69.8265 66.7422C69.54 66.4661 69.3968 66.138 69.3968 65.7578C69.3968 65.3724 69.54 65.0443 69.8265 64.7734C70.1182 64.4974 70.4671 64.3594 70.8734 64.3594C71.2796 64.3594 71.626 64.4974 71.9124 64.7734C72.2041 65.0443 72.3499 65.3724 72.3499 65.7578C72.3499 66.138 72.2041 66.4661 71.9124 66.7422C71.626 67.013 71.2796 67.1484 70.8734 67.1484ZM83.7244 71.9297L81.6072 72.3047C81.5186 72.0339 81.378 71.776 81.1853 71.5312C80.9978 71.2865 80.7426 71.0859 80.4197 70.9297C80.0968 70.7734 79.6931 70.6953 79.2088 70.6953C78.5473 70.6953 77.9952 70.8437 77.5525 71.1406C77.1098 71.4323 76.8884 71.8099 76.8884 72.2734C76.8884 72.6745 77.0369 72.9974 77.3338 73.2422C77.6306 73.487 78.1098 73.6875 78.7713 73.8437L80.6775 74.2812C81.7817 74.5365 82.6046 74.9297 83.1463 75.4609C83.6879 75.9922 83.9588 76.6823 83.9588 77.5313C83.9588 78.25 83.7504 78.8906 83.3338 79.4531C82.9223 80.0104 82.3468 80.4479 81.6072 80.7656C80.8728 81.0833 80.0213 81.2422 79.0525 81.2422C77.7088 81.2422 76.6124 80.9557 75.7634 80.3828C74.9145 79.8047 74.3936 78.9844 74.2009 77.9219L76.4588 77.5781C76.5994 78.1667 76.8884 78.612 77.3259 78.9141C77.7634 79.2109 78.3338 79.3594 79.0369 79.3594C79.8025 79.3594 80.4145 79.2005 80.8728 78.8828C81.3311 78.5599 81.5603 78.1667 81.5603 77.7031C81.5603 77.3281 81.4197 77.013 81.1384 76.7578C80.8624 76.5026 80.4379 76.3099 79.865 76.1797L77.8338 75.7344C76.714 75.4792 75.8858 75.0729 75.3494 74.5156C74.8181 73.9583 74.5525 73.2526 74.5525 72.3984C74.5525 71.6901 74.7504 71.0703 75.1463 70.5391C75.5421 70.0078 76.089 69.5937 76.7869 69.2969C77.4848 68.9948 78.2843 68.8438 79.1853 68.8438C80.4822 68.8438 81.503 69.125 82.2478 69.6875C82.9926 70.2448 83.4848 70.9922 83.7244 71.9297ZM91.1418 81.2422C90.0168 81.2422 89.035 80.9844 88.1965 80.4687C87.3579 79.9531 86.7069 79.2318 86.2434 78.3047C85.7798 77.3776 85.548 76.2943 85.548 75.0547C85.548 73.8099 85.7798 72.7214 86.2434 71.7891C86.7069 70.8568 87.3579 70.1328 88.1965 69.6172C89.035 69.1016 90.0168 68.8438 91.1418 68.8438C92.2668 68.8438 93.2486 69.1016 94.0871 69.6172C94.9257 70.1328 95.5767 70.8568 96.0402 71.7891C96.5038 72.7214 96.7355 73.8099 96.7355 75.0547C96.7355 76.2943 96.5038 77.3776 96.0402 78.3047C95.5767 79.2318 94.9257 79.9531 94.0871 80.4687C93.2486 80.9844 92.2668 81.2422 91.1418 81.2422ZM91.1496 79.2812C91.8788 79.2812 92.4829 79.0885 92.9621 78.7031C93.4413 78.3177 93.7954 77.8047 94.0246 77.1641C94.259 76.5234 94.3762 75.8177 94.3762 75.0469C94.3762 74.2812 94.259 73.5781 94.0246 72.9375C93.7954 72.2917 93.4413 71.7734 92.9621 71.3828C92.4829 70.9922 91.8788 70.7969 91.1496 70.7969C90.4152 70.7969 89.8059 70.9922 89.3215 71.3828C88.8423 71.7734 88.4855 72.2917 88.2512 72.9375C88.022 73.5781 87.9074 74.2812 87.9074 75.0469C87.9074 75.8177 88.022 76.5234 88.2512 77.1641C88.4855 77.8047 88.8423 78.3177 89.3215 78.7031C89.8059 79.0885 90.4152 79.2812 91.1496 79.2812ZM98.903 81V69H101.161V70.9062H101.286C101.505 70.2604 101.89 69.7526 102.442 69.3828C102.999 69.0078 103.63 68.8203 104.333 68.8203C104.478 68.8203 104.65 68.8255 104.848 68.8359C105.051 68.8464 105.21 68.8594 105.325 68.875V71.1094C105.231 71.0833 105.064 71.0547 104.825 71.0234C104.585 70.987 104.346 70.9687 104.106 70.9687C103.554 70.9687 103.062 71.0859 102.63 71.3203C102.202 71.5495 101.864 71.8698 101.614 72.2812C101.364 72.6875 101.239 73.151 101.239 73.6719V81H98.903ZM115.899 71.9297L113.781 72.3047C113.693 72.0339 113.552 71.776 113.359 71.5312C113.172 71.2865 112.917 71.0859 112.594 70.9297C112.271 70.7734 111.867 70.6953 111.383 70.6953C110.721 70.6953 110.169 70.8437 109.727 71.1406C109.284 71.4323 109.063 71.8099 109.063 72.2734C109.063 72.6745 109.211 72.9974 109.508 73.2422C109.805 73.487 110.284 73.6875 110.945 73.8437L112.852 74.2812C113.956 74.5365 114.779 74.9297 115.32 75.4609C115.862 75.9922 116.133 76.6823 116.133 77.5313C116.133 78.25 115.925 78.8906 115.508 79.4531C115.096 80.0104 114.521 80.4479 113.781 80.7656C113.047 81.0833 112.195 81.2422 111.227 81.2422C109.883 81.2422 108.787 80.9557 107.938 80.3828C107.089 79.8047 106.568 78.9844 106.375 77.9219L108.633 77.5781C108.774 78.1667 109.063 78.612 109.5 78.9141C109.938 79.2109 110.508 79.3594 111.211 79.3594C111.977 79.3594 112.589 79.2005 113.047 78.8828C113.505 78.5599 113.734 78.1667 113.734 77.7031C113.734 77.3281 113.594 77.013 113.313 76.7578C113.037 76.5026 112.612 76.3099 112.039 76.1797L110.008 75.7344C108.888 75.4792 108.06 75.0729 107.524 74.5156C106.992 73.9583 106.727 73.2526 106.727 72.3984C106.727 71.6901 106.925 71.0703 107.32 70.5391C107.716 70.0078 108.263 69.5937 108.961 69.2969C109.659 68.9948 110.458 68.8438 111.359 68.8438C112.656 68.8438 113.677 69.125 114.422 69.6875C115.167 70.2448 115.659 70.9922 115.899 71.9297Z" fill="white"/>
<path opacity="0.3" d="M173.019 165.135C169.149 165.135 165.366 163.988 162.148 161.837C158.93 159.687 156.422 156.631 154.941 153.056C153.46 149.48 153.073 145.546 153.828 141.75C154.583 137.954 156.446 134.468 159.183 131.731C161.919 128.995 165.406 127.131 169.202 126.376C172.998 125.621 176.932 126.008 180.507 127.489C184.083 128.971 187.139 131.479 189.289 134.696C191.439 137.914 192.587 141.697 192.587 145.568C192.581 150.755 190.517 155.729 186.849 159.397C183.181 163.066 178.207 165.129 173.019 165.135ZM173.019 127.35C169.416 127.35 165.894 128.418 162.898 130.42C159.902 132.422 157.567 135.267 156.188 138.596C154.809 141.925 154.448 145.588 155.151 149.122C155.854 152.656 157.589 155.902 160.137 158.45C162.685 160.998 165.931 162.733 169.465 163.436C172.999 164.139 176.662 163.778 179.991 162.399C183.32 161.02 186.165 158.685 188.167 155.689C190.169 152.693 191.237 149.171 191.237 145.568C191.232 140.738 189.311 136.107 185.895 132.691C182.48 129.276 177.849 127.355 173.019 127.35Z" fill="white"/>
<path d="M163.338 151.683C163.076 151.683 162.82 151.611 162.603 151.476C162.385 151.342 162.215 151.15 162.115 150.926C162.014 150.702 161.988 150.456 162.039 150.218C162.089 149.98 162.215 149.762 162.4 149.59L169.134 143.34C169.239 143.242 169.363 143.164 169.501 143.111C169.638 143.059 169.786 143.032 169.934 143.032H169.935C170.084 143.032 170.231 143.058 170.368 143.111C170.506 143.164 170.631 143.241 170.735 143.339L173.858 146.229C173.921 146.288 173.996 146.334 174.078 146.366C174.161 146.398 174.249 146.414 174.339 146.414C174.428 146.414 174.516 146.398 174.599 146.366C174.681 146.334 174.756 146.288 174.819 146.229L179.228 142.141C179.249 142.122 179.266 142.099 179.277 142.073C179.289 142.048 179.294 142.02 179.294 141.993C179.294 141.965 179.288 141.938 179.277 141.913C179.266 141.887 179.249 141.864 179.228 141.845L177.801 140.527C177.706 140.439 177.641 140.327 177.615 140.205C177.589 140.083 177.602 139.956 177.653 139.841C177.705 139.726 177.792 139.628 177.904 139.559C178.015 139.49 178.147 139.453 178.281 139.453H183.348C183.528 139.453 183.701 139.52 183.828 139.637C183.955 139.755 184.027 139.915 184.027 140.082V144.769C184.027 144.893 183.987 145.015 183.913 145.118C183.838 145.222 183.732 145.302 183.608 145.35C183.484 145.397 183.347 145.41 183.215 145.386C183.084 145.361 182.963 145.301 182.868 145.214L181.439 143.891C181.418 143.871 181.393 143.856 181.366 143.845C181.338 143.835 181.309 143.83 181.279 143.83C181.249 143.83 181.22 143.835 181.192 143.845C181.165 143.856 181.14 143.871 181.119 143.891L175.148 149.414C175.044 149.511 174.919 149.589 174.781 149.641C174.644 149.694 174.497 149.721 174.348 149.72C174.2 149.721 174.052 149.694 173.915 149.641C173.778 149.589 173.653 149.511 173.548 149.414L170.423 146.521C170.294 146.407 170.122 146.343 169.943 146.343C169.764 146.343 169.593 146.407 169.463 146.521L164.275 151.323C164.153 151.438 164.007 151.528 163.846 151.59C163.685 151.652 163.512 151.683 163.338 151.683Z" fill="#00CC8F"/>
<path opacity="0.3" d="M176.801 268.234C175.563 267.986 174.303 267.863 173.039 267.865C168.014 267.86 163.178 269.789 159.536 273.252C155.894 276.715 153.724 281.447 153.476 286.466C153.227 291.486 154.92 296.409 158.203 300.214C161.486 304.02 166.107 306.416 171.109 306.907C176.111 307.397 181.11 305.945 185.069 302.85C189.029 299.755 191.646 295.255 192.378 290.282C193.11 285.31 191.901 280.247 189.001 276.142C186.101 272.037 181.733 269.206 176.801 268.234ZM178.124 304.889C175.621 305.617 172.99 305.799 170.411 305.422C167.831 305.046 165.362 304.119 163.172 302.706C160.981 301.292 159.12 299.424 157.714 297.229C156.308 295.034 155.39 292.562 155.022 289.981C154.655 287.4 154.846 284.77 155.582 282.27C156.319 279.769 157.584 277.456 159.293 275.487C161.001 273.517 163.113 271.938 165.484 270.856C167.856 269.774 170.432 269.213 173.039 269.213C173.578 269.213 174.111 269.239 174.639 269.28C178.867 269.653 182.831 271.493 185.847 274.48C188.862 277.467 190.739 281.414 191.152 285.639C191.566 289.863 190.49 294.099 188.111 297.614C185.732 301.129 182.199 303.703 178.124 304.889Z" fill="white"/>
<path d="M182.661 283.395C182.1 281.08 180.587 279.069 178.454 277.804C176.32 276.539 173.741 276.123 171.282 276.647C171.042 276.699 170.793 276.762 170.574 276.826L172.842 286.209L182.804 284.078C182.762 283.859 182.716 283.621 182.661 283.395Z" fill="#00CC8F"/>
<path d="M181.491 286.467L171.88 288.699L169.698 278.872C168.022 279.402 166.53 280.413 165.399 281.784C164.268 283.156 163.544 284.83 163.315 286.609C163.086 288.387 163.36 290.196 164.105 291.82C164.851 293.445 166.036 294.816 167.52 295.773C169.004 296.729 170.725 297.23 172.479 297.216C174.233 297.203 175.947 296.675 177.416 295.695C178.886 294.716 180.05 293.326 180.771 291.69C181.492 290.054 181.739 288.242 181.483 286.467H181.491Z" fill="#00CC8F"/>
<path opacity="0.3" d="M175.465 237.291C171.595 237.291 167.812 236.143 164.594 233.993C161.376 231.843 158.868 228.787 157.387 225.211C155.906 221.636 155.519 217.701 156.274 213.906C157.029 210.11 158.892 206.623 161.629 203.887C164.365 201.15 167.852 199.286 171.648 198.531C175.443 197.776 179.378 198.164 182.953 199.645C186.529 201.126 189.585 203.634 191.735 206.852C193.885 210.07 195.033 213.853 195.033 217.723C195.027 222.911 192.963 227.885 189.295 231.553C185.627 235.221 180.653 237.285 175.465 237.291ZM175.465 199.505C171.862 199.505 168.34 200.573 165.344 202.575C162.348 204.577 160.013 207.422 158.634 210.751C157.255 214.08 156.894 217.743 157.597 221.277C158.3 224.811 160.035 228.057 162.583 230.605C165.131 233.153 168.377 234.888 171.911 235.591C175.445 236.294 179.108 235.933 182.437 234.554C185.766 233.175 188.611 230.84 190.613 227.844C192.615 224.848 193.683 221.326 193.683 217.723C193.678 212.893 191.757 208.262 188.341 204.847C184.926 201.432 180.295 199.51 175.465 199.505Z" fill="white"/>
<rect opacity="0.3" x="232.946" y="277.649" width="36.6892" height="2.44595" rx="1.22297" fill="white"/>
<path d="M181.318 226.284C180.923 226.284 180.545 226.116 180.266 225.817C179.987 225.519 179.83 225.113 179.829 224.69V215.629C179.829 215.207 179.986 214.802 180.265 214.503C180.543 214.205 180.921 214.037 181.315 214.036H181.318C181.712 214.037 182.09 214.205 182.368 214.503C182.647 214.802 182.804 215.207 182.804 215.629V224.69C182.804 225.113 182.647 225.518 182.368 225.817C182.09 226.115 181.712 226.283 181.318 226.284ZM177.437 226.284C177.241 226.286 177.045 226.246 176.863 226.167C176.681 226.088 176.515 225.971 176.374 225.823C176.234 225.675 176.123 225.499 176.047 225.304C175.97 225.11 175.931 224.901 175.93 224.69V219.81C175.93 219.387 176.087 218.982 176.366 218.684C176.644 218.385 177.022 218.217 177.416 218.216H177.437C177.831 218.217 178.209 218.385 178.488 218.684C178.766 218.982 178.923 219.387 178.923 219.81V224.69C178.923 225.113 178.766 225.518 178.488 225.817C178.209 226.115 177.831 226.283 177.437 226.284ZM173.519 226.284C173.125 226.284 172.746 226.116 172.467 225.817C172.188 225.519 172.031 225.113 172.03 224.69V210.755C172.031 210.333 172.188 209.928 172.466 209.629C172.745 209.331 173.123 209.163 173.517 209.162H173.519C173.913 209.163 174.291 209.331 174.57 209.629C174.848 209.928 175.005 210.333 175.005 210.755V224.69C175.005 225.113 174.848 225.518 174.57 225.817C174.291 226.115 173.913 226.283 173.519 226.284ZM169.616 226.284C169.421 226.284 169.227 226.243 169.047 226.163C168.866 226.083 168.702 225.965 168.564 225.817C168.426 225.669 168.316 225.493 168.241 225.3C168.167 225.106 168.128 224.899 168.128 224.689L168.13 222.596C168.13 222.174 168.287 221.769 168.566 221.47C168.845 221.171 169.223 221.004 169.617 221.004C170.011 221.004 170.389 221.172 170.667 221.471C170.946 221.77 171.102 222.175 171.102 222.598V224.69C171.102 225.113 170.945 225.518 170.667 225.817C170.388 226.115 170.01 226.283 169.616 226.284Z" fill="#00CC8F"/>
<circle cx="176.078" cy="218.334" r="34.2432" stroke="white" stroke-width="3.66892"/>
<path d="M199.926 243.405L250.068 293.547" stroke="white" stroke-width="3.66892" stroke-linecap="round"/>
<rect opacity="0.3" x="232.946" y="135.784" width="36.6892" height="2.44595" rx="1.22297" fill="white"/>
<rect opacity="0.3" x="232.946" y="144.345" width="36.6892" height="2.44595" rx="1.22297" fill="white"/>
<rect opacity="0.3" x="232.946" y="152.906" width="17.8972" height="2.44595" rx="1.22297" fill="white"/>
<rect opacity="0.3" x="232.946" y="207.939" width="36.6892" height="2.44595" rx="1.22297" fill="white"/>
<rect opacity="0.3" x="232.946" y="216.5" width="36.6892" height="2.44595" rx="1.22297" fill="white"/>
<rect opacity="0.3" x="232.946" y="225.062" width="17.8972" height="2.44595" rx="1.22297" fill="white"/>
</g>
<rect x="0.5" y="0.5" width="317.667" height="284" rx="15.5" stroke="#1566D6" stroke-opacity="0.24"/>
<defs>
<clipPath id="clip0_1325_42847">
<rect width="318.667" height="285" rx="16" fill="white"/>
</clipPath>
</defs>
</svg>
