<svg width="320" height="196" viewBox="0 0 320 196" fill="none" xmlns="http://www.w3.org/2000/svg">
<g clip-path="url(#clip0_1325_42850)">
<rect x="0.666656" width="318.667" height="196" rx="16" fill="white"/>
<rect x="0.666656" width="318.667" height="196" rx="16" fill="#1566D6"/>
<path d="M29.6354 40.0781V38H42.0182V40.0781H37.026V54H34.6198V40.0781H29.6354ZM42.881 54V42H45.1388V43.9062H45.2638C45.4825 43.2604 45.8679 42.7526 46.42 42.3828C46.9773 42.0078 47.6075 41.8203 48.3106 41.8203C48.4565 41.8203 48.6283 41.8255 48.8263 41.8359C49.0294 41.8464 49.1882 41.8594 49.3028 41.875V44.1094C49.2091 44.0833 49.0424 44.0547 48.8028 44.0234C48.5632 43.987 48.3237 43.9687 48.0841 43.9687C47.532 43.9687 47.0398 44.0859 46.6075 44.3203C46.1804 44.5495 45.8419 44.8698 45.5919 45.2812C45.3419 45.6875 45.2169 46.151 45.2169 46.6719V54H42.881ZM55.6265 54.2422C54.4442 54.2422 53.426 53.9896 52.5718 53.4844C51.7229 52.974 51.0666 52.2578 50.6031 51.3359C50.1447 50.4089 49.9156 49.3229 49.9156 48.0781C49.9156 46.849 50.1447 45.7656 50.6031 44.8281C51.0666 43.8906 51.7124 43.1589 52.5406 42.6328C53.3739 42.1068 54.3479 41.8438 55.4624 41.8438C56.1395 41.8438 56.7958 41.9557 57.4312 42.1797C58.0666 42.4036 58.6369 42.7552 59.1421 43.2344C59.6473 43.7135 60.0458 44.3359 60.3374 45.1016C60.6291 45.862 60.7749 46.7865 60.7749 47.875V48.7031H51.2359V46.9531H58.4859C58.4859 46.3385 58.3609 45.7943 58.1109 45.3203C57.8609 44.8411 57.5093 44.4635 57.0562 44.1875C56.6083 43.9115 56.0822 43.7734 55.4781 43.7734C54.8218 43.7734 54.2489 43.9349 53.7593 44.2578C53.2749 44.5755 52.8999 44.9922 52.6343 45.5078C52.3739 46.0182 52.2437 46.5729 52.2437 47.1719V48.5391C52.2437 49.3411 52.3843 50.0234 52.6656 50.5859C52.952 51.1484 53.3505 51.5781 53.8609 51.875C54.3713 52.1667 54.9676 52.3125 55.6499 52.3125C56.0926 52.3125 56.4963 52.25 56.8609 52.125C57.2255 51.9948 57.5406 51.8021 57.8062 51.5469C58.0718 51.2917 58.2749 50.9766 58.4156 50.6016L60.6265 51C60.4494 51.651 60.1317 52.2214 59.6734 52.7109C59.2203 53.1953 58.6499 53.5729 57.9624 53.8437C57.2801 54.1094 56.5015 54.2422 55.6265 54.2422ZM66.4189 54.2656C65.6585 54.2656 64.971 54.125 64.3564 53.8437C63.7418 53.5573 63.2549 53.1432 62.8955 52.6016C62.5413 52.0599 62.3642 51.3958 62.3642 50.6094C62.3642 49.9323 62.4944 49.375 62.7549 48.9375C63.0153 48.5 63.3668 48.1536 63.8095 47.8984C64.2523 47.6432 64.747 47.4505 65.2939 47.3203C65.8408 47.1901 66.3981 47.0911 66.9658 47.0234C67.6845 46.9401 68.2679 46.8724 68.7158 46.8203C69.1637 46.763 69.4892 46.6719 69.6924 46.5469C69.8955 46.4219 69.997 46.2187 69.997 45.9375V45.8828C69.997 45.2005 69.8043 44.6719 69.4189 44.2969C69.0387 43.9219 68.471 43.7344 67.7158 43.7344C66.9293 43.7344 66.3095 43.9089 65.8564 44.2578C65.4085 44.6016 65.0986 44.9844 64.9267 45.4062L62.7314 44.9062C62.9918 44.1771 63.372 43.5885 63.872 43.1406C64.3773 42.6875 64.958 42.3594 65.6142 42.1562C66.2705 41.9479 66.9606 41.8438 67.6845 41.8438C68.1637 41.8438 68.6715 41.901 69.208 42.0156C69.7497 42.125 70.2549 42.3281 70.7236 42.625C71.1976 42.9219 71.5856 43.3464 71.8877 43.8984C72.1898 44.4453 72.3408 45.1563 72.3408 46.0313V54H70.0595V52.3594H69.9658C69.8148 52.6615 69.5882 52.9583 69.2861 53.25C68.984 53.5417 68.596 53.7839 68.122 53.9766C67.6481 54.1693 67.0804 54.2656 66.4189 54.2656ZM66.9267 52.3906C67.5726 52.3906 68.1247 52.263 68.583 52.0078C69.0465 51.7526 69.3981 51.4193 69.6377 51.0078C69.8825 50.5911 70.0049 50.1458 70.0049 49.6719V48.125C69.9215 48.2083 69.7601 48.2865 69.5205 48.3594C69.2861 48.4271 69.0179 48.487 68.7158 48.5391C68.4137 48.5859 68.1194 48.6302 67.833 48.6719C67.5465 48.7083 67.3069 48.7396 67.1142 48.7656C66.6611 48.8229 66.247 48.9193 65.872 49.0547C65.5023 49.1901 65.2054 49.3854 64.9814 49.6406C64.7627 49.8906 64.6533 50.224 64.6533 50.6406C64.6533 51.2187 64.8668 51.6562 65.2939 51.9531C65.721 52.2448 66.2653 52.3906 66.9267 52.3906ZM84.0043 44.9297L81.8871 45.3047C81.7986 45.0339 81.658 44.776 81.4653 44.5312C81.2778 44.2865 81.0225 44.0859 80.6996 43.9297C80.3767 43.7734 79.9731 43.6953 79.4887 43.6953C78.8272 43.6953 78.2751 43.8437 77.8324 44.1406C77.3897 44.4323 77.1684 44.8099 77.1684 45.2734C77.1684 45.6745 77.3168 45.9974 77.6137 46.2422C77.9106 46.487 78.3897 46.6875 79.0512 46.8437L80.9574 47.2812C82.0616 47.5365 82.8845 47.9297 83.4262 48.4609C83.9679 48.9922 84.2387 49.6823 84.2387 50.5313C84.2387 51.25 84.0304 51.8906 83.6137 52.4531C83.2022 53.0104 82.6267 53.4479 81.8871 53.7656C81.1528 54.0833 80.3012 54.2422 79.3324 54.2422C77.9887 54.2422 76.8923 53.9557 76.0434 53.3828C75.1944 52.8047 74.6736 51.9844 74.4809 50.9219L76.7387 50.5781C76.8793 51.1667 77.1684 51.612 77.6059 51.9141C78.0434 52.2109 78.6137 52.3594 79.3168 52.3594C80.0824 52.3594 80.6944 52.2005 81.1528 51.8828C81.6111 51.5599 81.8403 51.1667 81.8403 50.7031C81.8403 50.3281 81.6996 50.013 81.4184 49.7578C81.1423 49.5026 80.7179 49.3099 80.1449 49.1797L78.1137 48.7344C76.9939 48.4792 76.1658 48.0729 75.6293 47.5156C75.0981 46.9583 74.8324 46.2526 74.8324 45.3984C74.8324 44.6901 75.0304 44.0703 75.4262 43.5391C75.822 43.0078 76.3689 42.5937 77.0668 42.2969C77.7647 41.9948 78.5642 41.8438 79.4653 41.8438C80.7621 41.8438 81.783 42.125 82.5278 42.6875C83.2725 43.2448 83.7647 43.9922 84.0043 44.9297ZM93.9686 49.0234V42H96.3124V54H94.0155V51.9219H93.8905C93.6144 52.5625 93.1717 53.0964 92.5624 53.5234C91.9582 53.9453 91.2056 54.1563 90.3045 54.1563C89.5337 54.1563 88.8514 53.987 88.2577 53.6484C87.6691 53.3047 87.2056 52.7969 86.867 52.125C86.5337 51.4531 86.367 50.6224 86.367 49.6328V42H88.703V49.3516C88.703 50.1693 88.9295 50.8203 89.3827 51.3047C89.8358 51.7891 90.4243 52.0312 91.1483 52.0312C91.5858 52.0312 92.0207 51.9219 92.453 51.7031C92.8905 51.4844 93.2525 51.1536 93.5389 50.7109C93.8306 50.2682 93.9738 49.7057 93.9686 49.0234ZM99.011 54V42H101.269V43.9062H101.394C101.613 43.2604 101.998 42.7526 102.55 42.3828C103.107 42.0078 103.738 41.8203 104.441 41.8203C104.587 41.8203 104.758 41.8255 104.956 41.8359C105.159 41.8464 105.318 41.8594 105.433 41.875V44.1094C105.339 44.0833 105.172 44.0547 104.933 44.0234C104.693 43.987 104.454 43.9687 104.214 43.9687C103.662 43.9687 103.17 44.0859 102.738 44.3203C102.311 44.5495 101.972 44.8698 101.722 45.2812C101.472 45.6875 101.347 46.151 101.347 46.6719V54H99.011ZM108.856 58.5C108.507 58.5 108.19 58.4714 107.903 58.4141C107.617 58.362 107.403 58.3047 107.262 58.2422L107.825 56.3281C108.252 56.4427 108.632 56.4922 108.966 56.4766C109.299 56.4609 109.593 56.3359 109.848 56.1016C110.109 55.8672 110.338 55.4844 110.536 54.9531L110.825 54.1563L106.434 42H108.934L111.973 51.3125H112.098L115.137 42H117.645L112.7 55.6016C112.471 56.2266 112.179 56.7552 111.825 57.1875C111.471 57.625 111.049 57.9531 110.559 58.1719C110.07 58.3906 109.502 58.5 108.856 58.5ZM35.6042 81H30.4245V65H35.7682C37.3359 65 38.6823 65.3203 39.8073 65.9609C40.9323 66.5964 41.7943 67.5104 42.3932 68.7031C42.9974 69.8906 43.2995 71.3151 43.2995 72.9766C43.2995 74.6432 42.9948 76.0755 42.3854 77.2734C41.7812 78.4714 40.9062 79.3932 39.7604 80.0391C38.6146 80.6797 37.2292 81 35.6042 81ZM32.8385 78.8906H35.4713C36.6901 78.8906 37.7031 78.6615 38.5104 78.2031C39.3177 77.7396 39.9219 77.0703 40.3229 76.1953C40.7239 75.3151 40.9245 74.2422 40.9245 72.9766C40.9245 71.7214 40.7239 70.6562 40.3229 69.7812C39.9271 68.9062 39.3359 68.2422 38.5495 67.7891C37.763 67.3359 36.7864 67.1094 35.6198 67.1094H32.8385V78.8906ZM50.8458 81.2422C49.6635 81.2422 48.6453 80.9896 47.7911 80.4844C46.9422 79.974 46.2859 79.2578 45.8224 78.3359C45.364 77.4089 45.1349 76.3229 45.1349 75.0781C45.1349 73.849 45.364 72.7656 45.8224 71.8281C46.2859 70.8906 46.9317 70.1589 47.7599 69.6328C48.5932 69.1068 49.5672 68.8438 50.6817 68.8438C51.3588 68.8438 52.0151 68.9557 52.6505 69.1797C53.2859 69.4036 53.8562 69.7552 54.3614 70.2344C54.8666 70.7135 55.2651 71.3359 55.5567 72.1016C55.8484 72.862 55.9942 73.7865 55.9942 74.875V75.7031H46.4552V73.9531H53.7052C53.7052 73.3385 53.5802 72.7943 53.3302 72.3203C53.0802 71.8411 52.7286 71.4635 52.2755 71.1875C51.8276 70.9115 51.3015 70.7734 50.6974 70.7734C50.0411 70.7734 49.4682 70.9349 48.9786 71.2578C48.4942 71.5755 48.1192 71.9922 47.8536 72.5078C47.5932 73.0182 47.463 73.5729 47.463 74.1719V75.5391C47.463 76.3411 47.6036 77.0234 47.8849 77.5859C48.1713 78.1484 48.5698 78.5781 49.0802 78.875C49.5906 79.1667 50.1869 79.3125 50.8692 79.3125C51.3119 79.3125 51.7156 79.25 52.0802 79.125C52.4448 78.9948 52.7599 78.8021 53.0255 78.5469C53.2911 78.2917 53.4942 77.9766 53.6349 77.6016L55.8458 78C55.6687 78.651 55.351 79.2214 54.8927 79.7109C54.4395 80.1953 53.8692 80.5729 53.1817 80.8437C52.4994 81.1094 51.7208 81.2422 50.8458 81.2422ZM67.1382 71.9297L65.021 72.3047C64.9325 72.0339 64.7919 71.776 64.5992 71.5312C64.4117 71.2865 64.1564 71.0859 63.8335 70.9297C63.5106 70.7734 63.107 70.6953 62.6226 70.6953C61.9611 70.6953 61.4091 70.8437 60.9663 71.1406C60.5236 71.4323 60.3023 71.8099 60.3023 72.2734C60.3023 72.6745 60.4507 72.9974 60.7476 73.2422C61.0445 73.487 61.5236 73.6875 62.1851 73.8437L64.0913 74.2812C65.1955 74.5365 66.0184 74.9297 66.5601 75.4609C67.1018 75.9922 67.3726 76.6823 67.3726 77.5313C67.3726 78.25 67.1643 78.8906 66.7476 79.4531C66.3361 80.0104 65.7606 80.4479 65.021 80.7656C64.2867 81.0833 63.4351 81.2422 62.4663 81.2422C61.1226 81.2422 60.0262 80.9557 59.1773 80.3828C58.3283 79.8047 57.8075 78.9844 57.6148 77.9219L59.8726 77.5781C60.0132 78.1667 60.3023 78.612 60.7398 78.9141C61.1773 79.2109 61.7476 79.3594 62.4507 79.3594C63.2163 79.3594 63.8283 79.2005 64.2867 78.8828C64.745 78.5599 64.9742 78.1667 64.9742 77.7031C64.9742 77.3281 64.8335 77.013 64.5523 76.7578C64.2762 76.5026 63.8518 76.3099 63.2788 76.1797L61.2476 75.7344C60.1278 75.4792 59.2997 75.0729 58.7632 74.5156C58.232 73.9583 57.9663 73.2526 57.9663 72.3984C57.9663 71.6901 58.1643 71.0703 58.5601 70.5391C58.9559 70.0078 59.5028 69.5937 60.2007 69.2969C60.8986 68.9948 61.6981 68.8438 62.5992 68.8438C63.896 68.8438 64.9169 69.125 65.6617 69.6875C66.4064 70.2448 66.8986 70.9922 67.1382 71.9297ZM71.6494 76.9297L71.6338 74.0781H72.04L76.8213 69H79.6181L74.165 74.7812H73.7978L71.6494 76.9297ZM69.501 81V65H71.8369V81H69.501ZM77.0791 81L72.7822 75.2969L74.3916 73.6641L79.9463 81H77.0791ZM90.2992 71.9297L88.182 72.3047C88.0935 72.0339 87.9529 71.776 87.7602 71.5312C87.5727 71.2865 87.3175 71.0859 86.9945 70.9297C86.6716 70.7734 86.268 70.6953 85.7836 70.6953C85.1222 70.6953 84.5701 70.8437 84.1274 71.1406C83.6847 71.4323 83.4633 71.8099 83.4633 72.2734C83.4633 72.6745 83.6117 72.9974 83.9086 73.2422C84.2055 73.487 84.6847 73.6875 85.3461 73.8437L87.2524 74.2812C88.3565 74.5365 89.1794 74.9297 89.7211 75.4609C90.2628 75.9922 90.5336 76.6823 90.5336 77.5313C90.5336 78.25 90.3253 78.8906 89.9086 79.4531C89.4972 80.0104 88.9216 80.4479 88.182 80.7656C87.4477 81.0833 86.5961 81.2422 85.6274 81.2422C84.2836 81.2422 83.1873 80.9557 82.3383 80.3828C81.4893 79.8047 80.9685 78.9844 80.7758 77.9219L83.0336 77.5781C83.1742 78.1667 83.4633 78.612 83.9008 78.9141C84.3383 79.2109 84.9086 79.3594 85.6117 79.3594C86.3774 79.3594 86.9893 79.2005 87.4477 78.8828C87.906 78.5599 88.1352 78.1667 88.1352 77.7031C88.1352 77.3281 87.9945 77.013 87.7133 76.7578C87.4373 76.5026 87.0128 76.3099 86.4399 76.1797L84.4086 75.7344C83.2888 75.4792 82.4607 75.0729 81.9242 74.5156C81.393 73.9583 81.1274 73.2526 81.1274 72.3984C81.1274 71.6901 81.3253 71.0703 81.7211 70.5391C82.1169 70.0078 82.6638 69.5937 83.3617 69.2969C84.0597 68.9948 84.8591 68.8438 85.7602 68.8438C87.057 68.8438 88.0779 69.125 88.8227 69.6875C89.5675 70.2448 90.0597 70.9922 90.2992 71.9297Z" fill="white"/>
<path d="M148.667 179L148.667 209" stroke="white" stroke-linecap="round"/>
<path d="M169.561 128.298V150.138C169.361 150.072 169.165 150.01 168.966 149.947C167.209 149.385 165.445 148.856 163.676 148.359C161.978 147.878 160.274 147.425 158.564 147C157.957 146.852 157.353 146.706 156.747 146.563C156.723 146.456 156.699 146.349 156.678 146.242C156.568 145.73 156.482 145.213 156.417 144.693C156.387 144.493 156.366 144.294 156.345 144.092C156.032 140.906 156.468 137.691 157.619 134.703C158.769 131.716 160.602 129.039 162.971 126.885C163.057 126.802 163.146 126.722 163.236 126.645C165.157 127.103 167.067 127.598 168.966 128.131C169.165 128.182 169.365 128.239 169.561 128.298Z" fill="#00CC8F"/>
<path d="M169.561 133.413V143.771C169.369 143.886 169.171 143.987 168.966 144.074C167.898 144.551 166.715 144.705 165.561 144.518C164.407 144.331 163.333 143.811 162.471 143.022C162.388 142.947 162.304 142.867 162.224 142.784C162.144 142.703 162.067 142.617 161.992 142.531C161.095 141.5 160.576 140.193 160.522 138.827C160.467 137.461 160.881 136.117 161.694 135.018C162.507 133.919 163.671 133.131 164.994 132.783C166.316 132.436 167.717 132.55 168.966 133.107C169.169 133.198 169.368 133.3 169.561 133.413Z" fill="white"/>
<path d="M169.561 141.088V162.503C169.365 162.547 169.165 162.592 168.966 162.64C167.104 163.092 165.251 163.573 163.405 164.085C163.331 164.002 163.259 163.918 163.191 163.835C161.264 161.579 159.848 158.933 159.041 156.079C158.233 153.224 158.053 150.228 158.513 147.298C158.528 147.2 158.546 147.098 158.564 147C158.579 146.905 158.596 146.807 158.614 146.712C158.798 145.738 159.052 144.779 159.375 143.842C159.414 143.729 159.453 143.616 159.494 143.503C160.401 143.253 161.311 143.013 162.224 142.783C164.458 142.207 166.705 141.682 168.966 141.21C169.162 141.166 169.361 141.127 169.561 141.088Z" fill="#00CC8F"/>
<path d="M169.561 146.557V158.217C169.365 158.267 169.166 158.307 168.966 158.336C167.772 158.504 166.555 158.308 165.474 157.775C164.393 157.241 163.497 156.395 162.903 155.346C162.309 154.297 162.044 153.094 162.144 151.892C162.243 150.69 162.701 149.547 163.459 148.609C163.527 148.523 163.598 148.439 163.676 148.359C163.747 148.276 163.824 148.196 163.905 148.118C164.562 147.468 165.361 146.978 166.239 146.687C167.117 146.396 168.05 146.312 168.966 146.441C169.166 146.468 169.365 146.507 169.561 146.557Z" fill="white"/>
<rect x="155.362" y="101.468" width="134.836" height="102.064" rx="4.21364" fill="#1566D6" stroke="white" stroke-width="0.936364"/>
<path d="M198.681 165.964C207.057 165.964 213.847 159.174 213.847 150.798C213.847 142.422 207.057 135.632 198.681 135.632C190.305 135.632 183.514 142.422 183.514 150.798C183.514 159.174 190.305 165.964 198.681 165.964Z" fill="#00CC8F"/>
<path d="M194.513 136.672L194.513 136.672L194.513 164.923C194.514 166.028 194.954 167.088 195.735 167.869C196.516 168.651 197.576 169.09 198.681 169.092C199.786 169.09 200.845 168.651 201.627 167.869C202.408 167.088 202.848 166.028 202.849 164.923C202.849 164.923 202.849 164.923 202.849 164.923M194.513 136.672L203.142 164.923L202.849 164.923M194.513 136.672C194.512 136.124 194.62 135.582 194.829 135.076C195.038 134.57 195.345 134.11 195.732 133.723C196.119 133.335 196.579 133.028 197.085 132.818C197.591 132.608 198.133 132.501 198.681 132.501C199.228 132.501 199.771 132.608 200.277 132.818C200.783 133.028 201.242 133.335 201.629 133.723C202.016 134.11 202.323 134.57 202.533 135.076C202.742 135.582 202.849 136.124 202.849 136.672V136.672L202.849 164.923M194.513 136.672L202.849 164.923" fill="white" stroke="#00CC8F" stroke-width="0.585227"/>
<path d="M258.067 142.921H234.127C232.944 142.921 231.81 142.451 230.973 141.615C230.137 140.778 229.667 139.644 229.667 138.461C229.667 137.278 230.137 136.143 230.973 135.307C231.81 134.47 232.944 134 234.127 134H258.067C259.25 134 260.384 134.47 261.221 135.307C262.057 136.143 262.527 137.278 262.527 138.461C262.527 139.644 262.057 140.778 261.221 141.615C260.384 142.451 259.25 142.921 258.067 142.921Z" fill="#5B94E2"/>
<path d="M230.667 152.342H243.667" stroke="#5B94E2" stroke-width="2" stroke-linecap="round"/>
<path d="M248.667 152.342H260.667" stroke="#5B94E2" stroke-width="2" stroke-linecap="round"/>
<path d="M230.667 159.342H243.667" stroke="#5B94E2" stroke-width="2" stroke-linecap="round"/>
<path d="M248.667 159.342H260.667" stroke="#5B94E2" stroke-width="2" stroke-linecap="round"/>
<path d="M230.667 167.342H243.667" stroke="#5B94E2" stroke-width="2" stroke-linecap="round"/>
<path d="M248.667 167.342H260.667" stroke="#5B94E2" stroke-width="2" stroke-linecap="round"/>
</g>
<rect x="1.16666" y="0.5" width="317.667" height="195" rx="15.5" stroke="#1566D6" stroke-opacity="0.24"/>
<defs>
<clipPath id="clip0_1325_42850">
<rect x="0.666656" width="318.667" height="196" rx="16" fill="white"/>
</clipPath>
</defs>
</svg>
