<svg width="370" height="236" viewBox="0 0 370 236" fill="none" xmlns="http://www.w3.org/2000/svg">
<g filter="url(#filter0_d_1325_42799)">
<g clip-path="url(#clip0_1325_42799)">
<rect x="31" y="20" width="318.667" height="196" rx="16" fill="white" shape-rendering="crispEdges"/>
<path d="M169.834 197.063L169.834 229" stroke="#303236" stroke-width="1.06455" stroke-linecap="round"/>
<rect x="176.962" y="114.528" width="143.54" height="108.652" rx="4.48561" fill="white" stroke="#2B70C5" stroke-width="0.996803"/>
<path d="M223.077 183.187C231.994 183.187 239.222 175.959 239.222 167.042C239.222 158.125 231.994 150.896 223.077 150.896C214.16 150.896 206.932 158.125 206.932 167.042C206.932 175.959 214.16 183.187 223.077 183.187Z" fill="#2B70C5"/>
<path d="M218.64 152.004L218.64 152.004C218.639 151.421 218.754 150.844 218.976 150.305C219.199 149.766 219.526 149.277 219.938 148.864C220.35 148.452 220.839 148.125 221.378 147.902C221.916 147.678 222.494 147.563 223.077 147.563C223.66 147.563 224.237 147.678 224.776 147.902C225.314 148.125 225.803 148.452 226.216 148.864L226.436 148.644L226.216 148.864C226.628 149.277 226.954 149.766 227.177 150.305C227.4 150.844 227.514 151.421 227.514 152.004V152.004V182.079C227.513 183.255 227.045 184.383 226.213 185.215C225.381 186.047 224.253 186.515 223.077 186.516C221.9 186.515 220.773 186.047 219.941 185.215C219.109 184.383 218.641 183.255 218.64 182.079L218.64 152.004ZM227.825 152.004V182.079C227.824 183.338 227.323 184.545 226.433 185.435C225.543 186.326 224.336 186.826 223.077 186.828L227.825 152.004Z" fill="white" stroke="#2B70C5" stroke-width="0.623002"/>
<path d="M177.173 143.089V166.339C176.961 166.269 176.752 166.202 176.54 166.136C174.669 165.538 172.792 164.974 170.908 164.445C169.101 163.933 167.287 163.45 165.467 162.999C164.821 162.84 164.178 162.685 163.532 162.533C163.507 162.419 163.481 162.305 163.459 162.191C163.342 161.647 163.25 161.096 163.181 160.542C163.149 160.33 163.127 160.118 163.105 159.903C162.772 156.511 163.236 153.088 164.461 149.908C165.685 146.728 167.636 143.878 170.158 141.586C170.25 141.497 170.345 141.411 170.44 141.329C172.485 141.817 174.518 142.344 176.54 142.912C176.752 142.966 176.964 143.026 177.173 143.089Z" fill="#2B70C5"/>
<path d="M177.173 148.535V159.561C176.97 159.683 176.758 159.791 176.54 159.884C175.404 160.391 174.144 160.556 172.916 160.357C171.688 160.157 170.544 159.604 169.626 158.763C169.538 158.684 169.449 158.599 169.364 158.51C169.278 158.425 169.196 158.333 169.117 158.241C168.161 157.143 167.609 155.752 167.551 154.298C167.493 152.844 167.934 151.413 168.799 150.244C169.665 149.074 170.904 148.234 172.312 147.864C173.719 147.494 175.211 147.616 176.54 148.209C176.757 148.306 176.968 148.415 177.173 148.535Z" fill="white"/>
<path d="M177.173 156.705V179.502C176.964 179.549 176.752 179.597 176.54 179.647C174.558 180.129 172.585 180.641 170.62 181.186C170.541 181.097 170.465 181.009 170.392 180.92C168.341 178.519 166.834 175.702 165.974 172.663C165.114 169.624 164.923 166.435 165.412 163.315C165.428 163.211 165.447 163.103 165.466 162.999C165.482 162.897 165.501 162.793 165.52 162.692C165.716 161.655 165.986 160.634 166.33 159.637C166.372 159.516 166.413 159.396 166.457 159.276C167.423 159.01 168.391 158.754 169.363 158.51C171.741 157.895 174.133 157.337 176.54 156.835C176.749 156.787 176.961 156.746 177.173 156.705Z" fill="#2B70C5"/>
<path d="M177.173 162.527V174.94C176.965 174.993 176.753 175.035 176.54 175.066C175.269 175.244 173.974 175.036 172.823 174.468C171.672 173.901 170.718 173 170.086 171.883C169.454 170.766 169.172 169.485 169.277 168.206C169.383 166.927 169.871 165.709 170.677 164.711C170.75 164.619 170.826 164.531 170.908 164.445C170.984 164.357 171.067 164.271 171.152 164.189C171.852 163.496 172.703 162.975 173.637 162.665C174.572 162.356 175.565 162.266 176.54 162.403C176.754 162.432 176.965 162.473 177.173 162.527Z" fill="white"/>
<path d="M286.296 158.656H260.811C259.552 158.656 258.344 158.156 257.453 157.266C256.563 156.375 256.062 155.167 256.062 153.908C256.062 152.648 256.563 151.441 257.453 150.55C258.344 149.659 259.552 149.159 260.811 149.159H286.296C287.555 149.159 288.763 149.659 289.653 150.55C290.544 151.441 291.044 152.648 291.044 153.908C291.044 155.167 290.544 156.375 289.653 157.266C288.763 158.156 287.555 158.656 286.296 158.656Z" fill="#E5E5E5"/>
<path d="M257.127 168.686H270.966" stroke="#E5E5E5" stroke-width="2.12909" stroke-linecap="round"/>
<path d="M276.289 168.686H289.064" stroke="#E5E5E5" stroke-width="2.12909" stroke-linecap="round"/>
<path d="M257.127 176.138H270.966" stroke="#E5E5E5" stroke-width="2.12909" stroke-linecap="round"/>
<path d="M276.289 176.138H289.064" stroke="#E5E5E5" stroke-width="2.12909" stroke-linecap="round"/>
<path d="M257.127 184.653H270.966" stroke="#E5E5E5" stroke-width="2.12909" stroke-linecap="round"/>
<path d="M276.289 184.653H289.064" stroke="#E5E5E5" stroke-width="2.12909" stroke-linecap="round"/>
<path d="M59.875 60.4297V58H72.6406V60.4297H67.6953V74H64.8203V60.4297H59.875ZM73.2905 74V62H76.0327V64H76.1577C76.3764 63.3073 76.7514 62.7734 77.2827 62.3984C77.8191 62.0182 78.4311 61.8281 79.1186 61.8281C79.2748 61.8281 79.4493 61.8359 79.642 61.8516C79.8399 61.862 80.004 61.8802 80.1342 61.9062V64.5078C80.0144 64.4661 79.8243 64.4297 79.5639 64.3984C79.3087 64.362 79.0613 64.3437 78.8217 64.3437C78.3061 64.3437 77.8426 64.4557 77.4311 64.6797C77.0248 64.8984 76.7045 65.2031 76.4702 65.5937C76.2358 65.9844 76.1186 66.4349 76.1186 66.9453V74H73.2905ZM86.3915 74.2344C85.1884 74.2344 84.1493 73.9844 83.2743 73.4844C82.4045 72.9792 81.7352 72.2656 81.2665 71.3437C80.7977 70.4167 80.5634 69.3255 80.5634 68.0703C80.5634 66.8359 80.7977 65.7526 81.2665 64.8203C81.7404 63.8828 82.4019 63.1536 83.2509 62.6328C84.0998 62.1068 85.0972 61.8438 86.243 61.8438C86.9826 61.8438 87.6805 61.9635 88.3368 62.2031C88.9983 62.4375 89.5816 62.8021 90.0868 63.2969C90.5972 63.7917 90.9983 64.4219 91.2899 65.1875C91.5816 65.9479 91.7274 66.8542 91.7274 67.9062V68.7734H81.8915V66.8672H89.0165C89.0113 66.3255 88.8941 65.8437 88.6649 65.4219C88.4358 64.9948 88.1154 64.6589 87.704 64.4141C87.2977 64.1693 86.8238 64.0469 86.2821 64.0469C85.704 64.0469 85.1962 64.1875 84.7587 64.4687C84.3212 64.7448 83.98 65.1094 83.7352 65.5625C83.4957 66.0104 83.3733 66.5026 83.368 67.0391V68.7031C83.368 69.401 83.4957 70 83.7509 70.5C84.0061 70.9948 84.3628 71.375 84.8212 71.6406C85.2795 71.901 85.816 72.0312 86.4305 72.0312C86.842 72.0312 87.2144 71.974 87.5477 71.8594C87.8811 71.7396 88.1701 71.5651 88.4149 71.3359C88.6597 71.1068 88.8446 70.8229 88.9696 70.4844L91.6102 70.7812C91.4436 71.4792 91.1259 72.0885 90.6571 72.6094C90.1936 73.125 89.5998 73.526 88.8759 73.8125C88.1519 74.0937 87.3238 74.2344 86.3915 74.2344ZM97.1331 74.2422C96.3727 74.2422 95.6878 74.1068 95.0784 73.8359C94.4743 73.5599 93.9951 73.1536 93.6409 72.6172C93.292 72.0807 93.1175 71.4193 93.1175 70.6328C93.1175 69.9557 93.2425 69.3958 93.4925 68.9531C93.7425 68.5104 94.0836 68.1562 94.5159 67.8906C94.9482 67.625 95.4352 67.4245 95.9769 67.2891C96.5238 67.1484 97.0889 67.0469 97.6722 66.9844C98.3753 66.9115 98.9456 66.8464 99.3831 66.7891C99.8206 66.7266 100.138 66.6328 100.336 66.5078C100.539 66.3776 100.641 66.1771 100.641 65.9062V65.8594C100.641 65.2708 100.466 64.8151 100.118 64.4922C99.7685 64.1693 99.2659 64.0078 98.6097 64.0078C97.917 64.0078 97.3675 64.1589 96.9613 64.4609C96.5602 64.763 96.2894 65.1198 96.1488 65.5312L93.5081 65.1562C93.7165 64.4271 94.0602 63.8177 94.5394 63.3281C95.0185 62.8333 95.6045 62.4635 96.2972 62.2187C96.9899 61.9688 97.7555 61.8438 98.5941 61.8438C99.1722 61.8438 99.7477 61.9115 100.321 62.0469C100.894 62.1823 101.417 62.4062 101.891 62.7187C102.365 63.026 102.745 63.4453 103.032 63.9766C103.323 64.5078 103.469 65.1719 103.469 65.9687V74H100.75V72.3516H100.657C100.485 72.6849 100.243 72.9974 99.93 73.2891C99.6227 73.5755 99.2347 73.8073 98.7659 73.9844C98.3024 74.1563 97.7581 74.2422 97.1331 74.2422ZM97.8675 72.1641C98.4352 72.1641 98.9274 72.0521 99.3441 71.8281C99.7607 71.599 100.081 71.2969 100.305 70.9219C100.534 70.5469 100.649 70.138 100.649 69.6953V68.2812C100.56 68.3542 100.409 68.4219 100.196 68.4844C99.9873 68.5469 99.7529 68.6016 99.4925 68.6484C99.2321 68.6953 98.9743 68.737 98.7191 68.7734C98.4639 68.8099 98.2425 68.8411 98.055 68.8672C97.6331 68.9245 97.2555 69.0182 96.9222 69.1484C96.5889 69.2786 96.3258 69.4609 96.1331 69.6953C95.9404 69.9245 95.8441 70.2214 95.8441 70.5859C95.8441 71.1068 96.0342 71.5 96.4144 71.7656C96.7946 72.0312 97.279 72.1641 97.8675 72.1641ZM115.357 65.1719L112.779 65.4531C112.706 65.1927 112.579 64.9479 112.396 64.7188C112.219 64.4896 111.98 64.3047 111.678 64.1641C111.375 64.0234 111.006 63.9531 110.568 63.9531C109.98 63.9531 109.485 64.0807 109.084 64.3359C108.688 64.5911 108.493 64.9219 108.498 65.3281C108.493 65.6771 108.62 65.9609 108.881 66.1797C109.146 66.3984 109.584 66.5781 110.193 66.7188L112.24 67.1562C113.375 67.401 114.219 67.7891 114.771 68.3203C115.329 68.8516 115.61 69.5469 115.615 70.4062C115.61 71.1615 115.388 71.8281 114.951 72.4062C114.519 72.9792 113.917 73.4271 113.146 73.75C112.375 74.0729 111.49 74.2344 110.49 74.2344C109.021 74.2344 107.839 73.9271 106.943 73.3125C106.047 72.6927 105.513 71.8307 105.342 70.7266L108.099 70.4609C108.224 71.0026 108.49 71.4115 108.896 71.6875C109.303 71.9635 109.831 72.1016 110.482 72.1016C111.154 72.1016 111.693 71.9635 112.099 71.6875C112.511 71.4115 112.717 71.0703 112.717 70.6641C112.717 70.3203 112.584 70.0365 112.318 69.8125C112.058 69.5885 111.651 69.4167 111.099 69.2969L109.053 68.8672C107.901 68.6276 107.05 68.224 106.498 67.6562C105.946 67.0833 105.672 66.3594 105.678 65.4844C105.672 64.7448 105.873 64.1042 106.279 63.5625C106.691 63.0156 107.261 62.5937 107.99 62.2969C108.724 61.9948 109.571 61.8438 110.529 61.8438C111.935 61.8438 113.042 62.1432 113.849 62.7422C114.662 63.3411 115.164 64.151 115.357 65.1719ZM125.155 68.9531V62H127.984V74H125.241V71.8672H125.116C124.846 72.5391 124.4 73.0885 123.78 73.5156C123.166 73.9427 122.408 74.1563 121.507 74.1563C120.721 74.1563 120.025 73.9818 119.421 73.6328C118.822 73.2786 118.353 72.7656 118.015 72.0938C117.676 71.4167 117.507 70.599 117.507 69.6406V62H120.335V69.2031C120.335 69.9635 120.543 70.5677 120.96 71.0156C121.377 71.4635 121.924 71.6875 122.601 71.6875C123.017 71.6875 123.421 71.5859 123.812 71.3828C124.202 71.1797 124.523 70.8776 124.773 70.4766C125.028 70.0703 125.155 69.5625 125.155 68.9531ZM130.452 74V62H133.194V64H133.319C133.538 63.3073 133.913 62.7734 134.444 62.3984C134.98 62.0182 135.592 61.8281 136.28 61.8281C136.436 61.8281 136.611 61.8359 136.803 61.8516C137.001 61.862 137.165 61.8802 137.296 61.9062V64.5078C137.176 64.4661 136.986 64.4297 136.725 64.3984C136.47 64.362 136.223 64.3437 135.983 64.3437C135.467 64.3437 135.004 64.4557 134.592 64.6797C134.186 64.8984 133.866 65.2031 133.631 65.5937C133.397 65.9844 133.28 66.4349 133.28 66.9453V74H130.452ZM140.857 78.5C140.472 78.5 140.115 78.4688 139.787 78.4063C139.464 78.349 139.206 78.2813 139.014 78.2031L139.67 76C140.081 76.1198 140.449 76.1771 140.772 76.1719C141.094 76.1667 141.378 76.0651 141.623 75.8672C141.873 75.6745 142.084 75.3516 142.256 74.8984L142.498 74.25L138.147 62H141.147L143.912 71.0625H144.037L146.811 62H149.818L145.014 75.4531C144.79 76.0885 144.493 76.6328 144.123 77.0859C143.753 77.5443 143.3 77.8932 142.764 78.1328C142.232 78.3776 141.597 78.5 140.857 78.5ZM66 101H60.5781V85H66.1094C67.6979 85 69.0625 85.3203 70.2031 85.9609C71.349 86.5964 72.2292 87.5104 72.8438 88.7031C73.4583 89.8958 73.7656 91.3229 73.7656 92.9844C73.7656 94.651 73.4557 96.0833 72.8359 97.2812C72.2214 98.4792 71.3333 99.3984 70.1719 100.039C69.0156 100.68 67.625 101 66 101ZM63.4766 98.4922H65.8594C66.974 98.4922 67.9036 98.2891 68.6484 97.8828C69.3932 97.4714 69.9531 96.8594 70.3281 96.0469C70.7031 95.2292 70.8906 94.2083 70.8906 92.9844C70.8906 91.7604 70.7031 90.7448 70.3281 89.9375C69.9531 89.125 69.3984 88.5182 68.6641 88.1172C67.9349 87.7109 67.0286 87.5078 65.9453 87.5078H63.4766V98.4922ZM81.267 101.234C80.0639 101.234 79.0248 100.984 78.1498 100.484C77.2801 99.9792 76.6108 99.2656 76.142 98.3437C75.6733 97.4167 75.4389 96.3255 75.4389 95.0703C75.4389 93.8359 75.6733 92.7526 76.142 91.8203C76.616 90.8828 77.2774 90.1536 78.1264 89.6328C78.9754 89.1068 79.9728 88.8438 81.1186 88.8438C81.8582 88.8438 82.5561 88.9635 83.2123 89.2031C83.8738 89.4375 84.4571 89.8021 84.9623 90.2969C85.4728 90.7917 85.8738 91.4219 86.1655 92.1875C86.4571 92.9479 86.603 93.8542 86.603 94.9062V95.7734H76.767V93.8672H83.892C83.8868 93.3255 83.7696 92.8437 83.5405 92.4219C83.3113 91.9948 82.991 91.6589 82.5795 91.4141C82.1733 91.1693 81.6993 91.0469 81.1577 91.0469C80.5795 91.0469 80.0717 91.1875 79.6342 91.4687C79.1967 91.7448 78.8556 92.1094 78.6108 92.5625C78.3712 93.0104 78.2488 93.5026 78.2436 94.0391V95.7031C78.2436 96.401 78.3712 97 78.6264 97.5C78.8816 97.9948 79.2384 98.375 79.6967 98.6406C80.1551 98.901 80.6915 99.0312 81.3061 99.0312C81.7176 99.0312 82.0899 98.974 82.4233 98.8594C82.7566 98.7396 83.0457 98.5651 83.2905 98.3359C83.5353 98.1068 83.7202 97.8229 83.8452 97.4844L86.4858 97.7812C86.3191 98.4792 86.0014 99.0885 85.5327 99.6094C85.0691 100.125 84.4754 100.526 83.7514 100.812C83.0274 101.094 82.1993 101.234 81.267 101.234ZM98.0399 92.1719L95.4618 92.4531C95.3889 92.1927 95.2613 91.9479 95.079 91.7188C94.9019 91.4896 94.6623 91.3047 94.3602 91.1641C94.0582 91.0234 93.6884 90.9531 93.2509 90.9531C92.6623 90.9531 92.1675 91.0807 91.7665 91.3359C91.3707 91.5911 91.1753 91.9219 91.1805 92.3281C91.1753 92.6771 91.3029 92.9609 91.5634 93.1797C91.829 93.3984 92.2665 93.5781 92.8759 93.7188L94.9227 94.1562C96.0582 94.401 96.9019 94.7891 97.454 95.3203C98.0113 95.8516 98.2925 96.5469 98.2977 97.4062C98.2925 98.1615 98.0712 98.8281 97.6337 99.4062C97.2014 99.9792 96.5998 100.427 95.829 100.75C95.0582 101.073 94.1727 101.234 93.1727 101.234C91.704 101.234 90.5217 100.927 89.6259 100.312C88.73 99.6927 88.1962 98.8307 88.0243 97.7266L90.7821 97.4609C90.9071 98.0026 91.1727 98.4115 91.579 98.6875C91.9852 98.9635 92.5139 99.1016 93.1649 99.1016C93.8368 99.1016 94.3759 98.9635 94.7821 98.6875C95.1936 98.4115 95.3993 98.0703 95.3993 97.6641C95.3993 97.3203 95.2665 97.0365 95.0009 96.8125C94.7404 96.5885 94.3342 96.4167 93.7821 96.2969L91.7352 95.8672C90.5842 95.6276 89.7326 95.224 89.1805 94.6562C88.6285 94.0833 88.355 93.3594 88.3602 92.4844C88.355 91.7448 88.5555 91.1042 88.9618 90.5625C89.3733 90.0156 89.9436 89.5937 90.6727 89.2969C91.4071 88.9948 92.2535 88.8438 93.2118 88.8438C94.618 88.8438 95.7248 89.1432 96.5321 89.7422C97.3446 90.3411 97.8472 91.151 98.0399 92.1719ZM102.768 97.2344L102.76 93.8203H103.213L107.526 89H110.83L105.526 94.9062H104.94L102.768 97.2344ZM100.19 101V85H103.018V101H100.19ZM107.721 101L103.815 95.5391L105.721 93.5469L111.104 101H107.721ZM121.76 92.1719L119.181 92.4531C119.108 92.1927 118.981 91.9479 118.799 91.7188C118.622 91.4896 118.382 91.3047 118.08 91.1641C117.778 91.0234 117.408 90.9531 116.97 90.9531C116.382 90.9531 115.887 91.0807 115.486 91.3359C115.09 91.5911 114.895 91.9219 114.9 92.3281C114.895 92.6771 115.023 92.9609 115.283 93.1797C115.549 93.3984 115.986 93.5781 116.595 93.7188L118.642 94.1562C119.778 94.401 120.622 94.7891 121.174 95.3203C121.731 95.8516 122.012 96.5469 122.017 97.4062C122.012 98.1615 121.791 98.8281 121.353 99.4062C120.921 99.9792 120.319 100.427 119.549 100.75C118.778 101.073 117.892 101.234 116.892 101.234C115.424 101.234 114.241 100.927 113.345 100.312C112.45 99.6927 111.916 98.8307 111.744 97.7266L114.502 97.4609C114.627 98.0026 114.892 98.4115 115.299 98.6875C115.705 98.9635 116.233 99.1016 116.885 99.1016C117.556 99.1016 118.095 98.9635 118.502 98.6875C118.913 98.4115 119.119 98.0703 119.119 97.6641C119.119 97.3203 118.986 97.0365 118.72 96.8125C118.46 96.5885 118.054 96.4167 117.502 96.2969L115.455 95.8672C114.304 95.6276 113.452 95.224 112.9 94.6562C112.348 94.0833 112.075 93.3594 112.08 92.4844C112.075 91.7448 112.275 91.1042 112.681 90.5625C113.093 90.0156 113.663 89.5937 114.392 89.2969C115.127 88.9948 115.973 88.8438 116.931 88.8438C118.338 88.8438 119.444 89.1432 120.252 89.7422C121.064 90.3411 121.567 91.151 121.76 92.1719Z" fill="#2B70C5"/>
<path d="M69.1563 159C67.1475 159 65.1839 159.596 63.5137 160.712C61.8436 161.828 60.5418 163.414 59.7731 165.27C59.0044 167.125 58.8033 169.168 59.1952 171.138C59.587 173.108 60.5543 174.917 61.9747 176.338C63.3951 177.758 65.2047 178.725 67.1749 179.117C69.145 179.509 71.1871 179.308 73.0429 178.539C74.8987 177.771 76.4849 176.469 77.6009 174.799C78.7169 173.129 79.3125 171.165 79.3125 169.156C79.3097 166.464 78.2387 163.882 76.3347 161.978C74.4306 160.074 71.849 159.003 69.1563 159ZM73.6152 169.709L70.4902 172.834C70.3436 172.981 70.1448 173.063 69.9375 173.063C69.7302 173.063 69.5314 172.981 69.3848 172.834C69.2382 172.687 69.1558 172.489 69.1558 172.281C69.1558 172.074 69.2382 171.875 69.3848 171.729L71.1768 169.938H65.25C65.0428 169.938 64.8441 169.855 64.6976 169.709C64.5511 169.562 64.4688 169.363 64.4688 169.156C64.4688 168.949 64.5511 168.75 64.6976 168.604C64.8441 168.457 65.0428 168.375 65.25 168.375H71.1768L69.3848 166.584C69.2382 166.437 69.1558 166.239 69.1558 166.031C69.1558 165.824 69.2382 165.625 69.3848 165.479C69.5314 165.332 69.7302 165.25 69.9375 165.25C70.1448 165.25 70.3436 165.332 70.4902 165.479L73.6152 168.604C73.6879 168.676 73.7455 168.762 73.7848 168.857C73.8241 168.952 73.8444 169.054 73.8444 169.156C73.8444 169.259 73.8241 169.361 73.7848 169.455C73.7455 169.55 73.6879 169.636 73.6152 169.709Z" fill="#00CC8F"/>
</g>
<rect x="31" y="20" width="318.667" height="196" rx="16" stroke="#1566D6" stroke-opacity="0.24" stroke-width="2" shape-rendering="crispEdges"/>
</g>
<defs>
<filter id="filter0_d_1325_42799" x="0" y="-11" width="392.667" height="270" filterUnits="userSpaceOnUse" color-interpolation-filters="sRGB">
<feFlood flood-opacity="0" result="BackgroundImageFix"/>
<feColorMatrix in="SourceAlpha" type="matrix" values="0 0 0 0 0 0 0 0 0 0 0 0 0 0 0 0 0 0 127 0" result="hardAlpha"/>
<feOffset dx="6" dy="6"/>
<feGaussianBlur stdDeviation="18"/>
<feComposite in2="hardAlpha" operator="out"/>
<feColorMatrix type="matrix" values="0 0 0 0 0.0823529 0 0 0 0 0.4 0 0 0 0 0.839216 0 0 0 0.1 0"/>
<feBlend mode="normal" in2="BackgroundImageFix" result="effect1_dropShadow_1325_42799"/>
<feBlend mode="normal" in="SourceGraphic" in2="effect1_dropShadow_1325_42799" result="shape"/>
</filter>
<clipPath id="clip0_1325_42799">
<rect x="31" y="20" width="318.667" height="196" rx="16" fill="white"/>
</clipPath>
</defs>
</svg>
