<svg width="320" height="278" viewBox="0 0 320 278" fill="none" xmlns="http://www.w3.org/2000/svg">
<g clip-path="url(#clip0_1325_42849)">
<rect x="0.666656" width="318.667" height="278" rx="16" fill="white"/>
<rect x="0.666656" width="318.667" height="278" rx="16" fill="#1566D6"/>
<path d="M33.5573 54L29.1198 38H31.6588L34.776 50.3906H34.9245L38.1667 38H40.6823L43.9245 50.3984H44.0729L47.1823 38H49.7292L45.2838 54H42.8542L39.487 42.0156H39.362L35.9948 54H33.5573ZM55.2931 54.2422C54.1108 54.2422 53.0925 53.9896 52.2384 53.4844C51.3894 52.974 50.7332 52.2578 50.2696 51.3359C49.8113 50.4089 49.5821 49.3229 49.5821 48.0781C49.5821 46.849 49.8113 45.7656 50.2696 44.8281C50.7332 43.8906 51.379 43.1589 52.2071 42.6328C53.0405 42.1068 54.0144 41.8438 55.129 41.8438C55.8061 41.8438 56.4623 41.9557 57.0978 42.1797C57.7332 42.4036 58.3035 42.7552 58.8087 43.2344C59.3139 43.7135 59.7123 44.3359 60.004 45.1016C60.2957 45.862 60.4415 46.7865 60.4415 47.875V48.7031H50.9024V46.9531H58.1524C58.1524 46.3385 58.0274 45.7943 57.7774 45.3203C57.5274 44.8411 57.1759 44.4635 56.7227 44.1875C56.2748 43.9115 55.7488 43.7734 55.1446 43.7734C54.4884 43.7734 53.9155 43.9349 53.4259 44.2578C52.9415 44.5755 52.5665 44.9922 52.3009 45.5078C52.0405 46.0182 51.9102 46.5729 51.9102 47.1719V48.5391C51.9102 49.3411 52.0509 50.0234 52.3321 50.5859C52.6186 51.1484 53.017 51.5781 53.5274 51.875C54.0379 52.1667 54.6342 52.3125 55.3165 52.3125C55.7592 52.3125 56.1629 52.25 56.5274 52.125C56.892 51.9948 57.2071 51.8021 57.4727 51.5469C57.7384 51.2917 57.9415 50.9766 58.0821 50.6016L60.2931 51C60.116 51.651 59.7983 52.2214 59.3399 52.7109C58.8868 53.1953 58.3165 53.5729 57.629 53.8437C56.9467 54.1094 56.1681 54.2422 55.2931 54.2422ZM66.0855 54.2656C65.3251 54.2656 64.6376 54.125 64.023 53.8437C63.4084 53.5573 62.9214 53.1432 62.562 52.6016C62.2079 52.0599 62.0308 51.3958 62.0308 50.6094C62.0308 49.9323 62.161 49.375 62.4214 48.9375C62.6818 48.5 63.0334 48.1536 63.4761 47.8984C63.9188 47.6432 64.4136 47.4505 64.9605 47.3203C65.5074 47.1901 66.0647 47.0911 66.6324 47.0234C67.3511 46.9401 67.9344 46.8724 68.3824 46.8203C68.8303 46.763 69.1558 46.6719 69.3589 46.5469C69.562 46.4219 69.6636 46.2187 69.6636 45.9375V45.8828C69.6636 45.2005 69.4709 44.6719 69.0855 44.2969C68.7053 43.9219 68.1376 43.7344 67.3824 43.7344C66.5959 43.7344 65.9761 43.9089 65.523 44.2578C65.0751 44.6016 64.7652 44.9844 64.5933 45.4062L62.398 44.9062C62.6584 44.1771 63.0386 43.5885 63.5386 43.1406C64.0438 42.6875 64.6245 42.3594 65.2808 42.1562C65.937 41.9479 66.6272 41.8438 67.3511 41.8438C67.8303 41.8438 68.3381 41.901 68.8745 42.0156C69.4162 42.125 69.9214 42.3281 70.3902 42.625C70.8641 42.9219 71.2522 43.3464 71.5542 43.8984C71.8563 44.4453 72.0074 45.1563 72.0074 46.0313V54H69.7261V52.3594H69.6324C69.4813 52.6615 69.2548 52.9583 68.9527 53.25C68.6506 53.5417 68.2626 53.7839 67.7886 53.9766C67.3147 54.1693 66.7469 54.2656 66.0855 54.2656ZM66.5933 52.3906C67.2391 52.3906 67.7912 52.263 68.2495 52.0078C68.7131 51.7526 69.0647 51.4193 69.3042 51.0078C69.549 50.5911 69.6714 50.1458 69.6714 49.6719V48.125C69.5881 48.2083 69.4266 48.2865 69.187 48.3594C68.9527 48.4271 68.6844 48.487 68.3824 48.5391C68.0803 48.5859 67.786 48.6302 67.4995 48.6719C67.2131 48.7083 66.9735 48.7396 66.7808 48.7656C66.3277 48.8229 65.9136 48.9193 65.5386 49.0547C65.1688 49.1901 64.8719 49.3854 64.648 49.6406C64.4292 49.8906 64.3199 50.224 64.3199 50.6406C64.3199 51.2187 64.5334 51.6562 64.9605 51.9531C65.3876 52.2448 65.9318 52.3906 66.5933 52.3906ZM77.0146 38V54H74.6787V38H77.0146ZM85.3188 42V43.875H78.7641V42H85.3188ZM80.5219 39.125H82.8578V50.4766C82.8578 50.9297 82.9255 51.2708 83.061 51.5C83.1964 51.724 83.3709 51.8776 83.5844 51.9609C83.8031 52.0391 84.0401 52.0781 84.2953 52.0781C84.4828 52.0781 84.6469 52.0651 84.7875 52.0391C84.9281 52.013 85.0375 51.9922 85.1156 51.9766L85.5375 53.9062C85.4021 53.9583 85.2094 54.0104 84.9594 54.0625C84.7094 54.1198 84.3969 54.151 84.0219 54.1563C83.4073 54.1667 82.8344 54.0573 82.3031 53.8281C81.7719 53.599 81.3422 53.2448 81.0141 52.7656C80.686 52.2865 80.5219 51.6849 80.5219 50.9609V39.125ZM90.0565 46.875V54H87.7206V38H90.0252V43.9531H90.1737C90.4549 43.3073 90.8846 42.7943 91.4627 42.4141C92.0409 42.0339 92.7961 41.8438 93.7284 41.8438C94.5513 41.8438 95.27 42.013 95.8846 42.3516C96.5044 42.6901 96.9836 43.1953 97.3221 43.8672C97.6659 44.5339 97.8377 45.3672 97.8377 46.3672V54H95.5018V46.6484C95.5018 45.7682 95.2752 45.0859 94.8221 44.6016C94.369 44.112 93.7388 43.8672 92.9315 43.8672C92.3794 43.8672 91.8846 43.9844 91.4471 44.2187C91.0148 44.4531 90.6737 44.7969 90.4237 45.25C90.1789 45.6979 90.0565 46.2396 90.0565 46.875ZM106.085 38H109.014L114.108 50.4375H114.296L119.389 38H122.319V54H120.022V42.4219H119.874L115.155 53.9766H113.249L108.53 42.4141H108.382V54H106.085V38ZM128.694 54.2656C127.933 54.2656 127.246 54.125 126.631 53.8437C126.016 53.5573 125.529 53.1432 125.17 52.6016C124.816 52.0599 124.639 51.3958 124.639 50.6094C124.639 49.9323 124.769 49.375 125.029 48.9375C125.29 48.5 125.641 48.1536 126.084 47.8984C126.527 47.6432 127.022 47.4505 127.569 47.3203C128.115 47.1901 128.673 47.0911 129.24 47.0234C129.959 46.9401 130.542 46.8724 130.99 46.8203C131.438 46.763 131.764 46.6719 131.967 46.5469C132.17 46.4219 132.272 46.2187 132.272 45.9375V45.8828C132.272 45.2005 132.079 44.6719 131.694 44.2969C131.313 43.9219 130.746 43.7344 129.99 43.7344C129.204 43.7344 128.584 43.9089 128.131 44.2578C127.683 44.6016 127.373 44.9844 127.201 45.4062L125.006 44.9062C125.266 44.1771 125.647 43.5885 126.147 43.1406C126.652 42.6875 127.233 42.3594 127.889 42.1562C128.545 41.9479 129.235 41.8438 129.959 41.8438C130.438 41.8438 130.946 41.901 131.483 42.0156C132.024 42.125 132.529 42.3281 132.998 42.625C133.472 42.9219 133.86 43.3464 134.162 43.8984C134.464 44.4453 134.615 45.1563 134.615 46.0313V54H132.334V52.3594H132.24C132.089 52.6615 131.863 52.9583 131.561 53.25C131.259 53.5417 130.871 53.7839 130.397 53.9766C129.923 54.1693 129.355 54.2656 128.694 54.2656ZM129.201 52.3906C129.847 52.3906 130.399 52.263 130.858 52.0078C131.321 51.7526 131.673 51.4193 131.912 51.0078C132.157 50.5911 132.279 50.1458 132.279 49.6719V48.125C132.196 48.2083 132.035 48.2865 131.795 48.3594C131.561 48.4271 131.292 48.487 130.99 48.5391C130.688 48.5859 130.394 48.6302 130.108 48.6719C129.821 48.7083 129.582 48.7396 129.389 48.7656C128.936 48.8229 128.522 48.9193 128.147 49.0547C127.777 49.1901 127.48 49.3854 127.256 49.6406C127.037 49.8906 126.928 50.224 126.928 50.6406C126.928 51.2187 127.141 51.6562 127.569 51.9531C127.996 52.2448 128.54 52.3906 129.201 52.3906ZM139.623 46.875V54H137.287V42H139.529V43.9531H139.677C139.953 43.3177 140.386 42.8073 140.974 42.4219C141.568 42.0365 142.315 41.8438 143.216 41.8438C144.034 41.8438 144.75 42.0156 145.365 42.3594C145.979 42.6979 146.456 43.2031 146.795 43.875C147.133 44.5469 147.302 45.3776 147.302 46.3672V54H144.966V46.6484C144.966 45.7786 144.74 45.099 144.287 44.6094C143.834 44.1146 143.211 43.8672 142.42 43.8672C141.878 43.8672 141.396 43.9844 140.974 44.2187C140.558 44.4531 140.227 44.7969 139.982 45.25C139.742 45.6979 139.623 46.2396 139.623 46.875ZM153.487 54.2656C152.727 54.2656 152.039 54.125 151.425 53.8437C150.81 53.5573 150.323 53.1432 149.964 52.6016C149.61 52.0599 149.433 51.3958 149.433 50.6094C149.433 49.9323 149.563 49.375 149.823 48.9375C150.084 48.5 150.435 48.1536 150.878 47.8984C151.321 47.6432 151.815 47.4505 152.362 47.3203C152.909 47.1901 153.467 47.0911 154.034 47.0234C154.753 46.9401 155.336 46.8724 155.784 46.8203C156.232 46.763 156.558 46.6719 156.761 46.5469C156.964 46.4219 157.065 46.2187 157.065 45.9375V45.8828C157.065 45.2005 156.873 44.6719 156.487 44.2969C156.107 43.9219 155.539 43.7344 154.784 43.7344C153.998 43.7344 153.378 43.9089 152.925 44.2578C152.477 44.6016 152.167 44.9844 151.995 45.4062L149.8 44.9062C150.06 44.1771 150.44 43.5885 150.94 43.1406C151.446 42.6875 152.026 42.3594 152.683 42.1562C153.339 41.9479 154.029 41.8438 154.753 41.8438C155.232 41.8438 155.74 41.901 156.276 42.0156C156.818 42.125 157.323 42.3281 157.792 42.625C158.266 42.9219 158.654 43.3464 158.956 43.8984C159.258 44.4453 159.409 45.1563 159.409 46.0313V54H157.128V52.3594H157.034C156.883 52.6615 156.657 52.9583 156.355 53.25C156.052 53.5417 155.664 53.7839 155.19 53.9766C154.717 54.1693 154.149 54.2656 153.487 54.2656ZM153.995 52.3906C154.641 52.3906 155.193 52.263 155.651 52.0078C156.115 51.7526 156.467 51.4193 156.706 51.0078C156.951 50.5911 157.073 50.1458 157.073 49.6719V48.125C156.99 48.2083 156.829 48.2865 156.589 48.3594C156.355 48.4271 156.086 48.487 155.784 48.5391C155.482 48.5859 155.188 48.6302 154.901 48.6719C154.615 48.7083 154.375 48.7396 154.183 48.7656C153.73 48.8229 153.315 48.9193 152.94 49.0547C152.571 49.1901 152.274 49.3854 152.05 49.6406C151.831 49.8906 151.722 50.224 151.722 50.6406C151.722 51.2187 151.935 51.6562 152.362 51.9531C152.789 52.2448 153.334 52.3906 153.995 52.3906ZM167.112 58.75C166.159 58.75 165.338 58.625 164.651 58.375C163.969 58.125 163.411 57.7943 162.979 57.3828C162.547 56.9714 162.224 56.5208 162.01 56.0313L164.018 55.2031C164.159 55.4323 164.346 55.6745 164.581 55.9297C164.82 56.1901 165.143 56.4115 165.549 56.5938C165.961 56.776 166.489 56.8672 167.135 56.8672C168.021 56.8672 168.752 56.651 169.331 56.2188C169.909 55.7917 170.198 55.1094 170.198 54.1719V51.8125H170.049C169.909 52.0677 169.706 52.3516 169.44 52.6641C169.18 52.9766 168.82 53.2474 168.362 53.4766C167.903 53.7057 167.307 53.8203 166.573 53.8203C165.625 53.8203 164.771 53.599 164.01 53.1562C163.255 52.7083 162.656 52.0495 162.213 51.1797C161.776 50.3047 161.557 49.2292 161.557 47.9531C161.557 46.6771 161.773 45.5833 162.206 44.6719C162.643 43.7604 163.242 43.0625 164.002 42.5781C164.763 42.0885 165.625 41.8438 166.588 41.8438C167.333 41.8438 167.935 41.9688 168.393 42.2187C168.851 42.4635 169.208 42.75 169.463 43.0781C169.724 43.4062 169.924 43.6953 170.065 43.9453H170.237V42H172.526V54.2656C172.526 55.2969 172.286 56.1432 171.807 56.8047C171.328 57.4661 170.68 57.9557 169.862 58.2734C169.049 58.5911 168.133 58.75 167.112 58.75ZM167.088 51.8828C167.76 51.8828 168.328 51.7266 168.792 51.4141C169.26 51.0964 169.614 50.6432 169.854 50.0547C170.099 49.4609 170.221 48.75 170.221 47.9219C170.221 47.1146 170.101 46.4036 169.862 45.7891C169.622 45.1745 169.271 44.6953 168.807 44.3516C168.344 44.0026 167.771 43.8281 167.088 43.8281C166.385 43.8281 165.799 44.0104 165.331 44.375C164.862 44.7344 164.508 45.224 164.268 45.8437C164.034 46.4635 163.917 47.1562 163.917 47.9219C163.917 48.7083 164.036 49.3984 164.276 49.9922C164.515 50.5859 164.87 51.0495 165.338 51.3828C165.812 51.7161 166.396 51.8828 167.088 51.8828ZM180.391 54.2422C179.208 54.2422 178.19 53.9896 177.336 53.4844C176.487 52.974 175.831 52.2578 175.367 51.3359C174.909 50.4089 174.68 49.3229 174.68 48.0781C174.68 46.849 174.909 45.7656 175.367 44.8281C175.831 43.8906 176.477 43.1589 177.305 42.6328C178.138 42.1068 179.112 41.8438 180.227 41.8438C180.904 41.8438 181.56 41.9557 182.195 42.1797C182.831 42.4036 183.401 42.7552 183.906 43.2344C184.411 43.7135 184.81 44.3359 185.102 45.1016C185.393 45.862 185.539 46.7865 185.539 47.875V48.7031H176V46.9531H183.25C183.25 46.3385 183.125 45.7943 182.875 45.3203C182.625 44.8411 182.273 44.4635 181.82 44.1875C181.372 43.9115 180.846 43.7734 180.242 43.7734C179.586 43.7734 179.013 43.9349 178.523 44.2578C178.039 44.5755 177.664 44.9922 177.398 45.5078C177.138 46.0182 177.008 46.5729 177.008 47.1719V48.5391C177.008 49.3411 177.148 50.0234 177.43 50.5859C177.716 51.1484 178.115 51.5781 178.625 51.875C179.135 52.1667 179.732 52.3125 180.414 52.3125C180.857 52.3125 181.26 52.25 181.625 52.125C181.99 51.9948 182.305 51.8021 182.57 51.5469C182.836 51.2917 183.039 50.9766 183.18 50.6016L185.391 51C185.213 51.651 184.896 52.2214 184.437 52.7109C183.984 53.1953 183.414 53.5729 182.727 53.8437C182.044 54.1094 181.266 54.2422 180.391 54.2422ZM187.691 54V42H189.933V43.9531H190.081C190.331 43.2917 190.74 42.776 191.308 42.4063C191.876 42.0313 192.555 41.8438 193.347 41.8438C194.149 41.8438 194.821 42.0313 195.363 42.4063C195.91 42.7812 196.313 43.2969 196.574 43.9531H196.699C196.985 43.3125 197.441 42.8021 198.066 42.4219C198.691 42.0365 199.436 41.8438 200.3 41.8438C201.389 41.8438 202.277 42.1849 202.964 42.8672C203.657 43.5495 204.003 44.5781 204.003 45.9531V54H201.667V46.1719C201.667 45.3594 201.446 44.7708 201.003 44.4062C200.561 44.0417 200.032 43.8594 199.417 43.8594C198.657 43.8594 198.066 44.0937 197.644 44.5625C197.222 45.026 197.011 45.6224 197.011 46.3516V54H194.683V46.0234C194.683 45.3724 194.48 44.849 194.074 44.4531C193.667 44.0573 193.139 43.8594 192.488 43.8594C192.045 43.8594 191.636 43.9766 191.261 44.2109C190.891 44.4401 190.592 44.7604 190.363 45.1719C190.139 45.5833 190.027 46.0599 190.027 46.6016V54H187.691ZM211.866 54.2422C210.684 54.2422 209.666 53.9896 208.811 53.4844C207.962 52.974 207.306 52.2578 206.843 51.3359C206.384 50.4089 206.155 49.3229 206.155 48.0781C206.155 46.849 206.384 45.7656 206.843 44.8281C207.306 43.8906 207.952 43.1589 208.78 42.6328C209.613 42.1068 210.587 41.8438 211.702 41.8438C212.379 41.8438 213.035 41.9557 213.671 42.1797C214.306 42.4036 214.876 42.7552 215.382 43.2344C215.887 43.7135 216.285 44.3359 216.577 45.1016C216.869 45.862 217.014 46.7865 217.014 47.875V48.7031H207.475V46.9531H214.725C214.725 46.3385 214.6 45.7943 214.35 45.3203C214.1 44.8411 213.749 44.4635 213.296 44.1875C212.848 43.9115 212.322 43.7734 211.718 43.7734C211.061 43.7734 210.488 43.9349 209.999 44.2578C209.514 44.5755 209.139 44.9922 208.874 45.5078C208.613 46.0182 208.483 46.5729 208.483 47.1719V48.5391C208.483 49.3411 208.624 50.0234 208.905 50.5859C209.192 51.1484 209.59 51.5781 210.1 51.875C210.611 52.1667 211.207 52.3125 211.889 52.3125C212.332 52.3125 212.736 52.25 213.1 52.125C213.465 51.9948 213.78 51.8021 214.046 51.5469C214.311 51.2917 214.514 50.9766 214.655 50.6016L216.866 51C216.689 51.651 216.371 52.2214 215.913 52.7109C215.46 53.1953 214.889 53.5729 214.202 53.8437C213.52 54.1094 212.741 54.2422 211.866 54.2422ZM221.502 46.875V54H219.166V42H221.408V43.9531H221.557C221.833 43.3177 222.265 42.8073 222.854 42.4219C223.448 42.0365 224.195 41.8438 225.096 41.8438C225.914 41.8438 226.63 42.0156 227.244 42.3594C227.859 42.6979 228.336 43.2031 228.674 43.875C229.013 44.5469 229.182 45.3776 229.182 46.3672V54H226.846V46.6484C226.846 45.7786 226.619 45.099 226.166 44.6094C225.713 44.1146 225.091 43.8672 224.299 43.8672C223.757 43.8672 223.276 43.9844 222.854 44.2187C222.437 44.4531 222.106 44.7969 221.862 45.25C221.622 45.6979 221.502 46.2396 221.502 46.875ZM237.476 42V43.875H230.922V42H237.476ZM232.679 39.125H235.015V50.4766C235.015 50.9297 235.083 51.2708 235.218 51.5C235.354 51.724 235.528 51.8776 235.742 51.9609C235.961 52.0391 236.198 52.0781 236.453 52.0781C236.64 52.0781 236.804 52.0651 236.945 52.0391C237.086 52.013 237.195 51.9922 237.273 51.9766L237.695 53.9062C237.56 53.9583 237.367 54.0104 237.117 54.0625C236.867 54.1198 236.554 54.151 236.179 54.1563C235.565 54.1667 234.992 54.0573 234.461 53.8281C233.929 53.599 233.5 53.2448 233.172 52.7656C232.843 52.2865 232.679 51.6849 232.679 50.9609V39.125ZM30.4245 81V65H40.3463V67.0781H32.8385V71.9531H39.6354V74.0234H32.8385V81H30.4245ZM42.6876 81V69H45.0235V81H42.6876ZM43.8673 67.1484C43.461 67.1484 43.1121 67.013 42.8204 66.7422C42.5339 66.4661 42.3907 66.138 42.3907 65.7578C42.3907 65.3724 42.5339 65.0443 42.8204 64.7734C43.1121 64.4974 43.461 64.3594 43.8673 64.3594C44.2735 64.3594 44.6199 64.4974 44.9063 64.7734C45.198 65.0443 45.3438 65.3724 45.3438 65.7578C45.3438 66.138 45.198 66.4661 44.9063 66.7422C44.6199 67.013 44.2735 67.1484 43.8673 67.1484ZM47.7261 81V69H49.9839V70.9062H50.1089C50.3277 70.2604 50.7131 69.7526 51.2652 69.3828C51.8225 69.0078 52.4527 68.8203 53.1558 68.8203C53.3016 68.8203 53.4735 68.8255 53.6714 68.8359C53.8745 68.8464 54.0334 68.8594 54.148 68.875V71.1094C54.0542 71.0833 53.8876 71.0547 53.648 71.0234C53.4084 70.987 53.1688 70.9687 52.9292 70.9687C52.3772 70.9687 51.885 71.0859 51.4527 71.3203C51.0256 71.5495 50.687 71.8698 50.437 72.2812C50.187 72.6875 50.062 73.151 50.062 73.6719V81H47.7261ZM55.7295 81V69H57.9717V70.9531H58.1201C58.3701 70.2917 58.7789 69.776 59.3467 69.4063C59.9144 69.0313 60.5941 68.8438 61.3857 68.8438C62.1878 68.8438 62.8597 69.0313 63.4013 69.4063C63.9482 69.7812 64.3519 70.2969 64.6123 70.9531H64.7373C65.0237 70.3125 65.4795 69.8021 66.1045 69.4219C66.7295 69.0365 67.4743 68.8438 68.3388 68.8438C69.4274 68.8438 70.3154 69.1849 71.0029 69.8672C71.6956 70.5495 72.042 71.5781 72.042 72.9531V81H69.706V73.1719C69.706 72.3594 69.4847 71.7708 69.042 71.4062C68.5993 71.0417 68.0706 70.8594 67.456 70.8594C66.6956 70.8594 66.1045 71.0937 65.6826 71.5625C65.2607 72.026 65.0498 72.6224 65.0498 73.3516V81H62.7217V73.0234C62.7217 72.3724 62.5185 71.849 62.1123 71.4531C61.706 71.0573 61.1774 70.8594 60.5263 70.8594C60.0836 70.8594 59.6748 70.9766 59.2998 71.2109C58.93 71.4401 58.6305 71.7604 58.4013 72.1719C58.1774 72.5833 58.0654 73.0599 58.0654 73.6016V81H55.7295ZM83.725 71.9297L81.6078 72.3047C81.5193 72.0339 81.3787 71.776 81.186 71.5312C80.9985 71.2865 80.7432 71.0859 80.4203 70.9297C80.0974 70.7734 79.6938 70.6953 79.2094 70.6953C78.5479 70.6953 77.9959 70.8437 77.5531 71.1406C77.1104 71.4323 76.8891 71.8099 76.8891 72.2734C76.8891 72.6745 77.0375 72.9974 77.3344 73.2422C77.6313 73.487 78.1104 73.6875 78.7719 73.8437L80.6781 74.2812C81.7823 74.5365 82.6052 74.9297 83.1469 75.4609C83.6886 75.9922 83.9594 76.6823 83.9594 77.5313C83.9594 78.25 83.7511 78.8906 83.3344 79.4531C82.9229 80.0104 82.3474 80.4479 81.6078 80.7656C80.8735 81.0833 80.0219 81.2422 79.0531 81.2422C77.7094 81.2422 76.613 80.9557 75.7641 80.3828C74.9151 79.8047 74.3943 78.9844 74.2016 77.9219L76.4594 77.5781C76.6 78.1667 76.8891 78.612 77.3266 78.9141C77.7641 79.2109 78.3344 79.3594 79.0375 79.3594C79.8031 79.3594 80.4151 79.2005 80.8735 78.8828C81.3318 78.5599 81.561 78.1667 81.561 77.7031C81.561 77.3281 81.4203 77.013 81.1391 76.7578C80.863 76.5026 80.4386 76.3099 79.8656 76.1797L77.8344 75.7344C76.7146 75.4792 75.8865 75.0729 75.35 74.5156C74.8188 73.9583 74.5531 73.2526 74.5531 72.3984C74.5531 71.6901 74.7511 71.0703 75.1469 70.5391C75.5427 70.0078 76.0896 69.5937 76.7875 69.2969C77.4854 68.9948 78.2849 68.8438 79.186 68.8438C80.4828 68.8438 81.5037 69.125 82.2485 69.6875C82.9932 70.2448 83.4854 70.9922 83.725 71.9297Z" fill="white"/>
<path d="M252.022 128.664C252.205 128.85 252.206 129.156 252.012 129.349L219.073 162.125C218.757 162.439 218.22 162.216 218.22 161.771V114.04C218.22 113.754 218.456 113.534 218.729 113.55C231.327 114.3 243.196 119.688 252.022 128.664Z" stroke="white"/>
<path d="M219.292 182.5L260.704 141.162C270.974 152.526 276.812 167.199 277.151 182.5H219.292ZM218.437 183.354L218.438 183.353C218.438 183.353 218.437 183.354 218.437 183.354L218.084 183L218.437 183.354ZM261.079 140.787L261.08 140.786L260.716 140.422L261.08 140.786C261.08 140.787 261.08 140.787 261.079 140.787Z" fill="#00CC8F" stroke="#00CC8F" stroke-width="3"/>
<path d="M266.144 223.194C266.137 223.205 266.131 223.217 266.125 223.229C262.874 228.57 258.812 233.373 254.084 237.464L254.083 237.466C253.848 237.671 253.614 237.872 253.378 238.07L253.377 238.071C243.461 246.413 231.111 251.302 218.191 252.017C217.917 252.032 217.681 251.812 217.681 251.526V193.067C217.681 192.791 217.905 192.567 218.181 192.567H274.334C274.612 192.567 274.83 192.791 274.826 193.059C274.772 196.466 274.429 199.864 273.8 203.214L273.799 203.216C273.746 203.506 273.69 203.793 273.631 204.08L273.63 204.082C272.33 210.492 269.982 216.645 266.681 222.293L266.68 222.295C266.506 222.595 266.325 222.897 266.144 223.194ZM266.144 223.194L266.571 223.454M266.144 223.194C266.144 223.194 266.144 223.194 266.144 223.194L266.571 223.454M266.571 223.454C266.754 223.155 266.936 222.85 267.113 222.545M266.571 223.454C266.571 223.455 266.571 223.455 266.571 223.456C266.57 223.456 266.57 223.457 266.57 223.457C266.57 223.458 266.57 223.459 266.57 223.46C263.289 228.857 259.187 233.709 254.412 237.842C254.175 238.049 253.938 238.253 253.699 238.453C243.7 246.865 231.247 251.795 218.218 252.516C217.652 252.548 217.181 252.093 217.181 251.526V193.067C217.181 192.515 217.628 192.067 218.181 192.067H274.334C274.886 192.067 275.334 192.515 275.326 193.067C275.271 196.502 274.925 199.928 274.291 203.307L267.113 222.545M267.113 222.545C270.441 216.85 272.809 210.646 274.12 204.181L267.113 222.545ZM266.142 223.2C266.142 223.2 266.142 223.201 266.142 223.201C266.142 223.201 266.143 223.2 266.143 223.199L266.142 223.2Z" stroke="white"/>
<path d="M206.167 205.542V244.499C206.067 244.5 205.967 244.5 205.867 244.5H205.865C195.168 244.514 184.862 240.736 176.873 233.922L206.167 205.542Z" fill="#00CC8F" stroke="#00CC8F" stroke-width="3"/>
<path d="M205.681 182.552H144.675C145.209 150.124 171.663 124 204.218 124C204.706 124 205.193 124.008 205.681 124.021V182.552Z" stroke="#5B94E2" stroke-width="2"/>
<path d="M186.173 206.867L186.17 206.87L173.565 219.472L173.564 219.473L173.085 219.952L173.085 219.952L159.466 233.571L159.466 233.571L158.988 234.049L158.987 234.05C158.971 234.066 158.955 234.083 158.94 234.1L151.84 241.197C145.462 235.007 140.365 227.616 136.846 219.447C133.33 211.287 131.461 202.517 131.34 193.639L199.402 193.639L186.653 206.387L186.653 206.387L186.184 206.857L186.181 206.86L186.173 206.867ZM158.985 234.055L158.984 234.056C158.985 234.055 158.985 234.055 158.986 234.054L158.985 234.055Z" stroke="#5B94E2" stroke-width="2"/>
</g>
<rect x="1.16666" y="0.5" width="317.667" height="277" rx="15.5" stroke="#1566D6" stroke-opacity="0.24"/>
<defs>
<clipPath id="clip0_1325_42849">
<rect x="0.666656" width="318.667" height="278" rx="16" fill="white"/>
</clipPath>
</defs>
</svg>
