<svg width="370" height="318" viewBox="0 0 370 318" fill="none" xmlns="http://www.w3.org/2000/svg">
<g filter="url(#filter0_d_1325_42618)">
<g clip-path="url(#clip0_1325_42618)">
<rect x="31" y="20" width="318.667" height="278" rx="16" fill="white" shape-rendering="crispEdges"/>
<path d="M63.9453 74L59.4297 58H62.5469L65.4297 69.7578H65.5781L68.6563 58H71.4922L74.5781 69.7656H74.7188L77.6016 58H80.7188L76.2031 74H73.3438L70.1406 62.7734H70.0156L66.8047 74H63.9453ZM86.2514 74.2344C85.0483 74.2344 84.0092 73.9844 83.1342 73.4844C82.2644 72.9792 81.5952 72.2656 81.1264 71.3437C80.6577 70.4167 80.4233 69.3255 80.4233 68.0703C80.4233 66.8359 80.6577 65.7526 81.1264 64.8203C81.6004 63.8828 82.2618 63.1536 83.1108 62.6328C83.9597 62.1068 84.9571 61.8438 86.103 61.8438C86.8426 61.8438 87.5405 61.9635 88.1967 62.2031C88.8582 62.4375 89.4415 62.8021 89.9467 63.2969C90.4571 63.7917 90.8582 64.4219 91.1498 65.1875C91.4415 65.9479 91.5873 66.8542 91.5873 67.9062V68.7734H81.7514V66.8672H88.8764C88.8712 66.3255 88.754 65.8437 88.5248 65.4219C88.2957 64.9948 87.9754 64.6589 87.5639 64.4141C87.1577 64.1693 86.6837 64.0469 86.142 64.0469C85.5639 64.0469 85.0561 64.1875 84.6186 64.4687C84.1811 64.7448 83.8399 65.1094 83.5952 65.5625C83.3556 66.0104 83.2332 66.5026 83.228 67.0391V68.7031C83.228 69.401 83.3556 70 83.6108 70.5C83.866 70.9948 84.2228 71.375 84.6811 71.6406C85.1394 71.901 85.6759 72.0312 86.2905 72.0312C86.7019 72.0312 87.0743 71.974 87.4077 71.8594C87.741 71.7396 88.0301 71.5651 88.2748 71.3359C88.5196 71.1068 88.7045 70.8229 88.8295 70.4844L91.4702 70.7812C91.3035 71.4792 90.9858 72.0885 90.517 72.6094C90.0535 73.125 89.4597 73.526 88.7358 73.8125C88.0118 74.0937 87.1837 74.2344 86.2514 74.2344ZM96.993 74.2422C96.2326 74.2422 95.5477 74.1068 94.9384 73.8359C94.3342 73.5599 93.855 73.1536 93.5009 72.6172C93.1519 72.0807 92.9774 71.4193 92.9774 70.6328C92.9774 69.9557 93.1024 69.3958 93.3524 68.9531C93.6024 68.5104 93.9436 68.1562 94.3759 67.8906C94.8082 67.625 95.2951 67.4245 95.8368 67.2891C96.3837 67.1484 96.9488 67.0469 97.5321 66.9844C98.2352 66.9115 98.8055 66.8464 99.243 66.7891C99.6805 66.7266 99.9983 66.6328 100.196 66.5078C100.399 66.3776 100.501 66.1771 100.501 65.9062V65.8594C100.501 65.2708 100.326 64.8151 99.9774 64.4922C99.6285 64.1693 99.1259 64.0078 98.4696 64.0078C97.7769 64.0078 97.2274 64.1589 96.8212 64.4609C96.4201 64.763 96.1493 65.1198 96.0087 65.5312L93.368 65.1562C93.5764 64.4271 93.9201 63.8177 94.3993 63.3281C94.8785 62.8333 95.4644 62.4635 96.1571 62.2187C96.8498 61.9688 97.6154 61.8438 98.454 61.8438C99.0321 61.8438 99.6076 61.9115 100.181 62.0469C100.753 62.1823 101.277 62.4062 101.751 62.7187C102.225 63.026 102.605 63.4453 102.891 63.9766C103.183 64.5078 103.329 65.1719 103.329 65.9687V74H100.61V72.3516H100.516C100.345 72.6849 100.102 72.9974 99.7899 73.2891C99.4826 73.5755 99.0946 73.8073 98.6259 73.9844C98.1623 74.1563 97.618 74.2422 96.993 74.2422ZM97.7274 72.1641C98.2951 72.1641 98.7873 72.0521 99.204 71.8281C99.6207 71.599 99.941 71.2969 100.165 70.9219C100.394 70.5469 100.509 70.138 100.509 69.6953V68.2812C100.42 68.3542 100.269 68.4219 100.056 68.4844C99.8472 68.5469 99.6128 68.6016 99.3524 68.6484C99.092 68.6953 98.8342 68.737 98.579 68.7734C98.3238 68.8099 98.1024 68.8411 97.9149 68.8672C97.493 68.9245 97.1154 69.0182 96.7821 69.1484C96.4488 69.2786 96.1858 69.4609 95.993 69.6953C95.8003 69.9245 95.704 70.2214 95.704 70.5859C95.704 71.1068 95.8941 71.5 96.2743 71.7656C96.6545 72.0312 97.1389 72.1641 97.7274 72.1641ZM108.561 58V74H105.733V58H108.561ZM117.021 62V64.1875H110.123V62H117.021ZM111.826 59.125H114.654V70.3906C114.654 70.7708 114.711 71.0625 114.826 71.2656C114.946 71.4635 115.102 71.599 115.295 71.6719C115.487 71.7448 115.701 71.7812 115.935 71.7812C116.112 71.7812 116.274 71.7682 116.42 71.7422C116.571 71.7161 116.685 71.6927 116.763 71.6719L117.24 73.8828C117.089 73.9349 116.873 73.9922 116.592 74.0547C116.316 74.1172 115.977 74.1536 115.576 74.1641C114.868 74.1849 114.23 74.0781 113.662 73.8437C113.094 73.6042 112.644 73.2344 112.31 72.7344C111.982 72.2344 111.821 71.6094 111.826 70.8594V59.125ZM122.032 66.9687V74H119.204V58H121.97V64.0391H122.111C122.392 63.362 122.827 62.8281 123.415 62.4375C124.009 62.0417 124.764 61.8438 125.681 61.8438C126.514 61.8438 127.241 62.0182 127.861 62.3672C128.48 62.7161 128.96 63.2266 129.298 63.8984C129.642 64.5703 129.814 65.3906 129.814 66.3594V74H126.986V66.7969C126.986 65.9896 126.777 65.362 126.361 64.9141C125.949 64.4609 125.371 64.2344 124.626 64.2344C124.126 64.2344 123.678 64.3437 123.282 64.5625C122.892 64.776 122.585 65.0859 122.361 65.4922C122.142 65.8984 122.032 66.3906 122.032 66.9687ZM137.399 58H140.945L145.695 69.5937H145.883L150.633 58H154.18V74H151.399V63.0078H151.25L146.828 73.9531H144.75L140.328 62.9844H140.18V74H137.399V58ZM160.224 74.2422C159.464 74.2422 158.779 74.1068 158.169 73.8359C157.565 73.5599 157.086 73.1536 156.732 72.6172C156.383 72.0807 156.209 71.4193 156.209 70.6328C156.209 69.9557 156.334 69.3958 156.584 68.9531C156.834 68.5104 157.175 68.1562 157.607 67.8906C158.039 67.625 158.526 67.4245 159.068 67.2891C159.615 67.1484 160.18 67.0469 160.763 66.9844C161.466 66.9115 162.037 66.8464 162.474 66.7891C162.912 66.7266 163.229 66.6328 163.427 66.5078C163.63 66.3776 163.732 66.1771 163.732 65.9062V65.8594C163.732 65.2708 163.557 64.8151 163.209 64.4922C162.86 64.1693 162.357 64.0078 161.701 64.0078C161.008 64.0078 160.459 64.1589 160.052 64.4609C159.651 64.763 159.38 65.1198 159.24 65.5312L156.599 65.1562C156.807 64.4271 157.151 63.8177 157.63 63.3281C158.11 62.8333 158.695 62.4635 159.388 62.2187C160.081 61.9688 160.847 61.8438 161.685 61.8438C162.263 61.8438 162.839 61.9115 163.412 62.0469C163.985 62.1823 164.508 62.4062 164.982 62.7187C165.456 63.026 165.836 63.4453 166.123 63.9766C166.414 64.5078 166.56 65.1719 166.56 65.9687V74H163.841V72.3516H163.748C163.576 72.6849 163.334 72.9974 163.021 73.2891C162.714 73.5755 162.326 73.8073 161.857 73.9844C161.393 74.1563 160.849 74.2422 160.224 74.2422ZM160.959 72.1641C161.526 72.1641 162.018 72.0521 162.435 71.8281C162.852 71.599 163.172 71.2969 163.396 70.9219C163.625 70.5469 163.74 70.138 163.74 69.6953V68.2812C163.651 68.3542 163.5 68.4219 163.287 68.4844C163.078 68.5469 162.844 68.6016 162.584 68.6484C162.323 68.6953 162.065 68.737 161.81 68.7734C161.555 68.8099 161.334 68.8411 161.146 68.8672C160.724 68.9245 160.347 69.0182 160.013 69.1484C159.68 69.2786 159.417 69.4609 159.224 69.6953C159.031 69.9245 158.935 70.2214 158.935 70.5859C158.935 71.1068 159.125 71.5 159.505 71.7656C159.886 72.0312 160.37 72.1641 160.959 72.1641ZM171.792 66.9687V74H168.964V62H171.667V64.0391H171.808C172.084 63.3672 172.524 62.8333 173.128 62.4375C173.737 62.0417 174.49 61.8438 175.386 61.8438C176.214 61.8438 176.935 62.0208 177.55 62.375C178.17 62.7292 178.649 63.2422 178.987 63.9141C179.331 64.5859 179.5 65.401 179.495 66.3594V74H176.667V66.7969C176.667 65.9948 176.459 65.3672 176.042 64.9141C175.63 64.4609 175.06 64.2344 174.331 64.2344C173.836 64.2344 173.396 64.3437 173.011 64.5625C172.63 64.776 172.331 65.0859 172.112 65.4922C171.899 65.8984 171.792 66.3906 171.792 66.9687ZM185.383 74.2422C184.623 74.2422 183.938 74.1068 183.329 73.8359C182.724 73.5599 182.245 73.1536 181.891 72.6172C181.542 72.0807 181.368 71.4193 181.368 70.6328C181.368 69.9557 181.493 69.3958 181.743 68.9531C181.993 68.5104 182.334 68.1562 182.766 67.8906C183.198 67.625 183.685 67.4245 184.227 67.2891C184.774 67.1484 185.339 67.0469 185.922 66.9844C186.625 66.9115 187.196 66.8464 187.633 66.7891C188.071 66.7266 188.388 66.6328 188.586 66.5078C188.789 66.3776 188.891 66.1771 188.891 65.9062V65.8594C188.891 65.2708 188.717 64.8151 188.368 64.4922C188.019 64.1693 187.516 64.0078 186.86 64.0078C186.167 64.0078 185.618 64.1589 185.211 64.4609C184.81 64.763 184.539 65.1198 184.399 65.5312L181.758 65.1562C181.967 64.4271 182.31 63.8177 182.789 63.3281C183.269 62.8333 183.855 62.4635 184.547 62.2187C185.24 61.9688 186.006 61.8438 186.844 61.8438C187.422 61.8438 187.998 61.9115 188.571 62.0469C189.144 62.1823 189.667 62.4062 190.141 62.7187C190.615 63.026 190.995 63.4453 191.282 63.9766C191.573 64.5078 191.719 65.1719 191.719 65.9687V74H189V72.3516H188.907C188.735 72.6849 188.493 72.9974 188.18 73.2891C187.873 73.5755 187.485 73.8073 187.016 73.9844C186.552 74.1563 186.008 74.2422 185.383 74.2422ZM186.118 72.1641C186.685 72.1641 187.177 72.0521 187.594 71.8281C188.011 71.599 188.331 71.2969 188.555 70.9219C188.784 70.5469 188.899 70.138 188.899 69.6953V68.2812C188.81 68.3542 188.659 68.4219 188.446 68.4844C188.237 68.5469 188.003 68.6016 187.743 68.6484C187.482 68.6953 187.224 68.737 186.969 68.7734C186.714 68.8099 186.493 68.8411 186.305 68.8672C185.883 68.9245 185.506 69.0182 185.172 69.1484C184.839 69.2786 184.576 69.4609 184.383 69.6953C184.19 69.9245 184.094 70.2214 184.094 70.5859C184.094 71.1068 184.284 71.5 184.664 71.7656C185.045 72.0312 185.529 72.1641 186.118 72.1641ZM199.342 78.75C198.326 78.75 197.454 78.612 196.724 78.3359C195.995 78.0651 195.409 77.7005 194.967 77.2422C194.524 76.7839 194.217 76.276 194.045 75.7188L196.592 75.1016C196.706 75.3359 196.873 75.5677 197.092 75.7969C197.31 76.0313 197.605 76.224 197.974 76.375C198.349 76.5313 198.821 76.6094 199.389 76.6094C200.191 76.6094 200.855 76.4141 201.381 76.0234C201.907 75.638 202.17 75.0026 202.17 74.1172V71.8437H202.029C201.883 72.1354 201.67 72.4349 201.389 72.7422C201.112 73.0495 200.745 73.3073 200.287 73.5156C199.834 73.724 199.264 73.8281 198.576 73.8281C197.654 73.8281 196.818 73.612 196.068 73.1797C195.323 72.7422 194.73 72.0911 194.287 71.2266C193.849 70.3568 193.631 69.2682 193.631 67.9609C193.631 66.6432 193.849 65.5312 194.287 64.625C194.73 63.7135 195.326 63.0234 196.076 62.5547C196.826 62.0807 197.662 61.8438 198.584 61.8438C199.287 61.8438 199.865 61.9635 200.318 62.2031C200.777 62.4375 201.141 62.7214 201.412 63.0547C201.683 63.3828 201.889 63.6927 202.029 63.9844H202.185V62H204.974V74.1953C204.974 75.2214 204.73 76.0703 204.24 76.7422C203.75 77.4141 203.081 77.9167 202.232 78.25C201.383 78.5833 200.42 78.75 199.342 78.75ZM199.365 71.6094C199.964 71.6094 200.474 71.4635 200.896 71.1719C201.318 70.8802 201.639 70.4609 201.857 69.9141C202.076 69.3672 202.185 68.7109 202.185 67.9453C202.185 67.1901 202.076 66.5286 201.857 65.9609C201.644 65.3932 201.326 64.9531 200.904 64.6406C200.487 64.3229 199.974 64.1641 199.365 64.1641C198.735 64.1641 198.209 64.3281 197.787 64.6562C197.365 64.9844 197.047 65.4349 196.834 66.0078C196.62 66.5755 196.514 67.2214 196.514 67.9453C196.514 68.6797 196.62 69.3229 196.834 69.875C197.053 70.4219 197.373 70.849 197.795 71.1562C198.222 71.4583 198.745 71.6094 199.365 71.6094ZM212.745 74.2344C211.542 74.2344 210.503 73.9844 209.628 73.4844C208.758 72.9792 208.089 72.2656 207.62 71.3437C207.152 70.4167 206.917 69.3255 206.917 68.0703C206.917 66.8359 207.152 65.7526 207.62 64.8203C208.094 63.8828 208.756 63.1536 209.605 62.6328C210.454 62.1068 211.451 61.8438 212.597 61.8438C213.337 61.8438 214.034 61.9635 214.691 62.2031C215.352 62.4375 215.935 62.8021 216.441 63.2969C216.951 63.7917 217.352 64.4219 217.644 65.1875C217.935 65.9479 218.081 66.8542 218.081 67.9062V68.7734H208.245V66.8672H215.37C215.365 66.3255 215.248 65.8437 215.019 65.4219C214.79 64.9948 214.469 64.6589 214.058 64.4141C213.652 64.1693 213.178 64.0469 212.636 64.0469C212.058 64.0469 211.55 64.1875 211.113 64.4687C210.675 64.7448 210.334 65.1094 210.089 65.5625C209.85 66.0104 209.727 66.5026 209.722 67.0391V68.7031C209.722 69.401 209.85 70 210.105 70.5C210.36 70.9948 210.717 71.375 211.175 71.6406C211.633 71.901 212.17 72.0312 212.784 72.0312C213.196 72.0312 213.568 71.974 213.902 71.8594C214.235 71.7396 214.524 71.5651 214.769 71.3359C215.014 71.1068 215.199 70.8229 215.324 70.4844L217.964 70.7812C217.797 71.4792 217.48 72.0885 217.011 72.6094C216.547 73.125 215.954 73.526 215.23 73.8125C214.506 74.0937 213.678 74.2344 212.745 74.2344ZM220.034 74V62H222.737V64.0391H222.878C223.128 63.3516 223.542 62.8151 224.12 62.4297C224.698 62.0391 225.388 61.8438 226.19 61.8438C227.003 61.8438 227.688 62.0417 228.245 62.4375C228.807 62.8281 229.203 63.362 229.432 64.0391H229.557C229.823 63.3724 230.271 62.8411 230.901 62.4453C231.537 62.0443 232.289 61.8438 233.159 61.8438C234.263 61.8438 235.164 62.1927 235.862 62.8906C236.56 63.5885 236.909 64.6068 236.909 65.9453V74H234.073V66.3828C234.073 65.638 233.875 65.0937 233.479 64.75C233.083 64.401 232.599 64.2266 232.026 64.2266C231.344 64.2266 230.81 64.4401 230.425 64.8672C230.044 65.2891 229.854 65.8385 229.854 66.5156V74H227.081V66.2656C227.081 65.6458 226.893 65.151 226.518 64.7812C226.148 64.4115 225.664 64.2266 225.065 64.2266C224.659 64.2266 224.289 64.3307 223.956 64.5391C223.622 64.7422 223.357 65.0312 223.159 65.4062C222.961 65.776 222.862 66.2083 222.862 66.7031V74H220.034ZM244.651 74.2344C243.447 74.2344 242.408 73.9844 241.533 73.4844C240.664 72.9792 239.994 72.2656 239.526 71.3437C239.057 70.4167 238.822 69.3255 238.822 68.0703C238.822 66.8359 239.057 65.7526 239.526 64.8203C240 63.8828 240.661 63.1536 241.51 62.6328C242.359 62.1068 243.356 61.8438 244.502 61.8438C245.242 61.8438 245.94 61.9635 246.596 62.2031C247.257 62.4375 247.841 62.8021 248.346 63.2969C248.856 63.7917 249.257 64.4219 249.549 65.1875C249.841 65.9479 249.986 66.8542 249.986 67.9062V68.7734H240.151V66.8672H247.276C247.27 66.3255 247.153 65.8437 246.924 65.4219C246.695 64.9948 246.375 64.6589 245.963 64.4141C245.557 64.1693 245.083 64.0469 244.541 64.0469C243.963 64.0469 243.455 64.1875 243.018 64.4687C242.58 64.7448 242.239 65.1094 241.994 65.5625C241.755 66.0104 241.632 66.5026 241.627 67.0391V68.7031C241.627 69.401 241.755 70 242.01 70.5C242.265 70.9948 242.622 71.375 243.08 71.6406C243.539 71.901 244.075 72.0312 244.69 72.0312C245.101 72.0312 245.473 71.974 245.807 71.8594C246.14 71.7396 246.429 71.5651 246.674 71.3359C246.919 71.1068 247.104 70.8229 247.229 70.4844L249.869 70.7812C249.703 71.4792 249.385 72.0885 248.916 72.6094C248.453 73.125 247.859 73.526 247.135 73.8125C246.411 74.0937 245.583 74.2344 244.651 74.2344ZM254.767 66.9687V74H251.939V62H254.642V64.0391H254.783C255.059 63.3672 255.499 62.8333 256.103 62.4375C256.712 62.0417 257.465 61.8438 258.361 61.8438C259.189 61.8438 259.91 62.0208 260.525 62.375C261.145 62.7292 261.624 63.2422 261.962 63.9141C262.306 64.5859 262.476 65.401 262.47 66.3594V74H259.642V66.7969C259.642 65.9948 259.434 65.3672 259.017 64.9141C258.606 64.4609 258.035 64.2344 257.306 64.2344C256.811 64.2344 256.371 64.3437 255.986 64.5625C255.606 64.776 255.306 65.0859 255.087 65.4922C254.874 65.8984 254.767 66.3906 254.767 66.9687ZM270.898 62V64.1875H263.999V62H270.898ZM265.702 59.125H268.53V70.3906C268.53 70.7708 268.588 71.0625 268.702 71.2656C268.822 71.4635 268.978 71.599 269.171 71.6719C269.364 71.7448 269.577 71.7812 269.812 71.7812C269.989 71.7812 270.15 71.7682 270.296 71.7422C270.447 71.7161 270.562 71.6927 270.64 71.6719L271.116 73.8828C270.965 73.9349 270.749 73.9922 270.468 74.0547C270.192 74.1172 269.853 74.1536 269.452 74.1641C268.744 74.1849 268.106 74.0781 267.538 73.8437C266.97 73.6042 266.52 73.2344 266.187 72.7344C265.858 72.2344 265.697 71.6094 265.702 70.8594V59.125ZM60.5781 101V85H70.8281V87.4297H63.4766V91.7734H70.125V94.2031H63.4766V101H60.5781ZM72.9038 101V89H75.7319V101H72.9038ZM74.3256 87.2969C73.8777 87.2969 73.4923 87.1484 73.1694 86.8516C72.8465 86.5495 72.685 86.1875 72.685 85.7656C72.685 85.3385 72.8465 84.9766 73.1694 84.6797C73.4923 84.3776 73.8777 84.2266 74.3256 84.2266C74.7788 84.2266 75.1642 84.3776 75.4819 84.6797C75.8048 84.9766 75.9663 85.3385 75.9663 85.7656C75.9663 86.1875 75.8048 86.5495 75.4819 86.8516C75.1642 87.1484 74.7788 87.2969 74.3256 87.2969ZM78.2001 101V89H80.9423V91H81.0673C81.286 90.3073 81.661 89.7734 82.1923 89.3984C82.7287 89.0182 83.3407 88.8281 84.0282 88.8281C84.1845 88.8281 84.3589 88.8359 84.5516 88.8516C84.7496 88.862 84.9136 88.8802 85.0438 88.9062V91.5078C84.924 91.4661 84.7339 91.4297 84.4735 91.3984C84.2183 91.362 83.9709 91.3437 83.7313 91.3437C83.2157 91.3437 82.7522 91.4557 82.3407 91.6797C81.9345 91.8984 81.6141 92.2031 81.3798 92.5937C81.1454 92.9844 81.0282 93.4349 81.0282 93.9453V101H78.2001ZM86.4827 101V89H89.1859V91.0391H89.3265C89.5765 90.3516 89.9905 89.8151 90.5687 89.4297C91.1468 89.0391 91.8369 88.8438 92.639 88.8438C93.4515 88.8438 94.1364 89.0417 94.6937 89.4375C95.2562 89.8281 95.652 90.362 95.8812 91.0391H96.0062C96.2718 90.3724 96.7197 89.8411 97.3499 89.4453C97.9853 89.0443 98.7379 88.8438 99.6077 88.8438C100.712 88.8438 101.613 89.1927 102.311 89.8906C103.009 90.5885 103.358 91.6068 103.358 92.9453V101H100.522V93.3828C100.522 92.638 100.324 92.0937 99.928 91.75C99.5322 91.401 99.0478 91.2266 98.4749 91.2266C97.7926 91.2266 97.2588 91.4401 96.8734 91.8672C96.4932 92.2891 96.303 92.8385 96.303 93.5156V101H93.5296V93.2656C93.5296 92.6458 93.3421 92.151 92.9671 91.7812C92.5973 91.4115 92.1129 91.2266 91.514 91.2266C91.1077 91.2266 90.7379 91.3307 90.4046 91.5391C90.0713 91.7422 89.8057 92.0312 89.6077 92.4062C89.4098 92.776 89.3109 93.2083 89.3109 93.7031V101H86.4827ZM115.271 92.1719L112.693 92.4531C112.62 92.1927 112.493 91.9479 112.31 91.7188C112.133 91.4896 111.894 91.3047 111.592 91.1641C111.289 91.0234 110.92 90.9531 110.482 90.9531C109.894 90.9531 109.399 91.0807 108.998 91.3359C108.602 91.5911 108.407 91.9219 108.412 92.3281C108.407 92.6771 108.534 92.9609 108.795 93.1797C109.06 93.3984 109.498 93.5781 110.107 93.7188L112.154 94.1562C113.289 94.401 114.133 94.7891 114.685 95.3203C115.243 95.8516 115.524 96.5469 115.529 97.4062C115.524 98.1615 115.303 98.8281 114.865 99.4062C114.433 99.9792 113.831 100.427 113.06 100.75C112.289 101.073 111.404 101.234 110.404 101.234C108.935 101.234 107.753 100.927 106.857 100.312C105.961 99.6927 105.428 98.8307 105.256 97.7266L108.013 97.4609C108.138 98.0026 108.404 98.4115 108.81 98.6875C109.217 98.9635 109.745 99.1016 110.396 99.1016C111.068 99.1016 111.607 98.9635 112.013 98.6875C112.425 98.4115 112.631 98.0703 112.631 97.6641C112.631 97.3203 112.498 97.0365 112.232 96.8125C111.972 96.5885 111.566 96.4167 111.013 96.2969L108.967 95.8672C107.816 95.6276 106.964 95.224 106.412 94.6562C105.86 94.0833 105.586 93.3594 105.592 92.4844C105.586 91.7448 105.787 91.1042 106.193 90.5625C106.605 90.0156 107.175 89.5937 107.904 89.2969C108.638 88.9948 109.485 88.8438 110.443 88.8438C111.849 88.8438 112.956 89.1432 113.763 89.7422C114.576 90.3411 115.079 91.151 115.271 92.1719Z" fill="#2B70C5"/>
<path d="M69.4898 241C67.481 241 65.5174 241.596 63.8472 242.712C62.1771 243.828 60.8753 245.414 60.1066 247.27C59.3379 249.125 59.1368 251.168 59.5287 253.138C59.9205 255.108 60.8878 256.917 62.3082 258.338C63.7286 259.758 65.5382 260.725 67.5084 261.117C69.4785 261.509 71.5206 261.308 73.3764 260.539C75.2322 259.771 76.8184 258.469 77.9344 256.799C79.0504 255.129 79.646 253.165 79.646 251.156C79.6432 248.464 78.5722 245.882 76.6682 243.978C74.7641 242.074 72.1825 241.003 69.4898 241ZM73.9487 251.709L70.8237 254.834C70.6771 254.981 70.4783 255.063 70.271 255.063C70.0637 255.063 69.8649 254.981 69.7183 254.834C69.5717 254.687 69.4893 254.489 69.4893 254.281C69.4893 254.074 69.5717 253.875 69.7183 253.729L71.5103 251.938H65.5835C65.3763 251.938 65.1776 251.855 65.0311 251.709C64.8846 251.562 64.8023 251.363 64.8023 251.156C64.8023 250.949 64.8846 250.75 65.0311 250.604C65.1776 250.457 65.3763 250.375 65.5835 250.375H71.5103L69.7183 248.584C69.5717 248.437 69.4893 248.239 69.4893 248.031C69.4893 247.824 69.5717 247.625 69.7183 247.479C69.8649 247.332 70.0637 247.25 70.271 247.25C70.4783 247.25 70.6771 247.332 70.8237 247.479L73.9487 250.604C74.0214 250.676 74.079 250.762 74.1183 250.857C74.1576 250.952 74.1779 251.054 74.1779 251.156C74.1779 251.259 74.1576 251.361 74.1183 251.455C74.079 251.55 74.0214 251.636 73.9487 251.709Z" fill="#00CC8F"/>
<path d="M292.2 138.64C292.398 138.841 292.398 139.172 292.189 139.38L256.585 174.808C256.244 175.147 255.663 174.906 255.663 174.425V122.833C255.663 122.524 255.919 122.286 256.214 122.304C269.83 123.114 282.659 128.938 292.2 138.64Z" stroke="#303236" stroke-width="1.0809"/>
<path d="M256.823 196.832L301.584 152.149C312.685 164.433 318.995 180.292 319.362 196.832H256.823ZM255.898 197.755L255.899 197.754C255.898 197.754 255.898 197.754 255.898 197.755L255.516 197.372L255.898 197.755Z" fill="#2B70C5" stroke="#2B70C5" stroke-width="3.2427"/>
<path d="M316.086 220.267C316.15 219.953 316.212 219.639 316.27 219.321C316.956 215.67 317.33 211.967 317.388 208.253C317.398 207.656 316.913 207.173 316.316 207.173H255.62C255.023 207.173 254.54 207.657 254.54 208.254V271.442C254.54 272.055 255.049 272.546 255.661 272.512L316.086 220.267ZM316.086 220.267C314.668 227.254 312.109 233.961 308.511 240.116L316.086 220.267ZM315.739 219.222L315.739 219.224C315.681 219.537 315.62 219.847 315.556 220.157L315.556 220.159C314.15 227.089 311.612 233.739 308.044 239.844L308.043 239.846C307.855 240.171 307.66 240.497 307.464 240.818L307.464 240.818C307.457 240.83 307.45 240.843 307.443 240.856C303.93 246.629 299.539 251.82 294.429 256.242L294.427 256.244C294.173 256.466 293.92 256.683 293.665 256.897L293.664 256.898C282.946 265.915 269.597 271.2 255.631 271.972C255.335 271.989 255.08 271.751 255.08 271.442V208.254C255.08 207.955 255.322 207.713 255.62 207.713H316.316C316.617 207.713 316.853 207.955 316.848 208.244C316.79 211.928 316.419 215.6 315.739 219.222ZM307.463 240.823L307.462 240.824L307.463 240.823Z" stroke="#303236" stroke-width="1.0809"/>
<path d="M242.635 221.737V263.846C242.527 263.847 242.418 263.847 242.31 263.847L242.308 263.847C230.746 263.862 219.607 259.779 210.972 252.413L242.635 221.737Z" fill="#2B70C5" stroke="#2B70C5" stroke-width="3.2427"/>
<path d="M242.11 196.887H176.168C176.745 161.836 205.34 133.598 240.529 133.598C241.056 133.598 241.583 133.607 242.11 133.621V196.887Z" stroke="#E5E5E5" stroke-width="2.1618"/>
<path d="M221.024 223.169L221.021 223.173L207.395 236.795L207.395 236.795L206.877 237.313L206.877 237.313L192.156 252.034L192.156 252.034L191.639 252.551L191.639 252.551C191.621 252.569 191.604 252.587 191.588 252.606L183.913 260.277C177.019 253.586 171.51 245.597 167.706 236.768C163.906 227.947 161.885 218.467 161.754 208.871H235.322L221.543 222.651L221.543 222.651L221.035 223.158L221.032 223.162L221.024 223.169Z" stroke="#E5E5E5" stroke-width="2.1618"/>
</g>
<rect x="31" y="20" width="318.667" height="278" rx="16" stroke="#1566D6" stroke-opacity="0.24" stroke-width="2" shape-rendering="crispEdges"/>
</g>
<defs>
<filter id="filter0_d_1325_42618" x="0" y="-11" width="392.667" height="352" filterUnits="userSpaceOnUse" color-interpolation-filters="sRGB">
<feFlood flood-opacity="0" result="BackgroundImageFix"/>
<feColorMatrix in="SourceAlpha" type="matrix" values="0 0 0 0 0 0 0 0 0 0 0 0 0 0 0 0 0 0 127 0" result="hardAlpha"/>
<feOffset dx="6" dy="6"/>
<feGaussianBlur stdDeviation="18"/>
<feComposite in2="hardAlpha" operator="out"/>
<feColorMatrix type="matrix" values="0 0 0 0 0.0823529 0 0 0 0 0.4 0 0 0 0 0.839216 0 0 0 0.1 0"/>
<feBlend mode="normal" in2="BackgroundImageFix" result="effect1_dropShadow_1325_42618"/>
<feBlend mode="normal" in="SourceGraphic" in2="effect1_dropShadow_1325_42618" result="shape"/>
</filter>
<clipPath id="clip0_1325_42618">
<rect x="31" y="20" width="318.667" height="278" rx="16" fill="white"/>
</clipPath>
</defs>
</svg>
