<svg width="127" height="18" viewBox="0 0 127 18" fill="none" xmlns="http://www.w3.org/2000/svg">
<g id="Group 3375761">
<path id="Vector" fill-rule="evenodd" clip-rule="evenodd" d="M13.8161 4.83057C14.7405 6.11532 15.507 7.55847 16.101 9.11457V0.884521H9.58153C11.1498 1.79285 12.5866 3.1217 13.8161 4.83057ZM4.41734 1.76135C3.20961 1.76135 2.04786 2.0381 0.959778 2.5502V17.1156H15.4346C15.3225 8.62092 10.4234 1.76135 4.41734 1.76135Z" fill="#387ED1"/>
<path id="Vector_2" d="M24.56 14.4369L32.6478 3.94062H24.8142V1.65237H35.7811V3.56262L27.6933 14.0591H35.7811V16.3471H24.56V14.4369ZM38.7966 1.65237H48.9409V3.98247H41.1858V7.76112H48.06V10.0914H41.1858V14.0168H49.0385V16.3469H38.7966V1.65237ZM51.9174 1.65237H58.0274C58.889 1.65237 59.6528 1.78197 60.3188 2.04072C60.9848 2.29947 61.5391 2.65992 61.9832 3.12185C62.3487 3.52797 62.6297 3.99665 62.8255 4.52832C63.0214 5.06 63.119 5.64815 63.119 6.29165V6.33372C63.119 6.9356 63.0375 7.47785 62.8744 7.9607C62.7114 8.44355 62.4855 8.8706 62.1986 9.24117C61.9117 9.61175 61.5687 9.92719 61.1705 10.1857C60.7724 10.4442 60.3316 10.6443 59.8488 10.784L63.5499 16.3471H60.7102L57.3316 11.225H57.2926H54.3064V16.3471H51.9172V1.65237H51.9174ZM57.8429 8.93675C58.7066 8.93675 59.3946 8.7158 59.9049 8.27277C60.4151 7.82975 60.6714 7.229 60.6714 6.47007V6.428C60.6714 5.627 60.4221 5.01882 59.9244 4.60415C59.4267 4.18947 58.7261 3.98225 57.8225 3.98225H54.3064V8.93652H57.8429V8.93675ZM72.617 16.5991C71.5594 16.5991 70.5934 16.3998 69.719 16.0011C68.8446 15.6024 68.0936 15.0601 67.4669 14.3739C66.8401 13.6876 66.3507 12.8873 65.9985 11.9704C65.6463 11.0535 65.4693 10.0775 65.4693 9.04182V8.99975C65.4693 7.96407 65.6456 6.98802 65.9985 6.07115C66.3513 5.15427 66.8467 4.34967 67.4866 3.6569C68.1266 2.96412 68.8832 2.4149 69.7585 2.009C70.6337 1.6031 71.5988 1.40015 72.6565 1.40015C73.7141 1.40015 74.68 1.5995 75.5549 1.99842C76.4297 2.39735 77.1803 2.93982 77.807 3.6254C78.4338 4.31097 78.9228 5.11242 79.2754 6.02907C79.6281 6.94572 79.8046 7.922 79.8046 8.95745V8.99952C79.8046 10.0354 79.6283 11.0117 79.2754 11.9279C78.9226 12.8441 78.4268 13.6494 77.7873 14.3421C77.1478 15.0349 76.3903 15.5844 75.5154 15.99C74.6406 16.3957 73.6747 16.5991 72.617 16.5991ZM72.6563 14.2269C73.3323 14.2269 73.953 14.0906 74.5182 13.8177C75.0835 13.5447 75.5681 13.1742 75.9711 12.7053C76.3741 12.2364 76.6894 11.6869 76.9169 11.0571C77.1444 10.4274 77.2579 9.75552 77.2579 9.04205V8.99997C77.2579 8.28627 77.1444 7.61105 76.9169 6.97407C76.6894 6.3371 76.3703 5.78472 75.9612 5.31582C75.5522 4.84692 75.061 4.47275 74.4886 4.19262C73.9163 3.9125 73.2929 3.77277 72.6168 3.77277C71.9407 3.77277 71.3201 3.90912 70.7549 4.18205C70.1896 4.45497 69.705 4.826 69.302 5.29467C68.899 5.76335 68.5837 6.3128 68.3558 6.94257C68.1278 7.57235 68.0147 8.2442 68.0147 8.9579V8.99997C68.0147 9.71367 68.1283 10.3889 68.3558 11.0254C68.5833 11.6619 68.9023 12.2154 69.3118 12.6841C69.7213 13.1528 70.2121 13.5274 70.784 13.8071C71.356 14.0868 71.9802 14.2269 72.6563 14.2269ZM82.7217 1.65237H87.8334C88.9038 1.65237 89.8859 1.838 90.7809 2.2088C91.6759 2.5796 92.4449 3.09395 93.0914 3.75162C93.7379 4.4093 94.2368 5.18285 94.5898 6.0716C94.9429 6.96035 95.1187 7.92267 95.1187 8.95812V9.0002C95.1187 10.0361 94.9424 11.0018 94.5898 11.8971C94.2372 12.7923 93.7379 13.5699 93.0914 14.2272C92.4449 14.8844 91.675 15.403 90.7809 15.7806C89.8868 16.1581 88.9038 16.3473 87.8334 16.3473H82.7217V1.65237ZM87.8136 14.017C88.5315 14.017 89.1845 13.8944 89.7719 13.6482C90.3594 13.4021 90.8592 13.0583 91.27 12.6157C91.6807 12.1731 92.0008 11.6455 92.2296 11.034C92.4584 10.4224 92.5728 9.75889 92.5728 9.04182V8.99975C92.5728 8.2829 92.4579 7.61555 92.2296 6.99725C92.0012 6.37895 91.6811 5.8484 91.27 5.4056C90.8588 4.9628 90.3594 4.61495 89.7719 4.36182C89.1845 4.1087 88.5315 3.98225 87.8136 3.98225H85.1109V14.0168H87.8136V14.017ZM98.036 1.65237H100.425V7.76135H107.006V1.65237H109.395V16.3473H107.006V10.1544H100.425V16.3471H98.036V1.65237ZM117.776 1.5473H120.009L126.04 16.3471H123.495L122.104 12.7993H115.622L114.212 16.3471H111.744L117.776 1.5473ZM121.223 10.5115L118.853 4.6334L116.503 10.5115H121.223Z" fill="#387ED1"/>
</g>
</svg>
